<svg xmlns="http://www.w3.org/2000/svg" xmlns:xlink="http://www.w3.org/1999/xlink" version="1.1" width="355" height="73" viewBox="0 0 355 73">
<defs>
<path id="font_1_2" d="M.2939911 .64004519C.2939911 .66400149 .2939911 .6660156 .2709961 .6660156 .20899964 .60227969 .12098694 .60227969 .08898926 .60227969V.57128909C.10899353 .57128909 .16799927 .57128909 .21998596 .5972748V.07902527C.21998596 .042999269 .21699524 .0309906 .1269989 .0309906H.09498596V0C.12998963 .0029907227 .21699524 .0029907227 .25698854 .0029907227 .29699708 .0029907227 .38398744 .0029907227 .4189911 0V.0309906H.3869934C.29699708 .0309906 .2939911 .041992189 .2939911 .07902527V.64004519Z"/>
<path id="font_1_4" d="M.2899933 .35191346C.37199403 .37893678 .42999269 .4490509 .42999269 .52809146 .42999269 .6100464 .34199525 .6660156 .24598694 .6660156 .14498902 .6660156 .068984989 .60606387 .068984989 .53009036 .068984989 .49710084 .09098816 .47808839 .11999512 .47808839 .15098572 .47808839 .17098999 .50009158 .17098999 .5290985 .17098999 .57910159 .12399292 .57910159 .10899353 .57910159 .13999939 .62802127 .20599365 .64100649 .24198914 .64100649 .2829895 .64100649 .33799745 .6190338 .33799745 .5290985 .33799745 .51708987 .33599855 .45906068 .30999757 .4149933 .27999879 .36691285 .24598694 .36390687 .22099304 .36291505 .21299744 .36190797 .18899536 .35990907 .18199158 .35990907 .17399597 .35890199 .16699219 .35791017 .16699219 .3479004 .16699219 .33691407 .17399597 .33691407 .19099427 .33691407H.23498535C.31698609 .33691407 .35398866 .2686615 .35398866 .17037964 .35398866 .034469606 .2849884 .0055389406 .24099732 .0055389406 .19799805 .0055389406 .12298584 .022491456 .08799744 .08137512 .12298584 .07637024 .1539917 .09837341 .1539917 .1363678 .1539917 .17237854 .1269989 .19238281 .09799194 .19238281 .07398987 .19238281 .041992189 .17837525 .041992189 .1343689 .041992189 .043441774 .1349945-.022460938 .24398804-.022460938 .3659973-.022460938 .45700074 .06838989 .45700074 .17037964 .45700074 .252594 .3939972 .33088685 .2899933 .35191346Z"/>
<path id="font_1_1" d="M.40899659 .23046875H.6879883C.70199587 .23046875 .72099307 .23046875 .72099307 .25045777 .72099307 .27046205 .70199587 .27046205 .6879883 .27046205H.40899659V.5500183C.40899659 .56399539 .40899659 .5830078 .3889923 .5830078 .36898805 .5830078 .36898805 .56399539 .36898805 .5500183V.27046205H.08898926C.07499695 .27046205 .055999757 .27046205 .055999757 .25045777 .055999757 .23046875 .07499695 .23046875 .08898926 .23046875H.36898805V-.05000305C.36898805-.06401062 .36898805-.08300781 .3889923-.08300781 .40899659-.08300781 .40899659-.06401062 .40899659-.05000305V.23046875Z"/>
<path id="font_1_5" d="M.2939911 .16503906V.07800293C.2939911 .041992189 .2919922 .0309906 .21798706 .0309906H.19699097V0C.23799134 .0029907227 .2899933 .0029907227 .33198548 .0029907227 .37399293 .0029907227 .4269867 .0029907227 .46798707 0V.0309906H.44699098C.37298585 .0309906 .37098695 .041992189 .37098695 .07800293V.16503906H.47099305V.19602967H.37098695V.65075686C.37098695 .67074587 .37098695 .6767578 .35499574 .6767578 .34599305 .6767578 .34298707 .6767578 .33499146 .66474917L.027999878 .19602967V.16503906H.2939911M.2999878 .19602967H.055999757L.2999878 .5688019V.19602967Z"/>
<path id="font_1_7" d="M.68699648 .32714845C.70199587 .32714845 .72099307 .32714845 .72099307 .34713746 .72099307 .36714173 .70199587 .36714173 .6879883 .36714173H.08898926C.07499695 .36714173 .055999757 .36714173 .055999757 .34713746 .055999757 .32714845 .07499695 .32714845 .08999634 .32714845H.68699648M.6879883 .13284302C.70199587 .13284302 .72099307 .13284302 .72099307 .15284729 .72099307 .17285156 .70199587 .17285156 .68699648 .17285156H.08999634C.07499695 .17285156 .055999757 .17285156 .055999757 .15284729 .055999757 .13284302 .07499695 .13284302 .08898926 .13284302H.6879883Z"/>
<path id="font_1_3" d="M.1269989 .07699585 .23298645 .18003845C.3889923 .31811524 .44898988 .3721466 .44898988 .47216798 .44898988 .5860901 .35899354 .6660156 .23699951 .6660156 .12399292 .6660156 .049987794 .57411196 .049987794 .48516847 .049987794 .4291687 .099990848 .4291687 .102996829 .4291687 .11999512 .4291687 .15499878 .44117738 .15499878 .48217774 .15499878 .5081787 .13699341 .5341797 .101989749 .5341797 .09399414 .5341797 .09199524 .5341797 .08898926 .5331726 .11199951 .59806826 .1659851 .63500979 .22399903 .63500979 .31498719 .63500979 .35798646 .5541382 .35798646 .47216798 .35798646 .39215089 .30799867 .31311036 .25299073 .25108338L.06098938 .036987306C.049987794 .025985718 .049987794 .023986817 .049987794 0H.42099L.44898988 .17404175H.42399598C.4189911 .14402771 .4119873 .1000061 .4019928 .084991458 .394989 .07699585 .32899476 .07699585 .30699159 .07699585H.1269989Z"/>
<path id="font_1_6" d="M.36698915 .31781007V.28579713C.36698915 .05178833 .2630005 .0055389406 .20498657 .0055389406 .18798828 .0055389406 .13398743 .007537842 .10699463 .041778566 .15098572 .041778566 .15899658 .07078552 .15899658 .08778381 .15899658 .118774417 .1349945 .13378906 .11299133 .13378906 .09700012 .13378906 .066986087 .12478638 .066986087 .08578491 .066986087 .018615723 .12098694-.022460938 .20599365-.022460938 .33499146-.022460938 .45700074 .11378479 .45700074 .32881166 .45700074 .5979767 .34199525 .6660156 .25299073 .6660156 .19799805 .6660156 .14898682 .64801028 .10598755 .60298159 .06498718 .5579529 .041992189 .5159302 .041992189 .44088746 .041992189 .31581117 .12998963 .21777344 .24198914 .21777344 .30299378 .21777344 .34399415 .25978089 .36698915 .31781007M.24299622 .24076844C.22698975 .24076844 .18099976 .24076844 .1499939 .3038025 .13198853 .3408203 .13198853 .39085389 .13198853 .43988038 .13198853 .49391175 .13198853 .54093936 .15299988 .5779724 .17999268 .6279907 .21798706 .64100649 .25299073 .64100649 .29899598 .64100649 .33198548 .60697939 .34899903 .5619507 .36099244 .52993777 .36499024 .4669037 .36499024 .42086793 .36499024 .3378296 .33099366 .24076844 .24299622 .24076844Z"/>
</defs>
<path transform="matrix(1.00005,0,0,-1.00003,24.774285,24.477255)" d="M0 22.67752C-12.5246 22.67752-22.67752 12.5246-22.67752 0-22.67752-3.97969-21.62903-7.89229-19.63936-11.33876L0 0Z" fill="#fff200"/>
<path transform="matrix(1.00005,0,0,-1.00003,24.774285,24.477255)" stroke-width=".3985" stroke-linecap="butt" stroke-miterlimit="10" stroke-linejoin="miter" fill="none" stroke="#fff200" d="M0 22.67752C-12.5246 22.67752-22.67752 12.5246-22.67752 0-22.67752-3.97969-21.62903-7.89229-19.63936-11.33876L0 0Z"/>
<path transform="matrix(1.00005,0,0,-1.00003,24.774285,24.477255)" stroke-width=".3985" stroke-linecap="butt" stroke-miterlimit="10" stroke-linejoin="miter" fill="none" stroke="#000000" d="M22.67752 0C22.67752 12.5246 12.5246 22.67752 0 22.67752-12.5246 22.67752-22.67752 12.5246-22.67752 0-22.67752-12.5246-12.5246-22.67752 0-22.67752 12.5246-22.67752 22.67752-12.5246 22.67752 0ZM0 0"/>
<use data-text="1" xlink:href="#font_1_2" transform="matrix(9.963098,0,0,-9.962899,22.42717,57.185239)" fill="#0000ff"/>
<path transform="matrix(1.00005,0,0,-1.00003,-84.54717,55.446187)" stroke-width=".3985" stroke-linecap="butt" stroke-miterlimit="10" stroke-linejoin="miter" fill="none" stroke="#0000ff" d="M106.969-5.988H111.95"/>
<use data-text="3" xlink:href="#font_1_4" transform="matrix(9.963098,0,0,-9.962899,22.42717,70.75964)" fill="#0000ff"/>
<path transform="matrix(1.00005,0,0,-1.00003,24.774285,24.477255)" stroke-width=".3985" stroke-linecap="butt" stroke-miterlimit="10" stroke-linejoin="miter" fill="none" stroke="#000000" d="M0 0V22.67752"/>
<path transform="matrix(1.00005,0,0,-1.00003,24.774285,24.477255)" stroke-width=".3985" stroke-linecap="butt" stroke-miterlimit="10" stroke-linejoin="miter" fill="none" stroke="#000000" d="M0 0-19.63936-11.33876"/>
<path transform="matrix(1.00005,0,0,-1.00003,24.774285,24.477255)" stroke-width=".3985" stroke-linecap="butt" stroke-miterlimit="10" stroke-linejoin="miter" fill="none" stroke="#000000" d="M0 0 19.63936-11.33876"/>
<use data-text="+" xlink:href="#font_1_1" transform="matrix(9.963098,0,0,-9.962899,50.713579,28.208367)" fill="#0000ff"/>
<use data-text="+" xlink:href="#font_1_1" transform="matrix(9.963098,0,0,-9.962899,50.713579,66.76153)" fill="#0000ff"/>
<path transform="matrix(1.00005,0,0,-1.00003,24.774285,24.477255)" d="M38.55492 0C38.55492-12.5246 48.70782-22.67752 61.23244-22.67752 73.75705-22.67752 83.90996-12.5246 83.90996 0 83.90996 12.5246 73.75705 22.67752 61.23244 22.67752L61.23245 0Z" fill="#00ff00"/>
<path transform="matrix(1.00005,0,0,-1.00003,24.774285,24.477255)" stroke-width=".3985" stroke-linecap="butt" stroke-miterlimit="10" stroke-linejoin="miter" fill="none" stroke="#00ff00" d="M38.55492 0C38.55492-12.5246 48.70782-22.67752 61.23244-22.67752 73.75705-22.67752 83.90996-12.5246 83.90996 0 83.90996 12.5246 73.75705 22.67752 61.23244 22.67752L61.23245 0Z"/>
<use data-text="3" xlink:href="#font_1_4" transform="matrix(9.963098,0,0,-9.962899,81.39111,57.185239)" fill="#0000ff"/>
<path transform="matrix(1.00005,0,0,-1.00003,-25.58323,55.446187)" stroke-width=".3985" stroke-linecap="butt" stroke-miterlimit="10" stroke-linejoin="miter" fill="none" stroke="#0000ff" d="M106.969-5.988H111.95"/>
<use data-text="4" xlink:href="#font_1_5" transform="matrix(9.963098,0,0,-9.962899,81.39111,70.75964)" fill="#0000ff"/>
<path transform="matrix(1.00005,0,0,-1.00003,24.774285,24.477255)" stroke-width=".3985" stroke-linecap="butt" stroke-miterlimit="10" stroke-linejoin="miter" fill="none" stroke="#000000" d="M83.90997 0C83.90997 12.5246 73.75706 22.67752 61.23245 22.67752 48.70784 22.67752 38.55493 12.5246 38.55493 0 38.55493-12.5246 48.70784-22.67752 61.23245-22.67752 73.75706-22.67752 83.90997-12.5246 83.90997 0ZM61.23245 0"/>
<path transform="matrix(1.00005,0,0,-1.00003,24.774285,24.477255)" stroke-width=".3985" stroke-linecap="butt" stroke-miterlimit="10" stroke-linejoin="miter" fill="none" stroke="#000000" d="M38.55492 0H83.90999"/>
<path transform="matrix(1.00005,0,0,-1.00003,24.774285,24.477255)" stroke-width=".3985" stroke-linecap="butt" stroke-miterlimit="10" stroke-linejoin="miter" fill="none" stroke="#000000" d="M61.23245-22.67752V22.67752"/>
<use data-text="=" xlink:href="#font_1_7" transform="matrix(9.963098,0,0,-9.962899,112.44467,29.398404)" fill="#0000ff"/>
<use data-text="=" xlink:href="#font_1_7" transform="matrix(9.963098,0,0,-9.962899,112.44467,66.81753)" fill="#0000ff"/>
<path transform="matrix(1.00005,0,0,-1.00003,24.774285,24.477255)" d="M124.73297 22.67752C112.20836 22.67752 102.05545 12.5246 102.05545 0 102.05545-3.97969 103.10393-7.89229 105.09361-11.33876L124.73297 0Z" fill="#fff200"/>
<path transform="matrix(1.00005,0,0,-1.00003,24.774285,24.477255)" stroke-width=".3985" stroke-linecap="butt" stroke-miterlimit="10" stroke-linejoin="miter" fill="none" stroke="#fff200" d="M124.73297 22.67752C112.20836 22.67752 102.05545 12.5246 102.05545 0 102.05545-3.97969 103.10393-7.89229 105.09361-11.33876L124.73297 0Z"/>
<path transform="matrix(1.00005,0,0,-1.00003,24.774285,24.477255)" stroke-width=".3985" stroke-linecap="butt" stroke-miterlimit="10" stroke-linejoin="miter" fill="none" stroke="#000000" d="M147.41049 0C147.41049 12.5246 137.25757 22.67752 124.73297 22.67752 112.20836 22.67752 102.05545 12.5246 102.05545 0 102.05545-12.5246 112.20836-22.67752 124.73297-22.67752 137.25757-22.67752 147.41049-12.5246 147.41049 0ZM124.73297 0"/>
<use data-text="4" xlink:href="#font_1_5" transform="matrix(9.963098,0,0,-9.962899,147.38141,57.185239)" fill="#0000ff"/>
<path transform="matrix(1.00005,0,0,-1.00003,37.916948,55.446187)" stroke-width=".3985" stroke-linecap="butt" stroke-miterlimit="10" stroke-linejoin="miter" fill="none" stroke="#0000ff" d="M106.969-5.988H116.931"/>
<use data-text="1" xlink:href="#font_1_2" transform="matrix(9.963098,0,0,-9.962899,144.8913,70.75964)" fill="#0000ff"/>
<use data-text="2" xlink:href="#font_1_3" transform="matrix(9.963098,0,0,-9.962899,149.87284,70.75964)" fill="#0000ff"/>
<path transform="matrix(1.00005,0,0,-1.00003,24.774285,24.477255)" stroke-width=".3985" stroke-linecap="butt" stroke-miterlimit="10" stroke-linejoin="miter" fill="none" stroke="#000000" d="M102.05544 0H147.4105"/>
<path transform="matrix(1.00005,0,0,-1.00003,24.774285,24.477255)" stroke-width=".3985" stroke-linecap="butt" stroke-miterlimit="10" stroke-linejoin="miter" fill="none" stroke="#000000" d="M124.73297-22.67752V22.67752"/>
<path transform="matrix(1.00005,0,0,-1.00003,24.774285,24.477255)" stroke-width=".3985" stroke-linecap="butt" stroke-miterlimit="10" stroke-linejoin="miter" fill="none" stroke="#000000" d="M144.37235 11.33876 124.73297 0 105.09361-11.33876"/>
<path transform="matrix(1.00005,0,0,-1.00003,24.774285,24.477255)" stroke-width=".3985" stroke-linecap="butt" stroke-miterlimit="10" stroke-linejoin="miter" fill="none" stroke="#000000" d="M136.07173 19.63936 124.73297 0 113.39421-19.63936"/>
<path transform="matrix(1.00005,0,0,-1.00003,24.774285,24.477255)" stroke-width=".3985" stroke-linecap="butt" stroke-miterlimit="10" stroke-linejoin="miter" fill="none" stroke="#000000" d="M113.39421 19.63936 124.73297 0 136.07173-19.63936"/>
<path transform="matrix(1.00005,0,0,-1.00003,24.774285,24.477255)" stroke-width=".3985" stroke-linecap="butt" stroke-miterlimit="10" stroke-linejoin="miter" fill="none" stroke="#000000" d="M105.09361 11.33876 124.73297 0 144.37235-11.33876"/>
<use data-text="+" xlink:href="#font_1_1" transform="matrix(9.963098,0,0,-9.962899,175.4458,28.208367)" fill="#0000ff"/>
<use data-text="+" xlink:href="#font_1_1" transform="matrix(9.963098,0,0,-9.962899,175.4458,66.76153)" fill="#0000ff"/>
<path transform="matrix(1.00005,0,0,-1.00003,24.774285,24.477255)" d="M165.55596 0C165.55596-12.5246 175.70886-22.67752 188.23348-22.67752 200.75807-22.67752 210.911-12.5246 210.911 0 210.911 12.5246 200.75807 22.67752 188.23348 22.67752L188.23349 0Z" fill="#00ff00"/>
<path transform="matrix(1.00005,0,0,-1.00003,24.774285,24.477255)" stroke-width=".3985" stroke-linecap="butt" stroke-miterlimit="10" stroke-linejoin="miter" fill="none" stroke="#00ff00" d="M165.55596 0C165.55596-12.5246 175.70886-22.67752 188.23348-22.67752 200.75807-22.67752 210.911-12.5246 210.911 0 210.911 12.5246 200.75807 22.67752 188.23348 22.67752L188.23349 0Z"/>
<path transform="matrix(1.00005,0,0,-1.00003,24.774285,24.477255)" stroke-width=".3985" stroke-linecap="butt" stroke-miterlimit="10" stroke-linejoin="miter" fill="none" stroke="#000000" d="M210.91101 0C210.91101 12.5246 200.75809 22.67752 188.23349 22.67752 175.70888 22.67752 165.55597 12.5246 165.55597 0 165.55597-12.5246 175.70888-22.67752 188.23349-22.67752 200.75809-22.67752 210.91101-12.5246 210.91101 0ZM188.23349 0"/>
<use data-text="9" xlink:href="#font_1_6" transform="matrix(9.963098,0,0,-9.962899,213.14969,57.185239)" fill="#0000ff"/>
<path transform="matrix(1.00005,0,0,-1.00003,103.68523,55.446187)" stroke-width=".3985" stroke-linecap="butt" stroke-miterlimit="10" stroke-linejoin="miter" fill="none" stroke="#0000ff" d="M106.969-5.988H116.931"/>
<use data-text="1" xlink:href="#font_1_2" transform="matrix(9.963098,0,0,-9.962899,210.65958,70.75964)" fill="#0000ff"/>
<use data-text="2" xlink:href="#font_1_3" transform="matrix(9.963098,0,0,-9.962899,215.64112,70.75964)" fill="#0000ff"/>
<path transform="matrix(1.00005,0,0,-1.00003,24.774285,24.477255)" stroke-width=".3985" stroke-linecap="butt" stroke-miterlimit="10" stroke-linejoin="miter" fill="none" stroke="#000000" d="M165.55596 0H210.91103"/>
<path transform="matrix(1.00005,0,0,-1.00003,24.774285,24.477255)" stroke-width=".3985" stroke-linecap="butt" stroke-miterlimit="10" stroke-linejoin="miter" fill="none" stroke="#000000" d="M188.23349-22.67752V22.67752"/>
<path transform="matrix(1.00005,0,0,-1.00003,24.774285,24.477255)" stroke-width=".3985" stroke-linecap="butt" stroke-miterlimit="10" stroke-linejoin="miter" fill="none" stroke="#000000" d="M207.87285 11.33876 188.23349 0 168.59412-11.33876"/>
<path transform="matrix(1.00005,0,0,-1.00003,24.774285,24.477255)" stroke-width=".3985" stroke-linecap="butt" stroke-miterlimit="10" stroke-linejoin="miter" fill="none" stroke="#000000" d="M199.57225 19.63936 188.23349 0 176.89473-19.63936"/>
<path transform="matrix(1.00005,0,0,-1.00003,24.774285,24.477255)" stroke-width=".3985" stroke-linecap="butt" stroke-miterlimit="10" stroke-linejoin="miter" fill="none" stroke="#000000" d="M176.89473 19.63936 188.23349 0 199.57225-19.63936"/>
<path transform="matrix(1.00005,0,0,-1.00003,24.774285,24.477255)" stroke-width=".3985" stroke-linecap="butt" stroke-miterlimit="10" stroke-linejoin="miter" fill="none" stroke="#000000" d="M168.59412 11.33876 188.23349 0 207.87285-11.33876"/>
<use data-text="=" xlink:href="#font_1_7" transform="matrix(9.963098,0,0,-9.962899,240.57906,29.398404)" fill="#0000ff"/>
<use data-text="=" xlink:href="#font_1_7" transform="matrix(9.963098,0,0,-9.962899,240.57906,66.81753)" fill="#0000ff"/>
<path transform="matrix(1.00005,0,0,-1.00003,24.774285,24.477255)" d="M254.00165 22.67752C241.47705 22.67752 231.32413 12.5246 231.32413 0 231.32413-3.97969 232.37262-7.89229 234.36229-11.33876L254.00165 0Z" fill="#fff200"/>
<path transform="matrix(1.00005,0,0,-1.00003,24.774285,24.477255)" stroke-width=".3985" stroke-linecap="butt" stroke-miterlimit="10" stroke-linejoin="miter" fill="none" stroke="#fff200" d="M254.00165 22.67752C241.47705 22.67752 231.32413 12.5246 231.32413 0 231.32413-3.97969 232.37262-7.89229 234.36229-11.33876L254.00165 0Z"/>
<path transform="matrix(1.00005,0,0,-1.00003,24.774285,24.477255)" d="M234.36229-11.33876C240.62442-22.1851 254.49407-25.90147 265.34043-19.63936 276.18678-13.37723 279.90315 .4924 273.64103 11.33876 269.59074 18.35419 262.10258 22.67752 254.00165 22.67752V0Z" fill="#00ff00"/>
<path transform="matrix(1.00005,0,0,-1.00003,24.774285,24.477255)" stroke-width=".3985" stroke-linecap="butt" stroke-miterlimit="10" stroke-linejoin="miter" fill="none" stroke="#00ff00" d="M234.36229-11.33876C240.62442-22.1851 254.49407-25.90147 265.34043-19.63936 276.18678-13.37723 279.90315 .4924 273.64103 11.33876 269.59074 18.35419 262.10258 22.67752 254.00165 22.67752V0Z"/>
<path transform="matrix(1.00005,0,0,-1.00003,24.774285,24.477255)" stroke-width=".3985" stroke-linecap="butt" stroke-miterlimit="10" stroke-linejoin="miter" fill="none" stroke="#000000" d="M276.67918 0C276.67918 12.5246 266.52626 22.67752 254.00165 22.67752 241.47705 22.67752 231.32413 12.5246 231.32413 0 231.32413-12.5246 241.47705-22.67752 254.00165-22.67752 266.52626-22.67752 276.67918-12.5246 276.67918 0ZM254.00165 0"/>
<path transform="matrix(1.00005,0,0,-1.00003,24.774285,24.477255)" stroke-width=".3985" stroke-linecap="butt" stroke-miterlimit="10" stroke-linejoin="miter" fill="none" stroke="#000000" d="M231.32411 0H276.67918"/>
<path transform="matrix(1.00005,0,0,-1.00003,24.774285,24.477255)" stroke-width=".3985" stroke-linecap="butt" stroke-miterlimit="10" stroke-linejoin="miter" fill="none" stroke="#000000" d="M254.00165-22.67752V22.67752"/>
<path transform="matrix(1.00005,0,0,-1.00003,24.774285,24.477255)" stroke-width=".3985" stroke-linecap="butt" stroke-miterlimit="10" stroke-linejoin="miter" fill="none" stroke="#000000" d="M273.64103 11.33876 254.00165 0 234.36229-11.33876"/>
<path transform="matrix(1.00005,0,0,-1.00003,24.774285,24.477255)" stroke-width=".3985" stroke-linecap="butt" stroke-miterlimit="10" stroke-linejoin="miter" fill="none" stroke="#000000" d="M265.34043 19.63936 254.00165 0 242.66289-19.63936"/>
<path transform="matrix(1.00005,0,0,-1.00003,24.774285,24.477255)" stroke-width=".3985" stroke-linecap="butt" stroke-miterlimit="10" stroke-linejoin="miter" fill="none" stroke="#000000" d="M242.66289 19.63936 254.00165 0 265.34043-19.63936"/>
<path transform="matrix(1.00005,0,0,-1.00003,24.774285,24.477255)" stroke-width=".3985" stroke-linecap="butt" stroke-miterlimit="10" stroke-linejoin="miter" fill="none" stroke="#000000" d="M234.36229 11.33876 254.00165 0 273.64103-11.33876"/>
<path transform="matrix(1.00005,0,0,-1.00003,24.774285,24.477255)" d="M283.48527 0C283.48527-3.97969 284.53376-7.89229 286.5234-11.33876L306.1628 0Z" fill="#00ff00"/>
<path transform="matrix(1.00005,0,0,-1.00003,24.774285,24.477255)" stroke-width=".3985" stroke-linecap="butt" stroke-miterlimit="10" stroke-linejoin="miter" fill="none" stroke="#00ff00" d="M283.48527 0C283.48527-3.97969 284.53376-7.89229 286.5234-11.33876L306.1628 0Z"/>
<path transform="matrix(1.00005,0,0,-1.00003,24.774285,24.477255)" stroke-width=".3985" stroke-linecap="butt" stroke-miterlimit="10" stroke-linejoin="miter" fill="none" stroke="#000000" d="M328.84034 0C328.84034 12.5246 318.6874 22.67752 306.1628 22.67752 293.63819 22.67752 283.4853 12.5246 283.4853 0 283.4853-12.5246 293.63819-22.67752 306.1628-22.67752 318.6874-22.67752 328.84034-12.5246 328.84034 0ZM306.1628 0"/>
<use data-text="1" xlink:href="#font_1_2" transform="matrix(9.963098,0,0,-9.962899,299.10697,57.185239)" fill="#0000ff"/>
<use data-text="3" xlink:href="#font_1_4" transform="matrix(9.963098,0,0,-9.962899,304.08854,57.185239)" fill="#0000ff"/>
<path transform="matrix(1.00005,0,0,-1.00003,192.13263,55.446187)" stroke-width=".3985" stroke-linecap="butt" stroke-miterlimit="10" stroke-linejoin="miter" fill="none" stroke="#0000ff" d="M106.969-5.988H116.931"/>
<use data-text="1" xlink:href="#font_1_2" transform="matrix(9.963098,0,0,-9.962899,299.10697,70.75964)" fill="#0000ff"/>
<use data-text="2" xlink:href="#font_1_3" transform="matrix(9.963098,0,0,-9.962899,304.08854,70.75964)" fill="#0000ff"/>
<path transform="matrix(1.00005,0,0,-1.00003,24.774285,24.477255)" stroke-width=".3985" stroke-linecap="butt" stroke-miterlimit="10" stroke-linejoin="miter" fill="none" stroke="#000000" d="M283.48527 0H328.84034"/>
<path transform="matrix(1.00005,0,0,-1.00003,24.774285,24.477255)" stroke-width=".3985" stroke-linecap="butt" stroke-miterlimit="10" stroke-linejoin="miter" fill="none" stroke="#000000" d="M306.1628-22.67752V22.67752"/>
<path transform="matrix(1.00005,0,0,-1.00003,24.774285,24.477255)" stroke-width=".3985" stroke-linecap="butt" stroke-miterlimit="10" stroke-linejoin="miter" fill="none" stroke="#000000" d="M325.8022 11.33876 306.1628 0 286.52345-11.33876"/>
<path transform="matrix(1.00005,0,0,-1.00003,24.774285,24.477255)" stroke-width=".3985" stroke-linecap="butt" stroke-miterlimit="10" stroke-linejoin="miter" fill="none" stroke="#000000" d="M317.50157 19.63936 306.1628 0 294.82405-19.63936"/>
<path transform="matrix(1.00005,0,0,-1.00003,24.774285,24.477255)" stroke-width=".3985" stroke-linecap="butt" stroke-miterlimit="10" stroke-linejoin="miter" fill="none" stroke="#000000" d="M294.82405 19.63936 306.1628 0 317.50157-19.63936"/>
<path transform="matrix(1.00005,0,0,-1.00003,24.774285,24.477255)" stroke-width=".3985" stroke-linecap="butt" stroke-miterlimit="10" stroke-linejoin="miter" fill="none" stroke="#000000" d="M286.52345 11.33876 306.1628 0 325.8022-11.33876"/>
</svg>
