<svg xmlns="http://www.w3.org/2000/svg" xmlns:xlink="http://www.w3.org/1999/xlink" version="1.1" width="117" height="117" viewBox="0 0 117 117">
<defs>
<path id="font_1_82" d="M.41600038 0V.057998659H.2939911V.67578127H.2749939C.25898744 .6597748 .21099854 .6127472 .102996829 .6107483 .08898926 .6107483 .08799744 .60975649 .08799744 .5917511V.5517578C.14898682 .5517578 .19499207 .5667572 .21598816 .5757446V.057998659H.09399414V0H.41600038Z"/>
<path id="font_1_107" d="M.43998719 0V.067993167H.2619934C.25 .067993167 .23799134 .066986087 .22599793 .066986087H.11898804C.14498902 .09397888 .23799134 .1859436 .30299378 .243927 .3769989 .30889894 .43998719 .37086488 .43998719 .4628296 .43998719 .5737915 .36299134 .67578127 .23098755 .67578127 .12298584 .67578127 .067993167 .6047821 .040985109 .5118103 .07299805 .47183229 .07299805 .46983338 .08198547 .45783998 .10699463 .5647888 .14399719 .61376956 .21798706 .61376956 .3039856 .61376956 .3600006 .5467987 .3600006 .4608307 .3600006 .40885926 .33898927 .35087586 .27198792 .2849121L.04899597 .06298828V0H.43998719Z"/>
<path id="font_1_106" d="M.44799806 .17964173C.44799806 .25671388 .39698792 .32478334 .31199647 .35377503 .38198854 .39178468 .42099 .458786 .42099 .5247803 .42099 .6107788 .33999635 .67578127 .24299622 .67578127 .16299439 .67578127 .09199524 .6317749 .053985597 .56578066L.08898926 .5117798C.11399841 .57577517 .1749878 .6187744 .24198914 .6187744 .29299928 .6187744 .34098817 .5897827 .34098817 .5247803 .34098817 .45777894 .29499818 .40278626 .24099732 .3907776 .23599243 .38978578 .17298889 .38478089 .16299439 .38378907V.32377626H.23399353C.33699037 .32377626 .3619995 .23570252 .3619995 .1806488 .3619995 .0995636 .31298829 .038513185 .24099732 .038513185 .1769867 .038513185 .09799194 .07054138 .051986696 .14260865L.040985109 .08355713C.10598755-.005493164 .19400025-.021484375 .24299622-.021484375 .3600006-.021484375 .44799806 .07354736 .44799806 .17964173Z"/>
<path id="font_1_57" d="M.46199037 .171875V.23187256H.36499024V.65527346H.2749939L.026992798 .23187256V.171875H.28599549V0H.36499024V.171875H.46199037M.29100038 .23187256H.10398865C.1329956 .2829132 .17199707 .3469696 .21398926 .42704774 .22599793 .45007325 .2899933 .57318118 .29100038 .6102295V.23187256Z"/>
<path id="font_1_56" d="M.43998719 .20285034C.43998719 .328125 .35598756 .4262085 .25498963 .4262085 .21499634 .4262085 .17799378 .4112091 .1499939 .38619996V.5932617H.40699769V.65527346H.07899475V.28703309H.14399719C.16899109 .344162 .21299744 .36621095 .2539978 .36621095 .30099488 .36621095 .35398866 .32411195 .35398866 .2048645 .35398866 .07859802 .28199769 .038513185 .22399903 .038513185 .16899109 .038513185 .102996829 .068573 .070999149 .13171387L.037994386 .07759094C.10398865-.016494751 .19799805-.021484375 .22499085-.021484375 .34298707-.021484375 .43998719 .07759094 .43998719 .20285034Z"/>
<path id="font_1_101" d="M.44699098 .22174073C.44699098 .34991456 .3809967 .45898438 .2899933 .45898438 .21598816 .45898438 .1599884 .42297364 .12298584 .37794496 .13398743 .52589419 .20498657 .6187744 .3039856 .6187744 .34700013 .6187744 .37799073 .6087799 .40699769 .5977936V.655777C.3659973 .67077639 .33699037 .67578127 .3019867 .67578127 .16699219 .67578127 .041992189 .5368805 .041992189 .3218689 .041992189 .03451538 .16699219-.021484375 .24598694-.021484375 .30599977-.021484375 .34899903 .0025024415 .3880005 .04852295 .43299867 .10258484 .44699098 .1496582 .44699098 .22174073M.36799623 .2207489C.36799623 .1796875 .36799623 .13664246 .33799745 .09158325 .31999208 .06454468 .29499818 .038513185 .24598694 .038513185 .14199829 .038513185 .1269989 .18569947 .12399292 .21774292 .12399292 .22575379 .12399292 .23876953 .125 .24577332 .125 .3158722 .16499329 .39897157 .25099183 .39897157 .28399659 .39897157 .31599427 .38996888 .34498597 .3399048 .36698915 .29985047 .36799623 .25979615 .36799623 .2207489Z"/>
<path id="font_1_100" d="M.44799806 .5922699V.65527346H.040985109V.587265H.22698975C.23899842 .587265 .25099183 .5882721 .2630005 .5882721H.3829956C.32299806 .5182648 .1499939 .31825257 .1499939-.009765625H.23098755C.23098755 .25024415 .33799745 .46325685 .44799806 .5922699Z"/>
<path id="font_1_51" d="M.44799806 .17964173C.44799806 .25971986 .3929901 .32678224 .31199647 .35377503 .375 .37278749 .43499757 .42778016 .43499757 .5017853 .43499757 .5957794 .35099793 .67578127 .24499512 .67578127 .1349945 .67578127 .053985597 .59277346 .053985597 .5017853 .053985597 .42677308 .114990238 .3717804 .1769867 .35377503 .09599304 .32678224 .040985109 .25971986 .040985109 .17964173 .040985109 .07254028 .12998963-.021484375 .24398804-.021484375 .3619995-.021484375 .44799806 .074539188 .44799806 .17964173M.3659973 .5007782C.3659973 .43377687 .31999208 .38378907 .24499512 .38378907 .1659851 .38378907 .12298584 .43678285 .12298584 .5007782 .12298584 .5767822 .1769867 .6187744 .24398804 .6187744 .31599427 .6187744 .3659973 .57377627 .3659973 .5007782M.36898805 .1806488C.36898805 .08355713 .30799867 .038513185 .24499512 .038513185 .17799378 .038513185 .11999512 .08654785 .11999512 .1806488 .11999512 .28775025 .19198609 .32377626 .24398804 .32377626 .2999878 .32377626 .36898805 .28474427 .36898805 .1806488Z"/>
<path id="font_1_78" d="M.44699098 .33433534C.44699098 .6067505 .33599855 .67578127 .24798584 .67578127 .17599488 .67578127 .13398743 .6427765 .09899902 .6007385 .050994874 .5436554 .041992189 .49057008 .041992189 .43348695 .041992189 .30433656 .10798645 .19584656 .19898987 .19584656 .27198792 .19584656 .32798768 .23085022 .3659973 .27734376 .35798646 .13772583 .29299928 .038513185 .20098877 .038513185 .1599884 .038513185 .1289978 .05154419 .101989749 .07759094L.070999149 .024505616C.115997318-.010498047 .15699768-.021484375 .20098877-.021484375 .32798768-.021484375 .44699098 .11567688 .44699098 .33433534M.3639984 .41033937C.3639984 .33433534 .32099916 .25585938 .23799134 .25585938 .22099304 .25585938 .1769867 .25585938 .14399719 .31433106 .125 .35099793 .12098694 .37998963 .12098694 .43399049 .12098694 .47776795 .12199402 .5197754 .1519928 .56477358 .16699219 .58677676 .19400025 .6187744 .24798584 .6187744 .34399415 .6187744 .36099244 .4837799 .36299134 .43476869 .3639984 .42778016 .3639984 .4177704 .3639984 .4107666V.41033937Z"/>
<path id="font_1_121" d="M.44799806 .32563783C.44799806 .39266969 .44499208 .4697113 .4189911 .54074099 .37599183 .652771 .2979889 .67578127 .24499512 .67578127 .17999268 .67578127 .116989139 .6427765 .07998657 .5637512 .04699707 .49272157 .040985109 .41168214 .040985109 .32563783 .040985109 .21658325 .049987794 .15455628 .08198547 .08453369 .11199951 .018508912 .17599488-.021484375 .24398804-.021484375 .30999757-.021484375 .37298585 .014511108 .40699769 .08352661 .44099427 .15455628 .44799806 .2276001 .44799806 .32563783M.37199403 .33764649C.37199403 .2736206 .37199403 .20758057 .35398866 .14555359 .32699586 .04951477 .2709961 .038513185 .24499512 .038513185 .116989139 .038513185 .116989139 .24360657 .116989139 .33764649 .116989139 .40267945 .116989139 .46369935 .1349945 .5207367 .15899658 .59176638 .20298767 .61576846 .24398804 .61576846 .37199403 .61576846 .37199403 .4296875 .37199403 .33764649Z"/>
</defs>
<path transform="matrix(1.00002,0,0,-1.00005,58.088808,58.793138)" stroke-width=".79701" stroke-linecap="butt" stroke-miterlimit="10" stroke-linejoin="miter" fill="none" stroke="#000000" d="M56.69363 0C56.69363 31.31142 31.31142 56.69363 0 56.69363-31.31142 56.69363-56.69363 31.31142-56.69363 0-56.69363-31.31142-31.31142-56.69363 0-56.69363 31.31142-56.69363 56.69363-31.31142 56.69363 0ZM0 0"/>
<path transform="matrix(1.00002,0,0,-1.00005,58.088808,58.793138)" d="M2.12592 0C2.12592 1.17412 1.17412 2.12592 0 2.12592-1.17412 2.12592-2.12592 1.17412-2.12592 0-2.12592-1.17412-1.17412-2.12592 0-2.12592 1.17412-2.12592 2.12592-1.17412 2.12592 0ZM0 0"/>
<path transform="matrix(1.00002,0,0,-1.00005,58.088808,58.793138)" stroke-width=".3985" stroke-linecap="butt" stroke-miterlimit="10" stroke-linejoin="miter" fill="none" stroke="#000000" d="M2.12592 0C2.12592 1.17412 1.17412 2.12592 0 2.12592-1.17412 2.12592-2.12592 1.17412-2.12592 0-2.12592-1.17412-1.17412-2.12592 0-2.12592 1.17412-2.12592 2.12592-1.17412 2.12592 0ZM0 0"/>
<path transform="matrix(1.00002,0,0,-1.00005,58.088808,58.793138)" stroke-width=".3985" stroke-linecap="butt" stroke-miterlimit="10" stroke-linejoin="miter" fill="none" stroke="#000000" d="M53.56374 5.62946 56.38306 5.92575"/>
<path transform="matrix(1.00002,0,0,-1.00005,58.088808,58.793138)" stroke-width=".3985" stroke-linecap="butt" stroke-miterlimit="10" stroke-linejoin="miter" fill="none" stroke="#000000" d="M52.68192 11.1981 55.45483 11.78752"/>
<path transform="matrix(1.00002,0,0,-1.00005,58.088808,58.793138)" stroke-width=".3985" stroke-linecap="butt" stroke-miterlimit="10" stroke-linejoin="miter" fill="none" stroke="#000000" d="M51.22319 16.64348 53.91933 17.51952"/>
<path transform="matrix(1.00002,0,0,-1.00005,58.088808,58.793138)" stroke-width=".3985" stroke-linecap="butt" stroke-miterlimit="10" stroke-linejoin="miter" fill="none" stroke="#000000" d="M49.20233 21.9064 51.7921 23.05946"/>
<path transform="matrix(1.00002,0,0,-1.00005,58.088808,58.793138)" stroke-width=".3985" stroke-linecap="butt" stroke-miterlimit="10" stroke-linejoin="miter" fill="none" stroke="#000000" d="M46.64319 26.92938 49.09825 28.3468"/>
<path transform="matrix(1.00002,0,0,-1.00005,58.088808,58.793138)" stroke-width=".3985" stroke-linecap="butt" stroke-miterlimit="10" stroke-linejoin="miter" fill="none" stroke="#000000" d="M43.57288 31.6573 45.86632 33.32358"/>
<path transform="matrix(1.00002,0,0,-1.00005,58.088808,58.793138)" stroke-width=".3985" stroke-linecap="butt" stroke-miterlimit="10" stroke-linejoin="miter" fill="none" stroke="#000000" d="M40.02425 36.03842 42.13092 37.93532"/>
<path transform="matrix(1.00002,0,0,-1.00005,58.088808,58.793138)" stroke-width=".3985" stroke-linecap="butt" stroke-miterlimit="10" stroke-linejoin="miter" fill="none" stroke="#000000" d="M36.03842 40.02425 37.93532 42.13092"/>
<path transform="matrix(1.00002,0,0,-1.00005,58.088808,58.793138)" stroke-width=".3985" stroke-linecap="butt" stroke-miterlimit="10" stroke-linejoin="miter" fill="none" stroke="#000000" d="M31.6573 43.57288 33.32358 45.86632"/>
<path transform="matrix(1.00002,0,0,-1.00005,58.088808,58.793138)" stroke-width=".3985" stroke-linecap="butt" stroke-miterlimit="10" stroke-linejoin="miter" fill="none" stroke="#000000" d="M26.92938 46.64319 28.3468 49.09825"/>
<path transform="matrix(1.00002,0,0,-1.00005,58.088808,58.793138)" stroke-width=".3985" stroke-linecap="butt" stroke-miterlimit="10" stroke-linejoin="miter" fill="none" stroke="#000000" d="M21.9064 49.20233 23.05946 51.7921"/>
<path transform="matrix(1.00002,0,0,-1.00005,58.088808,58.793138)" stroke-width=".3985" stroke-linecap="butt" stroke-miterlimit="10" stroke-linejoin="miter" fill="none" stroke="#000000" d="M16.64348 51.22319 17.51952 53.91933"/>
<path transform="matrix(1.00002,0,0,-1.00005,58.088808,58.793138)" stroke-width=".3985" stroke-linecap="butt" stroke-miterlimit="10" stroke-linejoin="miter" fill="none" stroke="#000000" d="M11.1981 52.68192 11.78752 55.45483"/>
<path transform="matrix(1.00002,0,0,-1.00005,58.088808,58.793138)" stroke-width=".3985" stroke-linecap="butt" stroke-miterlimit="10" stroke-linejoin="miter" fill="none" stroke="#000000" d="M5.62946 53.56374 5.92575 56.38306"/>
<path transform="matrix(1.00002,0,0,-1.00005,58.088808,58.793138)" stroke-width=".3985" stroke-linecap="butt" stroke-miterlimit="10" stroke-linejoin="miter" fill="none" stroke="#000000" d="M0 53.85878V56.69363"/>
<path transform="matrix(1.00002,0,0,-1.00005,58.088808,58.793138)" stroke-width=".3985" stroke-linecap="butt" stroke-miterlimit="10" stroke-linejoin="miter" fill="none" stroke="#000000" d="M-5.62946 53.56374-5.92575 56.38306"/>
<path transform="matrix(1.00002,0,0,-1.00005,58.088808,58.793138)" stroke-width=".3985" stroke-linecap="butt" stroke-miterlimit="10" stroke-linejoin="miter" fill="none" stroke="#000000" d="M-11.1981 52.68192-11.78752 55.45483"/>
<path transform="matrix(1.00002,0,0,-1.00005,58.088808,58.793138)" stroke-width=".3985" stroke-linecap="butt" stroke-miterlimit="10" stroke-linejoin="miter" fill="none" stroke="#000000" d="M-16.64348 51.22319-17.51952 53.91933"/>
<path transform="matrix(1.00002,0,0,-1.00005,58.088808,58.793138)" stroke-width=".3985" stroke-linecap="butt" stroke-miterlimit="10" stroke-linejoin="miter" fill="none" stroke="#000000" d="M-21.9064 49.20233-23.05946 51.7921"/>
<path transform="matrix(1.00002,0,0,-1.00005,58.088808,58.793138)" stroke-width=".3985" stroke-linecap="butt" stroke-miterlimit="10" stroke-linejoin="miter" fill="none" stroke="#000000" d="M-26.92938 46.64319-28.3468 49.09825"/>
<path transform="matrix(1.00002,0,0,-1.00005,58.088808,58.793138)" stroke-width=".3985" stroke-linecap="butt" stroke-miterlimit="10" stroke-linejoin="miter" fill="none" stroke="#000000" d="M-31.6573 43.57288-33.32358 45.86632"/>
<path transform="matrix(1.00002,0,0,-1.00005,58.088808,58.793138)" stroke-width=".3985" stroke-linecap="butt" stroke-miterlimit="10" stroke-linejoin="miter" fill="none" stroke="#000000" d="M-36.03842 40.02425-37.93532 42.13092"/>
<path transform="matrix(1.00002,0,0,-1.00005,58.088808,58.793138)" stroke-width=".3985" stroke-linecap="butt" stroke-miterlimit="10" stroke-linejoin="miter" fill="none" stroke="#000000" d="M-40.02425 36.03842-42.13092 37.93532"/>
<path transform="matrix(1.00002,0,0,-1.00005,58.088808,58.793138)" stroke-width=".3985" stroke-linecap="butt" stroke-miterlimit="10" stroke-linejoin="miter" fill="none" stroke="#000000" d="M-43.57288 31.6573-45.86632 33.32358"/>
<path transform="matrix(1.00002,0,0,-1.00005,58.088808,58.793138)" stroke-width=".3985" stroke-linecap="butt" stroke-miterlimit="10" stroke-linejoin="miter" fill="none" stroke="#000000" d="M-46.64319 26.92938-49.09825 28.3468"/>
<path transform="matrix(1.00002,0,0,-1.00005,58.088808,58.793138)" stroke-width=".3985" stroke-linecap="butt" stroke-miterlimit="10" stroke-linejoin="miter" fill="none" stroke="#000000" d="M-49.20233 21.9064-51.7921 23.05946"/>
<path transform="matrix(1.00002,0,0,-1.00005,58.088808,58.793138)" stroke-width=".3985" stroke-linecap="butt" stroke-miterlimit="10" stroke-linejoin="miter" fill="none" stroke="#000000" d="M-51.22319 16.64348-53.91933 17.51952"/>
<path transform="matrix(1.00002,0,0,-1.00005,58.088808,58.793138)" stroke-width=".3985" stroke-linecap="butt" stroke-miterlimit="10" stroke-linejoin="miter" fill="none" stroke="#000000" d="M-52.68192 11.1981-55.45483 11.78752"/>
<path transform="matrix(1.00002,0,0,-1.00005,58.088808,58.793138)" stroke-width=".3985" stroke-linecap="butt" stroke-miterlimit="10" stroke-linejoin="miter" fill="none" stroke="#000000" d="M-53.56374 5.62946-56.38306 5.92575"/>
<path transform="matrix(1.00002,0,0,-1.00005,58.088808,58.793138)" stroke-width=".3985" stroke-linecap="butt" stroke-miterlimit="10" stroke-linejoin="miter" fill="none" stroke="#000000" d="M-53.85878 0H-56.69363"/>
<path transform="matrix(1.00002,0,0,-1.00005,58.088808,58.793138)" stroke-width=".3985" stroke-linecap="butt" stroke-miterlimit="10" stroke-linejoin="miter" fill="none" stroke="#000000" d="M-53.56374-5.62946-56.38306-5.92575"/>
<path transform="matrix(1.00002,0,0,-1.00005,58.088808,58.793138)" stroke-width=".3985" stroke-linecap="butt" stroke-miterlimit="10" stroke-linejoin="miter" fill="none" stroke="#000000" d="M-52.68192-11.1981-55.45483-11.78752"/>
<path transform="matrix(1.00002,0,0,-1.00005,58.088808,58.793138)" stroke-width=".3985" stroke-linecap="butt" stroke-miterlimit="10" stroke-linejoin="miter" fill="none" stroke="#000000" d="M-51.22319-16.64348-53.91933-17.51952"/>
<path transform="matrix(1.00002,0,0,-1.00005,58.088808,58.793138)" stroke-width=".3985" stroke-linecap="butt" stroke-miterlimit="10" stroke-linejoin="miter" fill="none" stroke="#000000" d="M-49.20233-21.9064-51.7921-23.05946"/>
<path transform="matrix(1.00002,0,0,-1.00005,58.088808,58.793138)" stroke-width=".3985" stroke-linecap="butt" stroke-miterlimit="10" stroke-linejoin="miter" fill="none" stroke="#000000" d="M-46.64319-26.92938-49.09825-28.3468"/>
<path transform="matrix(1.00002,0,0,-1.00005,58.088808,58.793138)" stroke-width=".3985" stroke-linecap="butt" stroke-miterlimit="10" stroke-linejoin="miter" fill="none" stroke="#000000" d="M-43.57288-31.6573-45.86632-33.32358"/>
<path transform="matrix(1.00002,0,0,-1.00005,58.088808,58.793138)" stroke-width=".3985" stroke-linecap="butt" stroke-miterlimit="10" stroke-linejoin="miter" fill="none" stroke="#000000" d="M-40.02425-36.03842-42.13092-37.93532"/>
<path transform="matrix(1.00002,0,0,-1.00005,58.088808,58.793138)" stroke-width=".3985" stroke-linecap="butt" stroke-miterlimit="10" stroke-linejoin="miter" fill="none" stroke="#000000" d="M-36.03842-40.02425-37.93532-42.13092"/>
<path transform="matrix(1.00002,0,0,-1.00005,58.088808,58.793138)" stroke-width=".3985" stroke-linecap="butt" stroke-miterlimit="10" stroke-linejoin="miter" fill="none" stroke="#000000" d="M-31.6573-43.57288-33.32358-45.86632"/>
<path transform="matrix(1.00002,0,0,-1.00005,58.088808,58.793138)" stroke-width=".3985" stroke-linecap="butt" stroke-miterlimit="10" stroke-linejoin="miter" fill="none" stroke="#000000" d="M-26.92938-46.64319-28.3468-49.09825"/>
<path transform="matrix(1.00002,0,0,-1.00005,58.088808,58.793138)" stroke-width=".3985" stroke-linecap="butt" stroke-miterlimit="10" stroke-linejoin="miter" fill="none" stroke="#000000" d="M-21.9064-49.20233-23.05946-51.7921"/>
<path transform="matrix(1.00002,0,0,-1.00005,58.088808,58.793138)" stroke-width=".3985" stroke-linecap="butt" stroke-miterlimit="10" stroke-linejoin="miter" fill="none" stroke="#000000" d="M-16.64348-51.22319-17.51952-53.91933"/>
<path transform="matrix(1.00002,0,0,-1.00005,58.088808,58.793138)" stroke-width=".3985" stroke-linecap="butt" stroke-miterlimit="10" stroke-linejoin="miter" fill="none" stroke="#000000" d="M-11.1981-52.68192-11.78752-55.45483"/>
<path transform="matrix(1.00002,0,0,-1.00005,58.088808,58.793138)" stroke-width=".3985" stroke-linecap="butt" stroke-miterlimit="10" stroke-linejoin="miter" fill="none" stroke="#000000" d="M-5.62946-53.56374-5.92575-56.38306"/>
<path transform="matrix(1.00002,0,0,-1.00005,58.088808,58.793138)" stroke-width=".3985" stroke-linecap="butt" stroke-miterlimit="10" stroke-linejoin="miter" fill="none" stroke="#000000" d="M0-53.85878V-56.69363"/>
<path transform="matrix(1.00002,0,0,-1.00005,58.088808,58.793138)" stroke-width=".3985" stroke-linecap="butt" stroke-miterlimit="10" stroke-linejoin="miter" fill="none" stroke="#000000" d="M5.62946-53.56374 5.92575-56.38306"/>
<path transform="matrix(1.00002,0,0,-1.00005,58.088808,58.793138)" stroke-width=".3985" stroke-linecap="butt" stroke-miterlimit="10" stroke-linejoin="miter" fill="none" stroke="#000000" d="M11.1981-52.68192 11.78752-55.45483"/>
<path transform="matrix(1.00002,0,0,-1.00005,58.088808,58.793138)" stroke-width=".3985" stroke-linecap="butt" stroke-miterlimit="10" stroke-linejoin="miter" fill="none" stroke="#000000" d="M16.64348-51.22319 17.51952-53.91933"/>
<path transform="matrix(1.00002,0,0,-1.00005,58.088808,58.793138)" stroke-width=".3985" stroke-linecap="butt" stroke-miterlimit="10" stroke-linejoin="miter" fill="none" stroke="#000000" d="M21.9064-49.20233 23.05946-51.7921"/>
<path transform="matrix(1.00002,0,0,-1.00005,58.088808,58.793138)" stroke-width=".3985" stroke-linecap="butt" stroke-miterlimit="10" stroke-linejoin="miter" fill="none" stroke="#000000" d="M26.92938-46.64319 28.3468-49.09825"/>
<path transform="matrix(1.00002,0,0,-1.00005,58.088808,58.793138)" stroke-width=".3985" stroke-linecap="butt" stroke-miterlimit="10" stroke-linejoin="miter" fill="none" stroke="#000000" d="M31.6573-43.57288 33.32358-45.86632"/>
<path transform="matrix(1.00002,0,0,-1.00005,58.088808,58.793138)" stroke-width=".3985" stroke-linecap="butt" stroke-miterlimit="10" stroke-linejoin="miter" fill="none" stroke="#000000" d="M36.03842-40.02425 37.93532-42.13092"/>
<path transform="matrix(1.00002,0,0,-1.00005,58.088808,58.793138)" stroke-width=".3985" stroke-linecap="butt" stroke-miterlimit="10" stroke-linejoin="miter" fill="none" stroke="#000000" d="M40.02425-36.03842 42.13092-37.93532"/>
<path transform="matrix(1.00002,0,0,-1.00005,58.088808,58.793138)" stroke-width=".3985" stroke-linecap="butt" stroke-miterlimit="10" stroke-linejoin="miter" fill="none" stroke="#000000" d="M43.57288-31.6573 45.86632-33.32358"/>
<path transform="matrix(1.00002,0,0,-1.00005,58.088808,58.793138)" stroke-width=".3985" stroke-linecap="butt" stroke-miterlimit="10" stroke-linejoin="miter" fill="none" stroke="#000000" d="M46.64319-26.92938 49.09825-28.3468"/>
<path transform="matrix(1.00002,0,0,-1.00005,58.088808,58.793138)" stroke-width=".3985" stroke-linecap="butt" stroke-miterlimit="10" stroke-linejoin="miter" fill="none" stroke="#000000" d="M49.20233-21.9064 51.7921-23.05946"/>
<path transform="matrix(1.00002,0,0,-1.00005,58.088808,58.793138)" stroke-width=".3985" stroke-linecap="butt" stroke-miterlimit="10" stroke-linejoin="miter" fill="none" stroke="#000000" d="M51.22319-16.64348 53.91933-17.51952"/>
<path transform="matrix(1.00002,0,0,-1.00005,58.088808,58.793138)" stroke-width=".3985" stroke-linecap="butt" stroke-miterlimit="10" stroke-linejoin="miter" fill="none" stroke="#000000" d="M52.68192-11.1981 55.45483-11.78752"/>
<path transform="matrix(1.00002,0,0,-1.00005,58.088808,58.793138)" stroke-width=".3985" stroke-linecap="butt" stroke-miterlimit="10" stroke-linejoin="miter" fill="none" stroke="#000000" d="M53.56374-5.62946 56.38306-5.92575"/>
<path transform="matrix(1.00002,0,0,-1.00005,58.088808,58.793138)" stroke-width=".99628" stroke-linecap="butt" stroke-miterlimit="10" stroke-linejoin="miter" fill="none" stroke="#000000" d="M26.22089 45.41605 28.3468 49.09825"/>
<use data-text="1" xlink:href="#font_1_82" transform="matrix(11.95544,0,0,-11.955797,78.12121,23.062352)"/>
<path transform="matrix(1.00002,0,0,-1.00005,58.088808,58.793138)" stroke-width=".99628" stroke-linecap="butt" stroke-miterlimit="10" stroke-linejoin="miter" fill="none" stroke="#000000" d="M45.41605 26.22089 49.09825 28.3468"/>
<use data-text="2" xlink:href="#font_1_107" transform="matrix(11.95544,0,0,-11.955797,94.92954,39.872194)"/>
<path transform="matrix(1.00002,0,0,-1.00005,58.088808,58.793138)" stroke-width=".99628" stroke-linecap="butt" stroke-miterlimit="10" stroke-linejoin="miter" fill="none" stroke="#000000" d="M52.44179 0H56.69363"/>
<use data-text="3" xlink:href="#font_1_106" transform="matrix(11.95544,0,0,-11.955797,101.08267,62.708333)"/>
<path transform="matrix(1.00002,0,0,-1.00005,58.088808,58.793138)" stroke-width=".99628" stroke-linecap="butt" stroke-miterlimit="10" stroke-linejoin="miter" fill="none" stroke="#000000" d="M45.41605-26.22089 49.09825-28.3468"/>
<use data-text="4" xlink:href="#font_1_57" transform="matrix(11.95544,0,0,-11.955797,94.92954,85.67048)"/>
<path transform="matrix(1.00002,0,0,-1.00005,58.088808,58.793138)" stroke-width=".99628" stroke-linecap="butt" stroke-miterlimit="10" stroke-linejoin="miter" fill="none" stroke="#000000" d="M26.22089-45.41605 28.3468-49.09825"/>
<use data-text="5" xlink:href="#font_1_56" transform="matrix(11.95544,0,0,-11.955797,78.12121,102.35431)"/>
<path transform="matrix(1.00002,0,0,-1.00005,58.088808,58.793138)" stroke-width=".99628" stroke-linecap="butt" stroke-miterlimit="10" stroke-linejoin="miter" fill="none" stroke="#000000" d="M0-52.44179V-56.69363"/>
<use data-text="6" xlink:href="#font_1_101" transform="matrix(11.95544,0,0,-11.955797,55.159746,108.63263)"/>
<path transform="matrix(1.00002,0,0,-1.00005,58.088808,58.793138)" stroke-width=".99628" stroke-linecap="butt" stroke-miterlimit="10" stroke-linejoin="miter" fill="none" stroke="#000000" d="M-26.22089-45.41605-28.3468-49.09825"/>
<use data-text="7" xlink:href="#font_1_100" transform="matrix(11.95544,0,0,-11.955797,32.198289,102.42032)"/>
<path transform="matrix(1.00002,0,0,-1.00005,58.088808,58.793138)" stroke-width=".99628" stroke-linecap="butt" stroke-miterlimit="10" stroke-linejoin="miter" fill="none" stroke="#000000" d="M-45.41605-26.22089-49.09825-28.3468"/>
<use data-text="8" xlink:href="#font_1_51" transform="matrix(11.95544,0,0,-11.955797,15.388947,85.67048)"/>
<path transform="matrix(1.00002,0,0,-1.00005,58.088808,58.793138)" stroke-width=".99628" stroke-linecap="butt" stroke-miterlimit="10" stroke-linejoin="miter" fill="none" stroke="#000000" d="M-52.44179 0H-56.69363"/>
<use data-text="9" xlink:href="#font_1_78" transform="matrix(11.95544,0,0,-11.955797,9.236832,62.708333)"/>
<path transform="matrix(1.00002,0,0,-1.00005,58.088808,58.793138)" stroke-width=".99628" stroke-linecap="butt" stroke-miterlimit="10" stroke-linejoin="miter" fill="none" stroke="#000000" d="M-45.41605 26.22089-49.09825 28.3468"/>
<use data-text="1" xlink:href="#font_1_82" transform="matrix(11.95544,0,0,-11.955797,12.459892,39.747186)"/>
<use data-text="0" xlink:href="#font_1_121" transform="matrix(11.95544,0,0,-11.955797,18.318062,39.747186)"/>
<path transform="matrix(1.00002,0,0,-1.00005,58.088808,58.793138)" stroke-width=".99628" stroke-linecap="butt" stroke-miterlimit="10" stroke-linejoin="miter" fill="none" stroke="#000000" d="M-26.22089 45.41605-28.3468 49.09825"/>
<use data-text="1" xlink:href="#font_1_82" transform="matrix(11.95544,0,0,-11.955797,29.269227,23.062352)"/>
<use data-text="1" xlink:href="#font_1_82" transform="matrix(11.95544,0,0,-11.955797,35.127397,23.062352)"/>
<path transform="matrix(1.00002,0,0,-1.00005,58.088808,58.793138)" stroke-width=".99628" stroke-linecap="butt" stroke-miterlimit="10" stroke-linejoin="miter" fill="none" stroke="#000000" d="M0 52.44179V56.69363"/>
<use data-text="1" xlink:href="#font_1_82" transform="matrix(11.95544,0,0,-11.955797,52.23069,16.910046)"/>
<use data-text="2" xlink:href="#font_1_107" transform="matrix(11.95544,0,0,-11.955797,58.08886,16.910046)"/>
<path transform="matrix(1.00002,0,0,-1.00005,58.088808,58.793138)" stroke-width="1.59404" stroke-linecap="butt" stroke-miterlimit="10" stroke-linejoin="miter" fill="none" stroke="#000000" d="M0 0V38.79144"/>
<path transform="matrix(0,-1.00005,-1.00002,-0,58.088808,19.99976)" d="M1.51433 0C-.37857 .37857-2.27148 1.13573-4.54298 2.46077-2.27148 .75716-2.27148-.75716-4.54298-2.46077-2.27148-1.13573-.37857-.37857 1.51433 0Z"/>
<path transform="matrix(0,-1.00005,-1.00002,-0,58.088808,19.99976)" stroke-width="1.59404" stroke-linecap="butt" stroke-linejoin="round" fill="none" stroke="#000000" d="M1.51433 0C-.37857 .37857-2.27148 1.13573-4.54298 2.46077-2.27148 .75716-2.27148-.75716-4.54298-2.46077-2.27148-1.13573-.37857-.37857 1.51433 0Z"/>
<path transform="matrix(1.00002,0,0,-1.00005,58.088808,58.793138)" stroke-width="1.59404" stroke-linecap="butt" stroke-miterlimit="10" stroke-linejoin="miter" fill="none" stroke="#000000" d="M0 0 15.8524-27.45721"/>
<path transform="matrix(.49999003,.8660533,.86602738,-.50000497,73.94152,86.25172)" d="M1.51433 0C-.37857 .37857-2.27148 1.13573-4.54298 2.46077-2.27148 .75716-2.27148-.75716-4.54298-2.46077-2.27148-1.13573-.37857-.37857 1.51433 0Z"/>
<path transform="matrix(.49999003,.8660533,.86602738,-.50000497,73.94152,86.25172)" stroke-width="1.59404" stroke-linecap="butt" stroke-linejoin="round" fill="none" stroke="#000000" d="M1.51433 0C-.37857 .37857-2.27148 1.13573-4.54298 2.46077-2.27148 .75716-2.27148-.75716-4.54298-2.46077-2.27148-1.13573-.37857-.37857 1.51433 0Z"/>
</svg>
