<svg xmlns="http://www.w3.org/2000/svg" xmlns:xlink="http://www.w3.org/1999/xlink" version="1.1" width="212" height="61" viewBox="0 0 212 61">
<defs>
<path id="font_1_46" d="M.70700076 .33580018C.70700076 .52568057 .57199099 .6826172 .40098573 .6826172H.034988405V.6516113H.05899048C.13598633 .6516113 .13798523 .64060977 .13798523 .6046295V.07795715C.13798523 .041992189 .13598633 .0309906 .05899048 .0309906H.034988405V0H.40098573C.56900027 0 .70700076 .1479187 .70700076 .33580018M.6069946 .33580018C.6069946 .22486878 .58799746 .16490174 .5519867 .11593628 .5319977 .08895874 .47499085 .0309906 .37399293 .0309906H.272995C.22599793 .0309906 .22399903 .037994386 .22399903 .07096863V.6116333C.22399903 .64460757 .22599793 .6516113 .272995 .6516113H.37298585C.43499757 .6516113 .5039978 .6296234 .5549927 .55867007 .59799197 .49969483 .6069946 .41375733 .6069946 .33580018Z"/>
<path id="font_1_50" d="M.4149933 .11933899C.4149933 .12934876 .40699769 .13134766 .4019928 .13134766 .3929901 .13134766 .3909912 .12535095 .3889923 .11734009 .35398866 .014251709 .2639923 .014251709 .2539978 .014251709 .20399475 .014251709 .1639862 .044281007 .14099121 .08131409 .11099243 .12934876 .11099243 .19540406 .11099243 .23144531H.3899994C.4119873 .23144531 .4149933 .23144531 .4149933 .2524414 .4149933 .35131837 .36099244 .4482422 .23599243 .4482422 .11999512 .4482422 .027999878 .34532167 .027999878 .22042847 .027999878 .08631897 .1329956-.0107421879 .24798584-.0107421879 .36999513-.0107421879 .4149933 .10032654 .4149933 .11933899M.34899903 .2524414H.11199951C.117996219 .40126039 .20199585 .426239 .23599243 .426239 .33898927 .426239 .34899903 .2913971 .34899903 .2524414Z"/>
<path id="font_1_43" d="M.4149933 .119140628C.4149933 .12911988 .40499879 .12911988 .4019928 .12911988 .3929901 .12911988 .3909912 .12512207 .3889923 .119140628 .3600006 .026229859 .29499818 .014251709 .2579956 .014251709 .20498657 .014251709 .116989139 .0572052 .116989139 .21801758 .116989139 .38093568 .19898987 .42323304 .2519989 .42323304 .26098634 .42323304 .32398988 .42222596 .35899354 .38594056 .31799317 .38293458 .31199647 .3529358 .31199647 .3399353 .31199647 .31393434 .32998658 .2939453 .35798646 .2939453 .38398744 .2939453 .4039917 .3109436 .4039917 .34094239 .4039917 .40911866 .32798768 .4482422 .25099183 .4482422 .12599182 .4482422 .033996583 .3399353 .033996583 .21601868 .033996583 .08816528 .1329956-.0107421879 .24899292-.0107421879 .3829956-.0107421879 .4149933 .10914612 .4149933 .119140628Z"/>
<path id="font_1_66" d="M.24699402 0V.0309906C.18099976 .0309906 .1769867 .035995485 .1769867 .075042728V.4423828L.036987306 .43066407V.3996582C.101989749 .3996582 .11099243 .3936615 .11099243 .3447113V.07595825C.11099243 .0309906 .099990848 .0309906 .032989503 .0309906V0L.14299011 .0029907227C.17799378 .0029907227 .21299744 .0009918213 .24699402 0M.19198609 .603775C.19198609 .6307678 .16899109 .6567688 .13899231 .6567688 .10499573 .6567688 .084991458 .6287689 .084991458 .603775 .084991458 .57676699 .10798645 .55078127 .13798523 .55078127 .17199707 .55078127 .19198609 .5787811 .19198609 .603775Z"/>
<path id="font_1_75" d="M.8129883 0V.0309906C.7609863 .0309906 .73599246 .0309906 .7350006 .061019899V.25221253C.7350006 .3383026 .7350006 .36932374 .70399478 .405365 .6899872 .42237855 .6569977 .4423828 .598999 .4423828 .5149994 .4423828 .47099305 .38233949 .45399476 .34429933 .43998719 .43138124 .3659973 .4423828 .32099916 .4423828 .24798584 .4423828 .20098877 .39935304 .17298889 .33729554V.4423828L.03199768 .43066407V.3996582C.101989749 .3996582 .10998535 .39266969 .10998535 .34370423V.07595825C.10998535 .0309906 .09899902 .0309906 .03199768 .0309906V0L.14498902 .0029907227 .25698854 0V.0309906C.18998719 .0309906 .1789856 .0309906 .1789856 .07595825V.25978089C.1789856 .36431886 .25 .42037965 .31399537 .42037965 .3769989 .42037965 .3880005 .36631776 .3880005 .30926515V.076034549C.3880005 .0309906 .3769989 .0309906 .30999757 .0309906V0L.4229889 .0029907227 .5349884 0V.0309906C.46798707 .0309906 .45700074 .0309906 .45700074 .076034549V.2602234C.45700074 .36431886 .5279999 .42037965 .59199526 .42037965 .6549988 .42037965 .66600039 .36631776 .66600039 .30926515V.076034549C.66600039 .0309906 .6549988 .0309906 .58799746 .0309906V0L.70098879 .0029907227 .8129883 0Z"/>
<path id="font_1_28" d="M.48298646 .08912659V.14511109H.45799256V.08912659C.45799256 .03112793 .43299867 .025131226 .42199708 .025131226 .3889923 .025131226 .3849945 .070129398 .3849945 .07511902V.27508546C.3849945 .31707765 .3849945 .3560791 .34899903 .39312745 .30999757 .43223573 .2599945 .4482422 .21199036 .4482422 .12998963 .4482422 .06098938 .40115357 .06098938 .335083 .06098938 .30508424 .08099365 .28808595 .10699463 .28808595 .1349945 .28808595 .15299988 .30807496 .15299988 .33407594 .15299988 .3460846 .147995 .37908937 .101989749 .38008119 .1289978 .41519166 .17799378 .426239 .20999146 .426239 .25898744 .426239 .31599427 .38710023 .31599427 .29808045V.26107789C.2649994 .25808717 .19499207 .25508119 .13198853 .22509766 .056991579 .19110108 .03199768 .13911438 .03199768 .09512329 .03199768 .014251709 .1289978-.0107421879 .19198609-.0107421879 .2579956-.0107421879 .3039856 .029251099 .32299806 .07624817 .32699586 .036132814 .35398866-.005859375 .40098573-.005859375 .42199708-.005859375 .48298646 .008132935 .48298646 .08912659M.31599427 .14013672C.31599427 .04525757 .24398804 .011245728 .19898987 .011245728 .1499939 .011245728 .10899353 .04624939 .10899353 .09625244 .10899353 .15124512 .15098572 .23425293 .31599427 .24024964V.14013672Z"/>
<path id="font_1_72" d="M.25498963 0V.0309906C.18798828 .0309906 .1769867 .0309906 .1769867 .07601929V.69433596L.032989503 .6826172V.6516113C.102996829 .6516113 .11099243 .64460757 .11099243 .5956421V.07595825C.11099243 .0309906 .099990848 .0309906 .032989503 .0309906V0L.14399719 .0029907227 .25498963 0Z"/>
<path id="font_1_84" d="M.5209961 .21636963C.5209961 .34336854 .42399598 .4423828 .31199647 .4423828 .23399353 .4423828 .19198609 .39837647 .17199707 .3763733V.4423828L.027999878 .43066407V.3996582C.09899902 .3996582 .10598755 .3936615 .10598755 .34973146V-.117996219C.10598755-.16308594 .09498596-.16308594 .027999878-.16308594V-.1940918L.13999939-.19110108 .25299073-.1940918V-.16308594C.18598938-.16308594 .1749878-.16308594 .1749878-.117996219V.050186159 .059173585C.17999268 .04319763 .22200012-.0107421879 .2979889-.0107421879 .4169922-.0107421879 .5209961 .087127689 .5209961 .21594239V.21636963M.43798829 .21594239C.43798829 .09512329 .36799623 .011245728 .2939911 .011245728 .2539978 .011245728 .21598816 .031219483 .18899536 .07215881 .1749878 .09312439 .1749878 .09411621 .1749878 .114089969V.33674623C.20399475 .38838197 .25299073 .41737367 .3039856 .41737367 .3769989 .41737367 .43798829 .32937623 .43798829 .21636963V.21594239Z"/>
<path id="font_1_81" d="M.47099305 .21424866C.47099305 .34223939 .37098695 .4482422 .25 .4482422 .125 .4482422 .027999878 .3392334 .027999878 .21424866 .027999878 .085250858 .13198853-.0107421879 .24899292-.0107421879 .36999513-.0107421879 .47099305 .087249759 .47099305 .21424866M.3880005 .22224427C.3880005 .18624878 .3880005 .13224793 .3659973 .08824158 .34399415 .04324341 .2999878 .014251709 .25 .014251709 .20698548 .014251709 .16299439 .035247804 .13598633 .08125305 .11099243 .12524414 .11099243 .18624878 .11099243 .22224427 .11099243 .26124574 .11099243 .31523133 .1349945 .35923768 .1619873 .40522767 .20899964 .426239 .24899292 .426239 .29299928 .426239 .33599855 .40423585 .3619995 .36123658 .3880005 .3182373 .3880005 .26023866 .3880005 .22224427Z"/>
<path id="font_1_77" d="M.5349884 0V.0309906C.48298646 .0309906 .45799256 .0309906 .45700074 .061019899V.25221253C.45700074 .3383026 .45700074 .36932374 .42599488 .405365 .4119873 .42237855 .3789978 .4423828 .32099916 .4423828 .24798584 .4423828 .20098877 .39935304 .17298889 .33729554V.4423828L.03199768 .43066407V.3996582C.101989749 .3996582 .10998535 .39266969 .10998535 .34370423V.07595825C.10998535 .0309906 .09899902 .0309906 .03199768 .0309906V0L.14498902 .0029907227 .25698854 0V.0309906C.18998719 .0309906 .1789856 .0309906 .1789856 .07595825V.25978089C.1789856 .36431886 .25 .42037965 .31399537 .42037965 .3769989 .42037965 .3880005 .36631776 .3880005 .30926515V.076034549C.3880005 .0309906 .3769989 .0309906 .30999757 .0309906V0L.4229889 .0029907227 .5349884 0Z"/>
<path id="font_1_105" d="M.33198548 .12385559V.18066406H.30699159V.12585449C.30699159 .052108766 .2769928 .014251709 .23999024 .014251709 .17298889 .014251709 .17298889 .10491943 .17298889 .12187195V.3996582H.31599427V.43066407H.17298889V.6142578H.147995C.14698792 .5324249 .116989139 .42565919 .018997193 .42166139V.3996582H.10398865V.12408447C.10398865 .0012512207 .19699097-.0107421879 .23298645-.0107421879 .3039856-.0107421879 .33198548 .060180665 .33198548 .12408447V.12385559Z"/>
<path id="font_1_104" d="M.68499758 .45214845 .66600039 .6767578H.054992677L.035995485 .45214845H.06098938C.07499695 .6128235 .08999634 .64575198 .24099732 .64575198 .25898744 .64575198 .2849884 .64575198 .29499818 .64375308 .31599427 .6397705 .31599427 .6287842 .31599427 .60583499V.07901001C.31599427 .04499817 .31599427 .0309906 .21099854 .0309906H.17098999V0C.21199036 .0029907227 .31399537 .0029907227 .3600006 .0029907227 .4059906 .0029907227 .5089874 .0029907227 .5499878 0V.0309906H.5099945C.40499879 .0309906 .40499879 .04499817 .40499879 .07901001V.60583499C.40499879 .62579348 .40499879 .6397705 .4229889 .64375308 .43399049 .64575198 .46099855 .64575198 .47999574 .64575198 .6309967 .64575198 .6459961 .6128235 .6599884 .45214845H.68499758Z"/>
<path id="font_1_98" d="M.3600006 .12823487C.3600006 .18122864 .32998658 .21122742 .31799317 .22323609 .2849884 .25523377 .24598694 .26322938 .20399475 .27124024 .147995 .28224183 .08099365 .29522706 .08099365 .35324098 .08099365 .38822938 .10699463 .42922975 .19299317 .42922975 .30299378 .42922975 .30799867 .3392334 .30999757 .30822755 .31098939 .2992401 .32199098 .2992401 .32199098 .2992401 .33499146 .2992401 .33499146 .30422975 .33499146 .32322694V.4242401C.33499146 .4412384 .33499146 .4482422 .32398988 .4482422 .31900025 .4482422 .31698609 .4482422 .3039856 .43623353 .30099488 .43223573 .29100038 .42323304 .2869873 .42022706 .24899292 .4482422 .20799256 .4482422 .19299317 .4482422 .070999149 .4482422 .032989503 .38124085 .032989503 .3252411 .032989503 .29023744 .04899597 .26223756 .07598877 .24023438 .10798645 .2142334 .13598633 .2082367 .20799256 .19422913 .22999573 .19021607 .31199647 .17422486 .31199647 .10221863 .31199647 .051223756 .2769928 .011245728 .19898987 .011245728 .114990238 .011245728 .07899475 .068222049 .05999756 .1532135 .056991579 .16621399 .055999757 .17021179 .04598999 .17021179 .032989503 .17021179 .032989503 .16322327 .032989503 .1452179V.013214111C.032989503-.003753662 .032989503-.0107421879 .04399109-.0107421879 .04899597-.0107421879 .049987794-.009750366 .068984989 .009246826 .070999149 .011245728 .070999149 .013214111 .08898926 .032226564 .1329956-.009750366 .17799378-.0107421879 .19898987-.0107421879 .31399537-.0107421879 .3600006 .05621338 .3600006 .1282196V.12823487Z"/>
<path id="font_1_108" d="M.71598818 .6516113V.6826172L.59799197 .6796112 .47898866 .6826172V.6516113C.58200076 .6516113 .58200076 .6044922 .58200076 .57748416V.23051453C.58200076 .088531497 .4850006 .008529663 .3899994 .008529663 .34298707 .008529663 .22499085 .03352356 .22499085 .22351074V.6044922C.22499085 .6405792 .22698975 .6516113 .3039856 .6516113H.32798768V.6826172C.29299928 .6796112 .21899414 .6796112 .18099976 .6796112 .14299011 .6796112 .067993167 .6796112 .032989503 .6826172V.6516113H.056991579C.13398743 .6516113 .13598633 .6405792 .13598633 .6044922V.22750855C.13598633 .086517337 .2519989-.022460938 .3880005-.022460938 .5029907-.022460938 .59298709 .07052612 .6100006 .18450928 .61299136 .20451355 .61299136 .21351624 .61299136 .25350953V.5734863C.61299136 .6064911 .61299136 .6516113 .71598818 .6516113Z"/>
<path id="font_2_2" d="M.2939911 .64004519C.2939911 .66400149 .2939911 .6660156 .2709961 .6660156 .20899964 .60227969 .12098694 .60227969 .08898926 .60227969V.57128909C.10899353 .57128909 .16799927 .57128909 .21998596 .5972748V.07902527C.21998596 .042999269 .21699524 .0309906 .1269989 .0309906H.09498596V0C.12998963 .0029907227 .21699524 .0029907227 .25698854 .0029907227 .29699708 .0029907227 .38398744 .0029907227 .4189911 0V.0309906H.3869934C.29699708 .0309906 .2939911 .041992189 .2939911 .07902527V.64004519Z"/>
<path id="font_3_1" d="M.43899537 .71199038C.44400025 .72499087 .44400025 .72898867 .44400025 .7299957 .44400025 .7409973 .43499757 .75 .42399598 .75 .4169922 .75 .4099884 .746994 .40699769 .7409973L.05999756-.21200562C.054992677-.2250061 .054992677-.2290039 .054992677-.23001099 .054992677-.24101258 .06399536-.25 .07499695-.25 .08799744-.25 .09098816-.24301148 .09700012-.22601319L.43899537 .71199038Z"/>
<path id="font_2_1" d="M.45999146 .31976319C.45999146 .39982606 .45498658 .47988893 .41999818 .5539398 .37399293 .65000918 .2919922 .6660156 .25 .6660156 .18998719 .6660156 .116989139 .64001467 .07598877 .54693606 .04399109 .47789 .038986207 .39982606 .038986207 .31976319 .038986207 .24472046 .042999269 .15464783 .083999637 .07859802 .1269989-.0024719239 .19999695-.022460938 .24899292-.022460938 .30299378-.022460938 .3789978-.0014648438 .4229889 .09359741 .45498658 .16265869 .45999146 .2407074 .45999146 .31976319M.24899292-.00047302247C.20999146-.00047302247 .15098572 .024551392 .1329956 .12062073 .12199402 .18066406 .12199402 .2727356 .12199402 .3317871 .12199402 .39582826 .12199402 .46188355 .12998963 .5159149 .14898682 .63500979 .22399903 .64401248 .24899292 .64401248 .28199769 .64401248 .34799195 .6259918 .36698915 .52693179 .3769989 .47088624 .3769989 .39482118 .3769989 .3317871 .3769989 .25672914 .3769989 .18867493 .3659973 .12461853 .35099793 .029556275 .2939911-.00047302247 .24899292-.00047302247Z"/>
<path id="font_1_85" d="M.33099366-.2400055C.33099366-.23701477 .33099366-.23500061 .31399537-.21800232 .18899536-.0920105 .15699768 .09700012 .15699768 .25 .15699768 .42399598 .19499207 .59799197 .31799317 .72299197 .33099366 .7350006 .33099366 .7369995 .33099366 .73999026 .33099366 .746994 .32699586 .75 .32099916 .75 .31098939 .75 .22099304 .6819916 .1619873 .5549927 .11099243 .44499208 .09899902 .33399964 .09899902 .25 .09899902 .17199707 .10998535 .050994874 .16499329-.06201172 .22499085-.18501282 .31098939-.25 .32099916-.25 .32699586-.25 .33099366-.24700928 .33099366-.2400055Z"/>
<path id="font_1_63" d="M.5349884 0V.0309906C.48298646 .0309906 .45799256 .0309906 .45700074 .061019899V.25221253C.45700074 .3383026 .45700074 .36932374 .42599488 .405365 .4119873 .42237855 .3789978 .4423828 .32099916 .4423828 .23699951 .4423828 .19299317 .38233949 .1769867 .34629823H.17599488V.69433596L.03199768 .6826172V.6516113C.101989749 .6516113 .10998535 .64463809 .10998535 .59580996V.076034549C.10998535 .0309906 .09899902 .0309906 .03199768 .0309906V0L.14498902 .0029907227 .25698854 0V.0309906C.18998719 .0309906 .1789856 .0309906 .1789856 .076034549V.2602234C.1789856 .36431886 .25 .42037965 .31399537 .42037965 .3769989 .42037965 .3880005 .36631776 .3880005 .30926515V.076034549C.3880005 .0309906 .3769989 .0309906 .30999757 .0309906V0L.4229889 .0029907227 .5349884 0Z"/>
<path id="font_1_109" d="M.5349884 0V.0309906C.46499635 .0309906 .45700074 .037994386 .45700074 .08705139V.4423828L.30999757 .43066407V.3996582C.37998963 .3996582 .3880005 .39266969 .3880005 .34373475V.16601563C.3880005 .07910156 .33999635 .011245728 .2669983 .011245728 .18299866 .011245728 .1789856 .058135988 .1789856 .11009216V.4423828L.03199768 .43066407V.3996582C.10998535 .3996582 .10998535 .39666749 .10998535 .3078003V.15802002C.10998535 .080093387 .10998535-.0107421879 .2619934-.0107421879 .31799317-.0107421879 .3619995 .017242432 .3909912 .07910156V-.0107421879L.5349884 0Z"/>
<path id="font_1_47" d="M.5269928 0V.0309906C.45700074 .0309906 .44898988 .038009645 .44898988 .0871582V.69433596L.30499269 .6826172V.6516113C.375 .6516113 .3829956 .64463809 .3829956 .59580996V.38035584C.35398866 .41636659 .31098939 .4423828 .25698854 .4423828 .13899231 .4423828 .033996583 .3443451 .033996583 .21531677 .033996583 .088272098 .13198853-.0107421879 .24598694-.0107421879 .30999757-.0107421879 .35499574 .023254395 .37998963 .055267335V-.0107421879L.5269928 0M.37998963 .117996219C.37998963 .099990848 .37998963 .09799194 .36898805 .08099365 .33898927 .033218385 .2939911 .011245728 .25099183 .011245728 .20599365 .011245728 .16999817 .037216188 .1459961 .075164798 .11999512 .1161499 .116989139 .17320252 .116989139 .21421814 .116989139 .25125123 .11898804 .31129457 .147995 .35632325 .16899109 .38734437 .20698548 .42037965 .26098634 .42037965 .29599 .42037965 .33799745 .405365 .36898805 .3603363 .37998963 .34332276 .37998963 .34132386 .37998963 .32330323V.117996219Z"/>
<path id="font_1_86" d="M.2889862 .25C.2889862 .32798768 .27799989 .44898988 .22299195 .56199648 .16299439 .68499758 .07699585 .75 .066986087 .75 .06098938 .75 .056991579 .74598696 .056991579 .73999026 .056991579 .7369995 .056991579 .7350006 .07598877 .71699526 .17399597 .6179962 .23098755 .45899964 .23098755 .25 .23098755 .07899475 .19400025-.09700012 .069992069-.2230072 .056991579-.23500061 .056991579-.23701477 .056991579-.2400055 .056991579-.2460022 .06098938-.25 .066986087-.25 .07699585-.25 .16699219-.18200684 .22599793-.055007936 .2769928 .054992677 .2889862 .16600037 .2889862 .25Z"/>
<path id="font_1_62" d="M.71598818 0V.0309906H.69200137C.61499026 .0309906 .61299136 .041992189 .61299136 .07797241V.6046448C.61299136 .640625 .61499026 .6516113 .69200137 .6516113H.71598818V.6826172C.68099978 .6796112 .6069946 .6796112 .56900027 .6796112 .5309906 .6796112 .45599366 .6796112 .42099 .6826172V.6516113H.44499208C.5219879 .6516113 .5239868 .640625 .5239868 .6046448V.37083436H.22499085V.6046448C.22499085 .640625 .22698975 .6516113 .3039856 .6516113H.32798768V.6826172C.29299928 .6796112 .21899414 .6796112 .18099976 .6796112 .14299011 .6796112 .067993167 .6796112 .032989503 .6826172V.6516113H.056991579C.13398743 .6516113 .13598633 .640625 .13598633 .6046448V.07797241C.13598633 .041992189 .13398743 .0309906 .056991579 .0309906H.032989503V0C.067993167 .0029907227 .14199829 .0029907227 .17999268 .0029907227 .21798706 .0029907227 .29299928 .0029907227 .32798768 0V.0309906H.3039856C.22698975 .0309906 .22499085 .041992189 .22499085 .07797241V.33984376H.5239868V.07797241C.5239868 .041992189 .5219879 .0309906 .44499208 .0309906H.42099V0C.45599366 .0029907227 .5299988 .0029907227 .56799319 .0029907227 .60598757 .0029907227 .68099978 .0029907227 .71598818 0Z"/>
<path id="font_1_96" d="M.3639984 .38137818C.3639984 .41337586 .33299256 .4423828 .2899933 .4423828 .21699524 .4423828 .18099976 .37538148 .16699219 .3323822V.4423828L.027999878 .43066407V.3996582C.09799194 .3996582 .10598755 .39266969 .10598755 .34370423V.07595825C.10598755 .0309906 .09498596 .0309906 .027999878 .0309906V0L.14199829 .0029907227C.18199158 .0029907227 .22898865 .0029907227 .2689972 0V.0309906H.24798584C.17399597 .0309906 .17199707 .04197693 .17199707 .07795715V.23181153C.17199707 .33137513 .21398926 .42037965 .2899933 .42037965 .29699708 .42037965 .29899598 .42037965 .30099488 .41937257 .2979889 .41838075 .27799989 .40637208 .27799989 .3803711 .27799989 .35237123 .29899598 .33737184 .32099916 .33737184 .33898927 .33737184 .3639984 .3493805 .3639984 .38137818Z"/>
<path id="font_4_1" d="M.2659912 .63912966C.2659912 .66012576 .2649994 .6611328 .25099183 .6611328 .21199036 .61424258 .15299988 .5993042 .09700012 .5973053 .09399414 .5973053 .08898926 .5973053 .08799744 .5953064 .08699036 .5933075 .08699036 .5913086 .08699036 .5703125 .117996219 .5703125 .16999817 .5763092 .20999146 .600296V.073013309C.20999146 .037994386 .20799256 .025985718 .12199402 .025985718H.09199524V0C.13999939 .0009918213 .18998719 .0019989014 .23799134 .0019989014 .28599549 .0019989014 .33599855 .0009918213 .38398744 0V.025985718H.35398866C.2679901 .025985718 .2659912 .037002565 .2659912 .073013309V.63912966Z"/>
<path id="font_4_3" d="M.45098878 .62350466V.6455078H.21598816C.09899902 .6455078 .09700012 .6582184 .09298706 .6772156H.07499695L.04598999 .49047853H.06399536C.066986087 .5094757 .07398987 .56048586 .085998538 .5794983 .09199524 .5874939 .1659851 .5874939 .18299866 .5874939H.40299989L.2919922 .42245484C.21798706 .31143189 .16699219 .16140747 .16699219 .030380249 .16699219 .018371582 .16699219-.015625 .20298767-.015625 .23899842-.015625 .23899842 .018371582 .23899842 .03137207V.07737732C.23899842 .24142456 .2669983 .34944154 .31298829 .41845704L.45098878 .62350466Z"/>
<path id="font_5_1" d="M.18399048 .04798889C.18399048 .07699585 .1599884 .09700012 .13598633 .09700012 .10699463 .09700012 .08699036 .07299805 .08699036 .04899597 .08699036 .019989014 .11099243 0 .1349945 0 .1639862 0 .18399048 .023986817 .18399048 .04798889Z"/>
<path id="font_4_2" d="M.11399841 .58535769C.12399292 .5813446 .16499329 .5683594 .20698548 .5683594 .2999878 .5683594 .35099793 .61834719 .37998963 .64715579 .37998963 .65515139 .37998963 .66015627 .37399293 .66015627 .37298585 .66015627 .37098695 .66015627 .36299134 .6561432 .32798768 .6411438 .2869873 .62934878 .23699951 .62934878 .20698548 .62934878 .1619873 .6332855 .11299133 .65515139 .101989749 .66015627 .099990848 .66015627 .09899902 .66015627 .09399414 .66015627 .09298706 .65914919 .09298706 .63916018V.34931947C.09298706 .33129884 .09298706 .32629396 .102996829 .32629396 .10798645 .32629396 .10998535 .32829286 .114990238 .33529664 .14698792 .3803711 .19099427 .39941407 .24099732 .39941407 .27598573 .39941407 .35099793 .3773651 .35099793 .20610047 .35099793 .17408753 .35099793 .116119388 .32099916 .07022095 .29599 .029312134 .25698854 .008361816 .21398926 .008361816 .147995 .008361816 .08099365 .054260255 .06298828 .13108826 .066986087 .13009644 .07499695 .12809754 .07899475 .12809754 .09199524 .12809754 .116989139 .13510132 .116989139 .16609192 .116989139 .19309998 .09799194 .20410156 .07899475 .20410156 .055999757 .20410156 .040985109 .190094 .040985109 .16209412 .040985109 .07521057 .10998535-.015625 .21598816-.015625 .31900025-.015625 .4169922 .07322693 .4169922 .2020874 .4169922 .32228089 .33898927 .41540528 .24198914 .41540528 .19099427 .41540528 .147995 .39640809 .11399841 .3603363V.58535769Z"/>
<path id="font_4_4" d="M.35198976 .29621888C.35198976 .07608032 .26098634 .008361816 .18598938 .008361816 .16299439 .008361816 .10699463 .011352539 .083999637 .050079347 .10998535 .046081544 .1289978 .06008911 .1289978 .08508301 .1289978 .112091068 .10699463 .12109375 .09298706 .12109375 .083999637 .12109375 .056991579 .11708069 .056991579 .08308411 .056991579 .015319824 .115997318-.015625 .18798828-.015625 .30299378-.015625 .41999818 .11009216 .41999818 .3302002 .41999818 .60414126 .30799867 .6611328 .23199463 .6611328 .1329956 .6611328 .037994386 .57414248 .037994386 .4401703 .037994386 .3162079 .11898804 .2242279 .22099304 .2242279 .30499269 .2242279 .34199525 .30221559 .35198976 .33520509V.29621888M.22299195 .24023438C.19599915 .24023438 .1579895 .245224 .1269989 .3052063 .10598755 .34420777 .10598755 .3901825 .10598755 .43917848 .10598755 .49816896 .10598755 .53915408 .13398743 .58314517 .147995 .60414126 .17399597 .63812258 .23199463 .63812258 .34999085 .63812258 .34999085 .45716859 .34999085 .4171753 .34999085 .34620667 .31799317 .24023438 .22299195 .24023438Z"/>
</defs>
<path transform="matrix(1,0,0,-1.00002,65.369998,50.84678)" stroke-width=".3985" stroke-linecap="butt" stroke-miterlimit="10" stroke-linejoin="miter" fill="none" stroke="#929292" d="M0-1.12965V37.55965"/>
<path transform="matrix(0,1.00002,1,0,65.369998,51.97645)" d="M.797 0C-.19925 .19925-1.19551 .59775-2.39102 1.29512-1.19551 .3985-1.19551-.3985-2.39102-1.29512-1.19551-.59775-.19925-.19925 .797 0Z" fill="#929292"/>
<path transform="matrix(0,1.00002,1,0,65.369998,51.97645)" stroke-width=".3985" stroke-linecap="butt" stroke-linejoin="round" fill="none" stroke="#929292" d="M.797 0C-.19925 .19925-1.19551 .59775-2.39102 1.29512-1.19551 .3985-1.19551-.3985-2.39102-1.29512-1.19551-.59775-.19925-.19925 .797 0Z"/>
<use data-text="D" xlink:href="#font_1_46" transform="matrix(9.9626,0,0,-9.962799,34.719995,7.8339159)" fill="#ff0000"/>
<use data-text="e" xlink:href="#font_1_50" transform="matrix(9.9626,0,0,-9.962799,42.331415,7.8339159)" fill="#ff0000"/>
<use data-text="c" xlink:href="#font_1_43" transform="matrix(9.9626,0,0,-9.962799,46.754816,7.8339159)" fill="#ff0000"/>
<use data-text="i" xlink:href="#font_1_66" transform="matrix(9.9626,0,0,-9.962799,51.178216,7.8339159)" fill="#ff0000"/>
<use data-text="m" xlink:href="#font_1_75" transform="matrix(9.9626,0,0,-9.962799,53.947824,7.8339159)" fill="#ff0000"/>
<use data-text="a" xlink:href="#font_1_28" transform="matrix(9.9626,0,0,-9.962799,62.246667,7.8339159)" fill="#ff0000"/>
<use data-text="l" xlink:href="#font_1_72" transform="matrix(9.9626,0,0,-9.962799,67.22796,7.8339159)" fill="#ff0000"/>
<use data-text="p" xlink:href="#font_1_84" transform="matrix(9.9626,0,0,-9.962799,73.31512,7.8339159)" fill="#ff0000"/>
<use data-text="o" xlink:href="#font_1_81" transform="matrix(9.9626,0,0,-9.962799,79.13326,7.8339159)" fill="#ff0000"/>
<use data-text="i" xlink:href="#font_1_66" transform="matrix(9.9626,0,0,-9.962799,84.114559,7.8339159)" fill="#ff0000"/>
<use data-text="n" xlink:href="#font_1_77" transform="matrix(9.9626,0,0,-9.962799,86.88416,7.8339159)" fill="#ff0000"/>
<use data-text="t" xlink:href="#font_1_105" transform="matrix(9.9626,0,0,-9.962799,92.154369,7.8339159)" fill="#ff0000"/>
<path transform="matrix(1,0,0,-1.00002,65.369998,50.84678)" stroke-width=".3985" stroke-linecap="butt" stroke-miterlimit="10" stroke-linejoin="miter" fill="none" stroke="#929292" d="M-24.7992 10.62578-29.10568 14.93227H-36.19238"/>
<path transform="matrix(.7071,.70711418,.7071,-.70711418,40.570787,40.220766)" d="M.797 0C-.19925 .19925-1.19551 .59775-2.39102 1.29512-1.19551 .3985-1.19551-.3985-2.39102-1.29512-1.19551-.59775-.19925-.19925 .797 0Z" fill="#929292"/>
<path transform="matrix(.7071,.70711418,.7071,-.70711418,40.570787,40.220766)" stroke-width=".3985" stroke-linecap="butt" stroke-linejoin="round" fill="none" stroke="#929292" d="M.797 0C-.19925 .19925-1.19551 .59775-2.39102 1.29512-1.19551 .3985-1.19551-.3985-2.39102-1.29512-1.19551-.59775-.19925-.19925 .797 0Z"/>
<use data-text="T" xlink:href="#font_1_104" transform="matrix(9.9626,0,0,-9.962799,5.4039919,39.231546)"/>
<use data-text="e" xlink:href="#font_1_50" transform="matrix(9.9626,0,0,-9.962799,11.780045,39.231546)"/>
<use data-text="n" xlink:href="#font_1_77" transform="matrix(9.9626,0,0,-9.962799,16.203446,39.231546)"/>
<use data-text="s" xlink:href="#font_1_98" transform="matrix(9.9626,0,0,-9.962799,21.742646,39.231546)"/>
<path transform="matrix(1,0,0,-1.00002,65.369998,50.84678)" stroke-width=".3985" stroke-linecap="butt" stroke-miterlimit="10" stroke-linejoin="miter" fill="none" stroke="#929292" d="M-10.62578 10.62578-29.96558 29.96558H-37.05226"/>
<path transform="matrix(.7071,.70711418,.7071,-.70711418,54.744195,40.220766)" d="M.797 0C-.19925 .19925-1.19551 .59775-2.39102 1.29512-1.19551 .3985-1.19551-.3985-2.39102-1.29512-1.19551-.59775-.19925-.19925 .797 0Z" fill="#929292"/>
<path transform="matrix(.7071,.70711418,.7071,-.70711418,54.744195,40.220766)" stroke-width=".3985" stroke-linecap="butt" stroke-linejoin="round" fill="none" stroke="#929292" d="M.797 0C-.19925 .19925-1.19551 .59775-2.39102 1.29512-1.19551 .3985-1.19551-.3985-2.39102-1.29512-1.19551-.59775-.19925-.19925 .797 0Z"/>
<use data-text="U" xlink:href="#font_1_108" transform="matrix(9.9626,0,0,-9.962799,1.2160034,24.173245)"/>
<use data-text="n" xlink:href="#font_1_77" transform="matrix(9.9626,0,0,-9.962799,8.687958,24.173245)"/>
<use data-text="i" xlink:href="#font_1_66" transform="matrix(9.9626,0,0,-9.962799,14.227158,24.173245)"/>
<use data-text="t" xlink:href="#font_1_105" transform="matrix(9.9626,0,0,-9.962799,16.996766,24.173245)"/>
<use data-text="s" xlink:href="#font_1_98" transform="matrix(9.9626,0,0,-9.962799,20.872223,24.173245)"/>
<path transform="matrix(1,0,0,-1.00002,65.369998,50.84678)" stroke-width=".3985" stroke-linecap="butt" stroke-miterlimit="10" stroke-linejoin="miter" fill="none" stroke="#929292" d="M33.30331 10.62578 37.6098 14.93227H44.69652"/>
<path transform="matrix(-.7071,.70711418,.7071,.70711418,98.673328,40.220766)" d="M.797 0C-.19925 .19925-1.19551 .59775-2.39102 1.29512-1.19551 .3985-1.19551-.3985-2.39102-1.29512-1.19551-.59775-.19925-.19925 .797 0Z" fill="#929292"/>
<path transform="matrix(-.7071,.70711418,.7071,.70711418,98.673328,40.220766)" stroke-width=".3985" stroke-linecap="butt" stroke-linejoin="round" fill="none" stroke="#929292" d="M.797 0C-.19925 .19925-1.19551 .59775-2.39102 1.29512-1.19551 .3985-1.19551-.3985-2.39102-1.29512-1.19551-.59775-.19925-.19925 .797 0Z"/>
<use data-text="1" xlink:href="#font_2_2" transform="matrix(9.9626,0,0,-9.962799,113.586,38.40453)"/>
<use data-text="/" xlink:href="#font_3_1" transform="matrix(9.9626,0,0,-9.962799,118.56799,38.40453)"/>
<use data-text="1" xlink:href="#font_2_2" transform="matrix(9.9626,0,0,-9.962799,123.548999,38.40453)"/>
<use data-text="0" xlink:href="#font_2_1" transform="matrix(9.9626,0,0,-9.962799,128.53029,38.40453)"/>
<use data-text="0" xlink:href="#font_2_1" transform="matrix(9.9626,0,0,-9.962799,133.51158,38.40453)"/>
<use data-text="0" xlink:href="#font_2_1" transform="matrix(9.9626,0,0,-9.962799,138.49288,38.40453)"/>
<use data-text="(" xlink:href="#font_1_85" transform="matrix(9.9626,0,0,-9.962799,146.79199,38.40453)"/>
<use data-text="T" xlink:href="#font_1_104" transform="matrix(9.9626,0,0,-9.962799,150.66745,38.40453)"/>
<use data-text="h" xlink:href="#font_1_63" transform="matrix(9.9626,0,0,-9.962799,157.86045,38.40453)"/>
<use data-text="o" xlink:href="#font_1_81" transform="matrix(9.9626,0,0,-9.962799,163.39965,38.40453)"/>
<use data-text="u" xlink:href="#font_1_109" transform="matrix(9.9626,0,0,-9.962799,168.38094,38.40453)"/>
<use data-text="s" xlink:href="#font_1_98" transform="matrix(9.9626,0,0,-9.962799,173.92014,38.40453)"/>
<use data-text="a" xlink:href="#font_1_28" transform="matrix(9.9626,0,0,-9.962799,177.8454,38.40453)"/>
<use data-text="n" xlink:href="#font_1_77" transform="matrix(9.9626,0,0,-9.962799,182.82669,38.40453)"/>
<use data-text="d" xlink:href="#font_1_47" transform="matrix(9.9626,0,0,-9.962799,188.36589,38.40453)"/>
<use data-text="t" xlink:href="#font_1_105" transform="matrix(9.9626,0,0,-9.962799,193.90509,38.40453)"/>
<use data-text="h" xlink:href="#font_1_63" transform="matrix(9.9626,0,0,-9.962799,197.78055,38.40453)"/>
<use data-text="s" xlink:href="#font_1_98" transform="matrix(9.9626,0,0,-9.962799,203.31975,38.40453)"/>
<use data-text=")" xlink:href="#font_1_86" transform="matrix(9.9626,0,0,-9.962799,207.24501,38.40453)"/>
<path transform="matrix(1,0,0,-1.00002,65.369998,50.84678)" stroke-width=".3985" stroke-linecap="butt" stroke-miterlimit="10" stroke-linejoin="miter" fill="none" stroke="#929292" d="M23.38197 10.62578 37.71059 24.95439H44.79729"/>
<path transform="matrix(-.7071,.70711418,.7071,.70711418,88.75198,40.220766)" d="M.797 0C-.19925 .19925-1.19551 .59775-2.39102 1.29512-1.19551 .3985-1.19551-.3985-2.39102-1.29512-1.19551-.59775-.19925-.19925 .797 0Z" fill="#929292"/>
<path transform="matrix(-.7071,.70711418,.7071,.70711418,88.75198,40.220766)" stroke-width=".3985" stroke-linecap="butt" stroke-linejoin="round" fill="none" stroke="#929292" d="M.797 0C-.19925 .19925-1.19551 .59775-2.39102 1.29512-1.19551 .3985-1.19551-.3985-2.39102-1.29512-1.19551-.59775-.19925-.19925 .797 0Z"/>
<use data-text="1" xlink:href="#font_2_2" transform="matrix(9.9626,0,0,-9.962799,113.687,28.382328)"/>
<use data-text="/" xlink:href="#font_3_1" transform="matrix(9.9626,0,0,-9.962799,118.66899,28.382328)"/>
<use data-text="1" xlink:href="#font_2_2" transform="matrix(9.9626,0,0,-9.962799,123.649997,28.382328)"/>
<use data-text="0" xlink:href="#font_2_1" transform="matrix(9.9626,0,0,-9.962799,128.63129,28.382328)"/>
<use data-text="0" xlink:href="#font_2_1" transform="matrix(9.9626,0,0,-9.962799,133.61258,28.382328)"/>
<use data-text="(" xlink:href="#font_1_85" transform="matrix(9.9626,0,0,-9.962799,141.91199,28.382328)"/>
<use data-text="H" xlink:href="#font_1_62" transform="matrix(9.9626,0,0,-9.962799,145.78745,28.382328)"/>
<use data-text="u" xlink:href="#font_1_109" transform="matrix(9.9626,0,0,-9.962799,153.2594,28.382328)"/>
<use data-text="n" xlink:href="#font_1_77" transform="matrix(9.9626,0,0,-9.962799,158.7986,28.382328)"/>
<use data-text="d" xlink:href="#font_1_47" transform="matrix(9.9626,0,0,-9.962799,164.3378,28.382328)"/>
<use data-text="r" xlink:href="#font_1_96" transform="matrix(9.9626,0,0,-9.962799,169.877,28.382328)"/>
<use data-text="e" xlink:href="#font_1_50" transform="matrix(9.9626,0,0,-9.962799,173.78234,28.382328)"/>
<use data-text="d" xlink:href="#font_1_47" transform="matrix(9.9626,0,0,-9.962799,178.20574,28.382328)"/>
<use data-text="t" xlink:href="#font_1_105" transform="matrix(9.9626,0,0,-9.962799,183.74494,28.382328)"/>
<use data-text="h" xlink:href="#font_1_63" transform="matrix(9.9626,0,0,-9.962799,187.62039,28.382328)"/>
<use data-text="s" xlink:href="#font_1_98" transform="matrix(9.9626,0,0,-9.962799,193.15959,28.382328)"/>
<use data-text=")" xlink:href="#font_1_86" transform="matrix(9.9626,0,0,-9.962799,197.08486,28.382328)"/>
<path transform="matrix(1,0,0,-1.00002,65.369998,50.84678)" stroke-width=".3985" stroke-linecap="butt" stroke-miterlimit="10" stroke-linejoin="miter" fill="none" stroke="#929292" d="M13.46042 10.62578 37.81116 34.97652H44.89784"/>
<path transform="matrix(-.7071,.70711418,.7071,.70711418,78.83043,40.220766)" d="M.797 0C-.19925 .19925-1.19551 .59775-2.39102 1.29512-1.19551 .3985-1.19551-.3985-2.39102-1.29512-1.19551-.59775-.19925-.19925 .797 0Z" fill="#929292"/>
<path transform="matrix(-.7071,.70711418,.7071,.70711418,78.83043,40.220766)" stroke-width=".3985" stroke-linecap="butt" stroke-linejoin="round" fill="none" stroke="#929292" d="M.797 0C-.19925 .19925-1.19551 .59775-2.39102 1.29512-1.19551 .3985-1.19551-.3985-2.39102-1.29512-1.19551-.59775-.19925-.19925 .797 0Z"/>
<use data-text="1" xlink:href="#font_2_2" transform="matrix(9.9626,0,0,-9.962799,113.787998,18.360127)"/>
<use data-text="/" xlink:href="#font_3_1" transform="matrix(9.9626,0,0,-9.962799,118.76999,18.360127)"/>
<use data-text="1" xlink:href="#font_2_2" transform="matrix(9.9626,0,0,-9.962799,123.75099,18.360127)"/>
<use data-text="0" xlink:href="#font_2_1" transform="matrix(9.9626,0,0,-9.962799,128.73229,18.360127)"/>
<use data-text="(" xlink:href="#font_1_85" transform="matrix(9.9626,0,0,-9.962799,137.03099,18.360127)"/>
<use data-text="T" xlink:href="#font_1_104" transform="matrix(9.9626,0,0,-9.962799,140.90645,18.360127)"/>
<use data-text="e" xlink:href="#font_1_50" transform="matrix(9.9626,0,0,-9.962799,147.2825,18.360127)"/>
<use data-text="n" xlink:href="#font_1_77" transform="matrix(9.9626,0,0,-9.962799,151.7059,18.360127)"/>
<use data-text="t" xlink:href="#font_1_105" transform="matrix(9.9626,0,0,-9.962799,156.96616,18.360127)"/>
<use data-text="h" xlink:href="#font_1_63" transform="matrix(9.9626,0,0,-9.962799,160.84162,18.360127)"/>
<use data-text="s" xlink:href="#font_1_98" transform="matrix(9.9626,0,0,-9.962799,166.38082,18.360127)"/>
<use data-text=")" xlink:href="#font_1_86" transform="matrix(9.9626,0,0,-9.962799,170.30608,18.360127)"/>
<use data-text="1" xlink:href="#font_4_1" transform="matrix(24.7871,0,0,-24.787596,39.26301,58.835939)" fill="#800080"/>
<use data-text="7" xlink:href="#font_4_3" transform="matrix(24.7871,0,0,-24.787596,50.6155,58.835939)" fill="#800080"/>
<use data-text="." xlink:href="#font_5_1" transform="matrix(24.7871,0,0,-24.787596,61.999,58.835939)" fill="#800080"/>
<use data-text="5" xlink:href="#font_4_2" transform="matrix(24.7871,0,0,-24.787596,68.74,58.835939)" fill="#800080"/>
<use data-text="9" xlink:href="#font_4_4" transform="matrix(24.7871,0,0,-24.787596,80.09249,58.835939)" fill="#800080"/>
<use data-text="1" xlink:href="#font_4_1" transform="matrix(24.7871,0,0,-24.787596,91.444988,58.835939)" fill="#800080"/>
</svg>
