<svg xmlns="http://www.w3.org/2000/svg" xmlns:xlink="http://www.w3.org/1999/xlink" version="1.1" width="61" height="55" viewBox="0 0 61 55">
<path transform="matrix(1.00009,0,0,-1,2.295494,51.096)" stroke-width=".3985" stroke-linecap="butt" stroke-miterlimit="10" stroke-linejoin="miter" fill="none" stroke="#ff0000" d="M8.50412 0C8.50412 3.03786 6.88284 5.84593 4.25204 7.36479"/>
<path transform="matrix(1.00009,0,0,-1,2.295494,51.096)" stroke-width=".3985" stroke-linecap="butt" stroke-miterlimit="10" stroke-linejoin="miter" fill="none" stroke="#ff0000" d="M48.18947 0C48.18947 3.03786 49.81075 5.84593 52.44154 7.36479"/>
<path transform="matrix(1.00009,0,0,-1,2.295494,51.096)" stroke-width=".3985" stroke-linecap="butt" stroke-miterlimit="10" stroke-linejoin="miter" fill="none" stroke="#ff0000" d="M24.09496 41.73384C26.72575 40.21498 29.96828 40.21498 32.59908 41.73384"/>
<path transform="matrix(1.00009,0,0,-1,2.295494,51.096)" stroke-width=".79701" stroke-linecap="butt" stroke-miterlimit="10" stroke-linejoin="miter" fill="none" stroke="#000000" d="M0 0H56.69362L28.3468 49.09824Z"/>
<path transform="matrix(1.00009,0,0,-1,2.295494,51.096)" stroke-width=".3985" stroke-linecap="butt" stroke-miterlimit="10" stroke-linejoin="miter" fill="none" stroke="#0000ff" d="M28.3468 2.83484V-2.83441"/>
<path transform="matrix(1.00009,0,0,-1,2.295494,51.096)" stroke-width=".3985" stroke-linecap="butt" stroke-miterlimit="10" stroke-linejoin="miter" fill="none" stroke="#0000ff" d="M44.97485 25.96652 40.06511 23.13211"/>
<path transform="matrix(1.00009,0,0,-1,2.295494,51.096)" stroke-width=".3985" stroke-linecap="butt" stroke-miterlimit="10" stroke-linejoin="miter" fill="none" stroke="#0000ff" d="M11.71873 25.96652 16.62848 23.13211"/>
</svg>
