<svg xmlns="http://www.w3.org/2000/svg" xmlns:xlink="http://www.w3.org/1999/xlink" version="1.1" width="80" height="37" viewBox="0 0 80 37">
<path transform="matrix(1,0,0,-1.00005,19.103997,18.226262)" d="M17.00824 0C17.00824 9.39351 9.39351 17.00824 0 17.00824-9.39351 17.00824-17.00824 9.39351-17.00824 0-17.00824-9.39351-9.39351-17.00824 0-17.00824 9.39351-17.00824 17.00824-9.39351 17.00824 0ZM0 0" fill="#00ff00"/>
<path transform="matrix(1,0,0,-1.00005,19.103997,18.226262)" stroke-width=".3985" stroke-linecap="butt" stroke-miterlimit="10" stroke-linejoin="miter" fill="none" stroke="#00ff00" d="M17.00824 0C17.00824 9.39351 9.39351 17.00824 0 17.00824-9.39351 17.00824-17.00824 9.39351-17.00824 0-17.00824-9.39351-9.39351-17.00824 0-17.00824 9.39351-17.00824 17.00824-9.39351 17.00824 0ZM0 0"/>
<path transform="matrix(1,0,0,-1.00005,19.103997,18.226262)" stroke-width=".3985" stroke-linecap="butt" stroke-miterlimit="10" stroke-linejoin="miter" fill="none" stroke="#000000" d="M17.00824 0C17.00824 9.39351 9.39351 17.00824 0 17.00824-9.39351 17.00824-17.00824 9.39351-17.00824 0-17.00824-9.39351-9.39351-17.00824 0-17.00824 9.39351-17.00824 17.00824-9.39351 17.00824 0ZM0 0"/>
<path transform="matrix(1,0,0,-1.00005,19.103997,18.226262)" stroke-width=".3985" stroke-linecap="butt" stroke-miterlimit="10" stroke-linejoin="miter" fill="none" stroke="#000000" d="M0-17.00824V17.00824"/>
<path transform="matrix(1,0,0,-1.00005,19.103997,18.226262)" stroke-width=".3985" stroke-linecap="butt" stroke-miterlimit="10" stroke-linejoin="miter" fill="none" stroke="#000000" d="M14.7296 8.50412-14.72961-8.50412"/>
<path transform="matrix(1,0,0,-1.00005,19.103997,18.226262)" stroke-width=".3985" stroke-linecap="butt" stroke-miterlimit="10" stroke-linejoin="miter" fill="none" stroke="#000000" d="M-14.7296 8.50412 14.72961-8.50412"/>
<path transform="matrix(1,0,0,-1.00005,19.103997,18.226262)" d="M57.25275-8.50412C61.94936-.36931 59.16206 10.03297 51.02725 14.7296 42.89246 19.42622 32.49014 16.63892 27.79353 8.50412 24.7558 3.24251 24.7558-3.24251 27.79353-8.50412L42.52312 0Z" fill="#00ff00"/>
<path transform="matrix(1,0,0,-1.00005,19.103997,18.226262)" stroke-width=".3985" stroke-linecap="butt" stroke-miterlimit="10" stroke-linejoin="miter" fill="none" stroke="#00ff00" d="M57.25275-8.50412C61.94936-.36931 59.16206 10.03297 51.02725 14.7296 42.89246 19.42622 32.49014 16.63892 27.79353 8.50412 24.7558 3.24251 24.7558-3.24251 27.79353-8.50412L42.52312 0Z"/>
<path transform="matrix(1,0,0,-1.00005,19.103997,18.226262)" stroke-width=".3985" stroke-linecap="butt" stroke-miterlimit="10" stroke-linejoin="miter" fill="none" stroke="#000000" d="M59.53137 0C59.53137 9.39351 51.91663 17.00824 42.52312 17.00824 33.12961 17.00824 25.51488 9.39351 25.51488 0 25.51488-9.39351 33.12961-17.00824 42.52312-17.00824 51.91663-17.00824 59.53137-9.39351 59.53137 0ZM42.52312 0"/>
<path transform="matrix(1,0,0,-1.00005,19.103997,18.226262)" stroke-width=".3985" stroke-linecap="butt" stroke-miterlimit="10" stroke-linejoin="miter" fill="none" stroke="#000000" d="M42.52312-17.00824V17.00824"/>
<path transform="matrix(1,0,0,-1.00005,19.103997,18.226262)" stroke-width=".3985" stroke-linecap="butt" stroke-miterlimit="10" stroke-linejoin="miter" fill="none" stroke="#000000" d="M57.25275 8.50412 27.7935-8.50412"/>
<path transform="matrix(1,0,0,-1.00005,19.103997,18.226262)" stroke-width=".3985" stroke-linecap="butt" stroke-miterlimit="10" stroke-linejoin="miter" fill="none" stroke="#000000" d="M27.7935 8.50412 57.25275-8.50412"/>
</svg>
