<svg xmlns="http://www.w3.org/2000/svg" xmlns:xlink="http://www.w3.org/1999/xlink" version="1.1" width="165" height="37" viewBox="0 0 165 37">
<path transform="matrix(1.00008,0,0,-1.00002,19.10601,18.808056)" d="M17.00824 0C17.00824 9.39351 9.39351 17.00824 0 17.00824-9.39351 17.00824-17.00824 9.39351-17.00824 0-17.00824-9.39351-9.39351-17.00824 0-17.00824 9.39351-17.00824 17.00824-9.39351 17.00824 0ZM0 0" fill="#00ff00"/>
<path transform="matrix(1.00008,0,0,-1.00002,19.10601,18.808056)" stroke-width=".3985" stroke-linecap="butt" stroke-miterlimit="10" stroke-linejoin="miter" fill="none" stroke="#00ff00" d="M17.00824 0C17.00824 9.39351 9.39351 17.00824 0 17.00824-9.39351 17.00824-17.00824 9.39351-17.00824 0-17.00824-9.39351-9.39351-17.00824 0-17.00824 9.39351-17.00824 17.00824-9.39351 17.00824 0ZM0 0"/>
<path transform="matrix(1.00008,0,0,-1.00002,19.10601,18.808056)" stroke-width=".3985" stroke-linecap="butt" stroke-miterlimit="10" stroke-linejoin="miter" fill="none" stroke="#000000" d="M17.00824 0C17.00824 9.39351 9.39351 17.00824 0 17.00824-9.39351 17.00824-17.00824 9.39351-17.00824 0-17.00824-9.39351-9.39351-17.00824 0-17.00824 9.39351-17.00824 17.00824-9.39351 17.00824 0ZM0 0"/>
<path transform="matrix(1.00008,0,0,-1.00002,19.10601,18.808056)" stroke-width=".3985" stroke-linecap="butt" stroke-miterlimit="10" stroke-linejoin="miter" fill="none" stroke="#000000" d="M0 0V17.00824"/>
<path transform="matrix(1.00008,0,0,-1.00002,19.10601,18.808056)" stroke-width=".3985" stroke-linecap="butt" stroke-miterlimit="10" stroke-linejoin="miter" fill="none" stroke="#000000" d="M0 0-14.7296-8.50412"/>
<path transform="matrix(1.00008,0,0,-1.00002,19.10601,18.808056)" stroke-width=".3985" stroke-linecap="butt" stroke-miterlimit="10" stroke-linejoin="miter" fill="none" stroke="#000000" d="M0 0 14.7296-8.50412"/>
<path transform="matrix(1.00008,0,0,-1.00002,19.10601,18.808056)" d="M59.53137 0C59.53137 9.39351 51.91663 17.00824 42.52312 17.00824 33.12961 17.00824 25.51488 9.39351 25.51488 0 25.51488-9.39351 33.12961-17.00824 42.52312-17.00824 51.91663-17.00824 59.53137-9.39351 59.53137 0ZM42.52312 0" fill="#00ff00"/>
<path transform="matrix(1.00008,0,0,-1.00002,19.10601,18.808056)" stroke-width=".3985" stroke-linecap="butt" stroke-miterlimit="10" stroke-linejoin="miter" fill="none" stroke="#00ff00" d="M59.53137 0C59.53137 9.39351 51.91663 17.00824 42.52312 17.00824 33.12961 17.00824 25.51488 9.39351 25.51488 0 25.51488-9.39351 33.12961-17.00824 42.52312-17.00824 51.91663-17.00824 59.53137-9.39351 59.53137 0ZM42.52312 0"/>
<path transform="matrix(1.00008,0,0,-1.00002,19.10601,18.808056)" stroke-width=".3985" stroke-linecap="butt" stroke-miterlimit="10" stroke-linejoin="miter" fill="none" stroke="#000000" d="M59.53137 0C59.53137 9.39351 51.91663 17.00824 42.52312 17.00824 33.12961 17.00824 25.51488 9.39351 25.51488 0 25.51488-9.39351 33.12961-17.00824 42.52312-17.00824 51.91663-17.00824 59.53137-9.39351 59.53137 0ZM42.52312 0"/>
<path transform="matrix(1.00008,0,0,-1.00002,19.10601,18.808056)" stroke-width=".3985" stroke-linecap="butt" stroke-miterlimit="10" stroke-linejoin="miter" fill="none" stroke="#000000" d="M42.52312 0V17.00824"/>
<path transform="matrix(1.00008,0,0,-1.00002,19.10601,18.808056)" stroke-width=".3985" stroke-linecap="butt" stroke-miterlimit="10" stroke-linejoin="miter" fill="none" stroke="#000000" d="M42.52312 0 27.7935-8.50412"/>
<path transform="matrix(1.00008,0,0,-1.00002,19.10601,18.808056)" stroke-width=".3985" stroke-linecap="butt" stroke-miterlimit="10" stroke-linejoin="miter" fill="none" stroke="#000000" d="M42.52312 0 57.25275-8.50412"/>
<path transform="matrix(1.00008,0,0,-1.00002,19.10601,18.808056)" d="M102.05452 0C102.05452 9.39351 94.43979 17.00824 85.04628 17.00824 75.65276 17.00824 68.03802 9.39351 68.03802 0 68.03802-9.39351 75.65276-17.00824 85.04628-17.00824 94.43979-17.00824 102.05452-9.39351 102.05452 0ZM85.04628 0" fill="#00ff00"/>
<path transform="matrix(1.00008,0,0,-1.00002,19.10601,18.808056)" stroke-width=".3985" stroke-linecap="butt" stroke-miterlimit="10" stroke-linejoin="miter" fill="none" stroke="#00ff00" d="M102.05452 0C102.05452 9.39351 94.43979 17.00824 85.04628 17.00824 75.65276 17.00824 68.03802 9.39351 68.03802 0 68.03802-9.39351 75.65276-17.00824 85.04628-17.00824 94.43979-17.00824 102.05452-9.39351 102.05452 0ZM85.04628 0"/>
<path transform="matrix(1.00008,0,0,-1.00002,19.10601,18.808056)" stroke-width=".3985" stroke-linecap="butt" stroke-miterlimit="10" stroke-linejoin="miter" fill="none" stroke="#000000" d="M102.05452 0C102.05452 9.39351 94.43979 17.00824 85.04628 17.00824 75.65276 17.00824 68.03802 9.39351 68.03802 0 68.03802-9.39351 75.65276-17.00824 85.04628-17.00824 94.43979-17.00824 102.05452-9.39351 102.05452 0ZM85.04628 0"/>
<path transform="matrix(1.00008,0,0,-1.00002,19.10601,18.808056)" stroke-width=".3985" stroke-linecap="butt" stroke-miterlimit="10" stroke-linejoin="miter" fill="none" stroke="#000000" d="M85.04628 0V17.00824"/>
<path transform="matrix(1.00008,0,0,-1.00002,19.10601,18.808056)" stroke-width=".3985" stroke-linecap="butt" stroke-miterlimit="10" stroke-linejoin="miter" fill="none" stroke="#000000" d="M85.04628 0 70.31667-8.50412"/>
<path transform="matrix(1.00008,0,0,-1.00002,19.10601,18.808056)" stroke-width=".3985" stroke-linecap="butt" stroke-miterlimit="10" stroke-linejoin="miter" fill="none" stroke="#000000" d="M85.04628 0 99.7759-8.50412"/>
<path transform="matrix(1.00008,0,0,-1.00002,19.10601,18.808056)" d="M144.57769 0C144.57769 9.39351 136.96295 17.00824 127.56943 17.00824 118.17592 17.00824 110.56119 9.39351 110.56119 0 110.56119-9.39351 118.17592-17.00824 127.56943-17.00824 136.96295-17.00824 144.57769-9.39351 144.57769 0ZM127.56943 0" fill="#00ff00"/>
<path transform="matrix(1.00008,0,0,-1.00002,19.10601,18.808056)" stroke-width=".3985" stroke-linecap="butt" stroke-miterlimit="10" stroke-linejoin="miter" fill="none" stroke="#00ff00" d="M144.57769 0C144.57769 9.39351 136.96295 17.00824 127.56943 17.00824 118.17592 17.00824 110.56119 9.39351 110.56119 0 110.56119-9.39351 118.17592-17.00824 127.56943-17.00824 136.96295-17.00824 144.57769-9.39351 144.57769 0ZM127.56943 0"/>
<path transform="matrix(1.00008,0,0,-1.00002,19.10601,18.808056)" stroke-width=".3985" stroke-linecap="butt" stroke-miterlimit="10" stroke-linejoin="miter" fill="none" stroke="#000000" d="M144.57769 0C144.57769 9.39351 136.96295 17.00824 127.56943 17.00824 118.17592 17.00824 110.56119 9.39351 110.56119 0 110.56119-9.39351 118.17592-17.00824 127.56943-17.00824 136.96295-17.00824 144.57769-9.39351 144.57769 0ZM127.56943 0"/>
<path transform="matrix(1.00008,0,0,-1.00002,19.10601,18.808056)" stroke-width=".3985" stroke-linecap="butt" stroke-miterlimit="10" stroke-linejoin="miter" fill="none" stroke="#000000" d="M127.56943 0V17.00824"/>
<path transform="matrix(1.00008,0,0,-1.00002,19.10601,18.808056)" stroke-width=".3985" stroke-linecap="butt" stroke-miterlimit="10" stroke-linejoin="miter" fill="none" stroke="#000000" d="M127.56943 0 112.83983-8.50412"/>
<path transform="matrix(1.00008,0,0,-1.00002,19.10601,18.808056)" stroke-width=".3985" stroke-linecap="butt" stroke-miterlimit="10" stroke-linejoin="miter" fill="none" stroke="#000000" d="M127.56943 0 142.29906-8.50412"/>
</svg>
