<svg xmlns="http://www.w3.org/2000/svg" xmlns:xlink="http://www.w3.org/1999/xlink" version="1.1" width="81" height="97" viewBox="0 0 81 97">
<defs>
<path id="font_1_1" d="M.15899658 .07795715C.14898682 .038986207 .14698792 .0309906 .067993167 .0309906 .050994874 .0309906 .039993287 .0309906 .039993287 .011993408 .039993287 0 .04899597 0 .067993167 0H.39898683C.6069946 0 .80400088 .21087647 .80400088 .42974855 .80400088 .5706482 .71899417 .6826172 .56900027 .6826172H.23298645C.21398926 .6826172 .20298767 .6826172 .20298767 .66360476 .20298767 .6516113 .21199036 .6516113 .23199463 .6516113 .24499512 .6516113 .2630005 .65060427 .2749939 .6496124 .29100038 .6476135 .29699708 .64460757 .29699708 .6336212 .29699708 .6296234 .29599 .62661746 .29299928 .614624L.15899658 .07795715M.375 .6136322C.38398744 .64860537 .38598634 .6516113 .42900086 .6516113H.5359955C.6339874 .6516113 .71699526 .5986328 .71699526 .46672059 .71699526 .41775514 .69699099 .25386048 .6119995 .1439209 .58299258 .10694885 .5039978 .0309906 .3809967 .0309906H.2679901C.2539978 .0309906 .2519989 .0309906 .24598694 .03199768 .23599243 .032989503 .23298645 .033996583 .23298645 .041992189 .23298645 .04498291 .23298645 .04698181 .23799134 .064971927L.375 .6136322Z"/>
<path id="font_1_3" d="M.30299378 .3244629H.3999939C.47499085 .3244629 .48298646 .30848695 .48298646 .27954103 .48298646 .2725525 .48298646 .26057435 .47599793 .2306366 .47399903 .22564698 .47299195 .22164917 .47299195 .21965027 .47299195 .21166992 .47898866 .20767212 .4850006 .20767212 .49499513 .20767212 .49499513 .21066284 .5 .2286377L.5549927 .44551087C.55799868 .45651246 .55799868 .45851136 .55799868 .46151734 .55799868 .46351625 .55599978 .47251893 .54599 .47251893 .5359955 .47251893 .5349884 .46751405 .5309906 .45150758 .5099945 .37347413 .4869995 .35546876 .4019928 .35546876H.31098939L.375 .6095886C.38398744 .64460757 .3849945 .64860537 .42900086 .64860537H.5609894C.6839905 .64860537 .70700076 .6156006 .70700076 .53855898 .70700076 .5155487 .70700076 .51153567 .70399478 .4845276 .70199587 .4715271 .70199587 .46951295 .70199587 .46652223 .70199587 .46151734 .7049866 .45451356 .71398928 .45451356 .72499087 .45451356 .7259979 .46051026 .7279968 .4795227L.7480011 .65260317C.7509918 .6796112 .74598696 .6796112 .72099307 .6796112H.23098755C.21099854 .6796112 .20098877 .6796112 .20098877 .65960696 .20098877 .64860537 .20999146 .64860537 .22898865 .64860537 .2659912 .64860537 .2939911 .64860537 .2939911 .6306 .2939911 .6266022 .2939911 .6246033 .2889862 .60658267L.15699768 .07791138C.14698792 .038970949 .14498902 .0309906 .06599426 .0309906 .04899597 .0309906 .037994386 .0309906 .037994386 .011993408 .037994386 0 .049987794 0 .052993776 0 .08198547 0 .1559906 .0029907227 .18499756 .0029907227 .21798706 .0029907227 .30099488 0 .33399964 0 .34298707 0 .35499574 0 .35499574 .018997193 .35499574 .026992798 .34899903 .0289917 .34899903 .02999878 .34599305 .0309906 .34399415 .0309906 .32099916 .0309906 .29899598 .0309906 .2939911 .0309906 .2689972 .032989503 .23999024 .035980226 .23699951 .039978029 .23699951 .052947999 .23699951 .0549469 .23699951 .060943605 .24099732 .075912479L.30299378 .3244629Z"/>
<path id="font_1_2" d="M.70799258 .23292542C.70999148 .23791504 .71299746 .24491883 .71299746 .24691773 .71299746 .24790955 .71299746 .2579193 .70098879 .2579193 .69200137 .2579193 .6899872 .25190736 .6879883 .24591065 .6230011 .097961429 .58599856 .0309906 .4149933 .0309906H.2689972C.25498963 .0309906 .25299073 .0309906 .24699402 .03199768 .23699951 .032989503 .23399353 .033996583 .23399353 .041992189 .23399353 .04498291 .23399353 .04698181 .23899842 .06498718L.30699159 .33789063H.4059906C.4909973 .33789063 .4909973 .31689454 .4909973 .29190064 .4909973 .28489686 .4909973 .27290345 .48399354 .24291992 .48199464 .23791504 .48098756 .23492432 .48098756 .23191834 .48098756 .22692871 .4850006 .220932 .49398805 .220932 .5019989 .220932 .5049896 .22592163 .5089874 .24092102L.56599429 .47477723C.56599429 .48077394 .5609894 .48576356 .55400088 .48576356 .54499819 .48576356 .54299929 .47976686 .5399933 .4677887 .5189972 .39186097 .5009918 .36888124 .40899659 .36888124H.31498719L.375 .60964968C.38398744 .64460757 .3849945 .64860537 .42900086 .64860537H.56999209C.69200137 .64860537 .7220001 .61964419 .7220001 .5377197 .7220001 .51374819 .7220001 .51174929 .71798709 .48477174 .71798709 .47877503 .71699526 .4717865 .71699526 .46678163 .71699526 .461792 .7200012 .45480348 .72898867 .45480348 .73999026 .45480348 .7409973 .46080018 .7429962 .47976686L.7630005 .65260317C.7659912 .6796112 .7609863 .6796112 .73599246 .6796112H.23098755C.21099854 .6796112 .20098877 .6796112 .20098877 .65960696 .20098877 .64860537 .20999146 .64860537 .22898865 .64860537 .2659912 .64860537 .2939911 .64860537 .2939911 .6306305 .2939911 .6266327 .2939911 .6246338 .2889862 .6066437L.15699768 .07797241C.14698792 .038986207 .14498902 .0309906 .06599426 .0309906 .04899597 .0309906 .037994386 .0309906 .037994386 .011993408 .037994386 0 .04699707 0 .06599426 0H.58499148C.60798647 0 .60899356 .0009918213 .6159973 .016998291L.70799258 .23292542Z"/>
</defs>
<path transform="matrix(1.00006,0,0,-1.00003,12.865868,85.1522)" d="M0 0 27.63878 73.70349 55.2776 0Z" fill="#8080ff"/>
<path transform="matrix(1.00006,0,0,-1.00003,12.865868,85.1522)" stroke-width=".79701" stroke-linecap="butt" stroke-miterlimit="10" stroke-linejoin="miter" fill="none" stroke="#000000" d="M0 0 27.63878 73.70349 55.2776 0Z"/>
<use data-text="D" xlink:href="#font_1_1" transform="matrix(9.963197,0,0,-9.962899,44.225748,7.7268755)"/>
<use data-text="F" xlink:href="#font_1_3" transform="matrix(9.963197,0,0,-9.962899,71.86641,95.67952)"/>
<use data-text="E" xlink:href="#font_1_2" transform="matrix(9.963197,0,0,-9.962899,1.2171707,95.67952)"/>
<path transform="matrix(1.00006,0,0,-1.00003,12.865868,85.1522)" d="M1.84262 0C1.84262 1.01765 1.01765 1.84262 0 1.84262-1.01765 1.84262-1.84262 1.01765-1.84262 0-1.84262-1.01765-1.01765-1.84262 0-1.84262 1.01765-1.84262 1.84262-1.01765 1.84262 0ZM0 0"/>
<path transform="matrix(1.00006,0,0,-1.00003,12.865868,85.1522)" stroke-width=".3985" stroke-linecap="butt" stroke-miterlimit="10" stroke-linejoin="miter" fill="none" stroke="#000000" d="M1.84262 0C1.84262 1.01765 1.01765 1.84262 0 1.84262-1.01765 1.84262-1.84262 1.01765-1.84262 0-1.84262-1.01765-1.01765-1.84262 0-1.84262 1.01765-1.84262 1.84262-1.01765 1.84262 0ZM0 0"/>
<path transform="matrix(1.00006,0,0,-1.00003,12.865868,85.1522)" d="M29.48141 73.70349C29.48141 74.72115 28.65645 75.54611 27.63878 75.54611 26.62112 75.54611 25.79616 74.72115 25.79616 73.70349 25.79616 72.68582 26.62112 71.86086 27.63878 71.86086 28.65645 71.86086 29.48141 72.68582 29.48141 73.70349ZM27.63878 73.70349"/>
<path transform="matrix(1.00006,0,0,-1.00003,12.865868,85.1522)" stroke-width=".3985" stroke-linecap="butt" stroke-miterlimit="10" stroke-linejoin="miter" fill="none" stroke="#000000" d="M29.48141 73.70349C29.48141 74.72115 28.65645 75.54611 27.63878 75.54611 26.62112 75.54611 25.79616 74.72115 25.79616 73.70349 25.79616 72.68582 26.62112 71.86086 27.63878 71.86086 28.65645 71.86086 29.48141 72.68582 29.48141 73.70349ZM27.63878 73.70349"/>
<path transform="matrix(1.00006,0,0,-1.00003,12.865868,85.1522)" d="M57.12024 0C57.12024 1.01765 56.29527 1.84262 55.2776 1.84262 54.25995 1.84262 53.43498 1.01765 53.43498 0 53.43498-1.01765 54.25995-1.84262 55.2776-1.84262 56.29527-1.84262 57.12024-1.01765 57.12024 0ZM55.2776 0"/>
<path transform="matrix(1.00006,0,0,-1.00003,12.865868,85.1522)" stroke-width=".3985" stroke-linecap="butt" stroke-miterlimit="10" stroke-linejoin="miter" fill="none" stroke="#000000" d="M57.12024 0C57.12024 1.01765 56.29527 1.84262 55.2776 1.84262 54.25995 1.84262 53.43498 1.01765 53.43498 0 53.43498-1.01765 54.25995-1.84262 55.2776-1.84262 56.29527-1.84262 57.12024-1.01765 57.12024 0ZM55.2776 0"/>
</svg>
