<svg xmlns="http://www.w3.org/2000/svg" xmlns:xlink="http://www.w3.org/1999/xlink" version="1.1" width="34" height="60" viewBox="0 0 34 60">
<path transform="matrix(1.00006,0,0,-1.00002,2.2949982,57.76082)" stroke-width=".3985" stroke-linecap="butt" stroke-miterlimit="10" stroke-linejoin="miter" fill="none" stroke="#ff0000" d="M8.50412 0C8.50412 3.84848 5.91833 7.2183 2.20102 8.21436"/>
<path transform="matrix(1.00006,0,0,-1.00002,2.2949982,57.76082)" stroke-width=".3985" stroke-linecap="butt" stroke-miterlimit="10" stroke-linejoin="miter" fill="none" stroke="#ff0000" d="M20.8427 0C20.8427 3.84848 23.42848 7.2183 27.14578 8.21436"/>
<path transform="matrix(1.00006,0,0,-1.00002,2.2949982,57.76082)" stroke-width=".79701" stroke-linecap="butt" stroke-miterlimit="10" stroke-linejoin="miter" fill="none" stroke="#000000" d="M0 0H29.34682L14.6734 54.7619Z"/>
<path transform="matrix(1.00006,0,0,-1.00002,2.2949982,57.76082)" stroke-width=".3985" stroke-linecap="butt" stroke-miterlimit="10" stroke-linejoin="miter" fill="none" stroke="#0000ff" d="M24.74805 28.11452 19.27214 26.64735"/>
<path transform="matrix(1.00006,0,0,-1.00002,2.2949982,57.76082)" stroke-width=".3985" stroke-linecap="butt" stroke-miterlimit="10" stroke-linejoin="miter" fill="none" stroke="#0000ff" d="M4.59874 28.11452 10.07466 26.64735"/>
</svg>
