<svg xmlns="http://www.w3.org/2000/svg" xmlns:xlink="http://www.w3.org/1999/xlink" version="1.1" width="186" height="32" viewBox="0 0 186 32">
<path transform="matrix(1.00005,0,0,-1.00002,2.2951585,30.345288)" d="M0 0V28.3468H22.67752V0ZM22.67752 28.3468" fill="#0000ff"/>
<path transform="matrix(1.00005,0,0,-1.00002,2.2951585,30.345288)" stroke-width=".3985" stroke-linecap="butt" stroke-miterlimit="10" stroke-linejoin="miter" fill="none" stroke="#0000ff" d="M0 0V28.3468H22.67752V0ZM22.67752 28.3468"/>
<path transform="matrix(1.00005,0,0,-1.00002,2.2951585,30.345288)" stroke-width=".79701" stroke-linecap="butt" stroke-miterlimit="10" stroke-linejoin="miter" fill="none" stroke="#000000" d="M0 0H181.42028M0 28.33684H181.42028M0 0V28.3468M22.67752 0V28.3468M45.35506 0V28.3468M68.0326 0V28.3468M90.71013 0V28.3468M113.38766 0V28.3468M136.0652 0V28.3468M158.74274 0V28.3468M181.4123 0V28.3468M181.42028 28.3468"/>
</svg>
