<svg xmlns="http://www.w3.org/2000/svg" xmlns:xlink="http://www.w3.org/1999/xlink" version="1.1" width="72" height="140" viewBox="0 0 72 140">
<path transform="matrix(1.00006,0,0,-1.0001,2.2949982,138.07721)" d="M0 0V136.06606H51.02477V0ZM51.02477 136.06606" fill="#ffbfbf"/>
<path transform="matrix(1.00006,0,0,-1.0001,2.2949982,138.07721)" stroke-width=".3985" stroke-linecap="butt" stroke-miterlimit="10" stroke-linejoin="miter" fill="none" stroke="#ffbfbf" d="M0 0V136.06606H51.02477V0ZM51.02477 136.06606"/>
<g>
<path transform="matrix(1.00006,0,0,-1.0001,2.2949982,138.07721)" d="M0 51.02477V136.06606H68.03302V51.02477ZM68.03302 136.06606" fill="#0000ff" fill-opacity=".4"/>
<path transform="matrix(1.00006,0,0,-1.0001,2.2949982,138.07721)" stroke-width=".3985" stroke-linecap="butt" stroke-miterlimit="10" stroke-linejoin="miter" fill="none" stroke="#0000ff" stroke-opacity=".4" d="M0 51.02477V136.06606H68.03302V51.02477ZM68.03302 136.06606"/>
</g>
<path transform="matrix(1.00006,0,0,-1.0001,2.2949982,138.07721)" stroke-width=".79701" stroke-linecap="butt" stroke-miterlimit="10" stroke-linejoin="miter" fill="none" stroke="#000000" d="M0 0H68.03302M0 17.00824H68.03302M0 34.0165H68.03302M0 51.02477H68.03302M0 68.03302H68.03302M0 85.04128H68.03302M0 102.04953H68.03302M0 119.0578H68.03302M0 136.06009H68.03302M0 0V136.06606M17.00824 0V136.06606M34.0165 0V136.06606M51.02477 0V136.06606M68.02705 0V136.06606M68.03302 136.06606"/>
</svg>
