<svg xmlns="http://www.w3.org/2000/svg" xmlns:xlink="http://www.w3.org/1999/xlink" version="1.1" width="186" height="61" viewBox="0 0 186 61">
<path transform="matrix(1.00005,0,0,-1.00003,2.2951585,58.693284)" d="M0 0V56.69362H45.35506V0ZM45.35506 56.69362" fill="#0000ff"/>
<path transform="matrix(1.00005,0,0,-1.00003,2.2951585,58.693284)" stroke-width=".3985" stroke-linecap="butt" stroke-miterlimit="10" stroke-linejoin="miter" fill="none" stroke="#0000ff" d="M0 0V56.69362H45.35506V0ZM45.35506 56.69362"/>
<path transform="matrix(1.00005,0,0,-1.00003,2.2951585,58.693284)" stroke-width=".79701" stroke-linecap="butt" stroke-miterlimit="10" stroke-linejoin="miter" fill="none" stroke="#000000" d="M0 0H181.42028M0 28.3468H181.42028M0 56.68365H181.42028M0 0V56.69362M22.67752 0V56.69362M45.35506 0V56.69362M68.0326 0V56.69362M90.71013 0V56.69362M113.38766 0V56.69362M136.0652 0V56.69362M158.74274 0V56.69362M181.4123 0V56.69362M181.42028 56.69362"/>
</svg>
