<svg xmlns="http://www.w3.org/2000/svg" xmlns:xlink="http://www.w3.org/1999/xlink" version="1.1" width="118" height="174" viewBox="0 0 118 174">
<path transform="matrix(1.00003,0,0,-1,2.2955018,172.077)" d="M0 0V170.08086H28.3468V0ZM28.3468 170.08086" fill="#0000ff"/>
<path transform="matrix(1.00003,0,0,-1,2.2955018,172.077)" stroke-width=".3985" stroke-linecap="butt" stroke-miterlimit="10" stroke-linejoin="miter" fill="none" stroke="#0000ff" d="M0 0V170.08086H28.3468V0ZM28.3468 170.08086"/>
<path transform="matrix(1.00003,0,0,-1,2.2955018,172.077)" stroke-width=".79701" stroke-linecap="butt" stroke-miterlimit="10" stroke-linejoin="miter" fill="none" stroke="#000000" d="M0 0H113.38724M0 28.3468H113.38724M0 56.69362H113.38724M0 85.04042H113.38724M0 113.38724H113.38724M0 141.73404H113.38724M0 170.07089H113.38724M0 0V170.08086M28.3468 0V170.08086M56.69362 0V170.08086M85.04042 0V170.08086M113.37727 0V170.08086M113.38724 170.08086"/>
</svg>
