<svg xmlns="http://www.w3.org/2000/svg" xmlns:xlink="http://www.w3.org/1999/xlink" version="1.1" width="186" height="174" viewBox="0 0 186 174">
<path transform="matrix(1.00005,0,0,-1,2.2951585,172.077)" d="M0 0V170.08086H45.35506V0ZM45.35506 170.08086" fill="#0000ff"/>
<path transform="matrix(1.00005,0,0,-1,2.2951585,172.077)" stroke-width=".3985" stroke-linecap="butt" stroke-miterlimit="10" stroke-linejoin="miter" fill="none" stroke="#0000ff" d="M0 0V170.08086H45.35506V0ZM45.35506 170.08086"/>
<path transform="matrix(1.00005,0,0,-1,2.2951585,172.077)" stroke-width=".79701" stroke-linecap="butt" stroke-miterlimit="10" stroke-linejoin="miter" fill="none" stroke="#000000" d="M0 0H181.42028M0 28.3468H181.42028M0 56.69362H181.42028M0 85.04042H181.42028M0 113.38724H181.42028M0 141.73404H181.42028M0 170.07089H181.42028M0 0V170.08086M22.67752 0V170.08086M45.35506 0V170.08086M68.0326 0V170.08086M90.71013 0V170.08086M113.38766 0V170.08086M136.0652 0V170.08086M158.74274 0V170.08086M181.4123 0V170.08086M181.42028 170.08086"/>
</svg>
