<svg xmlns="http://www.w3.org/2000/svg" xmlns:xlink="http://www.w3.org/1999/xlink" version="1.1" width="118" height="117" viewBox="0 0 118 117">
<path transform="matrix(1.00005,0,0,-1,2.2951585,115.384)" d="M0 85.04042V113.38724H113.38766V85.04042ZM113.38766 113.38724" fill="#0000ff"/>
<path transform="matrix(1.00005,0,0,-1,2.2951585,115.384)" stroke-width=".3985" stroke-linecap="butt" stroke-miterlimit="10" stroke-linejoin="miter" fill="none" stroke="#0000ff" d="M0 85.04042V113.38724H113.38766V85.04042ZM113.38766 113.38724"/>
<path transform="matrix(1.00005,0,0,-1,2.2951585,115.384)" stroke-width=".79701" stroke-linecap="butt" stroke-miterlimit="10" stroke-linejoin="miter" fill="none" stroke="#000000" d="M0 0H113.38766M0 28.3468H113.38766M0 56.69362H113.38766M0 85.04042H113.38766M0 113.37727H113.38766M0 0V113.38724M22.67752 0V113.38724M45.35506 0V113.38724M68.0326 0V113.38724M90.71013 0V113.38724M113.37968 0V113.38724M113.38766 113.38724"/>
</svg>
