<svg xmlns="http://www.w3.org/2000/svg" xmlns:xlink="http://www.w3.org/1999/xlink" version="1.1" width="118" height="117" viewBox="0 0 118 117">
<path transform="matrix(1.00003,0,0,-1,58.99022,58.691)" stroke-width=".79701" stroke-linecap="butt" stroke-miterlimit="10" stroke-linejoin="miter" fill="none" stroke="#0000ff" d="M56.69362 0 40.08847 40.08847 0 56.69362-40.08847 40.08847-56.69362 0-40.08847-40.08847 0-56.69362 40.08847-40.08847Z"/>
<path transform="matrix(1.00003,0,0,-1,58.99022,58.691)" stroke-width=".79701" stroke-linecap="butt" stroke-miterlimit="10" stroke-linejoin="miter" fill="none" stroke="#0000ff" d="M56.69362 0H-56.69362"/>
<path transform="matrix(1.00003,0,0,-1,58.99022,58.691)" stroke-width=".79701" stroke-linecap="butt" stroke-miterlimit="10" stroke-linejoin="miter" fill="none" stroke="#0000ff" d="M40.08847 40.08847-40.08847-40.08847"/>
<path transform="matrix(1.00003,0,0,-1,58.99022,58.691)" stroke-width=".79701" stroke-linecap="butt" stroke-miterlimit="10" stroke-linejoin="miter" fill="none" stroke="#0000ff" d="M0 56.69362V-56.69362"/>
<path transform="matrix(1.00003,0,0,-1,58.99022,58.691)" stroke-width=".79701" stroke-linecap="butt" stroke-miterlimit="10" stroke-linejoin="miter" fill="none" stroke="#0000ff" d="M-40.08847 40.08847 40.08847-40.08847"/>
</svg>
