<svg xmlns="http://www.w3.org/2000/svg" xmlns:xlink="http://www.w3.org/1999/xlink" version="1.1" width="285" height="40" viewBox="0 0 285 40">
<defs>
<path id="font_1_1" d="M.6589966 .23046875C.6759949 .23046875 .69400027 .23046875 .69400027 .25045777 .69400027 .27046205 .6759949 .27046205 .6589966 .27046205H.117996219C.100997928 .27046205 .08299255 .27046205 .08299255 .25045777 .08299255 .23046875 .100997928 .23046875 .117996219 .23046875H.6589966Z"/>
<path id="font_2_4" d="M.2899933 .35191346C.37199403 .37893678 .42999269 .4490509 .42999269 .52809146 .42999269 .6100464 .34199525 .6660156 .24598694 .6660156 .14498902 .6660156 .068984989 .60606387 .068984989 .53009036 .068984989 .49710084 .09098816 .47808839 .11999512 .47808839 .15098572 .47808839 .17098999 .50009158 .17098999 .5290985 .17098999 .57910159 .12399292 .57910159 .10899353 .57910159 .13999939 .62802127 .20599365 .64100649 .24198914 .64100649 .2829895 .64100649 .33799745 .6190338 .33799745 .5290985 .33799745 .51708987 .33599855 .45906068 .30999757 .4149933 .27999879 .36691285 .24598694 .36390687 .22099304 .36291505 .21299744 .36190797 .18899536 .35990907 .18199158 .35990907 .17399597 .35890199 .16699219 .35791017 .16699219 .3479004 .16699219 .33691407 .17399597 .33691407 .19099427 .33691407H.23498535C.31698609 .33691407 .35398866 .2686615 .35398866 .17037964 .35398866 .034469606 .2849884 .0055389406 .24099732 .0055389406 .19799805 .0055389406 .12298584 .022491456 .08799744 .08137512 .12298584 .07637024 .1539917 .09837341 .1539917 .1363678 .1539917 .17237854 .1269989 .19238281 .09799194 .19238281 .07398987 .19238281 .041992189 .17837525 .041992189 .1343689 .041992189 .043441774 .1349945-.022460938 .24398804-.022460938 .3659973-.022460938 .45700074 .06838989 .45700074 .17037964 .45700074 .252594 .3939972 .33088685 .2899933 .35191346Z"/>
<path id="font_2_3" d="M.1269989 .07699585 .23298645 .18003845C.3889923 .31811524 .44898988 .3721466 .44898988 .47216798 .44898988 .5860901 .35899354 .6660156 .23699951 .6660156 .12399292 .6660156 .049987794 .57411196 .049987794 .48516847 .049987794 .4291687 .099990848 .4291687 .102996829 .4291687 .11999512 .4291687 .15499878 .44117738 .15499878 .48217774 .15499878 .5081787 .13699341 .5341797 .101989749 .5341797 .09399414 .5341797 .09199524 .5341797 .08898926 .5331726 .11199951 .59806826 .1659851 .63500979 .22399903 .63500979 .31498719 .63500979 .35798646 .5541382 .35798646 .47216798 .35798646 .39215089 .30799867 .31311036 .25299073 .25108338L.06098938 .036987306C.049987794 .025985718 .049987794 .023986817 .049987794 0H.42099L.44898988 .17404175H.42399598C.4189911 .14402771 .4119873 .1000061 .4019928 .084991458 .394989 .07699585 .32899476 .07699585 .30699159 .07699585H.1269989Z"/>
<path id="font_2_2" d="M.2939911 .64004519C.2939911 .66400149 .2939911 .6660156 .2709961 .6660156 .20899964 .60227969 .12098694 .60227969 .08898926 .60227969V.57128909C.10899353 .57128909 .16799927 .57128909 .21998596 .5972748V.07902527C.21998596 .042999269 .21699524 .0309906 .1269989 .0309906H.09498596V0C.12998963 .0029907227 .21699524 .0029907227 .25698854 .0029907227 .29699708 .0029907227 .38398744 .0029907227 .4189911 0V.0309906H.3869934C.29699708 .0309906 .2939911 .041992189 .2939911 .07902527V.64004519Z"/>
<path id="font_2_1" d="M.45999146 .31976319C.45999146 .39982606 .45498658 .47988893 .41999818 .5539398 .37399293 .65000918 .2919922 .6660156 .25 .6660156 .18998719 .6660156 .116989139 .64001467 .07598877 .54693606 .04399109 .47789 .038986207 .39982606 .038986207 .31976319 .038986207 .24472046 .042999269 .15464783 .083999637 .07859802 .1269989-.0024719239 .19999695-.022460938 .24899292-.022460938 .30299378-.022460938 .3789978-.0014648438 .4229889 .09359741 .45498658 .16265869 .45999146 .2407074 .45999146 .31976319M.24899292-.00047302247C.20999146-.00047302247 .15098572 .024551392 .1329956 .12062073 .12199402 .18066406 .12199402 .2727356 .12199402 .3317871 .12199402 .39582826 .12199402 .46188355 .12998963 .5159149 .14898682 .63500979 .22399903 .64401248 .24899292 .64401248 .28199769 .64401248 .34799195 .6259918 .36698915 .52693179 .3769989 .47088624 .3769989 .39482118 .3769989 .3317871 .3769989 .25672914 .3769989 .18867493 .3659973 .12461853 .35099793 .029556275 .2939911-.00047302247 .24899292-.00047302247Z"/>
<path id="font_2_5" d="M.2939911 .16503906V.07800293C.2939911 .041992189 .2919922 .0309906 .21798706 .0309906H.19699097V0C.23799134 .0029907227 .2899933 .0029907227 .33198548 .0029907227 .37399293 .0029907227 .4269867 .0029907227 .46798707 0V.0309906H.44699098C.37298585 .0309906 .37098695 .041992189 .37098695 .07800293V.16503906H.47099305V.19602967H.37098695V.65075686C.37098695 .67074587 .37098695 .6767578 .35499574 .6767578 .34599305 .6767578 .34298707 .6767578 .33499146 .66474917L.027999878 .19602967V.16503906H.2939911M.2999878 .19602967H.055999757L.2999878 .5688019V.19602967Z"/>
<path id="font_3_1" d="M.19198609 .052993776C.19198609 .08198547 .16799927 .10598755 .13899231 .10598755 .10998535 .10598755 .085998538 .08198547 .085998538 .052993776 .085998538 .023986817 .10998535 0 .13899231 0 .16799927 0 .19198609 .023986817 .19198609 .052993776Z"/>
<path id="font_2_6" d="M.13198853 .327713V.35173036C.13198853 .6047821 .2559967 .64100649 .30699159 .64100649 .33099366 .64100649 .37298585 .634964 .394989 .6007538 .37998963 .6007538 .33999635 .6007538 .33999635 .5557556 .33999635 .524765 .3639984 .5097656 .38598634 .5097656 .4019928 .5097656 .43199159 .51875308 .43199159 .5577545 .43199159 .6178589 .3880005 .6660156 .30499269 .6660156 .1769867 .6660156 .041992189 .5367584 .041992189 .31570436 .041992189 .048553468 .1579895-.022460938 .25099183-.022460938 .3619995-.022460938 .45700074 .07156372 .45700074 .2036438 .45700074 .33070375 .36799623 .4267578 .25698854 .4267578 .18899536 .4267578 .1519928 .37573243 .13198853 .327713M.25099183 .0055389406C.18798828 .0055389406 .1579895 .06556702 .1519928 .080566409 .13398743 .127594 .13398743 .2076416 .13398743 .22564698 .13398743 .30369569 .1659851 .40374757 .2559967 .40374757 .27198792 .40374757 .31799317 .40374757 .34899903 .34172059 .36698915 .30470277 .36698915 .2536621 .36698915 .20463562 .36698915 .15661621 .36698915 .10658264 .34999085 .0705719 .31999208 .010528564 .27398683 .0055389406 .25099183 .0055389406Z"/>
</defs>
<path transform="matrix(1.00009,0,0,-1,140.205,28.423)" stroke-width=".79701" stroke-linecap="butt" stroke-miterlimit="10" stroke-linejoin="miter" fill="none" stroke="#000000" d="M-138.89875 0H141.4329"/>
<path transform="matrix(1.00009,0,0,-1,281.65065,28.423)" d="M1.0361 0C-.25902 .25902-1.55415 .77707-3.1083 1.68365-1.55415 .51805-1.55415-.51805-3.1083-1.68365-1.55415-.77707-.25902-.25902 1.0361 0Z"/>
<path transform="matrix(1.00009,0,0,-1,281.65065,28.423)" stroke-width=".79701" stroke-linecap="butt" stroke-linejoin="round" fill="none" stroke="#000000" d="M1.0361 0C-.25902 .25902-1.55415 .77707-3.1083 1.68365-1.55415 .51805-1.55415-.51805-3.1083-1.68365-1.55415-.77707-.25902-.25902 1.0361 0Z"/>
<path transform="matrix(1.00009,0,0,-1,140.205,28.423)" stroke-width=".3985" stroke-linecap="butt" stroke-miterlimit="10" stroke-linejoin="miter" fill="none" stroke="#000000" d="M-119.05606 5.95255V0"/>
<use data-text="&#x2212;" xlink:href="#font_1_1" transform="matrix(9.963496,0,0,-9.9626,14.772705,38.363)"/>
<use data-text="3" xlink:href="#font_2_4" transform="matrix(9.963496,0,0,-9.9626,22.522385,38.363)"/>
<path transform="matrix(1.00009,0,0,-1,140.205,28.423)" stroke-width=".3985" stroke-linecap="butt" stroke-miterlimit="10" stroke-linejoin="miter" fill="none" stroke="#000000" d="M-79.37071 5.95255V0"/>
<use data-text="&#x2212;" xlink:href="#font_1_1" transform="matrix(9.963496,0,0,-9.9626,54.46129,38.363)"/>
<use data-text="2" xlink:href="#font_2_3" transform="matrix(9.963496,0,0,-9.9626,62.210969,38.363)"/>
<path transform="matrix(1.00009,0,0,-1,140.205,28.423)" stroke-width=".3985" stroke-linecap="butt" stroke-miterlimit="10" stroke-linejoin="miter" fill="none" stroke="#000000" d="M-39.68535 5.95255V0"/>
<use data-text="&#x2212;" xlink:href="#font_1_1" transform="matrix(9.963496,0,0,-9.9626,94.15086,38.363)"/>
<use data-text="1" xlink:href="#font_2_2" transform="matrix(9.963496,0,0,-9.9626,101.90054,38.363)"/>
<path transform="matrix(1.00009,0,0,-1,140.205,28.423)" stroke-width=".3985" stroke-linecap="butt" stroke-miterlimit="10" stroke-linejoin="miter" fill="none" stroke="#000000" d="M0 5.95255V0"/>
<use data-text="0" xlink:href="#font_2_1" transform="matrix(9.963496,0,0,-9.9626,137.71378,38.363)"/>
<path transform="matrix(1.00009,0,0,-1,140.205,28.423)" stroke-width=".3985" stroke-linecap="butt" stroke-miterlimit="10" stroke-linejoin="miter" fill="none" stroke="#000000" d="M39.68535 5.95255V0"/>
<use data-text="1" xlink:href="#font_2_2" transform="matrix(9.963496,0,0,-9.9626,177.40335,38.363)"/>
<path transform="matrix(1.00009,0,0,-1,140.205,28.423)" stroke-width=".3985" stroke-linecap="butt" stroke-miterlimit="10" stroke-linejoin="miter" fill="none" stroke="#000000" d="M79.37071 5.95255V0"/>
<use data-text="2" xlink:href="#font_2_3" transform="matrix(9.963496,0,0,-9.9626,217.09192,38.363)"/>
<path transform="matrix(1.00009,0,0,-1,140.205,28.423)" stroke-width=".3985" stroke-linecap="butt" stroke-miterlimit="10" stroke-linejoin="miter" fill="none" stroke="#000000" d="M119.05606 5.95255V0"/>
<use data-text="3" xlink:href="#font_2_4" transform="matrix(9.963496,0,0,-9.9626,256.7805,38.363)"/>
<path transform="matrix(1.00009,0,0,-1,140.205,28.423)" stroke-width=".3985" stroke-linecap="butt" stroke-miterlimit="10" stroke-linejoin="miter" fill="none" stroke="#000000" d="M-99.21338 2.97627V0"/>
<path transform="matrix(1.00009,0,0,-1,140.205,28.423)" stroke-width=".3985" stroke-linecap="butt" stroke-miterlimit="10" stroke-linejoin="miter" fill="none" stroke="#000000" d="M-59.52802 2.97627V0"/>
<path transform="matrix(1.00009,0,0,-1,140.205,28.423)" stroke-width=".3985" stroke-linecap="butt" stroke-miterlimit="10" stroke-linejoin="miter" fill="none" stroke="#000000" d="M-19.84265 2.97627V0"/>
<path transform="matrix(1.00009,0,0,-1,140.205,28.423)" stroke-width=".3985" stroke-linecap="butt" stroke-miterlimit="10" stroke-linejoin="miter" fill="none" stroke="#000000" d="M19.84265 2.97627V0"/>
<path transform="matrix(1.00009,0,0,-1,140.205,28.423)" stroke-width=".3985" stroke-linecap="butt" stroke-miterlimit="10" stroke-linejoin="miter" fill="none" stroke="#000000" d="M59.52802 2.97627V0"/>
<path transform="matrix(1.00009,0,0,-1,140.205,28.423)" stroke-width=".3985" stroke-linecap="butt" stroke-miterlimit="10" stroke-linejoin="miter" fill="none" stroke="#000000" d="M99.21338 2.97627V0"/>
<path transform="matrix(1.00009,0,0,-1,140.205,28.423)" d="M-107.15048 0C-107.15048 1.09586-108.03886 1.98424-109.13472 1.98424-110.23059 1.98424-111.11896 1.09586-111.11896 0-111.11896-1.09586-110.23059-1.98424-109.13472-1.98424-108.03886-1.98424-107.15048-1.09586-107.15048 0ZM-109.13472 0" fill="#ff0000"/>
<path transform="matrix(1.00009,0,0,-1,140.205,28.423)" stroke-width=".3985" stroke-linecap="butt" stroke-miterlimit="10" stroke-linejoin="miter" fill="none" stroke="#ff0000" d="M-107.15048 0C-107.15048 1.09586-108.03886 1.98424-109.13472 1.98424-110.23059 1.98424-111.11896 1.09586-111.11896 0-111.11896-1.09586-110.23059-1.98424-109.13472-1.98424-108.03886-1.98424-107.15048-1.09586-107.15048 0ZM-109.13472 0"/>
<use data-text="&#x2212;" xlink:href="#font_1_1" transform="matrix(9.963496,0,0,-9.9626,21.00827,15.08)" fill="#ff0000"/>
<use data-text="2" xlink:href="#font_2_3" transform="matrix(9.963496,0,0,-9.9626,28.75795,15.08)" fill="#ff0000"/>
<use data-text="3" xlink:href="#font_2_4" transform="matrix(9.963496,0,0,-9.9626,34.935518,8.34)" fill="#ff0000"/>
<path transform="matrix(1.00009,0,0,-1,-201.20374,-.3430004)" stroke-width=".3985" stroke-linecap="butt" stroke-miterlimit="10" stroke-linejoin="miter" fill="none" stroke="#ff0000" d="M236.118-12.932H241.099"/>
<use data-text="4" xlink:href="#font_2_5" transform="matrix(9.963496,0,0,-9.9626,34.935518,21.914)" fill="#ff0000"/>
<path transform="matrix(1.00009,0,0,-1,140.205,28.423)" d="M9.92117 0C9.92117 1.09586 9.03279 1.98424 7.93694 1.98424 6.84106 1.98424 5.9527 1.09586 5.9527 0 5.9527-1.09586 6.84106-1.98424 7.93694-1.98424 9.03279-1.98424 9.92117-1.09586 9.92117 0ZM7.93694 0" fill="#ff0000"/>
<path transform="matrix(1.00009,0,0,-1,140.205,28.423)" stroke-width=".3985" stroke-linecap="butt" stroke-miterlimit="10" stroke-linejoin="miter" fill="none" stroke="#ff0000" d="M9.92117 0C9.92117 1.09586 9.03279 1.98424 7.93694 1.98424 6.84106 1.98424 5.9527 1.09586 5.9527 0 5.9527-1.09586 6.84106-1.98424 7.93694-1.98424 9.03279-1.98424 9.92117-1.09586 9.92117 0ZM7.93694 0"/>
<use data-text="0" xlink:href="#font_2_1" transform="matrix(9.963496,0,0,-9.9626,141.77715,21.914002)" fill="#ff0000"/>
<use data-text="." xlink:href="#font_3_1" transform="matrix(9.963496,0,0,-9.9626,146.75859,21.914002)" fill="#ff0000"/>
<use data-text="2" xlink:href="#font_2_3" transform="matrix(9.963496,0,0,-9.9626,149.52684,21.914002)" fill="#ff0000"/>
<path transform="matrix(1.00009,0,0,-1,140.205,28.423)" d="M65.48102 0C65.48102 1.09586 64.59265 1.98424 63.49678 1.98424 62.40092 1.98424 61.51254 1.09586 61.51254 0 61.51254-1.09586 62.40092-1.98424 63.49678-1.98424 64.59265-1.98424 65.48102-1.09586 65.48102 0ZM63.49678 0" fill="#ff0000"/>
<path transform="matrix(1.00009,0,0,-1,140.205,28.423)" stroke-width=".3985" stroke-linecap="butt" stroke-miterlimit="10" stroke-linejoin="miter" fill="none" stroke="#ff0000" d="M65.48102 0C65.48102 1.09586 64.59265 1.98424 63.49678 1.98424 62.40092 1.98424 61.51254 1.09586 61.51254 0 61.51254-1.09586 62.40092-1.98424 63.49678-1.98424 64.59265-1.98424 65.48102-1.09586 65.48102 0ZM63.49678 0"/>
<use data-text="1" xlink:href="#font_2_2" transform="matrix(9.963496,0,0,-9.9626,197.34215,21.914002)" fill="#ff0000"/>
<use data-text="." xlink:href="#font_3_1" transform="matrix(9.963496,0,0,-9.9626,202.3236,21.914002)" fill="#ff0000"/>
<use data-text="6" xlink:href="#font_2_6" transform="matrix(9.963496,0,0,-9.9626,205.09185,21.914002)" fill="#ff0000"/>
</svg>
