<svg xmlns="http://www.w3.org/2000/svg" xmlns:xlink="http://www.w3.org/1999/xlink" version="1.1" width="293" height="158" viewBox="0 0 293 158">
<defs>
<path id="font_1_2" d="M.3659973 .29078675C.3659973 .05493164 .26098634 .005508423 .20098877 .005508423 .1769867 .005508423 .12399292 .008544922 .09899902 .043945314H.10499573C.11199951 .041915895 .147995 .047943117 .147995 .08493042 .147995 .106933597 .1329956 .12593079 .10699463 .12593079 .08099365 .12593079 .06498718 .108932498 .06498718 .08293152 .06498718 .02067566 .114990238-.021484375 .20199585-.021484375 .32699586-.021484375 .44799806 .11193848 .44799806 .32881166 .44799806 .5980072 .33599855 .66503909 .24798584 .66503909 .13798523 .66503909 .040985109 .5729828 .040985109 .44088746 .040985109 .3087921 .13398743 .21875 .23399353 .21875 .30799867 .21875 .34599305 .2727661 .3659973 .32380677V.29078675M.23799134 .23873902C.1749878 .23873902 .147995 .28977967 .13899231 .3087921 .12298584 .34681703 .12298584 .39485169 .12298584 .43988038 .12298584 .4959259 .12298584 .5439606 .14898682 .58499148 .16699219 .6120148 .19400025 .641037 .24798584 .641037 .30499269 .641037 .33399964 .59098818 .34399415 .5679779 .3639984 .51893618 .3639984 .43388368 .3639984 .41886903 .3639984 .33480836 .32598878 .23873902 .23799134 .23873902Z"/>
<path id="font_1_1" d="M.44799806 .31976319C.44799806 .40283204 .44299317 .48390199 .40699769 .55996707 .3659973 .64302065 .2939911 .66503909 .24499512 .66503909 .18699646 .66503909 .115997318 .63601687 .07899475 .552948 .050994874 .48989869 .040985109 .42785646 .040985109 .31976319 .040985109 .22268677 .04798889 .14962769 .083999637 .078567508 .12298584 .0025177003 .19198609-.021484375 .24398804-.021484375 .33099366-.021484375 .3809967 .030532837 .4099884 .08857727 .44599916 .16363526 .44799806 .26171876 .44799806 .31976319M.24398804-.0014953613C.21199036-.0014953613 .14698792 .016525269 .12799073 .12561035 .116989139 .18565369 .116989139 .26171876 .116989139 .33177186 .116989139 .41384889 .116989139 .48789979 .1329956 .5469513 .1499939 .6139984 .20098877 .6450348 .24398804 .6450348 .28199769 .6450348 .33999635 .6220093 .35899354 .53593447 .37199403 .4788971 .37199403 .39982606 .37199403 .33177186 .37199403 .26472474 .37199403 .18865967 .36099244 .12760926 .34199525 .01751709 .2789917-.0014953613 .24398804-.0014953613Z"/>
<path id="font_2_82" d="M.4189911 0V.0309906H.3869934C.29699708 .0309906 .2939911 .041992189 .2939911 .07902527V.64012148C.2939911 .6640167 .2939911 .6660156 .2709961 .6660156 .20899964 .60227969 .12098694 .60227969 .08898926 .60227969V.57128909C.10899353 .57128909 .16799927 .57128909 .21998596 .5972748V.07902527C.21998596 .042999269 .21699524 .0309906 .1269989 .0309906H.09498596V0C.12998963 .0029907227 .21699524 .0029907227 .25698854 .0029907227 .29699708 .0029907227 .38398744 .0029907227 .4189911 0Z"/>
<path id="font_2_51" d="M.45700074 .16764832C.45700074 .20367432 .44599916 .24871826 .4079895 .29074098 .3889923 .31176759 .37298585 .32176209 .30899049 .36180116 .3809967 .39881898 .42999269 .4508667 .42999269 .51690676 .42999269 .6089783 .34098817 .6660156 .25 .6660156 .1499939 .6660156 .068984989 .5919647 .068984989 .49890138 .068984989 .48088075 .070999149 .43585206 .11299133 .38882447 .12399292 .3768158 .16099549 .35179139 .18598938 .33477784 .12799073 .30575563 .041992189 .24971009 .041992189 .15063477 .041992189 .044555665 .14399719-.022460938 .24899292-.022460938 .3619995-.022460938 .45700074 .060577394 .45700074 .16764832M.38598634 .51690676C.38598634 .45986939 .34700013 .41183473 .2869873 .3768158L.16299439 .4568634C.116989139 .4868927 .11299133 .5209198 .11299133 .53793337 .11299133 .5989685 .17799378 .64100649 .24899292 .64100649 .32199098 .64100649 .38598634 .588974 .38598634 .51690676M.40699769 .13162232C.40699769 .05757141 .33198548 .0055389406 .25 .0055389406 .1639862 .0055389406 .09199524 .06758118 .09199524 .15063477 .09199524 .2086792 .12399292 .2727356 .20899964 .31976319L.33198548 .24171448C.3600006 .22268677 .40699769 .19267273 .40699769 .13162232Z"/>
<path id="font_2_121" d="M.45999146 .31976319C.45999146 .39982606 .45498658 .47988893 .41999818 .5539398 .37399293 .65000918 .2919922 .6660156 .25 .6660156 .18998719 .6660156 .116989139 .64001467 .07598877 .54693606 .04399109 .47789 .038986207 .39982606 .038986207 .31976319 .038986207 .24472046 .042999269 .15464783 .083999637 .07859802 .1269989-.0024719239 .19999695-.022460938 .24899292-.022460938 .30299378-.022460938 .3789978-.0014648438 .4229889 .09359741 .45498658 .16265869 .45999146 .2407074 .45999146 .31976319M.3769989 .3317871C.3769989 .25672914 .3769989 .18867493 .3659973 .12461853 .35099793 .029556275 .2939911-.00047302247 .24899292-.00047302247 .20999146-.00047302247 .15098572 .024551392 .1329956 .12062073 .12199402 .18066406 .12199402 .2727356 .12199402 .3317871 .12199402 .39582826 .12199402 .46188355 .12998963 .5159149 .14898682 .63500979 .22399903 .64401248 .24899292 .64401248 .28199769 .64401248 .34799195 .6259918 .36698915 .52693179 .3769989 .47088624 .3769989 .39482118 .3769989 .3317871Z"/>
<path id="font_2_100" d="M.4850006 .6435547H.24198914C.11999512 .6435547 .117996219 .6566467 .11399841 .67578127H.08898926L.055999757 .46954347H.08099365C.083999637 .48554994 .09298706 .54855349 .10598755 .5605469 .11299133 .5665436 .19099427 .5665436 .20399475 .5665436H.41099549L.29899598 .40853883C.20899964 .2735443 .17599488 .13453675 .17599488 .03253174 .17599488 .022537232 .17599488-.022460938 .22200012-.022460938 .2679901-.022460938 .2679901 .022537232 .2679901 .03253174V.08354187C.2679901 .13853455 .2709961 .19354248 .2789917 .24754334 .2829895 .27053834 .29699708 .35653688 .34098817 .41854859L.47599793 .608551C.4850006 .62054446 .4850006 .62254336 .4850006 .6435547Z"/>
<path id="font_2_101" d="M.45700074 .2036438C.45700074 .33070375 .36799623 .4267578 .25698854 .4267578 .18899536 .4267578 .1519928 .37573243 .13198853 .327713V.35173036C.13198853 .6047821 .2559967 .64100649 .30699159 .64100649 .33099366 .64100649 .37298585 .634964 .394989 .6007538 .37998963 .6007538 .33999635 .6007538 .33999635 .5557556 .33999635 .524765 .3639984 .5097656 .38598634 .5097656 .4019928 .5097656 .43199159 .51875308 .43199159 .5577545 .43199159 .6178589 .3880005 .6660156 .30499269 .6660156 .1769867 .6660156 .041992189 .5367584 .041992189 .31570436 .041992189 .048553468 .1579895-.022460938 .25099183-.022460938 .3619995-.022460938 .45700074 .07156372 .45700074 .2036438M.36698915 .20463562C.36698915 .15661621 .36698915 .10658264 .34999085 .0705719 .31999208 .010528564 .27398683 .0055389406 .25099183 .0055389406 .18798828 .0055389406 .1579895 .06556702 .1519928 .080566409 .13398743 .127594 .13398743 .2076416 .13398743 .22564698 .13398743 .30369569 .1659851 .40374757 .2559967 .40374757 .27198792 .40374757 .31799317 .40374757 .34899903 .34172059 .36698915 .30470277 .36698915 .2536621 .36698915 .20463562Z"/>
<path id="font_2_107" d="M.44898988 .17396546H.42399598C.4189911 .14398194 .4119873 .099990848 .4019928 .084991458 .394989 .07699585 .32899476 .07699585 .30699159 .07699585H.1269989L.23298645 .17996216C.3889923 .31803895 .44898988 .37210084 .44898988 .47216798 .44898988 .5860901 .35899354 .6660156 .23699951 .6660156 .12399292 .6660156 .049987794 .57411196 .049987794 .48516847 .049987794 .4291687 .099990848 .4291687 .102996829 .4291687 .11999512 .4291687 .15499878 .44117738 .15499878 .48217774 .15499878 .5081787 .13699341 .5341797 .101989749 .5341797 .09399414 .5341797 .09199524 .5341797 .08898926 .5331726 .11199951 .59806826 .1659851 .63500979 .22399903 .63500979 .31498719 .63500979 .35798646 .5541382 .35798646 .47216798 .35798646 .39196778 .30799867 .31297303 .25299073 .25097657L.06098938 .036987306C.049987794 .025985718 .049987794 .023986817 .049987794 0H.42099L.44898988 .17396546Z"/>
<path id="font_2_56" d="M.44898988 .20091248C.44898988 .31991578 .36698915 .41992188 .25898744 .41992188 .21099854 .41992188 .16799927 .4039154 .13198853 .36891175V.5641022C.1519928 .55778506 .18499756 .55078127 .21699524 .55078127 .33999635 .55078127 .4099884 .6418457 .4099884 .65493777 .4099884 .6609802 .40699769 .6660156 .3999939 .6660156 .3999939 .66607668 .39698792 .66607668 .3919983 .66308596 .37199403 .65408328 .32299806 .63378909 .2559967 .63378909 .21598816 .63409426 .16999817 .641098 .12298584 .6621094 .114990238 .6651001 .11099243 .6651001 .11099243 .6651001 .100997928 .66508486 .100997928 .657074 .100997928 .64108279V.3447113C.100997928 .3266449 .100997928 .31861878 .114990238 .31861878 .12199402 .31861878 .12399292 .32164 .12799073 .32765199 .13899231 .34371949 .17599488 .3979187 .25698854 .3979187 .30899049 .3979187 .33399964 .3517456 .34199525 .3336792 .35798646 .2965393 .3600006 .2574005 .3600006 .20721436 .3600006 .17218018 .3600006 .112197879 .33599855 .07032776 .31199647 .031448366 .2749939 .0055389406 .22898865 .0055389406 .1559906 .0055389406 .09899902 .05836487 .08198547 .1171875 .084991458 .11685181 .08799744 .115859989 .09899902 .115859989 .13198853 .115859989 .14898682 .14085388 .14898682 .16485596 .14898682 .18885803 .13198853 .21386719 .09899902 .21386719 .084991458 .21386719 .049987794 .2068634 .049987794 .16085816 .049987794 .07432556 .11898804-.022460938 .23098755-.022460938 .34700013-.022460938 .44898988 .07331848 .44898988 .20019531V.20091248Z"/>
<path id="font_2_106" d="M.45700074 .17037964C.45700074 .252594 .3939972 .33088685 .2899933 .35191346 .37199403 .37893678 .42999269 .4490509 .42999269 .52809146 .42999269 .6100464 .34199525 .6660156 .24598694 .6660156 .14498902 .6660156 .068984989 .60606387 .068984989 .53009036 .068984989 .49710084 .09098816 .47808839 .11999512 .47808839 .15098572 .47808839 .17098999 .50009158 .17098999 .5290985 .17098999 .57910159 .12399292 .57910159 .10899353 .57910159 .13999939 .62802127 .20599365 .64100649 .24198914 .64100649 .2829895 .64100649 .33799745 .6190338 .33799745 .5290985 .33799745 .51708987 .33599855 .45906068 .30999757 .4149933 .27999879 .36691285 .24598694 .36390687 .22099304 .36291505 .21299744 .36190797 .18899536 .35990907 .18199158 .35990907 .17399597 .35890199 .16699219 .35791017 .16699219 .3479004 .16699219 .33691407 .17399597 .33691407 .19099427 .33691407H.23498535C.31698609 .33691407 .35398866 .2686615 .35398866 .17037964 .35398866 .034469606 .2849884 .0055389406 .24099732 .0055389406 .19799805 .0055389406 .12298584 .022491456 .08799744 .08137512 .12298584 .07637024 .1539917 .09837341 .1539917 .1363678 .1539917 .17237854 .1269989 .19238281 .09799194 .19238281 .07398987 .19238281 .041992189 .17837525 .041992189 .1343689 .041992189 .043441774 .1349945-.022460938 .24398804-.022460938 .3659973-.022460938 .45700074 .06838989 .45700074 .17037964Z"/>
<path id="font_2_57" d="M.47099305 .16503906V.19602967H.37098695V.6507721C.37098695 .6707611 .37098695 .6767578 .35499574 .6767578 .34599305 .6767578 .34298707 .6767578 .33499146 .6647644L.027999878 .19602967V.16503906H.2939911V.07800293C.2939911 .041992189 .2919922 .0309906 .21798706 .0309906H.19699097V0C.23799134 .0029907227 .2899933 .0029907227 .33198548 .0029907227 .37399293 .0029907227 .4269867 .0029907227 .46798707 0V.0309906H.44699098C.37298585 .0309906 .37098695 .041992189 .37098695 .07800293V.16503906H.47099305M.2999878 .19602967H.055999757L.2999878 .56881716V.19602967Z"/>
</defs>
<path transform="matrix(1.00008,0,0,-1.00005,146.87525,146.57352)" stroke-width=".3985" stroke-linecap="butt" stroke-miterlimit="10" stroke-linejoin="miter" fill="none" stroke="#000000" d="M144.56977 0V-9.63782H-144.56977V0"/>
<path transform="matrix(1.00008,0,0,-1.00005,146.87525,146.57352)" stroke-width=".79701" stroke-linecap="butt" stroke-miterlimit="10" stroke-linejoin="miter" fill="none" stroke="#000000" d="M0 96.37984V144.56977"/>
<path transform="matrix(1.00008,0,0,-1.00005,146.87525,146.57352)" stroke-width=".79701" stroke-linecap="butt" stroke-miterlimit="10" stroke-linejoin="miter" fill="none" stroke="#000000" d="M94.27386 20.03893C83.20653 72.10562 32.02773 105.34123-20.03897 94.27391-57.27034 86.35999-86.36003 57.2703-94.27396 20.03893"/>
<path transform="matrix(1.00008,0,0,-1.00005,146.87525,146.57352)" stroke-width=".79701" stroke-linecap="butt" stroke-miterlimit="10" stroke-linejoin="miter" fill="none" stroke="#000000" d="M94.27386 20.03893H-94.27386"/>
<path transform="matrix(1.00008,0,0,-1.00005,146.87525,146.57352)" stroke-width=".3985" stroke-linecap="butt" stroke-miterlimit="10" stroke-linejoin="miter" fill="none" stroke="#000000" d="M-14.4571 0H14.4571"/>
<path transform="matrix(1.00008,0,0,-1.00005,146.87525,146.57352)" d="M3.61407 0C3.61407 1.99602 1.99602 3.61407 0 3.61407-1.99602 3.61407-3.61407 1.99602-3.61407 0-3.61407-1.99602-1.99602-3.61407 0-3.61407 1.99602-3.61407 3.61407-1.99602 3.61407 0ZM0 0" fill="#ffffff"/>
<path transform="matrix(1.00008,0,0,-1.00005,146.87525,146.57352)" stroke-width=".79701" stroke-linecap="butt" stroke-miterlimit="10" stroke-linejoin="miter" fill="none" stroke="#000000" d="M3.61407 0C3.61407 1.99602 1.99602 3.61407 0 3.61407-1.99602 3.61407-3.61407 1.99602-3.61407 0-3.61407-1.99602-1.99602-3.61407 0-3.61407 1.99602-3.61407 3.61407-1.99602 3.61407 0ZM0 0"/>
<path transform="matrix(1.00008,0,0,-1.00005,146.87525,146.57352)" stroke-width=".79701" stroke-linecap="butt" stroke-miterlimit="10" stroke-linejoin="miter" fill="none" stroke="#000000" d="M120.4748 0C120.4748 66.53725 66.53725 120.4748 0 120.4748-66.53725 120.4748-120.4748 66.53725-120.4748 0"/>
<path transform="matrix(1.00008,0,0,-1.00005,146.87525,146.57352)" d="M-9.0162 113.85953H9.016219V127.090038H-9.0162Z" fill="#ffffff"/>
<use data-text="9" xlink:href="#font_1_2" transform="matrix(14.347347,0,0,-14.346916,139.85068,30.715737)"/>
<use data-text="0" xlink:href="#font_1_1" transform="matrix(14.347347,0,0,-14.346916,146.86652,30.715737)"/>
<path transform="matrix(1.00008,0,0,-1.00005,146.87525,146.57352)" stroke-width=".79701" stroke-linecap="butt" stroke-miterlimit="10" stroke-linejoin="miter" fill="none" stroke="#000000" d="M144.56977 0C144.56977 79.84473 79.84468 144.56981-.00003 144.56981-79.84477 144.56981-144.56986 79.84473-144.56986 0"/>
<path transform="matrix(1.00008,0,0,-1.00005,146.87525,146.57352)" stroke-width=".79701" stroke-linecap="butt" stroke-miterlimit="10" stroke-linejoin="miter" fill="none" stroke="#000000" d="M144.54769 2.52359 137.32022 2.39711"/>
<path transform="matrix(1.00008,0,0,-1.00005,146.87525,146.57352)" stroke-width=".79701" stroke-linecap="butt" stroke-miterlimit="10" stroke-linejoin="miter" fill="none" stroke="#000000" d="M144.4815 5.04501 137.25737 4.79243"/>
<path transform="matrix(1.00008,0,0,-1.00005,146.87525,146.57352)" stroke-width=".79701" stroke-linecap="butt" stroke-miterlimit="10" stroke-linejoin="miter" fill="none" stroke="#000000" d="M144.3712 7.56642 137.15258 7.18773"/>
<path transform="matrix(1.00008,0,0,-1.00005,146.87525,146.57352)" stroke-width=".79701" stroke-linecap="butt" stroke-miterlimit="10" stroke-linejoin="miter" fill="none" stroke="#000000" d="M144.2168 10.08562 137.00588 9.58119"/>
<path transform="matrix(1.00008,0,0,-1.00005,146.87525,146.57352)" stroke-width=".79701" stroke-linecap="butt" stroke-miterlimit="10" stroke-linejoin="miter" fill="none" stroke="#000000" d="M144.01825 12.60043 136.81726 11.97026"/>
<path transform="matrix(1.00008,0,0,-1.00005,146.87525,146.57352)" stroke-width=".79701" stroke-linecap="butt" stroke-miterlimit="10" stroke-linejoin="miter" fill="none" stroke="#000000" d="M143.77782 15.11081 136.58858 14.35489"/>
<path transform="matrix(1.00008,0,0,-1.00005,146.87525,146.57352)" stroke-width=".79701" stroke-linecap="butt" stroke-miterlimit="10" stroke-linejoin="miter" fill="none" stroke="#000000" d="M143.49324 17.61897 136.31838 16.7377"/>
<path transform="matrix(1.00008,0,0,-1.00005,146.87525,146.57352)" stroke-width=".79701" stroke-linecap="butt" stroke-miterlimit="10" stroke-linejoin="miter" fill="none" stroke="#000000" d="M143.16234 20.12053 136.00402 19.11424"/>
<path transform="matrix(1.00008,0,0,-1.00005,146.87525,146.57352)" stroke-width=".79701" stroke-linecap="butt" stroke-miterlimit="10" stroke-linejoin="miter" fill="none" stroke="#000000" d="M142.78954 22.61548 135.64994 21.48456"/>
<path transform="matrix(1.00008,0,0,-1.00005,146.87525,146.57352)" stroke-width=".79701" stroke-linecap="butt" stroke-miterlimit="10" stroke-linejoin="miter" fill="none" stroke="#000000" d="M142.37482 25.10379 135.25582 23.84825"/>
<path transform="matrix(1.00008,0,0,-1.00005,146.87525,146.57352)" stroke-width=".79701" stroke-linecap="butt" stroke-miterlimit="10" stroke-linejoin="miter" fill="none" stroke="#000000" d="M141.91378 27.5855 134.81793 26.20604"/>
<path transform="matrix(1.00008,0,0,-1.00005,146.87525,146.57352)" stroke-width=".79701" stroke-linecap="butt" stroke-miterlimit="10" stroke-linejoin="miter" fill="none" stroke="#000000" d="M141.41082 30.05838 134.33997 28.55539"/>
<path transform="matrix(1.00008,0,0,-1.00005,146.87525,146.57352)" stroke-width=".79701" stroke-linecap="butt" stroke-miterlimit="10" stroke-linejoin="miter" fill="none" stroke="#000000" d="M140.86374 32.52025 133.82048 30.89407"/>
<path transform="matrix(1.00008,0,0,-1.00005,146.87525,146.57352)" stroke-width=".79701" stroke-linecap="butt" stroke-miterlimit="10" stroke-linejoin="miter" fill="none" stroke="#000000" d="M140.27695 34.97325 133.26274 33.2243"/>
<path transform="matrix(1.00008,0,0,-1.00005,146.87525,146.57352)" stroke-width=".79701" stroke-linecap="butt" stroke-miterlimit="10" stroke-linejoin="miter" fill="none" stroke="#000000" d="M139.64385 37.41747 132.66124 35.54645"/>
<path transform="matrix(1.00008,0,0,-1.00005,146.87525,146.57352)" stroke-width=".79701" stroke-linecap="butt" stroke-miterlimit="10" stroke-linejoin="miter" fill="none" stroke="#000000" d="M138.96881 39.84843 132.02005 37.85571"/>
<path transform="matrix(1.00008,0,0,-1.00005,146.87525,146.57352)" stroke-width=".79701" stroke-linecap="butt" stroke-miterlimit="10" stroke-linejoin="miter" fill="none" stroke="#000000" d="M138.25189 42.26837 131.33914 40.1547"/>
<path transform="matrix(1.00008,0,0,-1.00005,146.87525,146.57352)" stroke-width=".79701" stroke-linecap="butt" stroke-miterlimit="10" stroke-linejoin="miter" fill="none" stroke="#000000" d="M137.49524 44.67506 130.62036 42.44116"/>
<path transform="matrix(1.00008,0,0,-1.00005,146.87525,146.57352)" stroke-width=".79701" stroke-linecap="butt" stroke-miterlimit="10" stroke-linejoin="miter" fill="none" stroke="#000000" d="M136.69448 47.06854 129.85967 44.71477"/>
<path transform="matrix(1.00008,0,0,-1.00005,146.87525,146.57352)" stroke-width=".79701" stroke-linecap="butt" stroke-miterlimit="10" stroke-linejoin="miter" fill="none" stroke="#000000" d="M135.85179 49.44656 129.0589 46.97404"/>
<path transform="matrix(1.00008,0,0,-1.00005,146.87525,146.57352)" stroke-width=".79701" stroke-linecap="butt" stroke-miterlimit="10" stroke-linejoin="miter" fill="none" stroke="#000000" d="M134.96721 51.80914 128.21843 49.21861"/>
<path transform="matrix(1.00008,0,0,-1.00005,146.87525,146.57352)" stroke-width=".79701" stroke-linecap="butt" stroke-miterlimit="10" stroke-linejoin="miter" fill="none" stroke="#000000" d="M134.04293 54.1563 127.34045 51.4481"/>
<path transform="matrix(1.00008,0,0,-1.00005,146.87525,146.57352)" stroke-width=".79701" stroke-linecap="butt" stroke-miterlimit="10" stroke-linejoin="miter" fill="none" stroke="#000000" d="M133.07669 56.48799 126.42279 53.66325"/>
<path transform="matrix(1.00008,0,0,-1.00005,146.87525,146.57352)" stroke-width=".79701" stroke-linecap="butt" stroke-miterlimit="10" stroke-linejoin="miter" fill="none" stroke="#000000" d="M132.07079 58.80203 125.46687 55.86186"/>
<path transform="matrix(1.00008,0,0,-1.00005,146.87525,146.57352)" stroke-width=".79701" stroke-linecap="butt" stroke-miterlimit="10" stroke-linejoin="miter" fill="none" stroke="#000000" d="M131.02515 61.09843 124.47382 58.04318"/>
<path transform="matrix(1.00008,0,0,-1.00005,146.87525,146.57352)" stroke-width=".79701" stroke-linecap="butt" stroke-miterlimit="10" stroke-linejoin="miter" fill="none" stroke="#000000" d="M129.9376 63.37498 123.44032 60.20613"/>
<path transform="matrix(1.00008,0,0,-1.00005,146.87525,146.57352)" stroke-width=".79701" stroke-linecap="butt" stroke-miterlimit="10" stroke-linejoin="miter" fill="none" stroke="#000000" d="M128.81258 65.6339 122.37154 62.35216"/>
<path transform="matrix(1.00008,0,0,-1.00005,146.87525,146.57352)" stroke-width=".79701" stroke-linecap="butt" stroke-miterlimit="10" stroke-linejoin="miter" fill="none" stroke="#000000" d="M127.64784 67.87074 121.26526 64.47687"/>
<path transform="matrix(1.00008,0,0,-1.00005,146.87525,146.57352)" stroke-width=".79701" stroke-linecap="butt" stroke-miterlimit="10" stroke-linejoin="miter" fill="none" stroke="#000000" d="M126.44337 70.08995 120.1211 66.5854"/>
<path transform="matrix(1.00008,0,0,-1.00005,146.87525,146.57352)" stroke-width=".79701" stroke-linecap="butt" stroke-miterlimit="10" stroke-linejoin="miter" fill="none" stroke="#000000" d="M125.20142 72.28487 118.94127 68.6704"/>
<path transform="matrix(1.00008,0,0,-1.00005,146.87525,146.57352)" stroke-width=".79701" stroke-linecap="butt" stroke-miterlimit="10" stroke-linejoin="miter" fill="none" stroke="#000000" d="M123.91975 74.45993 117.7236 70.73665"/>
<path transform="matrix(1.00008,0,0,-1.00005,146.87525,146.57352)" stroke-width=".79701" stroke-linecap="butt" stroke-miterlimit="10" stroke-linejoin="miter" fill="none" stroke="#000000" d="M122.60281 76.61075 116.47244 72.7801"/>
<path transform="matrix(1.00008,0,0,-1.00005,146.87525,146.57352)" stroke-width=".79701" stroke-linecap="butt" stroke-miterlimit="10" stroke-linejoin="miter" fill="none" stroke="#000000" d="M121.24614 78.7395 115.18343 74.80223"/>
<path transform="matrix(1.00008,0,0,-1.00005,146.87525,146.57352)" stroke-width=".79701" stroke-linecap="butt" stroke-miterlimit="10" stroke-linejoin="miter" fill="none" stroke="#000000" d="M119.85417 80.84178 113.86133 76.79936"/>
<path transform="matrix(1.00008,0,0,-1.00005,146.87525,146.57352)" stroke-width=".79701" stroke-linecap="butt" stroke-miterlimit="10" stroke-linejoin="miter" fill="none" stroke="#000000" d="M118.42471 82.922 112.50317 78.77553"/>
<path transform="matrix(1.00008,0,0,-1.00005,146.87525,146.57352)" stroke-width=".79701" stroke-linecap="butt" stroke-miterlimit="10" stroke-linejoin="miter" fill="none" stroke="#000000" d="M116.95996 84.97574 111.11159 80.72672"/>
<path transform="matrix(1.00008,0,0,-1.00005,146.87525,146.57352)" stroke-width=".79701" stroke-linecap="butt" stroke-miterlimit="10" stroke-linejoin="miter" fill="none" stroke="#000000" d="M115.4599 87.00523 109.68654 82.65471"/>
<path transform="matrix(1.00008,0,0,-1.00005,146.87525,146.57352)" stroke-width=".79701" stroke-linecap="butt" stroke-miterlimit="10" stroke-linejoin="miter" fill="none" stroke="#000000" d="M113.92236 89.00603 108.22583 84.55551"/>
<path transform="matrix(1.00008,0,0,-1.00005,146.87525,146.57352)" stroke-width=".79701" stroke-linecap="butt" stroke-miterlimit="10" stroke-linejoin="miter" fill="none" stroke="#000000" d="M112.35172 90.98038 106.73387 86.43095"/>
<path transform="matrix(1.00008,0,0,-1.00005,146.87525,146.57352)" stroke-width=".79701" stroke-linecap="butt" stroke-miterlimit="10" stroke-linejoin="miter" fill="none" stroke="#000000" d="M110.74577 92.92822 105.20808 88.28174"/>
<path transform="matrix(1.00008,0,0,-1.00005,146.87525,146.57352)" stroke-width=".79701" stroke-linecap="butt" stroke-miterlimit="10" stroke-linejoin="miter" fill="none" stroke="#000000" d="M109.10893 94.84741 103.65324 90.10498"/>
<path transform="matrix(1.00008,0,0,-1.00005,146.87525,146.57352)" stroke-width=".79701" stroke-linecap="butt" stroke-miterlimit="10" stroke-linejoin="miter" fill="none" stroke="#000000" d="M107.43462 96.73572 102.06274 91.89877"/>
<path transform="matrix(1.00008,0,0,-1.00005,146.87525,146.57352)" stroke-width=".79701" stroke-linecap="butt" stroke-miterlimit="10" stroke-linejoin="miter" fill="none" stroke="#000000" d="M105.73163 98.59755 100.44467 93.6676"/>
<path transform="matrix(1.00008,0,0,-1.00005,146.87525,146.57352)" stroke-width=".79701" stroke-linecap="butt" stroke-miterlimit="10" stroke-linejoin="miter" fill="none" stroke="#000000" d="M103.99554 100.42628 98.79535 95.4048"/>
<path transform="matrix(1.00008,0,0,-1.00005,146.87525,146.57352)" stroke-width=".79701" stroke-linecap="butt" stroke-miterlimit="10" stroke-linejoin="miter" fill="none" stroke="#000000" d="M102.22635 102.22635 97.11478 97.11478"/>
<path transform="matrix(1.00008,0,0,-1.00005,146.87525,146.57352)" stroke-width=".79701" stroke-linecap="butt" stroke-miterlimit="10" stroke-linejoin="miter" fill="none" stroke="#000000" d="M100.42628 103.99554 95.4048 98.79535"/>
<path transform="matrix(1.00008,0,0,-1.00005,146.87525,146.57352)" stroke-width=".79701" stroke-linecap="butt" stroke-miterlimit="10" stroke-linejoin="miter" fill="none" stroke="#000000" d="M98.59755 105.73163 93.6676 100.44467"/>
<path transform="matrix(1.00008,0,0,-1.00005,146.87525,146.57352)" stroke-width=".79701" stroke-linecap="butt" stroke-miterlimit="10" stroke-linejoin="miter" fill="none" stroke="#000000" d="M96.73572 107.43462 91.89877 102.06274"/>
<path transform="matrix(1.00008,0,0,-1.00005,146.87525,146.57352)" stroke-width=".79701" stroke-linecap="butt" stroke-miterlimit="10" stroke-linejoin="miter" fill="none" stroke="#000000" d="M94.84741 109.10893 90.10498 103.65324"/>
<path transform="matrix(1.00008,0,0,-1.00005,146.87525,146.57352)" stroke-width=".79701" stroke-linecap="butt" stroke-miterlimit="10" stroke-linejoin="miter" fill="none" stroke="#000000" d="M92.92822 110.74577 88.28174 105.20808"/>
<path transform="matrix(1.00008,0,0,-1.00005,146.87525,146.57352)" stroke-width=".79701" stroke-linecap="butt" stroke-miterlimit="10" stroke-linejoin="miter" fill="none" stroke="#000000" d="M90.98038 112.35172 86.43095 106.73387"/>
<path transform="matrix(1.00008,0,0,-1.00005,146.87525,146.57352)" stroke-width=".79701" stroke-linecap="butt" stroke-miterlimit="10" stroke-linejoin="miter" fill="none" stroke="#000000" d="M89.00603 113.92236 84.55551 108.22583"/>
<path transform="matrix(1.00008,0,0,-1.00005,146.87525,146.57352)" stroke-width=".79701" stroke-linecap="butt" stroke-miterlimit="10" stroke-linejoin="miter" fill="none" stroke="#000000" d="M87.00523 115.4599 82.65471 109.68654"/>
<path transform="matrix(1.00008,0,0,-1.00005,146.87525,146.57352)" stroke-width=".79701" stroke-linecap="butt" stroke-miterlimit="10" stroke-linejoin="miter" fill="none" stroke="#000000" d="M84.97574 116.95996 80.72672 111.11159"/>
<path transform="matrix(1.00008,0,0,-1.00005,146.87525,146.57352)" stroke-width=".79701" stroke-linecap="butt" stroke-miterlimit="10" stroke-linejoin="miter" fill="none" stroke="#000000" d="M82.922 118.42471 78.77553 112.50317"/>
<path transform="matrix(1.00008,0,0,-1.00005,146.87525,146.57352)" stroke-width=".79701" stroke-linecap="butt" stroke-miterlimit="10" stroke-linejoin="miter" fill="none" stroke="#000000" d="M80.84178 119.85417 76.79936 113.86133"/>
<path transform="matrix(1.00008,0,0,-1.00005,146.87525,146.57352)" stroke-width=".79701" stroke-linecap="butt" stroke-miterlimit="10" stroke-linejoin="miter" fill="none" stroke="#000000" d="M78.7395 121.24614 74.80223 115.18343"/>
<path transform="matrix(1.00008,0,0,-1.00005,146.87525,146.57352)" stroke-width=".79701" stroke-linecap="butt" stroke-miterlimit="10" stroke-linejoin="miter" fill="none" stroke="#000000" d="M76.61075 122.60281 72.7801 116.47244"/>
<path transform="matrix(1.00008,0,0,-1.00005,146.87525,146.57352)" stroke-width=".79701" stroke-linecap="butt" stroke-miterlimit="10" stroke-linejoin="miter" fill="none" stroke="#000000" d="M74.45993 123.91975 70.73665 117.7236"/>
<path transform="matrix(1.00008,0,0,-1.00005,146.87525,146.57352)" stroke-width=".79701" stroke-linecap="butt" stroke-miterlimit="10" stroke-linejoin="miter" fill="none" stroke="#000000" d="M72.28487 125.20142 68.6704 118.94127"/>
<path transform="matrix(1.00008,0,0,-1.00005,146.87525,146.57352)" stroke-width=".79701" stroke-linecap="butt" stroke-miterlimit="10" stroke-linejoin="miter" fill="none" stroke="#000000" d="M70.08995 126.44337 66.5854 120.1211"/>
<path transform="matrix(1.00008,0,0,-1.00005,146.87525,146.57352)" stroke-width=".79701" stroke-linecap="butt" stroke-miterlimit="10" stroke-linejoin="miter" fill="none" stroke="#000000" d="M67.87074 127.64784 64.47687 121.26526"/>
<path transform="matrix(1.00008,0,0,-1.00005,146.87525,146.57352)" stroke-width=".79701" stroke-linecap="butt" stroke-miterlimit="10" stroke-linejoin="miter" fill="none" stroke="#000000" d="M65.6339 128.81258 62.35216 122.37154"/>
<path transform="matrix(1.00008,0,0,-1.00005,146.87525,146.57352)" stroke-width=".79701" stroke-linecap="butt" stroke-miterlimit="10" stroke-linejoin="miter" fill="none" stroke="#000000" d="M63.37498 129.9376 60.20613 123.44032"/>
<path transform="matrix(1.00008,0,0,-1.00005,146.87525,146.57352)" stroke-width=".79701" stroke-linecap="butt" stroke-miterlimit="10" stroke-linejoin="miter" fill="none" stroke="#000000" d="M61.09843 131.02515 58.04318 124.47382"/>
<path transform="matrix(1.00008,0,0,-1.00005,146.87525,146.57352)" stroke-width=".79701" stroke-linecap="butt" stroke-miterlimit="10" stroke-linejoin="miter" fill="none" stroke="#000000" d="M58.80203 132.07079 55.86186 125.46687"/>
<path transform="matrix(1.00008,0,0,-1.00005,146.87525,146.57352)" stroke-width=".79701" stroke-linecap="butt" stroke-miterlimit="10" stroke-linejoin="miter" fill="none" stroke="#000000" d="M56.48799 133.07669 53.66325 126.42279"/>
<path transform="matrix(1.00008,0,0,-1.00005,146.87525,146.57352)" stroke-width=".79701" stroke-linecap="butt" stroke-miterlimit="10" stroke-linejoin="miter" fill="none" stroke="#000000" d="M54.1563 134.04293 51.4481 127.34045"/>
<path transform="matrix(1.00008,0,0,-1.00005,146.87525,146.57352)" stroke-width=".79701" stroke-linecap="butt" stroke-miterlimit="10" stroke-linejoin="miter" fill="none" stroke="#000000" d="M51.80914 134.96721 49.21861 128.21843"/>
<path transform="matrix(1.00008,0,0,-1.00005,146.87525,146.57352)" stroke-width=".79701" stroke-linecap="butt" stroke-miterlimit="10" stroke-linejoin="miter" fill="none" stroke="#000000" d="M49.44656 135.85179 46.97404 129.0589"/>
<path transform="matrix(1.00008,0,0,-1.00005,146.87525,146.57352)" stroke-width=".79701" stroke-linecap="butt" stroke-miterlimit="10" stroke-linejoin="miter" fill="none" stroke="#000000" d="M47.06854 136.69448 44.71477 129.85967"/>
<path transform="matrix(1.00008,0,0,-1.00005,146.87525,146.57352)" stroke-width=".79701" stroke-linecap="butt" stroke-miterlimit="10" stroke-linejoin="miter" fill="none" stroke="#000000" d="M44.67506 137.49524 42.44116 130.62036"/>
<path transform="matrix(1.00008,0,0,-1.00005,146.87525,146.57352)" stroke-width=".79701" stroke-linecap="butt" stroke-miterlimit="10" stroke-linejoin="miter" fill="none" stroke="#000000" d="M42.26837 138.25189 40.1547 131.33914"/>
<path transform="matrix(1.00008,0,0,-1.00005,146.87525,146.57352)" stroke-width=".79701" stroke-linecap="butt" stroke-miterlimit="10" stroke-linejoin="miter" fill="none" stroke="#000000" d="M39.84843 138.96881 37.85571 132.02005"/>
<path transform="matrix(1.00008,0,0,-1.00005,146.87525,146.57352)" stroke-width=".79701" stroke-linecap="butt" stroke-miterlimit="10" stroke-linejoin="miter" fill="none" stroke="#000000" d="M37.41747 139.64385 35.54645 132.66124"/>
<path transform="matrix(1.00008,0,0,-1.00005,146.87525,146.57352)" stroke-width=".79701" stroke-linecap="butt" stroke-miterlimit="10" stroke-linejoin="miter" fill="none" stroke="#000000" d="M34.97325 140.27695 33.2243 133.26274"/>
<path transform="matrix(1.00008,0,0,-1.00005,146.87525,146.57352)" stroke-width=".79701" stroke-linecap="butt" stroke-miterlimit="10" stroke-linejoin="miter" fill="none" stroke="#000000" d="M32.52025 140.86374 30.89407 133.82048"/>
<path transform="matrix(1.00008,0,0,-1.00005,146.87525,146.57352)" stroke-width=".79701" stroke-linecap="butt" stroke-miterlimit="10" stroke-linejoin="miter" fill="none" stroke="#000000" d="M30.05838 141.41082 28.55539 134.33997"/>
<path transform="matrix(1.00008,0,0,-1.00005,146.87525,146.57352)" stroke-width=".79701" stroke-linecap="butt" stroke-miterlimit="10" stroke-linejoin="miter" fill="none" stroke="#000000" d="M27.5855 141.91378 26.20604 134.81793"/>
<path transform="matrix(1.00008,0,0,-1.00005,146.87525,146.57352)" stroke-width=".79701" stroke-linecap="butt" stroke-miterlimit="10" stroke-linejoin="miter" fill="none" stroke="#000000" d="M25.10379 142.37482 23.84825 135.25582"/>
<path transform="matrix(1.00008,0,0,-1.00005,146.87525,146.57352)" stroke-width=".79701" stroke-linecap="butt" stroke-miterlimit="10" stroke-linejoin="miter" fill="none" stroke="#000000" d="M22.61548 142.78954 21.48456 135.64994"/>
<path transform="matrix(1.00008,0,0,-1.00005,146.87525,146.57352)" stroke-width=".79701" stroke-linecap="butt" stroke-miterlimit="10" stroke-linejoin="miter" fill="none" stroke="#000000" d="M20.12053 143.16234 19.11424 136.00402"/>
<path transform="matrix(1.00008,0,0,-1.00005,146.87525,146.57352)" stroke-width=".79701" stroke-linecap="butt" stroke-miterlimit="10" stroke-linejoin="miter" fill="none" stroke="#000000" d="M17.61897 143.49324 16.7377 136.31838"/>
<path transform="matrix(1.00008,0,0,-1.00005,146.87525,146.57352)" stroke-width=".79701" stroke-linecap="butt" stroke-miterlimit="10" stroke-linejoin="miter" fill="none" stroke="#000000" d="M15.11081 143.77782 14.35489 136.58858"/>
<path transform="matrix(1.00008,0,0,-1.00005,146.87525,146.57352)" stroke-width=".79701" stroke-linecap="butt" stroke-miterlimit="10" stroke-linejoin="miter" fill="none" stroke="#000000" d="M12.60043 144.01825 11.97026 136.81726"/>
<path transform="matrix(1.00008,0,0,-1.00005,146.87525,146.57352)" stroke-width=".79701" stroke-linecap="butt" stroke-miterlimit="10" stroke-linejoin="miter" fill="none" stroke="#000000" d="M10.08562 144.2168 9.58119 137.00588"/>
<path transform="matrix(1.00008,0,0,-1.00005,146.87525,146.57352)" stroke-width=".79701" stroke-linecap="butt" stroke-miterlimit="10" stroke-linejoin="miter" fill="none" stroke="#000000" d="M7.56642 144.3712 7.18773 137.15258"/>
<path transform="matrix(1.00008,0,0,-1.00005,146.87525,146.57352)" stroke-width=".79701" stroke-linecap="butt" stroke-miterlimit="10" stroke-linejoin="miter" fill="none" stroke="#000000" d="M5.04501 144.4815 4.79243 137.25737"/>
<path transform="matrix(1.00008,0,0,-1.00005,146.87525,146.57352)" stroke-width=".79701" stroke-linecap="butt" stroke-miterlimit="10" stroke-linejoin="miter" fill="none" stroke="#000000" d="M2.52359 144.54769 2.39711 137.32022"/>
<path transform="matrix(1.00008,0,0,-1.00005,146.87525,146.57352)" stroke-width=".79701" stroke-linecap="butt" stroke-miterlimit="10" stroke-linejoin="miter" fill="none" stroke="#000000" d="M0 144.56977V137.34119"/>
<path transform="matrix(1.00008,0,0,-1.00005,146.87525,146.57352)" stroke-width=".79701" stroke-linecap="butt" stroke-miterlimit="10" stroke-linejoin="miter" fill="none" stroke="#000000" d="M-2.52359 144.54769-2.39711 137.32022"/>
<path transform="matrix(1.00008,0,0,-1.00005,146.87525,146.57352)" stroke-width=".79701" stroke-linecap="butt" stroke-miterlimit="10" stroke-linejoin="miter" fill="none" stroke="#000000" d="M-5.04501 144.4815-4.79243 137.25737"/>
<path transform="matrix(1.00008,0,0,-1.00005,146.87525,146.57352)" stroke-width=".79701" stroke-linecap="butt" stroke-miterlimit="10" stroke-linejoin="miter" fill="none" stroke="#000000" d="M-7.56642 144.3712-7.18773 137.15258"/>
<path transform="matrix(1.00008,0,0,-1.00005,146.87525,146.57352)" stroke-width=".79701" stroke-linecap="butt" stroke-miterlimit="10" stroke-linejoin="miter" fill="none" stroke="#000000" d="M-10.08562 144.2168-9.58119 137.00588"/>
<path transform="matrix(1.00008,0,0,-1.00005,146.87525,146.57352)" stroke-width=".79701" stroke-linecap="butt" stroke-miterlimit="10" stroke-linejoin="miter" fill="none" stroke="#000000" d="M-12.60043 144.01825-11.97026 136.81726"/>
<path transform="matrix(1.00008,0,0,-1.00005,146.87525,146.57352)" stroke-width=".79701" stroke-linecap="butt" stroke-miterlimit="10" stroke-linejoin="miter" fill="none" stroke="#000000" d="M-15.11081 143.77782-14.35489 136.58858"/>
<path transform="matrix(1.00008,0,0,-1.00005,146.87525,146.57352)" stroke-width=".79701" stroke-linecap="butt" stroke-miterlimit="10" stroke-linejoin="miter" fill="none" stroke="#000000" d="M-17.61897 143.49324-16.7377 136.31838"/>
<path transform="matrix(1.00008,0,0,-1.00005,146.87525,146.57352)" stroke-width=".79701" stroke-linecap="butt" stroke-miterlimit="10" stroke-linejoin="miter" fill="none" stroke="#000000" d="M-20.12053 143.16234-19.11424 136.00402"/>
<path transform="matrix(1.00008,0,0,-1.00005,146.87525,146.57352)" stroke-width=".79701" stroke-linecap="butt" stroke-miterlimit="10" stroke-linejoin="miter" fill="none" stroke="#000000" d="M-22.61548 142.78954-21.48456 135.64994"/>
<path transform="matrix(1.00008,0,0,-1.00005,146.87525,146.57352)" stroke-width=".79701" stroke-linecap="butt" stroke-miterlimit="10" stroke-linejoin="miter" fill="none" stroke="#000000" d="M-25.10379 142.37482-23.84825 135.25582"/>
<path transform="matrix(1.00008,0,0,-1.00005,146.87525,146.57352)" stroke-width=".79701" stroke-linecap="butt" stroke-miterlimit="10" stroke-linejoin="miter" fill="none" stroke="#000000" d="M-27.5855 141.91378-26.20604 134.81793"/>
<path transform="matrix(1.00008,0,0,-1.00005,146.87525,146.57352)" stroke-width=".79701" stroke-linecap="butt" stroke-miterlimit="10" stroke-linejoin="miter" fill="none" stroke="#000000" d="M-30.05838 141.41082-28.55539 134.33997"/>
<path transform="matrix(1.00008,0,0,-1.00005,146.87525,146.57352)" stroke-width=".79701" stroke-linecap="butt" stroke-miterlimit="10" stroke-linejoin="miter" fill="none" stroke="#000000" d="M-32.52025 140.86374-30.89407 133.82048"/>
<path transform="matrix(1.00008,0,0,-1.00005,146.87525,146.57352)" stroke-width=".79701" stroke-linecap="butt" stroke-miterlimit="10" stroke-linejoin="miter" fill="none" stroke="#000000" d="M-34.97325 140.27695-33.2243 133.26274"/>
<path transform="matrix(1.00008,0,0,-1.00005,146.87525,146.57352)" stroke-width=".79701" stroke-linecap="butt" stroke-miterlimit="10" stroke-linejoin="miter" fill="none" stroke="#000000" d="M-37.41747 139.64385-35.54645 132.66124"/>
<path transform="matrix(1.00008,0,0,-1.00005,146.87525,146.57352)" stroke-width=".79701" stroke-linecap="butt" stroke-miterlimit="10" stroke-linejoin="miter" fill="none" stroke="#000000" d="M-39.84843 138.96881-37.85571 132.02005"/>
<path transform="matrix(1.00008,0,0,-1.00005,146.87525,146.57352)" stroke-width=".79701" stroke-linecap="butt" stroke-miterlimit="10" stroke-linejoin="miter" fill="none" stroke="#000000" d="M-42.26837 138.25189-40.1547 131.33914"/>
<path transform="matrix(1.00008,0,0,-1.00005,146.87525,146.57352)" stroke-width=".79701" stroke-linecap="butt" stroke-miterlimit="10" stroke-linejoin="miter" fill="none" stroke="#000000" d="M-44.67506 137.49524-42.44116 130.62036"/>
<path transform="matrix(1.00008,0,0,-1.00005,146.87525,146.57352)" stroke-width=".79701" stroke-linecap="butt" stroke-miterlimit="10" stroke-linejoin="miter" fill="none" stroke="#000000" d="M-47.06854 136.69448-44.71477 129.85967"/>
<path transform="matrix(1.00008,0,0,-1.00005,146.87525,146.57352)" stroke-width=".79701" stroke-linecap="butt" stroke-miterlimit="10" stroke-linejoin="miter" fill="none" stroke="#000000" d="M-49.44656 135.85179-46.97404 129.0589"/>
<path transform="matrix(1.00008,0,0,-1.00005,146.87525,146.57352)" stroke-width=".79701" stroke-linecap="butt" stroke-miterlimit="10" stroke-linejoin="miter" fill="none" stroke="#000000" d="M-51.80914 134.96721-49.21861 128.21843"/>
<path transform="matrix(1.00008,0,0,-1.00005,146.87525,146.57352)" stroke-width=".79701" stroke-linecap="butt" stroke-miterlimit="10" stroke-linejoin="miter" fill="none" stroke="#000000" d="M-54.1563 134.04293-51.4481 127.34045"/>
<path transform="matrix(1.00008,0,0,-1.00005,146.87525,146.57352)" stroke-width=".79701" stroke-linecap="butt" stroke-miterlimit="10" stroke-linejoin="miter" fill="none" stroke="#000000" d="M-56.48799 133.07669-53.66325 126.42279"/>
<path transform="matrix(1.00008,0,0,-1.00005,146.87525,146.57352)" stroke-width=".79701" stroke-linecap="butt" stroke-miterlimit="10" stroke-linejoin="miter" fill="none" stroke="#000000" d="M-58.80203 132.07079-55.86186 125.46687"/>
<path transform="matrix(1.00008,0,0,-1.00005,146.87525,146.57352)" stroke-width=".79701" stroke-linecap="butt" stroke-miterlimit="10" stroke-linejoin="miter" fill="none" stroke="#000000" d="M-61.09843 131.02515-58.04318 124.47382"/>
<path transform="matrix(1.00008,0,0,-1.00005,146.87525,146.57352)" stroke-width=".79701" stroke-linecap="butt" stroke-miterlimit="10" stroke-linejoin="miter" fill="none" stroke="#000000" d="M-63.37498 129.9376-60.20613 123.44032"/>
<path transform="matrix(1.00008,0,0,-1.00005,146.87525,146.57352)" stroke-width=".79701" stroke-linecap="butt" stroke-miterlimit="10" stroke-linejoin="miter" fill="none" stroke="#000000" d="M-65.6339 128.81258-62.35216 122.37154"/>
<path transform="matrix(1.00008,0,0,-1.00005,146.87525,146.57352)" stroke-width=".79701" stroke-linecap="butt" stroke-miterlimit="10" stroke-linejoin="miter" fill="none" stroke="#000000" d="M-67.87074 127.64784-64.47687 121.26526"/>
<path transform="matrix(1.00008,0,0,-1.00005,146.87525,146.57352)" stroke-width=".79701" stroke-linecap="butt" stroke-miterlimit="10" stroke-linejoin="miter" fill="none" stroke="#000000" d="M-70.08995 126.44337-66.5854 120.1211"/>
<path transform="matrix(1.00008,0,0,-1.00005,146.87525,146.57352)" stroke-width=".79701" stroke-linecap="butt" stroke-miterlimit="10" stroke-linejoin="miter" fill="none" stroke="#000000" d="M-72.28487 125.20142-68.6704 118.94127"/>
<path transform="matrix(1.00008,0,0,-1.00005,146.87525,146.57352)" stroke-width=".79701" stroke-linecap="butt" stroke-miterlimit="10" stroke-linejoin="miter" fill="none" stroke="#000000" d="M-74.45993 123.91975-70.73665 117.7236"/>
<path transform="matrix(1.00008,0,0,-1.00005,146.87525,146.57352)" stroke-width=".79701" stroke-linecap="butt" stroke-miterlimit="10" stroke-linejoin="miter" fill="none" stroke="#000000" d="M-76.61075 122.60281-72.7801 116.47244"/>
<path transform="matrix(1.00008,0,0,-1.00005,146.87525,146.57352)" stroke-width=".79701" stroke-linecap="butt" stroke-miterlimit="10" stroke-linejoin="miter" fill="none" stroke="#000000" d="M-78.7395 121.24614-74.80223 115.18343"/>
<path transform="matrix(1.00008,0,0,-1.00005,146.87525,146.57352)" stroke-width=".79701" stroke-linecap="butt" stroke-miterlimit="10" stroke-linejoin="miter" fill="none" stroke="#000000" d="M-80.84178 119.85417-76.79936 113.86133"/>
<path transform="matrix(1.00008,0,0,-1.00005,146.87525,146.57352)" stroke-width=".79701" stroke-linecap="butt" stroke-miterlimit="10" stroke-linejoin="miter" fill="none" stroke="#000000" d="M-82.922 118.42471-78.77553 112.50317"/>
<path transform="matrix(1.00008,0,0,-1.00005,146.87525,146.57352)" stroke-width=".79701" stroke-linecap="butt" stroke-miterlimit="10" stroke-linejoin="miter" fill="none" stroke="#000000" d="M-84.97574 116.95996-80.72672 111.11159"/>
<path transform="matrix(1.00008,0,0,-1.00005,146.87525,146.57352)" stroke-width=".79701" stroke-linecap="butt" stroke-miterlimit="10" stroke-linejoin="miter" fill="none" stroke="#000000" d="M-87.00523 115.4599-82.65471 109.68654"/>
<path transform="matrix(1.00008,0,0,-1.00005,146.87525,146.57352)" stroke-width=".79701" stroke-linecap="butt" stroke-miterlimit="10" stroke-linejoin="miter" fill="none" stroke="#000000" d="M-89.00603 113.92236-84.55551 108.22583"/>
<path transform="matrix(1.00008,0,0,-1.00005,146.87525,146.57352)" stroke-width=".79701" stroke-linecap="butt" stroke-miterlimit="10" stroke-linejoin="miter" fill="none" stroke="#000000" d="M-90.98038 112.35172-86.43095 106.73387"/>
<path transform="matrix(1.00008,0,0,-1.00005,146.87525,146.57352)" stroke-width=".79701" stroke-linecap="butt" stroke-miterlimit="10" stroke-linejoin="miter" fill="none" stroke="#000000" d="M-92.92822 110.74577-88.28174 105.20808"/>
<path transform="matrix(1.00008,0,0,-1.00005,146.87525,146.57352)" stroke-width=".79701" stroke-linecap="butt" stroke-miterlimit="10" stroke-linejoin="miter" fill="none" stroke="#000000" d="M-94.84741 109.10893-90.10498 103.65324"/>
<path transform="matrix(1.00008,0,0,-1.00005,146.87525,146.57352)" stroke-width=".79701" stroke-linecap="butt" stroke-miterlimit="10" stroke-linejoin="miter" fill="none" stroke="#000000" d="M-96.73572 107.43462-91.89877 102.06274"/>
<path transform="matrix(1.00008,0,0,-1.00005,146.87525,146.57352)" stroke-width=".79701" stroke-linecap="butt" stroke-miterlimit="10" stroke-linejoin="miter" fill="none" stroke="#000000" d="M-98.59755 105.73163-93.6676 100.44467"/>
<path transform="matrix(1.00008,0,0,-1.00005,146.87525,146.57352)" stroke-width=".79701" stroke-linecap="butt" stroke-miterlimit="10" stroke-linejoin="miter" fill="none" stroke="#000000" d="M-100.42628 103.99554-95.4048 98.79535"/>
<path transform="matrix(1.00008,0,0,-1.00005,146.87525,146.57352)" stroke-width=".79701" stroke-linecap="butt" stroke-miterlimit="10" stroke-linejoin="miter" fill="none" stroke="#000000" d="M-102.22635 102.22635-97.11478 97.11478"/>
<path transform="matrix(1.00008,0,0,-1.00005,146.87525,146.57352)" stroke-width=".79701" stroke-linecap="butt" stroke-miterlimit="10" stroke-linejoin="miter" fill="none" stroke="#000000" d="M-103.99554 100.42628-98.79535 95.4048"/>
<path transform="matrix(1.00008,0,0,-1.00005,146.87525,146.57352)" stroke-width=".79701" stroke-linecap="butt" stroke-miterlimit="10" stroke-linejoin="miter" fill="none" stroke="#000000" d="M-105.73163 98.59755-100.44467 93.6676"/>
<path transform="matrix(1.00008,0,0,-1.00005,146.87525,146.57352)" stroke-width=".79701" stroke-linecap="butt" stroke-miterlimit="10" stroke-linejoin="miter" fill="none" stroke="#000000" d="M-107.43462 96.73572-102.06274 91.89877"/>
<path transform="matrix(1.00008,0,0,-1.00005,146.87525,146.57352)" stroke-width=".79701" stroke-linecap="butt" stroke-miterlimit="10" stroke-linejoin="miter" fill="none" stroke="#000000" d="M-109.10893 94.84741-103.65324 90.10498"/>
<path transform="matrix(1.00008,0,0,-1.00005,146.87525,146.57352)" stroke-width=".79701" stroke-linecap="butt" stroke-miterlimit="10" stroke-linejoin="miter" fill="none" stroke="#000000" d="M-110.74577 92.92822-105.20808 88.28174"/>
<path transform="matrix(1.00008,0,0,-1.00005,146.87525,146.57352)" stroke-width=".79701" stroke-linecap="butt" stroke-miterlimit="10" stroke-linejoin="miter" fill="none" stroke="#000000" d="M-112.35172 90.98038-106.73387 86.43095"/>
<path transform="matrix(1.00008,0,0,-1.00005,146.87525,146.57352)" stroke-width=".79701" stroke-linecap="butt" stroke-miterlimit="10" stroke-linejoin="miter" fill="none" stroke="#000000" d="M-113.92236 89.00603-108.22583 84.55551"/>
<path transform="matrix(1.00008,0,0,-1.00005,146.87525,146.57352)" stroke-width=".79701" stroke-linecap="butt" stroke-miterlimit="10" stroke-linejoin="miter" fill="none" stroke="#000000" d="M-115.4599 87.00523-109.68654 82.65471"/>
<path transform="matrix(1.00008,0,0,-1.00005,146.87525,146.57352)" stroke-width=".79701" stroke-linecap="butt" stroke-miterlimit="10" stroke-linejoin="miter" fill="none" stroke="#000000" d="M-116.95996 84.97574-111.11159 80.72672"/>
<path transform="matrix(1.00008,0,0,-1.00005,146.87525,146.57352)" stroke-width=".79701" stroke-linecap="butt" stroke-miterlimit="10" stroke-linejoin="miter" fill="none" stroke="#000000" d="M-118.42471 82.922-112.50317 78.77553"/>
<path transform="matrix(1.00008,0,0,-1.00005,146.87525,146.57352)" stroke-width=".79701" stroke-linecap="butt" stroke-miterlimit="10" stroke-linejoin="miter" fill="none" stroke="#000000" d="M-119.85417 80.84178-113.86133 76.79936"/>
<path transform="matrix(1.00008,0,0,-1.00005,146.87525,146.57352)" stroke-width=".79701" stroke-linecap="butt" stroke-miterlimit="10" stroke-linejoin="miter" fill="none" stroke="#000000" d="M-121.24614 78.7395-115.18343 74.80223"/>
<path transform="matrix(1.00008,0,0,-1.00005,146.87525,146.57352)" stroke-width=".79701" stroke-linecap="butt" stroke-miterlimit="10" stroke-linejoin="miter" fill="none" stroke="#000000" d="M-122.60281 76.61075-116.47244 72.7801"/>
<path transform="matrix(1.00008,0,0,-1.00005,146.87525,146.57352)" stroke-width=".79701" stroke-linecap="butt" stroke-miterlimit="10" stroke-linejoin="miter" fill="none" stroke="#000000" d="M-123.91975 74.45993-117.7236 70.73665"/>
<path transform="matrix(1.00008,0,0,-1.00005,146.87525,146.57352)" stroke-width=".79701" stroke-linecap="butt" stroke-miterlimit="10" stroke-linejoin="miter" fill="none" stroke="#000000" d="M-125.20142 72.28487-118.94127 68.6704"/>
<path transform="matrix(1.00008,0,0,-1.00005,146.87525,146.57352)" stroke-width=".79701" stroke-linecap="butt" stroke-miterlimit="10" stroke-linejoin="miter" fill="none" stroke="#000000" d="M-126.44337 70.08995-120.1211 66.5854"/>
<path transform="matrix(1.00008,0,0,-1.00005,146.87525,146.57352)" stroke-width=".79701" stroke-linecap="butt" stroke-miterlimit="10" stroke-linejoin="miter" fill="none" stroke="#000000" d="M-127.64784 67.87074-121.26526 64.47687"/>
<path transform="matrix(1.00008,0,0,-1.00005,146.87525,146.57352)" stroke-width=".79701" stroke-linecap="butt" stroke-miterlimit="10" stroke-linejoin="miter" fill="none" stroke="#000000" d="M-128.81258 65.6339-122.37154 62.35216"/>
<path transform="matrix(1.00008,0,0,-1.00005,146.87525,146.57352)" stroke-width=".79701" stroke-linecap="butt" stroke-miterlimit="10" stroke-linejoin="miter" fill="none" stroke="#000000" d="M-129.9376 63.37498-123.44032 60.20613"/>
<path transform="matrix(1.00008,0,0,-1.00005,146.87525,146.57352)" stroke-width=".79701" stroke-linecap="butt" stroke-miterlimit="10" stroke-linejoin="miter" fill="none" stroke="#000000" d="M-131.02515 61.09843-124.47382 58.04318"/>
<path transform="matrix(1.00008,0,0,-1.00005,146.87525,146.57352)" stroke-width=".79701" stroke-linecap="butt" stroke-miterlimit="10" stroke-linejoin="miter" fill="none" stroke="#000000" d="M-132.07079 58.80203-125.46687 55.86186"/>
<path transform="matrix(1.00008,0,0,-1.00005,146.87525,146.57352)" stroke-width=".79701" stroke-linecap="butt" stroke-miterlimit="10" stroke-linejoin="miter" fill="none" stroke="#000000" d="M-133.07669 56.48799-126.42279 53.66325"/>
<path transform="matrix(1.00008,0,0,-1.00005,146.87525,146.57352)" stroke-width=".79701" stroke-linecap="butt" stroke-miterlimit="10" stroke-linejoin="miter" fill="none" stroke="#000000" d="M-134.04293 54.1563-127.34045 51.4481"/>
<path transform="matrix(1.00008,0,0,-1.00005,146.87525,146.57352)" stroke-width=".79701" stroke-linecap="butt" stroke-miterlimit="10" stroke-linejoin="miter" fill="none" stroke="#000000" d="M-134.96721 51.80914-128.21843 49.21861"/>
<path transform="matrix(1.00008,0,0,-1.00005,146.87525,146.57352)" stroke-width=".79701" stroke-linecap="butt" stroke-miterlimit="10" stroke-linejoin="miter" fill="none" stroke="#000000" d="M-135.85179 49.44656-129.0589 46.97404"/>
<path transform="matrix(1.00008,0,0,-1.00005,146.87525,146.57352)" stroke-width=".79701" stroke-linecap="butt" stroke-miterlimit="10" stroke-linejoin="miter" fill="none" stroke="#000000" d="M-136.69448 47.06854-129.85967 44.71477"/>
<path transform="matrix(1.00008,0,0,-1.00005,146.87525,146.57352)" stroke-width=".79701" stroke-linecap="butt" stroke-miterlimit="10" stroke-linejoin="miter" fill="none" stroke="#000000" d="M-137.49524 44.67506-130.62036 42.44116"/>
<path transform="matrix(1.00008,0,0,-1.00005,146.87525,146.57352)" stroke-width=".79701" stroke-linecap="butt" stroke-miterlimit="10" stroke-linejoin="miter" fill="none" stroke="#000000" d="M-138.25189 42.26837-131.33914 40.1547"/>
<path transform="matrix(1.00008,0,0,-1.00005,146.87525,146.57352)" stroke-width=".79701" stroke-linecap="butt" stroke-miterlimit="10" stroke-linejoin="miter" fill="none" stroke="#000000" d="M-138.96881 39.84843-132.02005 37.85571"/>
<path transform="matrix(1.00008,0,0,-1.00005,146.87525,146.57352)" stroke-width=".79701" stroke-linecap="butt" stroke-miterlimit="10" stroke-linejoin="miter" fill="none" stroke="#000000" d="M-139.64385 37.41747-132.66124 35.54645"/>
<path transform="matrix(1.00008,0,0,-1.00005,146.87525,146.57352)" stroke-width=".79701" stroke-linecap="butt" stroke-miterlimit="10" stroke-linejoin="miter" fill="none" stroke="#000000" d="M-140.27695 34.97325-133.26274 33.2243"/>
<path transform="matrix(1.00008,0,0,-1.00005,146.87525,146.57352)" stroke-width=".79701" stroke-linecap="butt" stroke-miterlimit="10" stroke-linejoin="miter" fill="none" stroke="#000000" d="M-140.86374 32.52025-133.82048 30.89407"/>
<path transform="matrix(1.00008,0,0,-1.00005,146.87525,146.57352)" stroke-width=".79701" stroke-linecap="butt" stroke-miterlimit="10" stroke-linejoin="miter" fill="none" stroke="#000000" d="M-141.41082 30.05838-134.33997 28.55539"/>
<path transform="matrix(1.00008,0,0,-1.00005,146.87525,146.57352)" stroke-width=".79701" stroke-linecap="butt" stroke-miterlimit="10" stroke-linejoin="miter" fill="none" stroke="#000000" d="M-141.91378 27.5855-134.81793 26.20604"/>
<path transform="matrix(1.00008,0,0,-1.00005,146.87525,146.57352)" stroke-width=".79701" stroke-linecap="butt" stroke-miterlimit="10" stroke-linejoin="miter" fill="none" stroke="#000000" d="M-142.37482 25.10379-135.25582 23.84825"/>
<path transform="matrix(1.00008,0,0,-1.00005,146.87525,146.57352)" stroke-width=".79701" stroke-linecap="butt" stroke-miterlimit="10" stroke-linejoin="miter" fill="none" stroke="#000000" d="M-142.78954 22.61548-135.64994 21.48456"/>
<path transform="matrix(1.00008,0,0,-1.00005,146.87525,146.57352)" stroke-width=".79701" stroke-linecap="butt" stroke-miterlimit="10" stroke-linejoin="miter" fill="none" stroke="#000000" d="M-143.16234 20.12053-136.00402 19.11424"/>
<path transform="matrix(1.00008,0,0,-1.00005,146.87525,146.57352)" stroke-width=".79701" stroke-linecap="butt" stroke-miterlimit="10" stroke-linejoin="miter" fill="none" stroke="#000000" d="M-143.49324 17.61897-136.31838 16.7377"/>
<path transform="matrix(1.00008,0,0,-1.00005,146.87525,146.57352)" stroke-width=".79701" stroke-linecap="butt" stroke-miterlimit="10" stroke-linejoin="miter" fill="none" stroke="#000000" d="M-143.77782 15.11081-136.58858 14.35489"/>
<path transform="matrix(1.00008,0,0,-1.00005,146.87525,146.57352)" stroke-width=".79701" stroke-linecap="butt" stroke-miterlimit="10" stroke-linejoin="miter" fill="none" stroke="#000000" d="M-144.01825 12.60043-136.81726 11.97026"/>
<path transform="matrix(1.00008,0,0,-1.00005,146.87525,146.57352)" stroke-width=".79701" stroke-linecap="butt" stroke-miterlimit="10" stroke-linejoin="miter" fill="none" stroke="#000000" d="M-144.2168 10.08562-137.00588 9.58119"/>
<path transform="matrix(1.00008,0,0,-1.00005,146.87525,146.57352)" stroke-width=".79701" stroke-linecap="butt" stroke-miterlimit="10" stroke-linejoin="miter" fill="none" stroke="#000000" d="M-144.3712 7.56642-137.15258 7.18773"/>
<path transform="matrix(1.00008,0,0,-1.00005,146.87525,146.57352)" stroke-width=".79701" stroke-linecap="butt" stroke-miterlimit="10" stroke-linejoin="miter" fill="none" stroke="#000000" d="M-144.4815 5.04501-137.25737 4.79243"/>
<path transform="matrix(1.00008,0,0,-1.00005,146.87525,146.57352)" stroke-width=".79701" stroke-linecap="butt" stroke-miterlimit="10" stroke-linejoin="miter" fill="none" stroke="#000000" d="M-144.54769 2.52359-137.32022 2.39711"/>
<path transform="matrix(1.00008,0,0,-1.00005,146.87525,146.57352)" stroke-width=".79701" stroke-linecap="butt" stroke-miterlimit="10" stroke-linejoin="miter" fill="none" stroke="#000000" d="M144.56977 0H96.37984"/>
<path transform="matrix(1.00008,0,0,-1.00005,146.87525,146.57352)" d="M130.92198-8.46835V8.46835H122.07507V-8.46835ZM122.07507 8.46835" fill="#ffffff"/>
<use data-text="1" xlink:href="#font_2_82" transform="matrix(0,9.963098,9.963397,0,270.17509,139.10016)"/>
<use data-text="8" xlink:href="#font_2_51" transform="matrix(0,9.963098,9.963397,0,270.17509,144.0817)"/>
<use data-text="0" xlink:href="#font_2_121" transform="matrix(0,9.963098,9.963397,0,270.17509,149.06324)"/>
<path transform="matrix(1.00008,0,0,-1.00005,146.87525,146.57352)" d="M112.85075-3.48697V3.48697H104.00385V-3.48697ZM104.00385 3.48697" fill="#ffffff"/>
<use data-text="0" xlink:href="#font_2_121" transform="matrix(0,9.963098,9.963397,0,252.10263,144.0824)"/>
<path transform="matrix(1.00008,0,0,-1.00005,146.87525,146.57352)" stroke-width=".79701" stroke-linecap="butt" stroke-miterlimit="10" stroke-linejoin="miter" fill="none" stroke="#000000" d="M142.37482 25.10379 94.91653 16.73586"/>
<path transform="matrix(1.00008,0,0,-1.00005,146.87525,146.57352)" d="M130.4537 14.4028 127.51273 31.08237 118.70203 29.52887 121.643 12.8493ZM118.70203 29.52887" fill="#ffffff"/>
<use data-text="1" xlink:href="#font_2_82" transform="matrix(1.7301438,9.811857,9.812153,-1.7300918,266.95634,117.81229)"/>
<use data-text="7" xlink:href="#font_2_100" transform="matrix(1.7301438,9.811857,9.812153,-1.7300918,267.8214,122.718219)"/>
<use data-text="0" xlink:href="#font_2_121" transform="matrix(1.7301438,9.811857,9.812153,-1.7300918,268.68647,127.62413)"/>
<path transform="matrix(1.00008,0,0,-1.00005,146.87525,146.57352)" d="M112.1752 13.70905 110.09923 25.48285 101.38664 23.94666 103.46262 12.17284ZM101.38664 23.94666" fill="#ffffff"/>
<use data-text="1" xlink:href="#font_2_82" transform="matrix(1.7301438,9.811857,9.812153,-1.7300918,249.63999,123.395587)"/>
<use data-text="0" xlink:href="#font_2_121" transform="matrix(1.7301438,9.811857,9.812153,-1.7300918,250.50505,128.30152)"/>
<path transform="matrix(1.00008,0,0,-1.00005,146.87525,146.57352)" stroke-width=".79701" stroke-linecap="butt" stroke-miterlimit="10" stroke-linejoin="miter" fill="none" stroke="#000000" d="M135.85179 49.44656 90.56786 32.96436"/>
<path transform="matrix(1.00008,0,0,-1.00005,146.87525,146.57352)" d="M125.92343 36.82071 120.13065 52.73608 111.81725 49.71024 117.61003 33.79486ZM111.81725 49.71024" fill="#ffffff"/>
<use data-text="1" xlink:href="#font_2_82" transform="matrix(3.4077805,9.362323,9.362604,-3.4076782,260.1839,97.38115)"/>
<use data-text="6" xlink:href="#font_2_101" transform="matrix(3.4077805,9.362323,9.362604,-3.4076782,261.88783,102.0623)"/>
<use data-text="0" xlink:href="#font_2_121" transform="matrix(3.4077805,9.362323,9.362604,-3.4076782,263.59169,106.743457)"/>
<path transform="matrix(1.00008,0,0,-1.00005,146.87525,146.57352)" d="M108.09006 32.98047 104.00102 44.21486 95.68762 41.18901 99.77666 29.95462ZM95.68762 41.18901" fill="#ffffff"/>
<use data-text="2" xlink:href="#font_2_107" transform="matrix(3.4077805,9.362323,9.362604,-3.4076782,244.0536,105.90257)"/>
<use data-text="0" xlink:href="#font_2_121" transform="matrix(3.4077805,9.362323,9.362604,-3.4076782,245.75749,110.583728)"/>
<path transform="matrix(1.00008,0,0,-1.00005,146.87525,146.57352)" stroke-width=".79701" stroke-linecap="butt" stroke-miterlimit="10" stroke-linejoin="miter" fill="none" stroke="#000000" d="M125.20142 72.28487 83.4676 48.18991"/>
<path transform="matrix(1.00008,0,0,-1.00005,146.87525,146.57352)" d="M117.61626 58.12715 109.1479 72.79482 101.48624 68.37137 109.95459 53.7037ZM101.48624 68.37137" fill="#ffffff"/>
<use data-text="1" xlink:href="#font_2_82" transform="matrix(4.9816987,8.628341,8.6286,-4.981549,249.91999,78.45332)"/>
<use data-text="5" xlink:href="#font_2_56" transform="matrix(4.9816987,8.628341,8.6286,-4.981549,252.41083,82.76747)"/>
<use data-text="0" xlink:href="#font_2_121" transform="matrix(4.9816987,8.628341,8.6286,-4.981549,254.90167,87.08165)"/>
<path transform="matrix(1.00008,0,0,-1.00005,146.87525,146.57352)" d="M100.72073 51.24855 94.74307 61.60219 87.0814 57.17874 93.05907 46.82509ZM87.0814 57.17874" fill="#ffffff"/>
<use data-text="3" xlink:href="#font_2_106" transform="matrix(4.9816987,8.628341,8.6286,-4.981549,235.51383,89.646869)"/>
<use data-text="0" xlink:href="#font_2_121" transform="matrix(4.9816987,8.628341,8.6286,-4.981549,238.00467,93.96101)"/>
<path transform="matrix(1.00008,0,0,-1.00005,146.87525,146.57352)" stroke-width=".79701" stroke-linecap="butt" stroke-miterlimit="10" stroke-linejoin="miter" fill="none" stroke="#000000" d="M110.74577 92.92822 73.83052 61.95216"/>
<path transform="matrix(1.00008,0,0,-1.00005,146.87525,146.57352)" d="M105.77617 77.70352 94.88939 90.67766 88.02838 84.92049 98.91516 71.94635ZM88.02838 84.92049" fill="#ffffff"/>
<use data-text="1" xlink:href="#font_2_82" transform="matrix(6.404372,7.6321318,7.6323606,-6.4041798,236.48155,61.630128)"/>
<use data-text="4" xlink:href="#font_2_57" transform="matrix(6.404372,7.6321318,7.6323606,-6.4041798,239.68375,65.4462)"/>
<use data-text="0" xlink:href="#font_2_121" transform="matrix(6.404372,7.6321318,7.6323606,-6.4041798,242.88593,69.26224)"/>
<path transform="matrix(1.00008,0,0,-1.00005,146.87525,146.57352)" d="M90.33203 67.99565 82.64725 77.15387 75.78625 71.3967 83.47102 62.23848ZM75.78625 71.3967" fill="#ffffff"/>
<use data-text="4" xlink:href="#font_2_57" transform="matrix(6.404372,7.6321318,7.6323606,-6.4041798,224.23857,75.154819)"/>
<use data-text="0" xlink:href="#font_2_121" transform="matrix(6.404372,7.6321318,7.6323606,-6.4041798,227.44077,78.97089)"/>
<path transform="matrix(1.00008,0,0,-1.00005,146.87525,146.57352)" stroke-width=".79701" stroke-linecap="butt" stroke-miterlimit="10" stroke-linejoin="miter" fill="none" stroke="#000000" d="M92.92822 110.74577 61.95216 73.83052"/>
<path transform="matrix(1.00008,0,0,-1.00005,146.87525,146.57352)" d="M90.64246 94.84741 77.66832 105.73419 71.9816 98.95714 84.95575 88.07036ZM71.9816 98.95714" fill="#ffffff"/>
<use data-text="1" xlink:href="#font_2_82" transform="matrix(7.6323606,6.4041798,6.404372,-7.6321318,220.40663,47.32054)"/>
<use data-text="3" xlink:href="#font_2_106" transform="matrix(7.6323606,6.4041798,6.404372,-7.6321318,224.22281,50.52263)"/>
<use data-text="0" xlink:href="#font_2_121" transform="matrix(7.6323606,6.4041798,6.404372,-7.6321318,228.03899,53.724718)"/>
<path transform="matrix(1.00008,0,0,-1.00005,146.87525,146.57352)" d="M77.11864 82.60527 67.96042 90.29005 62.27371 83.513 71.43193 75.82822ZM62.27371 83.513" fill="#ffffff"/>
<use data-text="5" xlink:href="#font_2_56" transform="matrix(7.6323606,6.4041798,6.404372,-7.6321318,210.69785,62.765306)"/>
<use data-text="0" xlink:href="#font_2_121" transform="matrix(7.6323606,6.4041798,6.404372,-7.6321318,214.51403,65.96739)"/>
<path transform="matrix(1.00008,0,0,-1.00005,146.87525,146.57352)" stroke-width=".79701" stroke-linecap="butt" stroke-miterlimit="10" stroke-linejoin="miter" fill="none" stroke="#000000" d="M72.28487 125.20142 48.18991 83.4676"/>
<path transform="matrix(1.00008,0,0,-1.00005,146.87525,146.57352)" d="M72.79482 109.1479 58.12715 117.61626 53.7037 109.95459 68.37137 101.48624ZM53.7037 109.95459" fill="#ffffff"/>
<use data-text="1" xlink:href="#font_2_82" transform="matrix(8.6286,4.981549,4.9816987,-8.628341,202.05385,36.058519)"/>
<use data-text="2" xlink:href="#font_2_107" transform="matrix(8.6286,4.981549,4.9816987,-8.628341,206.36815,38.549287)"/>
<use data-text="0" xlink:href="#font_2_121" transform="matrix(8.6286,4.981549,4.9816987,-8.628341,210.68244,41.04007)"/>
<path transform="matrix(1.00008,0,0,-1.00005,146.87525,146.57352)" d="M61.60219 94.74307 51.24855 100.72073 46.82509 93.05907 57.17874 87.0814ZM46.82509 93.05907" fill="#ffffff"/>
<use data-text="6" xlink:href="#font_2_101" transform="matrix(8.6286,4.981549,4.9816987,-8.628341,195.17427,52.955354)"/>
<use data-text="0" xlink:href="#font_2_121" transform="matrix(8.6286,4.981549,4.9816987,-8.628341,199.48857,55.44612)"/>
<path transform="matrix(1.00008,0,0,-1.00005,146.87525,146.57352)" stroke-width=".79701" stroke-linecap="butt" stroke-miterlimit="10" stroke-linejoin="miter" fill="none" stroke="#000000" d="M49.44656 135.85179 32.96436 90.56786"/>
<path transform="matrix(1.00008,0,0,-1.00005,146.87525,146.57352)" d="M52.73608 120.13063 36.82071 125.92342 33.79486 117.61002 49.71024 111.81723ZM33.79486 117.61002" fill="#ffffff"/>
<use data-text="1" xlink:href="#font_2_82" transform="matrix(9.362604,3.4076782,3.4077805,-9.362323,182.02469,28.155976)"/>
<use data-text="1" xlink:href="#font_2_82" transform="matrix(9.362604,3.4076782,3.4077805,-9.362323,186.70597,29.859803)"/>
<use data-text="0" xlink:href="#font_2_121" transform="matrix(9.362604,3.4076782,3.4077805,-9.362323,191.38727,31.56366)"/>
<path transform="matrix(1.00008,0,0,-1.00005,146.87525,146.57352)" d="M44.2319 104.04785 32.99751 108.13687 29.93758 99.72984 41.17197 95.64082ZM29.93758 99.72984" fill="#ffffff"/>
<use data-text="7" xlink:href="#font_2_100" transform="matrix(9.362604,3.4076782,3.4077805,-9.362323,178.16738,46.03688)"/>
<use data-text="0" xlink:href="#font_2_121" transform="matrix(9.362604,3.4076782,3.4077805,-9.362323,182.84867,47.740709)"/>
<path transform="matrix(1.00008,0,0,-1.00005,146.87525,146.57352)" stroke-width=".79701" stroke-linecap="butt" stroke-miterlimit="10" stroke-linejoin="miter" fill="none" stroke="#000000" d="M25.10379 142.37482 16.73586 94.91653"/>
<path transform="matrix(1.00008,0,0,-1.00005,146.87525,146.57352)" d="M31.07373 127.46367 14.39417 130.40465 12.85796 121.69206 29.53752 118.75108ZM12.85796 121.69206" fill="#ffffff"/>
<use data-text="1" xlink:href="#font_2_82" transform="matrix(9.812153,1.7300918,1.7301438,-9.811857,160.92623,23.851685)"/>
<use data-text="0" xlink:href="#font_2_121" transform="matrix(9.812153,1.7300918,1.7301438,-9.811857,165.8323,24.716736)"/>
<use data-text="0" xlink:href="#font_2_121" transform="matrix(9.812153,1.7300918,1.7301438,-9.811857,170.73838,25.581772)"/>
<path transform="matrix(1.00008,0,0,-1.00005,146.87525,146.57352)" d="M25.48285 110.09923 13.70905 112.1752 12.17284 103.46262 23.94666 101.38664ZM12.17284 103.46262" fill="#ffffff"/>
<use data-text="8" xlink:href="#font_2_51" transform="matrix(9.812153,1.7300918,1.7301438,-9.811857,160.24117,42.081605)"/>
<use data-text="0" xlink:href="#font_2_121" transform="matrix(9.812153,1.7300918,1.7301438,-9.811857,165.14725,42.946657)"/>
<path transform="matrix(1.00008,0,0,-1.00005,146.87525,146.57352)" stroke-width=".79701" stroke-linecap="butt" stroke-miterlimit="10" stroke-linejoin="miter" fill="none" stroke="#000000" d="M-25.10379 142.37482-16.73586 94.91653"/>
<path transform="matrix(1.00008,0,0,-1.00005,146.87525,146.57352)" d="M-16.84703 129.97216-28.62085 127.89616-27.08464 119.18358-15.31084 121.25957ZM-27.08464 119.18358" fill="#ffffff"/>
<use data-text="8" xlink:href="#font_2_51" transform="matrix(9.812153,-1.7300918,-1.7301438,-9.811857,120.55835,26.013978)"/>
<use data-text="0" xlink:href="#font_2_121" transform="matrix(9.812153,-1.7300918,-1.7301438,-9.811857,125.46443,25.148934)"/>
<path transform="matrix(1.00008,0,0,-1.00005,146.87525,146.57352)" d="M-11.25616 112.60771-27.93573 109.66673-26.39952 100.95415-9.71996 103.89511ZM-26.39952 100.95415" fill="#ffffff"/>
<use data-text="1" xlink:href="#font_2_82" transform="matrix(9.812153,-1.7300918,-1.7301438,-9.811857,121.24341,44.243886)"/>
<use data-text="0" xlink:href="#font_2_121" transform="matrix(9.812153,-1.7300918,-1.7301438,-9.811857,126.14949,43.37884)"/>
<use data-text="0" xlink:href="#font_2_121" transform="matrix(9.812153,-1.7300918,-1.7301438,-9.811857,131.05554,42.513799)"/>
<path transform="matrix(1.00008,0,0,-1.00005,146.87525,146.57352)" stroke-width=".79701" stroke-linecap="butt" stroke-miterlimit="10" stroke-linejoin="miter" fill="none" stroke="#000000" d="M-49.44656 135.85179-32.96436 90.56786"/>
<path transform="matrix(1.00008,0,0,-1.00005,146.87525,146.57352)" d="M-39.17824 125.11838-50.41263 121.02934-47.35269 112.62231-36.11832 116.71135ZM-47.35269 112.62231" fill="#ffffff"/>
<use data-text="7" xlink:href="#font_2_100" transform="matrix(9.362604,-3.4076782,-3.4077805,-9.362323,100.03958,32.46223)"/>
<use data-text="0" xlink:href="#font_2_121" transform="matrix(9.362604,-3.4076782,-3.4077805,-9.362323,104.720859,30.758397)"/>
<path transform="matrix(1.00008,0,0,-1.00005,146.87525,146.57352)" d="M-30.63997 108.94194-46.55536 103.14915-43.52951 94.83575-27.61412 100.62854ZM-43.52951 94.83575" fill="#ffffff"/>
<use data-text="1" xlink:href="#font_2_82" transform="matrix(9.362604,-3.4076782,-3.4077805,-9.362323,103.862888,50.25012)"/>
<use data-text="1" xlink:href="#font_2_82" transform="matrix(9.362604,-3.4076782,-3.4077805,-9.362323,108.54416,48.546285)"/>
<use data-text="0" xlink:href="#font_2_121" transform="matrix(9.362604,-3.4076782,-3.4077805,-9.362323,113.225467,46.84244)"/>
<path transform="matrix(1.00008,0,0,-1.00005,146.87525,146.57352)" stroke-width=".79701" stroke-linecap="butt" stroke-miterlimit="10" stroke-linejoin="miter" fill="none" stroke="#000000" d="M-72.28487 125.20142-48.18991 83.4676"/>
<path transform="matrix(1.00008,0,0,-1.00005,146.87525,146.57352)" d="M-60.28416 116.37091-70.6378 110.39325-66.21436 102.73158-55.86072 108.70924ZM-66.21436 102.73158" fill="#ffffff"/>
<use data-text="6" xlink:href="#font_2_101" transform="matrix(8.6286,-4.981549,-4.9816987,-8.628341,80.91113,42.285814)"/>
<use data-text="0" xlink:href="#font_2_121" transform="matrix(8.6286,-4.981549,-4.9816987,-8.628341,85.22543,39.795045)"/>
<path transform="matrix(1.00008,0,0,-1.00005,146.87525,146.57352)" d="M-49.09154 101.96608-63.7592 93.49773-59.33574 85.83606-44.66809 94.30441ZM-59.33574 85.83606" fill="#ffffff"/>
<use data-text="1" xlink:href="#font_2_82" transform="matrix(8.6286,-4.981549,-4.9816987,-8.628341,87.78969,59.182657)"/>
<use data-text="2" xlink:href="#font_2_107" transform="matrix(8.6286,-4.981549,-4.9816987,-8.628341,92.10399,56.691888)"/>
<use data-text="0" xlink:href="#font_2_121" transform="matrix(8.6286,-4.981549,-4.9816987,-8.628341,96.41826,54.20111)"/>
<path transform="matrix(1.00008,0,0,-1.00005,146.87525,146.57352)" stroke-width=".79701" stroke-linecap="butt" stroke-miterlimit="10" stroke-linejoin="miter" fill="none" stroke="#000000" d="M-92.92822 110.74577-61.95216 73.83052"/>
<path transform="matrix(1.00008,0,0,-1.00005,146.87525,146.57352)" d="M-79.57626 104.1332-88.73448 96.44841-83.04778 89.67136-73.88956 97.35614ZM-83.04778 89.67136" fill="#ffffff"/>
<use data-text="5" xlink:href="#font_2_56" transform="matrix(7.6323606,-6.4041798,-6.404372,-7.6321318,63.803438,55.325807)"/>
<use data-text="0" xlink:href="#font_2_121" transform="matrix(7.6323606,-6.4041798,-6.404372,-7.6321318,67.61963,52.12372)"/>
<path transform="matrix(1.00008,0,0,-1.00005,146.87525,146.57352)" d="M-66.05244 91.89105-79.0266 81.00429-73.33989 74.22722-60.36574 85.114ZM-73.33989 74.22722" fill="#ffffff"/>
<use data-text="1" xlink:href="#font_2_82" transform="matrix(7.6323606,-6.4041798,-6.404372,-7.6321318,73.51221,70.77058)"/>
<use data-text="3" xlink:href="#font_2_106" transform="matrix(7.6323606,-6.4041798,-6.404372,-7.6321318,77.3284,67.56849)"/>
<use data-text="0" xlink:href="#font_2_121" transform="matrix(7.6323606,-6.4041798,-6.404372,-7.6321318,81.14459,64.3664)"/>
<path transform="matrix(1.00008,0,0,-1.00005,146.87525,146.57352)" stroke-width=".79701" stroke-linecap="butt" stroke-miterlimit="10" stroke-linejoin="miter" fill="none" stroke="#000000" d="M-110.74577 92.92822-73.83052 61.95216"/>
<path transform="matrix(1.00008,0,0,-1.00005,146.87525,146.57352)" d="M-96.49039 88.76971-104.17517 79.6115-97.31416 73.85432-89.62938 83.01254ZM-97.31416 73.85432" fill="#ffffff"/>
<use data-text="4" xlink:href="#font_2_57" transform="matrix(6.404372,-7.6321318,-7.6323606,-6.4041798,49.263399,71.17124)"/>
<use data-text="0" xlink:href="#font_2_121" transform="matrix(6.404372,-7.6321318,-7.6323606,-6.4041798,52.46559,67.35517)"/>
<path transform="matrix(1.00008,0,0,-1.00005,146.87525,146.57352)" d="M-81.04625 79.06183-91.93303 66.08769-85.07202 60.33052-74.18526 73.30466ZM-85.07202 60.33052" fill="#ffffff"/>
<use data-text="1" xlink:href="#font_2_82" transform="matrix(6.404372,-7.6321318,-7.6323606,-6.4041798,61.50638,84.69492)"/>
<use data-text="4" xlink:href="#font_2_57" transform="matrix(6.404372,-7.6321318,-7.6323606,-6.4041798,64.70857,80.87885)"/>
<use data-text="0" xlink:href="#font_2_121" transform="matrix(6.404372,-7.6321318,-7.6323606,-6.4041798,67.91075,77.0628)"/>
<path transform="matrix(1.00008,0,0,-1.00005,146.87525,146.57352)" stroke-width=".79701" stroke-linecap="butt" stroke-miterlimit="10" stroke-linejoin="miter" fill="none" stroke="#000000" d="M-125.20142 72.28487-83.4676 48.18991"/>
<path transform="matrix(1.00008,0,0,-1.00005,146.87525,146.57352)" d="M-110.39325 70.6378-116.37091 60.28416-108.70924 55.86072-102.73158 66.21436ZM-108.70924 55.86072" fill="#ffffff"/>
<use data-text="3" xlink:href="#font_2_106" transform="matrix(4.9816987,-8.628341,-8.6286,-4.981549,37.602998,89.23947)"/>
<use data-text="0" xlink:href="#font_2_121" transform="matrix(4.9816987,-8.628341,-8.6286,-4.981549,40.09384,84.92529)"/>
<path transform="matrix(1.00008,0,0,-1.00005,146.87525,146.57352)" d="M-93.49773 63.7592-101.96608 49.09154-94.30441 44.66809-85.83606 59.33574ZM-94.30441 44.66809" fill="#ffffff"/>
<use data-text="1" xlink:href="#font_2_82" transform="matrix(4.9816987,-8.628341,-8.6286,-4.981549,52.009157,100.43202)"/>
<use data-text="5" xlink:href="#font_2_56" transform="matrix(4.9816987,-8.628341,-8.6286,-4.981549,54.5,96.11784)"/>
<use data-text="0" xlink:href="#font_2_121" transform="matrix(4.9816987,-8.628341,-8.6286,-4.981549,56.990846,91.803699)"/>
<path transform="matrix(1.00008,0,0,-1.00005,146.87525,146.57352)" stroke-width=".79701" stroke-linecap="butt" stroke-miterlimit="10" stroke-linejoin="miter" fill="none" stroke="#000000" d="M-135.85179 49.44656-90.56786 32.96436"/>
<path transform="matrix(1.00008,0,0,-1.00005,146.87525,146.57352)" d="M-120.98251 50.39558-125.07155 39.1612-116.75815 36.13536-112.66911 47.36974ZM-116.75815 36.13536" fill="#ffffff"/>
<use data-text="2" xlink:href="#font_2_107" transform="matrix(3.4077805,-9.362323,-9.362604,-3.4076782,29.307206,109.084018)"/>
<use data-text="0" xlink:href="#font_2_121" transform="matrix(3.4077805,-9.362323,-9.362604,-3.4076782,31.011094,104.40286)"/>
<path transform="matrix(1.00008,0,0,-1.00005,146.87525,146.57352)" d="M-103.14914 46.55536-108.94193 30.63997-100.62852 27.61412-94.83574 43.52951ZM-100.62852 27.61412" fill="#ffffff"/>
<use data-text="1" xlink:href="#font_2_82" transform="matrix(3.4077805,-9.362323,-9.362604,-3.4076782,45.437486,117.60544)"/>
<use data-text="6" xlink:href="#font_2_101" transform="matrix(3.4077805,-9.362323,-9.362604,-3.4076782,47.141374,112.924289)"/>
<use data-text="0" xlink:href="#font_2_121" transform="matrix(3.4077805,-9.362323,-9.362604,-3.4076782,48.84526,108.24313)"/>
<path transform="matrix(1.00008,0,0,-1.00005,146.87525,146.57352)" stroke-width=".79701" stroke-linecap="butt" stroke-miterlimit="10" stroke-linejoin="miter" fill="none" stroke="#000000" d="M-142.37482 25.10379-94.91653 16.73586"/>
<path transform="matrix(1.00008,0,0,-1.00005,146.87525,146.57352)" d="M-127.89616 28.62085-129.97216 16.84703-121.25957 15.31084-119.18358 27.08464ZM-121.25957 15.31084" fill="#ffffff"/>
<use data-text="1" xlink:href="#font_2_82" transform="matrix(1.7301438,-9.811857,-9.812153,-1.7300918,24.582764,130.06981)"/>
<use data-text="0" xlink:href="#font_2_121" transform="matrix(1.7301438,-9.811857,-9.812153,-1.7300918,25.44783,125.16388)"/>
<path transform="matrix(1.00008,0,0,-1.00005,146.87525,146.57352)" d="M-109.71579 27.9444-112.65677 11.26483-103.84605 9.71132-100.90509 26.39088ZM-103.84605 9.71132" fill="#ffffff"/>
<use data-text="1" xlink:href="#font_2_82" transform="matrix(1.7301438,-9.811857,-9.812153,-1.7300918,41.99716,135.66912)"/>
<use data-text="7" xlink:href="#font_2_100" transform="matrix(1.7301438,-9.811857,-9.812153,-1.7300918,42.86223,130.76319)"/>
<use data-text="0" xlink:href="#font_2_121" transform="matrix(1.7301438,-9.811857,-9.812153,-1.7300918,43.727296,125.85727)"/>
<path transform="matrix(1.00008,0,0,-1.00005,146.87525,146.57352)" stroke-width=".79701" stroke-linecap="butt" stroke-miterlimit="10" stroke-linejoin="miter" fill="none" stroke="#000000" d="M-144.56977 0H-96.37984"/>
<path transform="matrix(1.00008,0,0,-1.00005,146.87525,146.57352)" d="M-130.92198 3.48697V-3.48697H-122.07507V3.48697ZM-122.07507-3.48697" fill="#ffffff"/>
<use data-text="0" xlink:href="#font_2_121" transform="matrix(0,-9.963098,-9.963397,-0,23.575364,149.06366)"/>
<path transform="matrix(1.00008,0,0,-1.00005,146.87525,146.57352)" d="M-112.85075 8.46835V-8.46835H-104.00385V8.46835ZM-104.00385-8.46835" fill="#ffffff"/>
<use data-text="1" xlink:href="#font_2_82" transform="matrix(0,-9.963098,-9.963397,-0,41.64781,154.0459)"/>
<use data-text="8" xlink:href="#font_2_51" transform="matrix(0,-9.963098,-9.963397,-0,41.64781,149.06436)"/>
<use data-text="0" xlink:href="#font_2_121" transform="matrix(0,-9.963098,-9.963397,-0,41.64781,144.08281)"/>
</svg>
