<svg xmlns="http://www.w3.org/2000/svg" xmlns:xlink="http://www.w3.org/1999/xlink" version="1.1" width="303" height="37" viewBox="0 0 303 37">
<defs>
<path id="font_1_1" d="M.45999146 .31976319C.45999146 .39982606 .45498658 .47988893 .41999818 .5539398 .37399293 .65000918 .2919922 .6660156 .25 .6660156 .18998719 .6660156 .116989139 .64001467 .07598877 .54693606 .04399109 .47789 .038986207 .39982606 .038986207 .31976319 .038986207 .24472046 .042999269 .15464783 .083999637 .07859802 .1269989-.0024719239 .19999695-.022460938 .24899292-.022460938 .30299378-.022460938 .3789978-.0014648438 .4229889 .09359741 .45498658 .16265869 .45999146 .2407074 .45999146 .31976319M.24899292-.00047302247C.20999146-.00047302247 .15098572 .024551392 .1329956 .12062073 .12199402 .18066406 .12199402 .2727356 .12199402 .3317871 .12199402 .39582826 .12199402 .46188355 .12998963 .5159149 .14898682 .63500979 .22399903 .64401248 .24899292 .64401248 .28199769 .64401248 .34799195 .6259918 .36698915 .52693179 .3769989 .47088624 .3769989 .39482118 .3769989 .3317871 .3769989 .25672914 .3769989 .18867493 .3659973 .12461853 .35099793 .029556275 .2939911-.00047302247 .24899292-.00047302247Z"/>
<path id="font_2_1" d="M.19198609 .052993776C.19198609 .08198547 .16799927 .10598755 .13899231 .10598755 .10998535 .10598755 .085998538 .08198547 .085998538 .052993776 .085998538 .023986817 .10998535 0 .13899231 0 .16799927 0 .19198609 .023986817 .19198609 .052993776Z"/>
<path id="font_1_2" d="M.1269989 .07699585 .23298645 .18003845C.3889923 .31811524 .44898988 .3721466 .44898988 .47216798 .44898988 .5860901 .35899354 .6660156 .23699951 .6660156 .12399292 .6660156 .049987794 .57411196 .049987794 .48516847 .049987794 .4291687 .099990848 .4291687 .102996829 .4291687 .11999512 .4291687 .15499878 .44117738 .15499878 .48217774 .15499878 .5081787 .13699341 .5341797 .101989749 .5341797 .09399414 .5341797 .09199524 .5341797 .08898926 .5331726 .11199951 .59806826 .1659851 .63500979 .22399903 .63500979 .31498719 .63500979 .35798646 .5541382 .35798646 .47216798 .35798646 .39215089 .30799867 .31311036 .25299073 .25108338L.06098938 .036987306C.049987794 .025985718 .049987794 .023986817 .049987794 0H.42099L.44898988 .17404175H.42399598C.4189911 .14402771 .4119873 .1000061 .4019928 .084991458 .394989 .07699585 .32899476 .07699585 .30699159 .07699585H.1269989Z"/>
<path id="font_1_3" d="M.44898988 .20022583C.44898988 .3193512 .36698915 .41944886 .25898744 .41944886 .21099854 .41944886 .16799927 .40345765 .13198853 .36842347V.5637665C.1519928 .5577698 .18499756 .55078127 .21699524 .55078127 .33999635 .55078127 .4099884 .6417694 .4099884 .6547699 .4099884 .6607666 .40699769 .6657715 .3999939 .6657715 .39898683 .6657715 .39698792 .6657715 .3919983 .66278079 .37199403 .6537781 .32299806 .6337738 .2559967 .6337738 .21598816 .6337738 .16999817 .6407776 .12298584 .6617737 .114990238 .66477969 .11299133 .66477969 .11099243 .66477969 .100997928 .66477969 .100997928 .6567688 .100997928 .6407776V.34439088C.100997928 .32637025 .100997928 .31835938 .114990238 .31835938 .12199402 .31835938 .12399292 .32136537 .12799073 .32736207 .13899231 .3433838 .17599488 .39746095 .25698854 .39746095 .30899049 .39746095 .33399964 .35139466 .34199525 .33337403 .35798646 .29632569 .3600006 .25727845 .3600006 .20722962 .3600006 .17222595 .3600006 .11222839 .33599855 .07035828 .31199647 .031463624 .2749939 .0055389406 .22898865 .0055389406 .1559906 .0055389406 .09899902 .058380128 .08198547 .11723328 .084991458 .1162262 .08799744 .115234378 .09899902 .115234378 .13198853 .115234378 .14898682 .14022827 .14898682 .16423035 .14898682 .18823242 .13198853 .21322632 .09899902 .21322632 .084991458 .21322632 .049987794 .20622254 .049987794 .16023255 .049987794 .07434082 .11898804-.022460938 .23098755-.022460938 .34700013-.022460938 .44898988 .073349 .44898988 .20022583Z"/>
<path id="font_1_4" d="M.13198853 .327713V.35173036C.13198853 .6047821 .2559967 .64100649 .30699159 .64100649 .33099366 .64100649 .37298585 .634964 .394989 .6007538 .37998963 .6007538 .33999635 .6007538 .33999635 .5557556 .33999635 .524765 .3639984 .5097656 .38598634 .5097656 .4019928 .5097656 .43199159 .51875308 .43199159 .5577545 .43199159 .6178589 .3880005 .6660156 .30499269 .6660156 .1769867 .6660156 .041992189 .5367584 .041992189 .31570436 .041992189 .048553468 .1579895-.022460938 .25099183-.022460938 .3619995-.022460938 .45700074 .07156372 .45700074 .2036438 .45700074 .33070375 .36799623 .4267578 .25698854 .4267578 .18899536 .4267578 .1519928 .37573243 .13198853 .327713M.25099183 .0055389406C.18798828 .0055389406 .1579895 .06556702 .1519928 .080566409 .13398743 .127594 .13398743 .2076416 .13398743 .22564698 .13398743 .30369569 .1659851 .40374757 .2559967 .40374757 .27198792 .40374757 .31799317 .40374757 .34899903 .34172059 .36698915 .30470277 .36698915 .2536621 .36698915 .20463562 .36698915 .15661621 .36698915 .10658264 .34999085 .0705719 .31999208 .010528564 .27398683 .0055389406 .25099183 .0055389406Z"/>
</defs>
<path transform="matrix(1.00002,0,0,-1.00009,10.0729069,1.9987402)" stroke-width=".79701" stroke-linecap="butt" stroke-miterlimit="10" stroke-linejoin="miter" fill="none" stroke="#000000" d="M0 0H283.4681"/>
<path transform="matrix(1.00002,0,0,-1.00009,10.0729069,1.9987402)" stroke-width=".3985" stroke-linecap="butt" stroke-miterlimit="10" stroke-linejoin="miter" fill="none" stroke="#000000" d="M0 0V-22.67752"/>
<use data-text="0" xlink:href="#font_1_1" transform="matrix(9.962799,0,0,-9.963496,1.2167282,34.61968)"/>
<use data-text="." xlink:href="#font_2_1" transform="matrix(9.962799,0,0,-9.963496,6.19783,34.61968)"/>
<use data-text="2" xlink:href="#font_1_2" transform="matrix(9.962799,0,0,-9.963496,8.965881,34.61968)"/>
<use data-text="5" xlink:href="#font_1_3" transform="matrix(9.962799,0,0,-9.963496,13.947281,34.61968)"/>
<path transform="matrix(1.00002,0,0,-1.00009,10.0729069,1.9987402)" stroke-width=".3985" stroke-linecap="butt" stroke-miterlimit="10" stroke-linejoin="miter" fill="none" stroke="#000000" d="M141.73404 0V-22.67752"/>
<use data-text="0" xlink:href="#font_1_1" transform="matrix(9.962799,0,0,-9.963496,140.46352,34.61968)"/>
<use data-text="." xlink:href="#font_2_1" transform="matrix(9.962799,0,0,-9.963496,145.44461,34.61968)"/>
<use data-text="2" xlink:href="#font_1_2" transform="matrix(9.962799,0,0,-9.963496,148.21268,34.61968)"/>
<use data-text="5" xlink:href="#font_1_3" transform="matrix(9.962799,0,0,-9.963496,153.19406,34.61968)"/>
<use data-text="5" xlink:href="#font_1_3" transform="matrix(9.962799,0,0,-9.963496,158.17548,34.61968)"/>
<path transform="matrix(1.00002,0,0,-1.00009,10.0729069,1.9987402)" stroke-width=".3985" stroke-linecap="butt" stroke-miterlimit="10" stroke-linejoin="miter" fill="none" stroke="#000000" d="M283.4681 0V-22.67752"/>
<use data-text="0" xlink:href="#font_1_1" transform="matrix(9.962799,0,0,-9.963496,284.6904,34.61968)"/>
<use data-text="." xlink:href="#font_2_1" transform="matrix(9.962799,0,0,-9.963496,289.6715,34.61968)"/>
<use data-text="2" xlink:href="#font_1_2" transform="matrix(9.962799,0,0,-9.963496,292.43955,34.61968)"/>
<use data-text="6" xlink:href="#font_1_4" transform="matrix(9.962799,0,0,-9.963496,297.42097,34.61968)"/>
<path transform="matrix(1.00002,0,0,-1.00009,10.0729069,1.9987402)" stroke-width=".3985" stroke-linecap="butt" stroke-miterlimit="10" stroke-linejoin="miter" fill="none" stroke="#000000" d="M2.83484 0V-7.08669"/>
<path transform="matrix(1.00002,0,0,-1.00009,10.0729069,1.9987402)" stroke-width=".3985" stroke-linecap="butt" stroke-miterlimit="10" stroke-linejoin="miter" fill="none" stroke="#000000" d="M5.66927 0V-7.08669"/>
<path transform="matrix(1.00002,0,0,-1.00009,10.0729069,1.9987402)" stroke-width=".3985" stroke-linecap="butt" stroke-miterlimit="10" stroke-linejoin="miter" fill="none" stroke="#000000" d="M8.50368 0V-7.08669"/>
<path transform="matrix(1.00002,0,0,-1.00009,10.0729069,1.9987402)" stroke-width=".3985" stroke-linecap="butt" stroke-miterlimit="10" stroke-linejoin="miter" fill="none" stroke="#000000" d="M11.3381 0V-7.08669"/>
<path transform="matrix(1.00002,0,0,-1.00009,10.0729069,1.9987402)" stroke-width=".3985" stroke-linecap="butt" stroke-miterlimit="10" stroke-linejoin="miter" fill="none" stroke="#000000" d="M14.17252 0V-7.08669"/>
<path transform="matrix(1.00002,0,0,-1.00009,10.0729069,1.9987402)" stroke-width=".3985" stroke-linecap="butt" stroke-miterlimit="10" stroke-linejoin="miter" fill="none" stroke="#000000" d="M17.00694 0V-7.08669"/>
<path transform="matrix(1.00002,0,0,-1.00009,10.0729069,1.9987402)" stroke-width=".3985" stroke-linecap="butt" stroke-miterlimit="10" stroke-linejoin="miter" fill="none" stroke="#000000" d="M19.84137 0V-7.08669"/>
<path transform="matrix(1.00002,0,0,-1.00009,10.0729069,1.9987402)" stroke-width=".3985" stroke-linecap="butt" stroke-miterlimit="10" stroke-linejoin="miter" fill="none" stroke="#000000" d="M22.6758 0V-7.08669"/>
<path transform="matrix(1.00002,0,0,-1.00009,10.0729069,1.9987402)" stroke-width=".3985" stroke-linecap="butt" stroke-miterlimit="10" stroke-linejoin="miter" fill="none" stroke="#000000" d="M25.51021 0V-7.08669"/>
<path transform="matrix(1.00002,0,0,-1.00009,10.0729069,1.9987402)" stroke-width=".3985" stroke-linecap="butt" stroke-miterlimit="10" stroke-linejoin="miter" fill="none" stroke="#000000" d="M28.34464 0V-7.08669"/>
<path transform="matrix(1.00002,0,0,-1.00009,10.0729069,1.9987402)" stroke-width=".3985" stroke-linecap="butt" stroke-miterlimit="10" stroke-linejoin="miter" fill="none" stroke="#000000" d="M31.17905 0V-7.08669"/>
<path transform="matrix(1.00002,0,0,-1.00009,10.0729069,1.9987402)" stroke-width=".3985" stroke-linecap="butt" stroke-miterlimit="10" stroke-linejoin="miter" fill="none" stroke="#000000" d="M34.01347 0V-7.08669"/>
<path transform="matrix(1.00002,0,0,-1.00009,10.0729069,1.9987402)" stroke-width=".3985" stroke-linecap="butt" stroke-miterlimit="10" stroke-linejoin="miter" fill="none" stroke="#000000" d="M36.8479 0V-7.08669"/>
<path transform="matrix(1.00002,0,0,-1.00009,10.0729069,1.9987402)" stroke-width=".3985" stroke-linecap="butt" stroke-miterlimit="10" stroke-linejoin="miter" fill="none" stroke="#000000" d="M39.68233 0V-7.08669"/>
<path transform="matrix(1.00002,0,0,-1.00009,10.0729069,1.9987402)" stroke-width=".3985" stroke-linecap="butt" stroke-miterlimit="10" stroke-linejoin="miter" fill="none" stroke="#000000" d="M42.51674 0V-7.08669"/>
<path transform="matrix(1.00002,0,0,-1.00009,10.0729069,1.9987402)" stroke-width=".3985" stroke-linecap="butt" stroke-miterlimit="10" stroke-linejoin="miter" fill="none" stroke="#000000" d="M45.35115 0V-7.08669"/>
<path transform="matrix(1.00002,0,0,-1.00009,10.0729069,1.9987402)" stroke-width=".3985" stroke-linecap="butt" stroke-miterlimit="10" stroke-linejoin="miter" fill="none" stroke="#000000" d="M48.18558 0V-7.08669"/>
<path transform="matrix(1.00002,0,0,-1.00009,10.0729069,1.9987402)" stroke-width=".3985" stroke-linecap="butt" stroke-miterlimit="10" stroke-linejoin="miter" fill="none" stroke="#000000" d="M51.02 0V-7.08669"/>
<path transform="matrix(1.00002,0,0,-1.00009,10.0729069,1.9987402)" stroke-width=".3985" stroke-linecap="butt" stroke-miterlimit="10" stroke-linejoin="miter" fill="none" stroke="#000000" d="M53.85443 0V-7.08669"/>
<path transform="matrix(1.00002,0,0,-1.00009,10.0729069,1.9987402)" stroke-width=".3985" stroke-linecap="butt" stroke-miterlimit="10" stroke-linejoin="miter" fill="none" stroke="#000000" d="M56.68886 0V-7.08669"/>
<path transform="matrix(1.00002,0,0,-1.00009,10.0729069,1.9987402)" stroke-width=".3985" stroke-linecap="butt" stroke-miterlimit="10" stroke-linejoin="miter" fill="none" stroke="#000000" d="M59.52327 0V-7.08669"/>
<path transform="matrix(1.00002,0,0,-1.00009,10.0729069,1.9987402)" stroke-width=".3985" stroke-linecap="butt" stroke-miterlimit="10" stroke-linejoin="miter" fill="none" stroke="#000000" d="M62.35768 0V-7.08669"/>
<path transform="matrix(1.00002,0,0,-1.00009,10.0729069,1.9987402)" stroke-width=".3985" stroke-linecap="butt" stroke-miterlimit="10" stroke-linejoin="miter" fill="none" stroke="#000000" d="M65.19211 0V-7.08669"/>
<path transform="matrix(1.00002,0,0,-1.00009,10.0729069,1.9987402)" stroke-width=".3985" stroke-linecap="butt" stroke-miterlimit="10" stroke-linejoin="miter" fill="none" stroke="#000000" d="M68.02654 0V-7.08669"/>
<path transform="matrix(1.00002,0,0,-1.00009,10.0729069,1.9987402)" stroke-width=".3985" stroke-linecap="butt" stroke-miterlimit="10" stroke-linejoin="miter" fill="none" stroke="#000000" d="M70.86096 0V-7.08669"/>
<path transform="matrix(1.00002,0,0,-1.00009,10.0729069,1.9987402)" stroke-width=".3985" stroke-linecap="butt" stroke-miterlimit="10" stroke-linejoin="miter" fill="none" stroke="#000000" d="M73.69537 0V-7.08669"/>
<path transform="matrix(1.00002,0,0,-1.00009,10.0729069,1.9987402)" stroke-width=".3985" stroke-linecap="butt" stroke-miterlimit="10" stroke-linejoin="miter" fill="none" stroke="#000000" d="M76.52979 0V-7.08669"/>
<path transform="matrix(1.00002,0,0,-1.00009,10.0729069,1.9987402)" stroke-width=".3985" stroke-linecap="butt" stroke-miterlimit="10" stroke-linejoin="miter" fill="none" stroke="#000000" d="M79.36421 0V-7.08669"/>
<path transform="matrix(1.00002,0,0,-1.00009,10.0729069,1.9987402)" stroke-width=".3985" stroke-linecap="butt" stroke-miterlimit="10" stroke-linejoin="miter" fill="none" stroke="#000000" d="M82.19864 0V-7.08669"/>
<path transform="matrix(1.00002,0,0,-1.00009,10.0729069,1.9987402)" stroke-width=".3985" stroke-linecap="butt" stroke-miterlimit="10" stroke-linejoin="miter" fill="none" stroke="#000000" d="M85.03307 0V-7.08669"/>
<path transform="matrix(1.00002,0,0,-1.00009,10.0729069,1.9987402)" stroke-width=".3985" stroke-linecap="butt" stroke-miterlimit="10" stroke-linejoin="miter" fill="none" stroke="#000000" d="M87.8675 0V-7.08669"/>
<path transform="matrix(1.00002,0,0,-1.00009,10.0729069,1.9987402)" stroke-width=".3985" stroke-linecap="butt" stroke-miterlimit="10" stroke-linejoin="miter" fill="none" stroke="#000000" d="M90.7019 0V-7.08669"/>
<path transform="matrix(1.00002,0,0,-1.00009,10.0729069,1.9987402)" stroke-width=".3985" stroke-linecap="butt" stroke-miterlimit="10" stroke-linejoin="miter" fill="none" stroke="#000000" d="M93.53632 0V-7.08669"/>
<path transform="matrix(1.00002,0,0,-1.00009,10.0729069,1.9987402)" stroke-width=".3985" stroke-linecap="butt" stroke-miterlimit="10" stroke-linejoin="miter" fill="none" stroke="#000000" d="M96.37074 0V-7.08669"/>
<path transform="matrix(1.00002,0,0,-1.00009,10.0729069,1.9987402)" stroke-width=".3985" stroke-linecap="butt" stroke-miterlimit="10" stroke-linejoin="miter" fill="none" stroke="#000000" d="M99.20517 0V-7.08669"/>
<path transform="matrix(1.00002,0,0,-1.00009,10.0729069,1.9987402)" stroke-width=".3985" stroke-linecap="butt" stroke-miterlimit="10" stroke-linejoin="miter" fill="none" stroke="#000000" d="M102.0396 0V-7.08669"/>
<path transform="matrix(1.00002,0,0,-1.00009,10.0729069,1.9987402)" stroke-width=".3985" stroke-linecap="butt" stroke-miterlimit="10" stroke-linejoin="miter" fill="none" stroke="#000000" d="M104.87402 0V-7.08669"/>
<path transform="matrix(1.00002,0,0,-1.00009,10.0729069,1.9987402)" stroke-width=".3985" stroke-linecap="butt" stroke-miterlimit="10" stroke-linejoin="miter" fill="none" stroke="#000000" d="M107.70842 0V-7.08669"/>
<path transform="matrix(1.00002,0,0,-1.00009,10.0729069,1.9987402)" stroke-width=".3985" stroke-linecap="butt" stroke-miterlimit="10" stroke-linejoin="miter" fill="none" stroke="#000000" d="M110.54285 0V-7.08669"/>
<path transform="matrix(1.00002,0,0,-1.00009,10.0729069,1.9987402)" stroke-width=".3985" stroke-linecap="butt" stroke-miterlimit="10" stroke-linejoin="miter" fill="none" stroke="#000000" d="M113.37727 0V-7.08669"/>
<path transform="matrix(1.00002,0,0,-1.00009,10.0729069,1.9987402)" stroke-width=".3985" stroke-linecap="butt" stroke-miterlimit="10" stroke-linejoin="miter" fill="none" stroke="#000000" d="M116.2117 0V-7.08669"/>
<path transform="matrix(1.00002,0,0,-1.00009,10.0729069,1.9987402)" stroke-width=".3985" stroke-linecap="butt" stroke-miterlimit="10" stroke-linejoin="miter" fill="none" stroke="#000000" d="M119.04613 0V-7.08669"/>
<path transform="matrix(1.00002,0,0,-1.00009,10.0729069,1.9987402)" stroke-width=".3985" stroke-linecap="butt" stroke-miterlimit="10" stroke-linejoin="miter" fill="none" stroke="#000000" d="M121.88055 0V-7.08669"/>
<path transform="matrix(1.00002,0,0,-1.00009,10.0729069,1.9987402)" stroke-width=".3985" stroke-linecap="butt" stroke-miterlimit="10" stroke-linejoin="miter" fill="none" stroke="#000000" d="M124.71495 0V-7.08669"/>
<path transform="matrix(1.00002,0,0,-1.00009,10.0729069,1.9987402)" stroke-width=".3985" stroke-linecap="butt" stroke-miterlimit="10" stroke-linejoin="miter" fill="none" stroke="#000000" d="M127.54938 0V-7.08669"/>
<path transform="matrix(1.00002,0,0,-1.00009,10.0729069,1.9987402)" stroke-width=".3985" stroke-linecap="butt" stroke-miterlimit="10" stroke-linejoin="miter" fill="none" stroke="#000000" d="M130.3838 0V-7.08669"/>
<path transform="matrix(1.00002,0,0,-1.00009,10.0729069,1.9987402)" stroke-width=".3985" stroke-linecap="butt" stroke-miterlimit="10" stroke-linejoin="miter" fill="none" stroke="#000000" d="M133.21823 0V-7.08669"/>
<path transform="matrix(1.00002,0,0,-1.00009,10.0729069,1.9987402)" stroke-width=".3985" stroke-linecap="butt" stroke-miterlimit="10" stroke-linejoin="miter" fill="none" stroke="#000000" d="M136.05266 0V-7.08669"/>
<path transform="matrix(1.00002,0,0,-1.00009,10.0729069,1.9987402)" stroke-width=".3985" stroke-linecap="butt" stroke-miterlimit="10" stroke-linejoin="miter" fill="none" stroke="#000000" d="M138.88707 0V-7.08669"/>
<path transform="matrix(1.00002,0,0,-1.00009,10.0729069,1.9987402)" stroke-width=".3985" stroke-linecap="butt" stroke-miterlimit="10" stroke-linejoin="miter" fill="none" stroke="#000000" d="M141.72148 0V-7.08669"/>
<path transform="matrix(1.00002,0,0,-1.00009,10.0729069,1.9987402)" stroke-width=".3985" stroke-linecap="butt" stroke-miterlimit="10" stroke-linejoin="miter" fill="none" stroke="#000000" d="M144.55591 0V-7.08669"/>
<path transform="matrix(1.00002,0,0,-1.00009,10.0729069,1.9987402)" stroke-width=".3985" stroke-linecap="butt" stroke-miterlimit="10" stroke-linejoin="miter" fill="none" stroke="#000000" d="M147.39034 0V-7.08669"/>
<path transform="matrix(1.00002,0,0,-1.00009,10.0729069,1.9987402)" stroke-width=".3985" stroke-linecap="butt" stroke-miterlimit="10" stroke-linejoin="miter" fill="none" stroke="#000000" d="M150.22476 0V-7.08669"/>
<path transform="matrix(1.00002,0,0,-1.00009,10.0729069,1.9987402)" stroke-width=".3985" stroke-linecap="butt" stroke-miterlimit="10" stroke-linejoin="miter" fill="none" stroke="#000000" d="M153.05918 0V-7.08669"/>
<path transform="matrix(1.00002,0,0,-1.00009,10.0729069,1.9987402)" stroke-width=".3985" stroke-linecap="butt" stroke-miterlimit="10" stroke-linejoin="miter" fill="none" stroke="#000000" d="M155.8936 0V-7.08669"/>
<path transform="matrix(1.00002,0,0,-1.00009,10.0729069,1.9987402)" stroke-width=".3985" stroke-linecap="butt" stroke-miterlimit="10" stroke-linejoin="miter" fill="none" stroke="#000000" d="M158.72801 0V-7.08669"/>
<path transform="matrix(1.00002,0,0,-1.00009,10.0729069,1.9987402)" stroke-width=".3985" stroke-linecap="butt" stroke-miterlimit="10" stroke-linejoin="miter" fill="none" stroke="#000000" d="M161.56244 0V-7.08669"/>
<path transform="matrix(1.00002,0,0,-1.00009,10.0729069,1.9987402)" stroke-width=".3985" stroke-linecap="butt" stroke-miterlimit="10" stroke-linejoin="miter" fill="none" stroke="#000000" d="M164.39687 0V-7.08669"/>
<path transform="matrix(1.00002,0,0,-1.00009,10.0729069,1.9987402)" stroke-width=".3985" stroke-linecap="butt" stroke-miterlimit="10" stroke-linejoin="miter" fill="none" stroke="#000000" d="M167.2313 0V-7.08669"/>
<path transform="matrix(1.00002,0,0,-1.00009,10.0729069,1.9987402)" stroke-width=".3985" stroke-linecap="butt" stroke-miterlimit="10" stroke-linejoin="miter" fill="none" stroke="#000000" d="M170.0657 0V-7.08669"/>
<path transform="matrix(1.00002,0,0,-1.00009,10.0729069,1.9987402)" stroke-width=".3985" stroke-linecap="butt" stroke-miterlimit="10" stroke-linejoin="miter" fill="none" stroke="#000000" d="M172.90012 0V-7.08669"/>
<path transform="matrix(1.00002,0,0,-1.00009,10.0729069,1.9987402)" stroke-width=".3985" stroke-linecap="butt" stroke-miterlimit="10" stroke-linejoin="miter" fill="none" stroke="#000000" d="M175.73455 0V-7.08669"/>
<path transform="matrix(1.00002,0,0,-1.00009,10.0729069,1.9987402)" stroke-width=".3985" stroke-linecap="butt" stroke-miterlimit="10" stroke-linejoin="miter" fill="none" stroke="#000000" d="M178.56897 0V-7.08669"/>
<path transform="matrix(1.00002,0,0,-1.00009,10.0729069,1.9987402)" stroke-width=".3985" stroke-linecap="butt" stroke-miterlimit="10" stroke-linejoin="miter" fill="none" stroke="#000000" d="M181.4034 0V-7.08669"/>
<path transform="matrix(1.00002,0,0,-1.00009,10.0729069,1.9987402)" stroke-width=".3985" stroke-linecap="butt" stroke-miterlimit="10" stroke-linejoin="miter" fill="none" stroke="#000000" d="M184.23781 0V-7.08669"/>
<path transform="matrix(1.00002,0,0,-1.00009,10.0729069,1.9987402)" stroke-width=".3985" stroke-linecap="butt" stroke-miterlimit="10" stroke-linejoin="miter" fill="none" stroke="#000000" d="M187.07224 0V-7.08669"/>
<path transform="matrix(1.00002,0,0,-1.00009,10.0729069,1.9987402)" stroke-width=".3985" stroke-linecap="butt" stroke-miterlimit="10" stroke-linejoin="miter" fill="none" stroke="#000000" d="M189.90665 0V-7.08669"/>
<path transform="matrix(1.00002,0,0,-1.00009,10.0729069,1.9987402)" stroke-width=".3985" stroke-linecap="butt" stroke-miterlimit="10" stroke-linejoin="miter" fill="none" stroke="#000000" d="M192.74108 0V-7.08669"/>
<path transform="matrix(1.00002,0,0,-1.00009,10.0729069,1.9987402)" stroke-width=".3985" stroke-linecap="butt" stroke-miterlimit="10" stroke-linejoin="miter" fill="none" stroke="#000000" d="M195.5755 0V-7.08669"/>
<path transform="matrix(1.00002,0,0,-1.00009,10.0729069,1.9987402)" stroke-width=".3985" stroke-linecap="butt" stroke-miterlimit="10" stroke-linejoin="miter" fill="none" stroke="#000000" d="M198.40993 0V-7.08669"/>
<path transform="matrix(1.00002,0,0,-1.00009,10.0729069,1.9987402)" stroke-width=".3985" stroke-linecap="butt" stroke-miterlimit="10" stroke-linejoin="miter" fill="none" stroke="#000000" d="M201.24434 0V-7.08669"/>
<path transform="matrix(1.00002,0,0,-1.00009,10.0729069,1.9987402)" stroke-width=".3985" stroke-linecap="butt" stroke-miterlimit="10" stroke-linejoin="miter" fill="none" stroke="#000000" d="M204.07877 0V-7.08669"/>
<path transform="matrix(1.00002,0,0,-1.00009,10.0729069,1.9987402)" stroke-width=".3985" stroke-linecap="butt" stroke-miterlimit="10" stroke-linejoin="miter" fill="none" stroke="#000000" d="M206.91318 0V-7.08669"/>
<path transform="matrix(1.00002,0,0,-1.00009,10.0729069,1.9987402)" stroke-width=".3985" stroke-linecap="butt" stroke-miterlimit="10" stroke-linejoin="miter" fill="none" stroke="#000000" d="M209.7476 0V-7.08669"/>
<path transform="matrix(1.00002,0,0,-1.00009,10.0729069,1.9987402)" stroke-width=".3985" stroke-linecap="butt" stroke-miterlimit="10" stroke-linejoin="miter" fill="none" stroke="#000000" d="M212.58203 0V-7.08669"/>
<path transform="matrix(1.00002,0,0,-1.00009,10.0729069,1.9987402)" stroke-width=".3985" stroke-linecap="butt" stroke-miterlimit="10" stroke-linejoin="miter" fill="none" stroke="#000000" d="M215.41645 0V-7.08669"/>
<path transform="matrix(1.00002,0,0,-1.00009,10.0729069,1.9987402)" stroke-width=".3985" stroke-linecap="butt" stroke-miterlimit="10" stroke-linejoin="miter" fill="none" stroke="#000000" d="M218.25087 0V-7.08669"/>
<path transform="matrix(1.00002,0,0,-1.00009,10.0729069,1.9987402)" stroke-width=".3985" stroke-linecap="butt" stroke-miterlimit="10" stroke-linejoin="miter" fill="none" stroke="#000000" d="M221.0853 0V-7.08669"/>
<path transform="matrix(1.00002,0,0,-1.00009,10.0729069,1.9987402)" stroke-width=".3985" stroke-linecap="butt" stroke-miterlimit="10" stroke-linejoin="miter" fill="none" stroke="#000000" d="M223.91971 0V-7.08669"/>
<path transform="matrix(1.00002,0,0,-1.00009,10.0729069,1.9987402)" stroke-width=".3985" stroke-linecap="butt" stroke-miterlimit="10" stroke-linejoin="miter" fill="none" stroke="#000000" d="M226.75414 0V-7.08669"/>
<path transform="matrix(1.00002,0,0,-1.00009,10.0729069,1.9987402)" stroke-width=".3985" stroke-linecap="butt" stroke-miterlimit="10" stroke-linejoin="miter" fill="none" stroke="#000000" d="M229.58856 0V-7.08669"/>
<path transform="matrix(1.00002,0,0,-1.00009,10.0729069,1.9987402)" stroke-width=".3985" stroke-linecap="butt" stroke-miterlimit="10" stroke-linejoin="miter" fill="none" stroke="#000000" d="M232.42298 0V-7.08669"/>
<path transform="matrix(1.00002,0,0,-1.00009,10.0729069,1.9987402)" stroke-width=".3985" stroke-linecap="butt" stroke-miterlimit="10" stroke-linejoin="miter" fill="none" stroke="#000000" d="M235.2574 0V-7.08669"/>
<path transform="matrix(1.00002,0,0,-1.00009,10.0729069,1.9987402)" stroke-width=".3985" stroke-linecap="butt" stroke-miterlimit="10" stroke-linejoin="miter" fill="none" stroke="#000000" d="M238.09183 0V-7.08669"/>
<path transform="matrix(1.00002,0,0,-1.00009,10.0729069,1.9987402)" stroke-width=".3985" stroke-linecap="butt" stroke-miterlimit="10" stroke-linejoin="miter" fill="none" stroke="#000000" d="M240.92624 0V-7.08669"/>
<path transform="matrix(1.00002,0,0,-1.00009,10.0729069,1.9987402)" stroke-width=".3985" stroke-linecap="butt" stroke-miterlimit="10" stroke-linejoin="miter" fill="none" stroke="#000000" d="M243.76067 0V-7.08669"/>
<path transform="matrix(1.00002,0,0,-1.00009,10.0729069,1.9987402)" stroke-width=".3985" stroke-linecap="butt" stroke-miterlimit="10" stroke-linejoin="miter" fill="none" stroke="#000000" d="M246.59508 0V-7.08669"/>
<path transform="matrix(1.00002,0,0,-1.00009,10.0729069,1.9987402)" stroke-width=".3985" stroke-linecap="butt" stroke-miterlimit="10" stroke-linejoin="miter" fill="none" stroke="#000000" d="M249.4295 0V-7.08669"/>
<path transform="matrix(1.00002,0,0,-1.00009,10.0729069,1.9987402)" stroke-width=".3985" stroke-linecap="butt" stroke-miterlimit="10" stroke-linejoin="miter" fill="none" stroke="#000000" d="M252.26393 0V-7.08669"/>
<path transform="matrix(1.00002,0,0,-1.00009,10.0729069,1.9987402)" stroke-width=".3985" stroke-linecap="butt" stroke-miterlimit="10" stroke-linejoin="miter" fill="none" stroke="#000000" d="M255.09836 0V-7.08669"/>
<path transform="matrix(1.00002,0,0,-1.00009,10.0729069,1.9987402)" stroke-width=".3985" stroke-linecap="butt" stroke-miterlimit="10" stroke-linejoin="miter" fill="none" stroke="#000000" d="M257.93278 0V-7.08669"/>
<path transform="matrix(1.00002,0,0,-1.00009,10.0729069,1.9987402)" stroke-width=".3985" stroke-linecap="butt" stroke-miterlimit="10" stroke-linejoin="miter" fill="none" stroke="#000000" d="M260.7672 0V-7.08669"/>
<path transform="matrix(1.00002,0,0,-1.00009,10.0729069,1.9987402)" stroke-width=".3985" stroke-linecap="butt" stroke-miterlimit="10" stroke-linejoin="miter" fill="none" stroke="#000000" d="M263.60163 0V-7.08669"/>
<path transform="matrix(1.00002,0,0,-1.00009,10.0729069,1.9987402)" stroke-width=".3985" stroke-linecap="butt" stroke-miterlimit="10" stroke-linejoin="miter" fill="none" stroke="#000000" d="M266.43605 0V-7.08669"/>
<path transform="matrix(1.00002,0,0,-1.00009,10.0729069,1.9987402)" stroke-width=".3985" stroke-linecap="butt" stroke-miterlimit="10" stroke-linejoin="miter" fill="none" stroke="#000000" d="M269.27046 0V-7.08669"/>
<path transform="matrix(1.00002,0,0,-1.00009,10.0729069,1.9987402)" stroke-width=".3985" stroke-linecap="butt" stroke-miterlimit="10" stroke-linejoin="miter" fill="none" stroke="#000000" d="M272.10487 0V-7.08669"/>
<path transform="matrix(1.00002,0,0,-1.00009,10.0729069,1.9987402)" stroke-width=".3985" stroke-linecap="butt" stroke-miterlimit="10" stroke-linejoin="miter" fill="none" stroke="#000000" d="M274.9393 0V-7.08669"/>
<path transform="matrix(1.00002,0,0,-1.00009,10.0729069,1.9987402)" stroke-width=".3985" stroke-linecap="butt" stroke-miterlimit="10" stroke-linejoin="miter" fill="none" stroke="#000000" d="M277.7737 0V-7.08669"/>
<path transform="matrix(1.00002,0,0,-1.00009,10.0729069,1.9987402)" stroke-width=".3985" stroke-linecap="butt" stroke-miterlimit="10" stroke-linejoin="miter" fill="none" stroke="#000000" d="M280.60816 0V-7.08669"/>
<path transform="matrix(1.00002,0,0,-1.00009,10.0729069,1.9987402)" stroke-width=".3985" stroke-linecap="butt" stroke-miterlimit="10" stroke-linejoin="miter" fill="none" stroke="#000000" d="M14.17339 0V-11.33855"/>
<path transform="matrix(1.00002,0,0,-1.00009,10.0729069,1.9987402)" stroke-width=".3985" stroke-linecap="butt" stroke-miterlimit="10" stroke-linejoin="miter" fill="none" stroke="#000000" d="M28.3468 0V-11.33855"/>
<path transform="matrix(1.00002,0,0,-1.00009,10.0729069,1.9987402)" stroke-width=".3985" stroke-linecap="butt" stroke-miterlimit="10" stroke-linejoin="miter" fill="none" stroke="#000000" d="M42.5202 0V-11.33855"/>
<path transform="matrix(1.00002,0,0,-1.00009,10.0729069,1.9987402)" stroke-width=".3985" stroke-linecap="butt" stroke-miterlimit="10" stroke-linejoin="miter" fill="none" stroke="#000000" d="M56.69362 0V-11.33855"/>
<path transform="matrix(1.00002,0,0,-1.00009,10.0729069,1.9987402)" stroke-width=".3985" stroke-linecap="butt" stroke-miterlimit="10" stroke-linejoin="miter" fill="none" stroke="#000000" d="M70.867 0V-11.33855"/>
<path transform="matrix(1.00002,0,0,-1.00009,10.0729069,1.9987402)" stroke-width=".3985" stroke-linecap="butt" stroke-miterlimit="10" stroke-linejoin="miter" fill="none" stroke="#000000" d="M85.04042 0V-11.33855"/>
<path transform="matrix(1.00002,0,0,-1.00009,10.0729069,1.9987402)" stroke-width=".3985" stroke-linecap="butt" stroke-miterlimit="10" stroke-linejoin="miter" fill="none" stroke="#000000" d="M99.21382 0V-11.33855"/>
<path transform="matrix(1.00002,0,0,-1.00009,10.0729069,1.9987402)" stroke-width=".3985" stroke-linecap="butt" stroke-miterlimit="10" stroke-linejoin="miter" fill="none" stroke="#000000" d="M113.38724 0V-11.33855"/>
<path transform="matrix(1.00002,0,0,-1.00009,10.0729069,1.9987402)" stroke-width=".3985" stroke-linecap="butt" stroke-miterlimit="10" stroke-linejoin="miter" fill="none" stroke="#000000" d="M127.56062 0V-11.33855"/>
<path transform="matrix(1.00002,0,0,-1.00009,10.0729069,1.9987402)" stroke-width=".3985" stroke-linecap="butt" stroke-miterlimit="10" stroke-linejoin="miter" fill="none" stroke="#000000" d="M141.73404 0V-11.33855"/>
<path transform="matrix(1.00002,0,0,-1.00009,10.0729069,1.9987402)" stroke-width=".3985" stroke-linecap="butt" stroke-miterlimit="10" stroke-linejoin="miter" fill="none" stroke="#000000" d="M155.90744 0V-11.33855"/>
<path transform="matrix(1.00002,0,0,-1.00009,10.0729069,1.9987402)" stroke-width=".3985" stroke-linecap="butt" stroke-miterlimit="10" stroke-linejoin="miter" fill="none" stroke="#000000" d="M170.08086 0V-11.33855"/>
<path transform="matrix(1.00002,0,0,-1.00009,10.0729069,1.9987402)" stroke-width=".3985" stroke-linecap="butt" stroke-miterlimit="10" stroke-linejoin="miter" fill="none" stroke="#000000" d="M184.25424 0V-11.33855"/>
<path transform="matrix(1.00002,0,0,-1.00009,10.0729069,1.9987402)" stroke-width=".3985" stroke-linecap="butt" stroke-miterlimit="10" stroke-linejoin="miter" fill="none" stroke="#000000" d="M198.42766 0V-11.33855"/>
<path transform="matrix(1.00002,0,0,-1.00009,10.0729069,1.9987402)" stroke-width=".3985" stroke-linecap="butt" stroke-miterlimit="10" stroke-linejoin="miter" fill="none" stroke="#000000" d="M212.60106 0V-11.33855"/>
<path transform="matrix(1.00002,0,0,-1.00009,10.0729069,1.9987402)" stroke-width=".3985" stroke-linecap="butt" stroke-miterlimit="10" stroke-linejoin="miter" fill="none" stroke="#000000" d="M226.77448 0V-11.33855"/>
<path transform="matrix(1.00002,0,0,-1.00009,10.0729069,1.9987402)" stroke-width=".3985" stroke-linecap="butt" stroke-miterlimit="10" stroke-linejoin="miter" fill="none" stroke="#000000" d="M240.94788 0V-11.33855"/>
<path transform="matrix(1.00002,0,0,-1.00009,10.0729069,1.9987402)" stroke-width=".3985" stroke-linecap="butt" stroke-miterlimit="10" stroke-linejoin="miter" fill="none" stroke="#000000" d="M255.12128 0V-11.33855"/>
<path transform="matrix(1.00002,0,0,-1.00009,10.0729069,1.9987402)" stroke-width=".3985" stroke-linecap="butt" stroke-miterlimit="10" stroke-linejoin="miter" fill="none" stroke="#000000" d="M269.29469 0V-11.33855"/>
<path transform="matrix(1.00002,0,0,-1.00009,10.0729069,1.9987402)" stroke-width=".3985" stroke-linecap="butt" stroke-miterlimit="10" stroke-linejoin="miter" fill="none" stroke="#000000" d="M28.3468 0V-17.00824"/>
<path transform="matrix(1.00002,0,0,-1.00009,10.0729069,1.9987402)" stroke-width=".3985" stroke-linecap="butt" stroke-miterlimit="10" stroke-linejoin="miter" fill="none" stroke="#000000" d="M56.69362 0V-17.00824"/>
<path transform="matrix(1.00002,0,0,-1.00009,10.0729069,1.9987402)" stroke-width=".3985" stroke-linecap="butt" stroke-miterlimit="10" stroke-linejoin="miter" fill="none" stroke="#000000" d="M85.04042 0V-17.00824"/>
<path transform="matrix(1.00002,0,0,-1.00009,10.0729069,1.9987402)" stroke-width=".3985" stroke-linecap="butt" stroke-miterlimit="10" stroke-linejoin="miter" fill="none" stroke="#000000" d="M113.38724 0V-17.00824"/>
<path transform="matrix(1.00002,0,0,-1.00009,10.0729069,1.9987402)" stroke-width=".3985" stroke-linecap="butt" stroke-miterlimit="10" stroke-linejoin="miter" fill="none" stroke="#000000" d="M141.73404 0V-17.00824"/>
<path transform="matrix(1.00002,0,0,-1.00009,10.0729069,1.9987402)" stroke-width=".3985" stroke-linecap="butt" stroke-miterlimit="10" stroke-linejoin="miter" fill="none" stroke="#000000" d="M170.08086 0V-17.00824"/>
<path transform="matrix(1.00002,0,0,-1.00009,10.0729069,1.9987402)" stroke-width=".3985" stroke-linecap="butt" stroke-miterlimit="10" stroke-linejoin="miter" fill="none" stroke="#000000" d="M198.42766 0V-17.00824"/>
<path transform="matrix(1.00002,0,0,-1.00009,10.0729069,1.9987402)" stroke-width=".3985" stroke-linecap="butt" stroke-miterlimit="10" stroke-linejoin="miter" fill="none" stroke="#000000" d="M226.77448 0V-17.00824"/>
<path transform="matrix(1.00002,0,0,-1.00009,10.0729069,1.9987402)" stroke-width=".3985" stroke-linecap="butt" stroke-miterlimit="10" stroke-linejoin="miter" fill="none" stroke="#000000" d="M255.12128 0V-17.00824"/>
</svg>
