<svg xmlns="http://www.w3.org/2000/svg" xmlns:xlink="http://www.w3.org/1999/xlink" version="1.1" width="195" height="109" viewBox="0 0 195 109">
<defs>
<path id="font_1_8" d="M.73999026 .4358673C.73999026 .5970001 .6339874 .7050781 .4850006 .7050781 .2689972 .7050781 .04899597 .47790528 .04899597 .24472046 .04899597 .07859802 .16099549-.022460938 .30499269-.022460938 .5169983-.022460938 .73999026 .19668579 .73999026 .4358673M.31098939 .0035247803C.21199036 .0035247803 .14199829 .08459473 .14199829 .21670532 .14199829 .2607422 .1559906 .4068451 .23298645 .52394106 .3019867 .62802127 .3999939 .68006899 .47898866 .68006899 .5609894 .68006899 .651001 .62402346 .651001 .4748993 .651001 .4028473 .6239929 .24671936 .5249939 .12362671 .47698976 .062576297 .394989 .0035247803 .31098939 .0035247803Z"/>
<path id="font_1_1" d="M.1789856 .114868167C.13899231 .047973634 .099990848 .033981325 .055999757 .0309906 .04399109 .02999878 .034988405 .02999878 .034988405 .010986328 .034988405 .004989624 .039993287 0 .04798889 0 .07499695 0 .10598755 .0029907227 .13398743 .0029907227 .16699219 .0029907227 .20199585 0 .23399353 0 .23999024 0 .25299073 0 .25299073 .018997193 .25299073 .02999878 .24398804 .0309906 .23699951 .0309906 .21398926 .032989503 .18998719 .04096985 .18998719 .06593323 .18998719 .077926639 .19599915 .088897708 .20399475 .102890018L.27999879 .23068238H.5309906C.5329895 .2097168 .5469971 .07392883 .5469971 .063949588 .5469971 .033981325 .49499513 .0309906 .47499085 .0309906 .46099855 .0309906 .45098878 .0309906 .45098878 .010986328 .45098878 0 .46299745 0 .46499635 0 .5059967 0 .548996 .0029907227 .58999636 .0029907227 .61499026 .0029907227 .6779938 0 .7029877 0 .70899966 0 .72099307 0 .72099307 .019989014 .72099307 .0309906 .71099856 .0309906 .69799807 .0309906 .6359863 .0309906 .6359863 .037979127 .6329956 .06694031L.57199099 .691803C.56999209 .71180728 .56999209 .7158203 .5529938 .7158203 .5369873 .7158203 .5329895 .7088165 .5269928 .69880679L.1789856 .114868167M.29899598 .26168824 .49598695 .5917816 .5279999 .26168824H.29899598Z"/>
<path id="font_1_2" d="M.1599884 .07795715C.1499939 .038986207 .147995 .0309906 .068984989 .0309906 .051986696 .0309906 .041992189 .0309906 .041992189 .010986328 .041992189 0 .050994874 0 .068984989 0H.42599488C.58399966 0 .70199587 .11791992 .70199587 .21585083 .70199587 .28778077 .6439972 .3457489 .5469971 .35673524 .651001 .37573243 .7559967 .44970704 .7559967 .5446625 .7559967 .6186218 .6899872 .6826172 .56999209 .6826172H.23399353C.21499634 .6826172 .20498657 .6826172 .20498657 .6626129 .20498657 .6516113 .21398926 .6516113 .23298645 .6516113 .23498535 .6516113 .2539978 .6516113 .2709961 .6496124 .2889862 .6476135 .2979889 .64660647 .2979889 .6336212 .2979889 .6296234 .29699708 .62661746 .2939911 .614624L.1599884 .07795715M.31098939 .36573792 .37298585 .6136322C.38198854 .64860537 .38398744 .6516113 .4269867 .6516113H.55599978C.6439972 .6516113 .6649933 .5926361 .6649933 .5486603 .6649933 .46069337 .57899478 .36573792 .45700074 .36573792H.31098939M.2659912 .0309906C.2519989 .0309906 .25 .0309906 .24398804 .03199768 .23399353 .032989503 .23098755 .033996583 .23098755 .04197693 .23098755 .04498291 .23098755 .04698181 .23599243 .064971927L.30499269 .34375H.49398805C.58999636 .34375 .60899356 .2698059 .60899356 .22683716 .60899356 .12791443 .519989 .0309906 .4019928 .0309906H.2659912Z"/>
<path id="font_1_3" d="M.7599945 .69506838C.7599945 .69807437 .7579956 .7050781 .7489929 .7050781 .74598696 .7050781 .7449951 .70407107 .73399356 .69306948L.6639862 .61602786C.6549988 .6300354 .60899356 .7050781 .49798585 .7050781 .2749939 .7050781 .049987794 .48391725 .049987794 .25172425 .049987794 .08659363 .16799927-.022460938 .32099916-.022460938 .4079895-.022460938 .48399354 .017532349 .5369873 .063583377 .6299896 .14564514 .6469879 .2367096 .6469879 .23971558 .6469879 .24972534 .6369934 .24972534 .6349945 .24972534 .6289978 .24972534 .6239929 .24772644 .621994 .23971558 .61299136 .21069336 .58999636 .13963318 .5209961 .081588748 .45199586 .025543213 .3889923 .008529663 .33699037 .008529663 .24699402 .008529663 .14099121 .060577394 .14099121 .21670532 .14099121 .27374269 .1619873 .43588258 .2619934 .55296328 .32299806 .62402346 .4169922 .67407229 .5059967 .67407229 .60798647 .67407229 .6669922 .5970001 .6669922 .48091126 .6669922 .44088746 .6639862 .43988038 .6639862 .4298706 .6639862 .41986085 .6749878 .41986085 .67900088 .41986085 .69200137 .41986085 .69200137 .42185975 .69699099 .43988038L.7599945 .69506838Z"/>
<path id="font_1_4" d="M.15899658 .07795715C.14898682 .038986207 .14698792 .0309906 .067993167 .0309906 .050994874 .0309906 .039993287 .0309906 .039993287 .011993408 .039993287 0 .04899597 0 .067993167 0H.39898683C.6069946 0 .80400088 .21087647 .80400088 .42974855 .80400088 .5706482 .71899417 .6826172 .56900027 .6826172H.23298645C.21398926 .6826172 .20298767 .6826172 .20298767 .66360476 .20298767 .6516113 .21199036 .6516113 .23199463 .6516113 .24499512 .6516113 .2630005 .65060427 .2749939 .6496124 .29100038 .6476135 .29699708 .64460757 .29699708 .6336212 .29699708 .6296234 .29599 .62661746 .29299928 .614624L.15899658 .07795715M.375 .6136322C.38398744 .64860537 .38598634 .6516113 .42900086 .6516113H.5359955C.6339874 .6516113 .71699526 .5986328 .71699526 .46672059 .71699526 .41775514 .69699099 .25386048 .6119995 .1439209 .58299258 .10694885 .5039978 .0309906 .3809967 .0309906H.2679901C.2539978 .0309906 .2519989 .0309906 .24598694 .03199768 .23599243 .032989503 .23298645 .033996583 .23298645 .041992189 .23298645 .04498291 .23298645 .04698181 .23799134 .064971927L.375 .6136322Z"/>
<path id="font_1_5" d="M.70799258 .23292542C.70999148 .23791504 .71299746 .24491883 .71299746 .24691773 .71299746 .24790955 .71299746 .2579193 .70098879 .2579193 .69200137 .2579193 .6899872 .25190736 .6879883 .24591065 .6230011 .097961429 .58599856 .0309906 .4149933 .0309906H.2689972C.25498963 .0309906 .25299073 .0309906 .24699402 .03199768 .23699951 .032989503 .23399353 .033996583 .23399353 .041992189 .23399353 .04498291 .23399353 .04698181 .23899842 .06498718L.30699159 .33789063H.4059906C.4909973 .33789063 .4909973 .31689454 .4909973 .29190064 .4909973 .28489686 .4909973 .27290345 .48399354 .24291992 .48199464 .23791504 .48098756 .23492432 .48098756 .23191834 .48098756 .22692871 .4850006 .220932 .49398805 .220932 .5019989 .220932 .5049896 .22592163 .5089874 .24092102L.56599429 .47477723C.56599429 .48077394 .5609894 .48576356 .55400088 .48576356 .54499819 .48576356 .54299929 .47976686 .5399933 .4677887 .5189972 .39186097 .5009918 .36888124 .40899659 .36888124H.31498719L.375 .60964968C.38398744 .64460757 .3849945 .64860537 .42900086 .64860537H.56999209C.69200137 .64860537 .7220001 .61964419 .7220001 .5377197 .7220001 .51374819 .7220001 .51174929 .71798709 .48477174 .71798709 .47877503 .71699526 .4717865 .71699526 .46678163 .71699526 .461792 .7200012 .45480348 .72898867 .45480348 .73999026 .45480348 .7409973 .46080018 .7429962 .47976686L.7630005 .65260317C.7659912 .6796112 .7609863 .6796112 .73599246 .6796112H.23098755C.21099854 .6796112 .20098877 .6796112 .20098877 .65960696 .20098877 .64860537 .20999146 .64860537 .22898865 .64860537 .2659912 .64860537 .2939911 .64860537 .2939911 .6306305 .2939911 .6266327 .2939911 .6246338 .2889862 .6066437L.15699768 .07797241C.14698792 .038986207 .14498902 .0309906 .06599426 .0309906 .04899597 .0309906 .037994386 .0309906 .037994386 .011993408 .037994386 0 .04699707 0 .06599426 0H.58499148C.60798647 0 .60899356 .0009918213 .6159973 .016998291L.70799258 .23292542Z"/>
<path id="font_1_6" d="M.30299378 .3244629H.3999939C.47499085 .3244629 .48298646 .30848695 .48298646 .27954103 .48298646 .2725525 .48298646 .26057435 .47599793 .2306366 .47399903 .22564698 .47299195 .22164917 .47299195 .21965027 .47299195 .21166992 .47898866 .20767212 .4850006 .20767212 .49499513 .20767212 .49499513 .21066284 .5 .2286377L.5549927 .44551087C.55799868 .45651246 .55799868 .45851136 .55799868 .46151734 .55799868 .46351625 .55599978 .47251893 .54599 .47251893 .5359955 .47251893 .5349884 .46751405 .5309906 .45150758 .5099945 .37347413 .4869995 .35546876 .4019928 .35546876H.31098939L.375 .6095886C.38398744 .64460757 .3849945 .64860537 .42900086 .64860537H.5609894C.6839905 .64860537 .70700076 .6156006 .70700076 .53855898 .70700076 .5155487 .70700076 .51153567 .70399478 .4845276 .70199587 .4715271 .70199587 .46951295 .70199587 .46652223 .70199587 .46151734 .7049866 .45451356 .71398928 .45451356 .72499087 .45451356 .7259979 .46051026 .7279968 .4795227L.7480011 .65260317C.7509918 .6796112 .74598696 .6796112 .72099307 .6796112H.23098755C.21099854 .6796112 .20098877 .6796112 .20098877 .65960696 .20098877 .64860537 .20999146 .64860537 .22898865 .64860537 .2659912 .64860537 .2939911 .64860537 .2939911 .6306 .2939911 .6266022 .2939911 .6246033 .2889862 .60658267L.15699768 .07791138C.14698792 .038970949 .14498902 .0309906 .06599426 .0309906 .04899597 .0309906 .037994386 .0309906 .037994386 .011993408 .037994386 0 .049987794 0 .052993776 0 .08198547 0 .1559906 .0029907227 .18499756 .0029907227 .21798706 .0029907227 .30099488 0 .33399964 0 .34298707 0 .35499574 0 .35499574 .018997193 .35499574 .026992798 .34899903 .0289917 .34899903 .02999878 .34599305 .0309906 .34399415 .0309906 .32099916 .0309906 .29899598 .0309906 .2939911 .0309906 .2689972 .032989503 .23999024 .035980226 .23699951 .039978029 .23699951 .052947999 .23699951 .0549469 .23699951 .060943605 .24099732 .075912479L.30299378 .3244629Z"/>
<path id="font_1_7" d="M.7599945 .69506838C.7599945 .69807437 .7579956 .7050781 .7489929 .7050781 .74598696 .7050781 .7449951 .70407107 .73399356 .69306948L.6639862 .61598208C.6549988 .6300049 .60899356 .7050781 .49798585 .7050781 .2749939 .7050781 .049987794 .4837799 .049987794 .25144959 .049987794 .09249878 .16099549-.022460938 .32299806-.022460938 .36698915-.022460938 .4119873-.013473511 .44799806 .0015258789 .49798585 .021530152 .5169983 .042526246 .5349884 .06251526 .5439911 .037521364 .56999209 .0005340576 .5799866 .0005340576 .58499148 .0005340576 .58699038 .0035247803 .58699038 .0045318605 .58898928 .0065307619 .598999 .044525148 .60398867 .06550598L.6230011 .14248657C.6269989 .15948487 .6319885 .1764679 .6359863 .19346619 .6469879 .2384491 .647995 .240448 .7049866 .24145508 .70999148 .24145508 .72099307 .2424469 .72099307 .26145936 .72099307 .26844789 .71598818 .27246095 .70799258 .27246095 .68499758 .27246095 .6259918 .26945497 .6029968 .26945497 .57199099 .26945497 .49398805 .27246095 .46299745 .27246095 .45399476 .27246095 .44198609 .27246095 .44198609 .25245667 .44198609 .24145508 .44999696 .24145508 .47200013 .24145508 .47299195 .24145508 .5019989 .24145508 .5249939 .23945618 .5509949 .2364502 .55599978 .23345948 .55599978 .22045899 .55599978 .2114563 .54499819 .16647339 .5349884 .12948609 .5069885 .01953125 .3769989 .008529663 .34199525 .008529663 .24598694 .008529663 .14099121 .06550598 .14099121 .21846009 .14099121 .24945069 .15098572 .41467286 .2559967 .5448761 .30999757 .6129761 .40699769 .67407229 .5059967 .67407229 .60798647 .67407229 .6669922 .59695437 .6669922 .48077394 .6669922 .44070436 .6639862 .43971253 .6639862 .4296875 .6639862 .41967774 .6749878 .41967774 .67900088 .41967774 .69200137 .41967774 .69200137 .42167665 .69699099 .43971253L.7599945 .69506838Z"/>
</defs>
<path transform="matrix(1,0,0,-1.00005,97.60899,96.29221)" stroke-width=".79701" stroke-linecap="butt" stroke-miterlimit="10" stroke-linejoin="miter" fill="none" stroke="#00cc00" d="M85.04042 0C85.04042 46.96713 46.96713 85.04042 0 85.04042-46.96713 85.04042-85.04042 46.96713-85.04042 0"/>
<path transform="matrix(1,0,0,-1.00005,97.60899,96.29221)" stroke-width=".79701" stroke-linecap="butt" stroke-miterlimit="10" stroke-linejoin="miter" fill="none" stroke="#0000ff" d="M0 0H85.04042"/>
<path transform="matrix(1,0,0,-1.00005,97.60899,96.29221)" stroke-width=".79701" stroke-linecap="butt" stroke-miterlimit="10" stroke-linejoin="miter" fill="none" stroke="#0000ff" d="M0 0 73.64735 42.5202"/>
<path transform="matrix(1,0,0,-1.00005,97.60899,96.29221)" stroke-width=".79701" stroke-linecap="butt" stroke-miterlimit="10" stroke-linejoin="miter" fill="none" stroke="#0000ff" d="M0 0 42.5202 73.64735"/>
<path transform="matrix(1,0,0,-1.00005,97.60899,96.29221)" stroke-width=".79701" stroke-linecap="butt" stroke-miterlimit="10" stroke-linejoin="miter" fill="none" stroke="#0000ff" d="M0 0V85.04042"/>
<path transform="matrix(1,0,0,-1.00005,97.60899,96.29221)" stroke-width=".79701" stroke-linecap="butt" stroke-miterlimit="10" stroke-linejoin="miter" fill="none" stroke="#0000ff" d="M0 0-42.5202 73.64735"/>
<path transform="matrix(1,0,0,-1.00005,97.60899,96.29221)" stroke-width=".79701" stroke-linecap="butt" stroke-miterlimit="10" stroke-linejoin="miter" fill="none" stroke="#0000ff" d="M0 0-73.64735 42.5202"/>
<path transform="matrix(1,0,0,-1.00005,97.60899,96.29221)" stroke-width=".79701" stroke-linecap="butt" stroke-miterlimit="10" stroke-linejoin="miter" fill="none" stroke="#0000ff" d="M0 0H-85.04042"/>
<path transform="matrix(1,0,0,-1.00005,97.60899,96.29221)" d="M1.4174 0C1.4174 .78282 .78282 1.4174 0 1.4174-.78282 1.4174-1.4174 .78282-1.4174 0-1.4174-.78282-.78282-1.4174 0-1.4174 .78282-1.4174 1.4174-.78282 1.4174 0ZM0 0" fill="#ff0000"/>
<path transform="matrix(1,0,0,-1.00005,97.60899,96.29221)" stroke-width=".3985" stroke-linecap="butt" stroke-miterlimit="10" stroke-linejoin="miter" fill="none" stroke="#000000" d="M1.4174 0C1.4174 .78282 .78282 1.4174 0 1.4174-.78282 1.4174-1.4174 .78282-1.4174 0-1.4174-.78282-.78282-1.4174 0-1.4174 .78282-1.4174 1.4174-.78282 1.4174 0ZM0 0"/>
<use data-text="O" xlink:href="#font_1_8" transform="matrix(9.9626,0,0,-9.963098,93.67099,106.62073)"/>
<path transform="matrix(1,0,0,-1.00005,97.60899,96.29221)" d="M86.45784 0C86.45784 .78282 85.82324 1.4174 85.04042 1.4174 84.2576 1.4174 83.623 .78282 83.623 0 83.623-.78282 84.2576-1.4174 85.04042-1.4174 85.82324-1.4174 86.45784-.78282 86.45784 0ZM85.04042 0" fill="#ff0000"/>
<path transform="matrix(1,0,0,-1.00005,97.60899,96.29221)" stroke-width=".3985" stroke-linecap="butt" stroke-miterlimit="10" stroke-linejoin="miter" fill="none" stroke="#000000" d="M86.45784 0C86.45784 .78282 85.82324 1.4174 85.04042 1.4174 84.2576 1.4174 83.623 .78282 83.623 0 83.623-.78282 84.2576-1.4174 85.04042-1.4174 85.82324-1.4174 86.45784-.78282 86.45784 0ZM85.04042 0"/>
<use data-text="A" xlink:href="#font_1_1" transform="matrix(9.9626,0,0,-9.963098,186.16899,99.69638)"/>
<path transform="matrix(1,0,0,-1.00005,97.60899,96.29221)" d="M75.06477 42.5202C75.06477 43.30302 74.43019 43.93762 73.64735 43.93762 72.86453 43.93762 72.22995 43.30302 72.22995 42.5202 72.22995 41.73738 72.86453 41.10278 73.64735 41.10278 74.43019 41.10278 75.06477 41.73738 75.06477 42.5202ZM73.64735 42.5202" fill="#ff0000"/>
<path transform="matrix(1,0,0,-1.00005,97.60899,96.29221)" stroke-width=".3985" stroke-linecap="butt" stroke-miterlimit="10" stroke-linejoin="miter" fill="none" stroke="#000000" d="M75.06477 42.5202C75.06477 43.30302 74.43019 43.93762 73.64735 43.93762 72.86453 43.93762 72.22995 43.30302 72.22995 42.5202 72.22995 41.73738 72.86453 41.10278 73.64735 41.10278 74.43019 41.10278 75.06477 41.73738 75.06477 42.5202ZM73.64735 42.5202"/>
<use data-text="B" xlink:href="#font_1_2" transform="matrix(9.9626,0,0,-9.963098,174.776,55.18116)"/>
<path transform="matrix(1,0,0,-1.00005,97.60899,96.29221)" d="M43.93762 73.64735C43.93762 74.43019 43.30302 75.06477 42.5202 75.06477 41.73738 75.06477 41.10278 74.43019 41.10278 73.64735 41.10278 72.86453 41.73738 72.22995 42.5202 72.22995 43.30302 72.22995 43.93762 72.86453 43.93762 73.64735ZM42.5202 73.64735" fill="#ff0000"/>
<path transform="matrix(1,0,0,-1.00005,97.60899,96.29221)" stroke-width=".3985" stroke-linecap="butt" stroke-miterlimit="10" stroke-linejoin="miter" fill="none" stroke="#000000" d="M43.93762 73.64735C43.93762 74.43019 43.30302 75.06477 42.5202 75.06477 41.73738 75.06477 41.10278 74.43019 41.10278 73.64735 41.10278 72.86453 41.73738 72.22995 42.5202 72.22995 43.30302 72.22995 43.93762 72.86453 43.93762 73.64735ZM42.5202 73.64735"/>
<use data-text="C" xlink:href="#font_1_3" transform="matrix(9.9626,0,0,-9.963098,143.64899,19.12136)"/>
<path transform="matrix(1,0,0,-1.00005,97.60899,96.29221)" d="M1.4174 85.04042C1.4174 85.82324 .78282 86.45784 0 86.45784-.78282 86.45784-1.4174 85.82324-1.4174 85.04042-1.4174 84.2576-.78282 83.623 0 83.623 .78282 83.623 1.4174 84.2576 1.4174 85.04042ZM0 85.04042" fill="#ff0000"/>
<path transform="matrix(1,0,0,-1.00005,97.60899,96.29221)" stroke-width=".3985" stroke-linecap="butt" stroke-miterlimit="10" stroke-linejoin="miter" fill="none" stroke="#000000" d="M1.4174 85.04042C1.4174 85.82324 .78282 86.45784 0 86.45784-.78282 86.45784-1.4174 85.82324-1.4174 85.04042-1.4174 84.2576-.78282 83.623 0 83.623 .78282 83.623 1.4174 84.2576 1.4174 85.04042ZM0 85.04042"/>
<use data-text="D" xlink:href="#font_1_4" transform="matrix(9.9626,0,0,-9.963098,93.34599,7.727791)"/>
<path transform="matrix(1,0,0,-1.00005,97.60899,96.29221)" d="M-41.10278 73.64735C-41.10278 74.43019-41.73738 75.06477-42.5202 75.06477-43.30302 75.06477-43.93762 74.43019-43.93762 73.64735-43.93762 72.86453-43.30302 72.22995-42.5202 72.22995-41.73738 72.22995-41.10278 72.86453-41.10278 73.64735ZM-42.5202 73.64735" fill="#ff0000"/>
<path transform="matrix(1,0,0,-1.00005,97.60899,96.29221)" stroke-width=".3985" stroke-linecap="butt" stroke-miterlimit="10" stroke-linejoin="miter" fill="none" stroke="#000000" d="M-41.10278 73.64735C-41.10278 74.43019-41.73738 75.06477-42.5202 75.06477-43.30302 75.06477-43.93762 74.43019-43.93762 73.64735-43.93762 72.86453-43.30302 72.22995-42.5202 72.22995-41.73738 72.22995-41.10278 72.86453-41.10278 73.64735ZM-42.5202 73.64735"/>
<use data-text="E" xlink:href="#font_1_5" transform="matrix(9.9626,0,0,-9.963098,43.64,19.12136)"/>
<path transform="matrix(1,0,0,-1.00005,97.60899,96.29221)" d="M-72.22995 42.5202C-72.22995 43.30302-72.86453 43.93762-73.64735 43.93762-74.43019 43.93762-75.06477 43.30302-75.06477 42.5202-75.06477 41.73738-74.43019 41.10278-73.64735 41.10278-72.86453 41.10278-72.22995 41.73738-72.22995 42.5202ZM-73.64735 42.5202" fill="#ff0000"/>
<path transform="matrix(1,0,0,-1.00005,97.60899,96.29221)" stroke-width=".3985" stroke-linecap="butt" stroke-miterlimit="10" stroke-linejoin="miter" fill="none" stroke="#000000" d="M-72.22995 42.5202C-72.22995 43.30302-72.86453 43.93762-73.64735 43.93762-74.43019 43.93762-75.06477 43.30302-75.06477 42.5202-75.06477 41.73738-74.43019 41.10278-73.64735 41.10278-72.86453 41.10278-72.22995 41.73738-72.22995 42.5202ZM-73.64735 42.5202"/>
<use data-text="F" xlink:href="#font_1_6" transform="matrix(9.9626,0,0,-9.963098,12.650986,55.18116)"/>
<path transform="matrix(1,0,0,-1.00005,97.60899,96.29221)" d="M-83.623 0C-83.623 .78282-84.2576 1.4174-85.04042 1.4174-85.82324 1.4174-86.45784 .78282-86.45784 0-86.45784-.78282-85.82324-1.4174-85.04042-1.4174-84.2576-1.4174-83.623-.78282-83.623 0ZM-85.04042 0" fill="#ff0000"/>
<path transform="matrix(1,0,0,-1.00005,97.60899,96.29221)" stroke-width=".3985" stroke-linecap="butt" stroke-miterlimit="10" stroke-linejoin="miter" fill="none" stroke="#000000" d="M-83.623 0C-83.623 .78282-84.2576 1.4174-85.04042 1.4174-85.82324 1.4174-86.45784 .78282-86.45784 0-86.45784-.78282-85.82324-1.4174-85.04042-1.4174-84.2576-1.4174-83.623-.78282-83.623 0ZM-85.04042 0"/>
<use data-text="G" xlink:href="#font_1_7" transform="matrix(9.9626,0,0,-9.963098,1.2159882,99.69638)"/>
</svg>
