<svg xmlns="http://www.w3.org/2000/svg" xmlns:xlink="http://www.w3.org/1999/xlink" version="1.1" width="75" height="129" viewBox="0 0 75 129">
<defs>
<path id="font_1_1" d="M.6589966 .23046875C.6759949 .23046875 .69400027 .23046875 .69400027 .25045777 .69400027 .27046205 .6759949 .27046205 .6589966 .27046205H.117996219C.100997928 .27046205 .08299255 .27046205 .08299255 .25045777 .08299255 .23046875 .100997928 .23046875 .117996219 .23046875H.6589966Z"/>
<path id="font_2_2" d="M.2939911 .64004519C.2939911 .66400149 .2939911 .6660156 .2709961 .6660156 .20899964 .60227969 .12098694 .60227969 .08898926 .60227969V.57128909C.10899353 .57128909 .16799927 .57128909 .21998596 .5972748V.07902527C.21998596 .042999269 .21699524 .0309906 .1269989 .0309906H.09498596V0C.12998963 .0029907227 .21699524 .0029907227 .25698854 .0029907227 .29699708 .0029907227 .38398744 .0029907227 .4189911 0V.0309906H.3869934C.29699708 .0309906 .2939911 .041992189 .2939911 .07902527V.64004519Z"/>
<path id="font_2_1" d="M.45999146 .31976319C.45999146 .39982606 .45498658 .47988893 .41999818 .5539398 .37399293 .65000918 .2919922 .6660156 .25 .6660156 .18998719 .6660156 .116989139 .64001467 .07598877 .54693606 .04399109 .47789 .038986207 .39982606 .038986207 .31976319 .038986207 .24472046 .042999269 .15464783 .083999637 .07859802 .1269989-.0024719239 .19999695-.022460938 .24899292-.022460938 .30299378-.022460938 .3789978-.0014648438 .4229889 .09359741 .45498658 .16265869 .45999146 .2407074 .45999146 .31976319M.24899292-.00047302247C.20999146-.00047302247 .15098572 .024551392 .1329956 .12062073 .12199402 .18066406 .12199402 .2727356 .12199402 .3317871 .12199402 .39582826 .12199402 .46188355 .12998963 .5159149 .14898682 .63500979 .22399903 .64401248 .24899292 .64401248 .28199769 .64401248 .34799195 .6259918 .36698915 .52693179 .3769989 .47088624 .3769989 .39482118 .3769989 .3317871 .3769989 .25672914 .3769989 .18867493 .3659973 .12461853 .35099793 .029556275 .2939911-.00047302247 .24899292-.00047302247Z"/>
<path id="font_3_1" d="M.6749878 .22944641C.69299319 .22944641 .71199038 .22944641 .71199038 .25144959 .71199038 .27246095 .69200137 .27246095 .6749878 .27246095H.12298584C.10598755 .27246095 .085998538 .27246095 .085998538 .25144959 .085998538 .22944641 .10499573 .22944641 .12298584 .22944641H.6749878Z"/>
<path id="font_4_2" d="M.3039856 .6392822C.3039856 .6642761 .30299378 .666275 .27799989 .666275 .21598816 .60227969 .12399292 .60227969 .09298706 .60227969V.57128909C.11199951 .57128909 .17298889 .57128909 .22698975 .5972748V.08001709C.22698975 .042999269 .22399903 .0309906 .1309967 .0309906H.09899902V0C.1349945 .0029907227 .22399903 .0029907227 .2649994 .0029907227 .30599977 .0029907227 .3959961 .0029907227 .43199159 0V.0309906H.3999939C.30699159 .0309906 .3039856 .042999269 .3039856 .08001709V.6392822Z"/>
<path id="font_4_1" d="M.47299195 .31976319C.47299195 .38682557 .46998597 .47288514 .43499757 .5479431 .3909912 .64201357 .31498719 .6660156 .25698854 .6660156 .19699097 .6660156 .12098694 .64201357 .07699585 .5459442 .04499817 .47688294 .039993287 .39582826 .039993287 .31976319 .039993287 .25471498 .041992189 .15765381 .084991458 .07858276 .13198853-.0064697267 .20999146-.022460938 .2559967-.022460938 .32099916-.022460938 .394989 .0055389406 .43699647 .097595218 .46699525 .1646576 .47299195 .23971558 .47299195 .31976319M.25698854 .002532959C.22698975 .002532959 .15499878 .016540528 .13598633 .12962342 .12599182 .18867493 .12599182 .2747345 .12599182 .33177186 .12599182 .39982606 .12599182 .47888185 .13798523 .53393557 .1579895 .6230011 .22200012 .64100649 .2559967 .64100649 .2939911 .64100649 .35699464 .62098696 .37599183 .5279236 .3869934 .47288514 .3869934 .39482118 .3869934 .33177186 .3869934 .2697296 .3869934 .18566895 .3769989 .12661743 .35598756 .012542725 .28199769 .002532959 .25698854 .002532959Z"/>
<path id="font_2_3" d="M.44898988 .20022583C.44898988 .3193512 .36698915 .41944886 .25898744 .41944886 .21099854 .41944886 .16799927 .40345765 .13198853 .36842347V.5637665C.1519928 .5577698 .18499756 .55078127 .21699524 .55078127 .33999635 .55078127 .4099884 .6417694 .4099884 .6547699 .4099884 .6607666 .40699769 .6657715 .3999939 .6657715 .39898683 .6657715 .39698792 .6657715 .3919983 .66278079 .37199403 .6537781 .32299806 .6337738 .2559967 .6337738 .21598816 .6337738 .16999817 .6407776 .12298584 .6617737 .114990238 .66477969 .11299133 .66477969 .11099243 .66477969 .100997928 .66477969 .100997928 .6567688 .100997928 .6407776V.34439088C.100997928 .32637025 .100997928 .31835938 .114990238 .31835938 .12199402 .31835938 .12399292 .32136537 .12799073 .32736207 .13899231 .3433838 .17599488 .39746095 .25698854 .39746095 .30899049 .39746095 .33399964 .35139466 .34199525 .33337403 .35798646 .29632569 .3600006 .25727845 .3600006 .20722962 .3600006 .17222595 .3600006 .11222839 .33599855 .07035828 .31199647 .031463624 .2749939 .0055389406 .22898865 .0055389406 .1559906 .0055389406 .09899902 .058380128 .08198547 .11723328 .084991458 .1162262 .08799744 .115234378 .09899902 .115234378 .13198853 .115234378 .14898682 .14022827 .14898682 .16423035 .14898682 .18823242 .13198853 .21322632 .09899902 .21322632 .084991458 .21322632 .049987794 .20622254 .049987794 .16023255 .049987794 .07434082 .11898804-.022460938 .23098755-.022460938 .34700013-.022460938 .44898988 .073349 .44898988 .20022583Z"/>
<path id="font_4_3" d="M.10398865 .3444519C.10398865 .32641603 .10398865 .31539918 .117996219 .31539918 .12599182 .31539918 .1289978 .31941224 .1349945 .32843019 .16499329 .3704834 .21299744 .39453126 .2649994 .39453126 .37199403 .39453126 .37199403 .24029541 .37199403 .20425415 .37199403 .17324829 .37199403 .11125183 .34399415 .06637573 .31698609 .024475098 .2749939 .0055389406 .23599243 .0055389406 .1769867 .0055389406 .10998535 .042434694 .085998538 .116256717 .08699036 .116256717 .09298706 .11425781 .099990848 .11425781 .11999512 .11425781 .14898682 .12724304 .14898682 .16325379 .14898682 .19424439 .1269989 .21224976 .099990848 .21224976 .07899475 .21224976 .050994874 .20025635 .050994874 .1602478 .050994874 .069366458 .1269989-.022460938 .23799134-.022460938 .35899354-.022460938 .46199037 .0753479 .46199037 .19924927 .46199037 .3204193 .37599183 .41952516 .2669983 .41952516 .21899414 .41952516 .16999817 .40351869 .1349945 .36747743V.56477358C.16499329 .5557709 .19599915 .55078127 .22698975 .55078127 .34999085 .55078127 .42199708 .6397705 .42199708 .652771 .42199708 .6617737 .41600038 .6657715 .41099549 .6657715 .40899659 .6657715 .40699769 .6657715 .397995 .6607666 .35099793 .6417694 .30499269 .6337738 .2630005 .6337738 .21998596 .6337738 .1749878 .6417694 .1289978 .6607666 .11898804 .6657715 .116989139 .6657715 .115997318 .6657715 .10398865 .6657715 .10398865 .655777 .10398865 .6387787V.3444519Z"/>
</defs>
<path transform="matrix(1.00002,0,0,-1.00002,36.27745,53.671758)" stroke-width=".3985" stroke-linecap="butt" stroke-miterlimit="10" stroke-linejoin="miter" fill="none" stroke="#0000ff" d="M5.10219-63.77773V46.77032C5.10219 49.58823 2.81789 51.87251 0 51.87251-2.81789 51.87251-5.10219 49.58823-5.10219 46.77032V-63.77773C-7.21552-66.59552-6.64456-70.593-3.82675-72.70634-1.00894-74.81967 2.98853-74.24872 5.10185-71.43091 6.88002-69.05998 6.79048-65.77504 4.88542-63.50475Z"/>
<path transform="matrix(1.00002,0,0,-1.00002,36.27745,53.671758)" stroke-width=".3985" stroke-linecap="butt" stroke-miterlimit="10" stroke-linejoin="miter" fill="none" stroke="#000000" d="M7.65332-59.52586H11.90518"/>
<path transform="matrix(1.00002,0,0,-1.00002,36.27745,53.671758)" stroke-width=".3985" stroke-linecap="butt" stroke-miterlimit="10" stroke-linejoin="miter" fill="none" stroke="#000000" d="M-7.65332-59.52586H-11.90518"/>
<path transform="matrix(1.00002,0,0,-1.00002,36.27745,53.671758)" stroke-width=".3985" stroke-linecap="butt" stroke-miterlimit="10" stroke-linejoin="miter" fill="none" stroke="#000000" d="M7.65332-55.27402H11.90518"/>
<path transform="matrix(1.00002,0,0,-1.00002,36.27745,53.671758)" stroke-width=".3985" stroke-linecap="butt" stroke-miterlimit="10" stroke-linejoin="miter" fill="none" stroke="#000000" d="M-7.65332-55.27402H-11.90518"/>
<path transform="matrix(1.00002,0,0,-1.00002,36.27745,53.671758)" stroke-width=".3985" stroke-linecap="butt" stroke-miterlimit="10" stroke-linejoin="miter" fill="none" stroke="#000000" d="M7.65332-51.02217H11.90518"/>
<path transform="matrix(1.00002,0,0,-1.00002,36.27745,53.671758)" stroke-width=".3985" stroke-linecap="butt" stroke-miterlimit="10" stroke-linejoin="miter" fill="none" stroke="#000000" d="M-7.65332-51.02217H-11.90518"/>
<path transform="matrix(1.00002,0,0,-1.00002,36.27745,53.671758)" stroke-width=".3985" stroke-linecap="butt" stroke-miterlimit="10" stroke-linejoin="miter" fill="none" stroke="#000000" d="M7.65332-46.77032H11.90518"/>
<path transform="matrix(1.00002,0,0,-1.00002,36.27745,53.671758)" stroke-width=".3985" stroke-linecap="butt" stroke-miterlimit="10" stroke-linejoin="miter" fill="none" stroke="#000000" d="M-7.65332-46.77032H-11.90518"/>
<path transform="matrix(1.00002,0,0,-1.00002,36.27745,53.671758)" stroke-width=".3985" stroke-linecap="butt" stroke-miterlimit="10" stroke-linejoin="miter" fill="none" stroke="#000000" d="M7.65332-42.51846H11.90518"/>
<path transform="matrix(1.00002,0,0,-1.00002,36.27745,53.671758)" stroke-width=".3985" stroke-linecap="butt" stroke-miterlimit="10" stroke-linejoin="miter" fill="none" stroke="#000000" d="M-7.65332-42.51846H-11.90518"/>
<path transform="matrix(1.00002,0,0,-1.00002,36.27745,53.671758)" stroke-width=".3985" stroke-linecap="butt" stroke-miterlimit="10" stroke-linejoin="miter" fill="none" stroke="#000000" d="M7.65332-38.26663H11.90518"/>
<path transform="matrix(1.00002,0,0,-1.00002,36.27745,53.671758)" stroke-width=".3985" stroke-linecap="butt" stroke-miterlimit="10" stroke-linejoin="miter" fill="none" stroke="#000000" d="M-7.65332-38.26663H-11.90518"/>
<path transform="matrix(1.00002,0,0,-1.00002,36.27745,53.671758)" stroke-width=".3985" stroke-linecap="butt" stroke-miterlimit="10" stroke-linejoin="miter" fill="none" stroke="#000000" d="M7.65332-34.01477H11.90518"/>
<path transform="matrix(1.00002,0,0,-1.00002,36.27745,53.671758)" stroke-width=".3985" stroke-linecap="butt" stroke-miterlimit="10" stroke-linejoin="miter" fill="none" stroke="#000000" d="M-7.65332-34.01477H-11.90518"/>
<path transform="matrix(1.00002,0,0,-1.00002,36.27745,53.671758)" stroke-width=".3985" stroke-linecap="butt" stroke-miterlimit="10" stroke-linejoin="miter" fill="none" stroke="#000000" d="M7.65332-29.76292H11.90518"/>
<path transform="matrix(1.00002,0,0,-1.00002,36.27745,53.671758)" stroke-width=".3985" stroke-linecap="butt" stroke-miterlimit="10" stroke-linejoin="miter" fill="none" stroke="#000000" d="M-7.65332-29.76292H-11.90518"/>
<path transform="matrix(1.00002,0,0,-1.00002,36.27745,53.671758)" stroke-width=".3985" stroke-linecap="butt" stroke-miterlimit="10" stroke-linejoin="miter" fill="none" stroke="#000000" d="M7.65332-25.51108H11.90518"/>
<path transform="matrix(1.00002,0,0,-1.00002,36.27745,53.671758)" stroke-width=".3985" stroke-linecap="butt" stroke-miterlimit="10" stroke-linejoin="miter" fill="none" stroke="#000000" d="M-7.65332-25.51108H-11.90518"/>
<path transform="matrix(1.00002,0,0,-1.00002,36.27745,53.671758)" stroke-width=".3985" stroke-linecap="butt" stroke-miterlimit="10" stroke-linejoin="miter" fill="none" stroke="#000000" d="M7.65332-21.25923H11.90518"/>
<path transform="matrix(1.00002,0,0,-1.00002,36.27745,53.671758)" stroke-width=".3985" stroke-linecap="butt" stroke-miterlimit="10" stroke-linejoin="miter" fill="none" stroke="#000000" d="M-7.65332-21.25923H-11.90518"/>
<path transform="matrix(1.00002,0,0,-1.00002,36.27745,53.671758)" stroke-width=".3985" stroke-linecap="butt" stroke-miterlimit="10" stroke-linejoin="miter" fill="none" stroke="#000000" d="M7.65332-17.00737H11.90518"/>
<path transform="matrix(1.00002,0,0,-1.00002,36.27745,53.671758)" stroke-width=".3985" stroke-linecap="butt" stroke-miterlimit="10" stroke-linejoin="miter" fill="none" stroke="#000000" d="M-7.65332-17.00737H-11.90518"/>
<path transform="matrix(1.00002,0,0,-1.00002,36.27745,53.671758)" stroke-width=".3985" stroke-linecap="butt" stroke-miterlimit="10" stroke-linejoin="miter" fill="none" stroke="#000000" d="M7.65332-12.75554H11.90518"/>
<path transform="matrix(1.00002,0,0,-1.00002,36.27745,53.671758)" stroke-width=".3985" stroke-linecap="butt" stroke-miterlimit="10" stroke-linejoin="miter" fill="none" stroke="#000000" d="M-7.65332-12.75554H-11.90518"/>
<path transform="matrix(1.00002,0,0,-1.00002,36.27745,53.671758)" stroke-width=".3985" stroke-linecap="butt" stroke-miterlimit="10" stroke-linejoin="miter" fill="none" stroke="#000000" d="M7.65332-8.50368H11.90518"/>
<path transform="matrix(1.00002,0,0,-1.00002,36.27745,53.671758)" stroke-width=".3985" stroke-linecap="butt" stroke-miterlimit="10" stroke-linejoin="miter" fill="none" stroke="#000000" d="M-7.65332-8.50368H-11.90518"/>
<path transform="matrix(1.00002,0,0,-1.00002,36.27745,53.671758)" stroke-width=".3985" stroke-linecap="butt" stroke-miterlimit="10" stroke-linejoin="miter" fill="none" stroke="#000000" d="M7.65332-4.25183H11.90518"/>
<path transform="matrix(1.00002,0,0,-1.00002,36.27745,53.671758)" stroke-width=".3985" stroke-linecap="butt" stroke-miterlimit="10" stroke-linejoin="miter" fill="none" stroke="#000000" d="M-7.65332-4.25183H-11.90518"/>
<path transform="matrix(1.00002,0,0,-1.00002,36.27745,53.671758)" stroke-width=".3985" stroke-linecap="butt" stroke-miterlimit="10" stroke-linejoin="miter" fill="none" stroke="#000000" d="M7.65332 0H11.90518"/>
<path transform="matrix(1.00002,0,0,-1.00002,36.27745,53.671758)" stroke-width=".3985" stroke-linecap="butt" stroke-miterlimit="10" stroke-linejoin="miter" fill="none" stroke="#000000" d="M-7.65332 0H-11.90518"/>
<path transform="matrix(1.00002,0,0,-1.00002,36.27745,53.671758)" stroke-width=".3985" stroke-linecap="butt" stroke-miterlimit="10" stroke-linejoin="miter" fill="none" stroke="#000000" d="M7.65332 4.25183H11.90518"/>
<path transform="matrix(1.00002,0,0,-1.00002,36.27745,53.671758)" stroke-width=".3985" stroke-linecap="butt" stroke-miterlimit="10" stroke-linejoin="miter" fill="none" stroke="#000000" d="M-7.65332 4.25183H-11.90518"/>
<path transform="matrix(1.00002,0,0,-1.00002,36.27745,53.671758)" stroke-width=".3985" stroke-linecap="butt" stroke-miterlimit="10" stroke-linejoin="miter" fill="none" stroke="#000000" d="M7.65332 8.50368H11.90518"/>
<path transform="matrix(1.00002,0,0,-1.00002,36.27745,53.671758)" stroke-width=".3985" stroke-linecap="butt" stroke-miterlimit="10" stroke-linejoin="miter" fill="none" stroke="#000000" d="M-7.65332 8.50368H-11.90518"/>
<path transform="matrix(1.00002,0,0,-1.00002,36.27745,53.671758)" stroke-width=".3985" stroke-linecap="butt" stroke-miterlimit="10" stroke-linejoin="miter" fill="none" stroke="#000000" d="M7.65332 12.75554H11.90518"/>
<path transform="matrix(1.00002,0,0,-1.00002,36.27745,53.671758)" stroke-width=".3985" stroke-linecap="butt" stroke-miterlimit="10" stroke-linejoin="miter" fill="none" stroke="#000000" d="M-7.65332 12.75554H-11.90518"/>
<path transform="matrix(1.00002,0,0,-1.00002,36.27745,53.671758)" stroke-width=".3985" stroke-linecap="butt" stroke-miterlimit="10" stroke-linejoin="miter" fill="none" stroke="#000000" d="M7.65332 17.00737H11.90518"/>
<path transform="matrix(1.00002,0,0,-1.00002,36.27745,53.671758)" stroke-width=".3985" stroke-linecap="butt" stroke-miterlimit="10" stroke-linejoin="miter" fill="none" stroke="#000000" d="M-7.65332 17.00737H-11.90518"/>
<path transform="matrix(1.00002,0,0,-1.00002,36.27745,53.671758)" stroke-width=".3985" stroke-linecap="butt" stroke-miterlimit="10" stroke-linejoin="miter" fill="none" stroke="#000000" d="M7.65332 21.25923H11.90518"/>
<path transform="matrix(1.00002,0,0,-1.00002,36.27745,53.671758)" stroke-width=".3985" stroke-linecap="butt" stroke-miterlimit="10" stroke-linejoin="miter" fill="none" stroke="#000000" d="M-7.65332 21.25923H-11.90518"/>
<path transform="matrix(1.00002,0,0,-1.00002,36.27745,53.671758)" stroke-width=".3985" stroke-linecap="butt" stroke-miterlimit="10" stroke-linejoin="miter" fill="none" stroke="#000000" d="M7.65332 25.51108H11.90518"/>
<path transform="matrix(1.00002,0,0,-1.00002,36.27745,53.671758)" stroke-width=".3985" stroke-linecap="butt" stroke-miterlimit="10" stroke-linejoin="miter" fill="none" stroke="#000000" d="M-7.65332 25.51108H-11.90518"/>
<path transform="matrix(1.00002,0,0,-1.00002,36.27745,53.671758)" stroke-width=".3985" stroke-linecap="butt" stroke-miterlimit="10" stroke-linejoin="miter" fill="none" stroke="#000000" d="M7.65332 29.76292H11.90518"/>
<path transform="matrix(1.00002,0,0,-1.00002,36.27745,53.671758)" stroke-width=".3985" stroke-linecap="butt" stroke-miterlimit="10" stroke-linejoin="miter" fill="none" stroke="#000000" d="M-7.65332 29.76292H-11.90518"/>
<path transform="matrix(1.00002,0,0,-1.00002,36.27745,53.671758)" stroke-width=".3985" stroke-linecap="butt" stroke-miterlimit="10" stroke-linejoin="miter" fill="none" stroke="#000000" d="M7.65332 34.01477H11.90518"/>
<path transform="matrix(1.00002,0,0,-1.00002,36.27745,53.671758)" stroke-width=".3985" stroke-linecap="butt" stroke-miterlimit="10" stroke-linejoin="miter" fill="none" stroke="#000000" d="M-7.65332 34.01477H-11.90518"/>
<path transform="matrix(1.00002,0,0,-1.00002,36.27745,53.671758)" stroke-width=".3985" stroke-linecap="butt" stroke-miterlimit="10" stroke-linejoin="miter" fill="none" stroke="#000000" d="M7.65332 38.26663H11.90518"/>
<path transform="matrix(1.00002,0,0,-1.00002,36.27745,53.671758)" stroke-width=".3985" stroke-linecap="butt" stroke-miterlimit="10" stroke-linejoin="miter" fill="none" stroke="#000000" d="M-7.65332 38.26663H-11.90518"/>
<path transform="matrix(1.00002,0,0,-1.00002,36.27745,53.671758)" stroke-width=".3985" stroke-linecap="butt" stroke-miterlimit="10" stroke-linejoin="miter" fill="none" stroke="#000000" d="M7.65332 42.51846H11.90518"/>
<path transform="matrix(1.00002,0,0,-1.00002,36.27745,53.671758)" stroke-width=".3985" stroke-linecap="butt" stroke-miterlimit="10" stroke-linejoin="miter" fill="none" stroke="#000000" d="M-7.65332 42.51846H-11.90518"/>
<path transform="matrix(1.00002,0,0,-1.00002,36.27745,53.671758)" stroke-width=".3985" stroke-linecap="butt" stroke-miterlimit="10" stroke-linejoin="miter" fill="none" stroke="#000000" d="M7.65332-42.51846H16.15701"/>
<use data-text="&#x2212;" xlink:href="#font_1_1" transform="matrix(9.962799,0,0,-9.962799,55.95485,98.986667)"/>
<use data-text="1" xlink:href="#font_2_2" transform="matrix(9.962799,0,0,-9.962799,63.703004,98.986667)"/>
<use data-text="0" xlink:href="#font_2_1" transform="matrix(9.962799,0,0,-9.962799,68.68439,98.986667)"/>
<path transform="matrix(1.00002,0,0,-1.00002,36.27745,53.671758)" stroke-width=".3985" stroke-linecap="butt" stroke-miterlimit="10" stroke-linejoin="miter" fill="none" stroke="#000000" d="M-7.65332-42.51846H-16.15701"/>
<use data-text="&#x2212;" xlink:href="#font_3_1" transform="matrix(8.966579,0,0,-8.966579,.21672821,98.66566)"/>
<use data-text="1" xlink:href="#font_4_2" transform="matrix(8.966579,0,0,-8.966579,7.383873,98.66566)"/>
<use data-text="0" xlink:href="#font_4_1" transform="matrix(8.966579,0,0,-8.966579,11.9837269,98.66566)"/>
<path transform="matrix(1.00002,0,0,-1.00002,36.27745,53.671758)" stroke-width=".3985" stroke-linecap="butt" stroke-miterlimit="10" stroke-linejoin="miter" fill="none" stroke="#000000" d="M7.65332-21.25923H16.15701"/>
<use data-text="&#x2212;" xlink:href="#font_1_1" transform="matrix(9.962799,0,0,-9.962799,55.95485,77.72624)"/>
<use data-text="5" xlink:href="#font_2_3" transform="matrix(9.962799,0,0,-9.962799,63.703004,77.72624)"/>
<path transform="matrix(1.00002,0,0,-1.00002,36.27745,53.671758)" stroke-width=".3985" stroke-linecap="butt" stroke-miterlimit="10" stroke-linejoin="miter" fill="none" stroke="#000000" d="M-7.65332-21.25923H-16.15701"/>
<use data-text="&#x2212;" xlink:href="#font_3_1" transform="matrix(8.966579,0,0,-8.966579,4.8248217,77.40523)"/>
<use data-text="5" xlink:href="#font_4_3" transform="matrix(8.966579,0,0,-8.966579,11.991966,77.40523)"/>
<path transform="matrix(1.00002,0,0,-1.00002,36.27745,53.671758)" stroke-width=".3985" stroke-linecap="butt" stroke-miterlimit="10" stroke-linejoin="miter" fill="none" stroke="#000000" d="M7.65332 0H16.15701"/>
<use data-text="0" xlink:href="#font_2_1" transform="matrix(9.962799,0,0,-9.962799,55.95485,56.88182)"/>
<path transform="matrix(1.00002,0,0,-1.00002,36.27745,53.671758)" stroke-width=".3985" stroke-linecap="butt" stroke-miterlimit="10" stroke-linejoin="miter" fill="none" stroke="#000000" d="M-7.65332 0H-16.15701"/>
<use data-text="0" xlink:href="#font_4_1" transform="matrix(8.966579,0,0,-8.966579,11.991966,56.560815)"/>
<path transform="matrix(1.00002,0,0,-1.00002,36.27745,53.671758)" stroke-width=".3985" stroke-linecap="butt" stroke-miterlimit="10" stroke-linejoin="miter" fill="none" stroke="#000000" d="M7.65332 21.25923H16.15701"/>
<use data-text="5" xlink:href="#font_2_3" transform="matrix(9.962799,0,0,-9.962799,55.95485,35.622396)"/>
<path transform="matrix(1.00002,0,0,-1.00002,36.27745,53.671758)" stroke-width=".3985" stroke-linecap="butt" stroke-miterlimit="10" stroke-linejoin="miter" fill="none" stroke="#000000" d="M-7.65332 21.25923H-16.15701"/>
<use data-text="5" xlink:href="#font_4_3" transform="matrix(8.966579,0,0,-8.966579,11.991966,35.301389)"/>
<path transform="matrix(1.00002,0,0,-1.00002,36.27745,53.671758)" stroke-width=".3985" stroke-linecap="butt" stroke-miterlimit="10" stroke-linejoin="miter" fill="none" stroke="#000000" d="M7.65332 42.51846H16.15701"/>
<use data-text="1" xlink:href="#font_2_2" transform="matrix(9.962799,0,0,-9.962799,55.95485,14.362972)"/>
<use data-text="0" xlink:href="#font_2_1" transform="matrix(9.962799,0,0,-9.962799,60.93625,14.362972)"/>
<path transform="matrix(1.00002,0,0,-1.00002,36.27745,53.671758)" stroke-width=".3985" stroke-linecap="butt" stroke-miterlimit="10" stroke-linejoin="miter" fill="none" stroke="#000000" d="M-7.65332 42.51846H-16.15701"/>
<use data-text="1" xlink:href="#font_4_2" transform="matrix(8.966579,0,0,-8.966579,7.3848726,14.041962)"/>
<use data-text="0" xlink:href="#font_4_1" transform="matrix(8.966579,0,0,-8.966579,11.984726,14.041962)"/>
<path transform="matrix(1.00002,0,0,-1.00002,36.27745,53.671758)" d="M4.25183-68.02956C4.25183-65.6813 2.34824-63.77773 0-63.77773-2.34824-63.77773-4.25183-65.6813-4.25183-68.02956-4.25183-70.3778-2.34824-72.2814 0-72.2814 2.34824-72.2814 4.25183-70.3778 4.25183-68.02956ZM0-68.02956" fill="#ec008c"/>
<path transform="matrix(1.00002,0,0,-1.00002,36.27745,53.671758)" stroke-width=".3985" stroke-linecap="butt" stroke-miterlimit="10" stroke-linejoin="miter" fill="none" stroke="#ec008c" d="M4.25183-68.02956C4.25183-65.6813 2.34824-63.77773 0-63.77773-2.34824-63.77773-4.25183-65.6813-4.25183-68.02956-4.25183-70.3778-2.34824-72.2814 0-72.2814 2.34824-72.2814 4.25183-70.3778 4.25183-68.02956ZM0-68.02956"/>
<path transform="matrix(1.00002,0,0,-1.00002,36.27745,53.671758)" d="M-2.97627-68.02956V-21.25923H2.97627V-68.02956ZM2.97627-21.25923" fill="#ec008c"/>
<path transform="matrix(1.00002,0,0,-1.00002,36.27745,53.671758)" stroke-width=".3985" stroke-linecap="butt" stroke-miterlimit="10" stroke-linejoin="miter" fill="none" stroke="#ec008c" d="M-2.97627-68.02956V-21.25923H2.97627V-68.02956ZM2.97627-21.25923"/>
</svg>
