<svg xmlns="http://www.w3.org/2000/svg" xmlns:xlink="http://www.w3.org/1999/xlink" version="1.1" width="109" height="129" viewBox="0 0 109 129">
<defs>
<path id="font_1_1" d="M.6589966 .23046875C.6759949 .23046875 .69400027 .23046875 .69400027 .25045777 .69400027 .27046205 .6759949 .27046205 .6589966 .27046205H.117996219C.100997928 .27046205 .08299255 .27046205 .08299255 .25045777 .08299255 .23046875 .100997928 .23046875 .117996219 .23046875H.6589966Z"/>
<path id="font_2_2" d="M.2939911 .64004519C.2939911 .66400149 .2939911 .6660156 .2709961 .6660156 .20899964 .60227969 .12098694 .60227969 .08898926 .60227969V.57128909C.10899353 .57128909 .16799927 .57128909 .21998596 .5972748V.07902527C.21998596 .042999269 .21699524 .0309906 .1269989 .0309906H.09498596V0C.12998963 .0029907227 .21699524 .0029907227 .25698854 .0029907227 .29699708 .0029907227 .38398744 .0029907227 .4189911 0V.0309906H.3869934C.29699708 .0309906 .2939911 .041992189 .2939911 .07902527V.64004519Z"/>
<path id="font_2_1" d="M.45999146 .31976319C.45999146 .39982606 .45498658 .47988893 .41999818 .5539398 .37399293 .65000918 .2919922 .6660156 .25 .6660156 .18998719 .6660156 .116989139 .64001467 .07598877 .54693606 .04399109 .47789 .038986207 .39982606 .038986207 .31976319 .038986207 .24472046 .042999269 .15464783 .083999637 .07859802 .1269989-.0024719239 .19999695-.022460938 .24899292-.022460938 .30299378-.022460938 .3789978-.0014648438 .4229889 .09359741 .45498658 .16265869 .45999146 .2407074 .45999146 .31976319M.24899292-.00047302247C.20999146-.00047302247 .15098572 .024551392 .1329956 .12062073 .12199402 .18066406 .12199402 .2727356 .12199402 .3317871 .12199402 .39582826 .12199402 .46188355 .12998963 .5159149 .14898682 .63500979 .22399903 .64401248 .24899292 .64401248 .28199769 .64401248 .34799195 .6259918 .36698915 .52693179 .3769989 .47088624 .3769989 .39482118 .3769989 .3317871 .3769989 .25672914 .3769989 .18867493 .3659973 .12461853 .35099793 .029556275 .2939911-.00047302247 .24899292-.00047302247Z"/>
<path id="font_3_1" d="M.6749878 .22944641C.69299319 .22944641 .71199038 .22944641 .71199038 .25144959 .71199038 .27246095 .69200137 .27246095 .6749878 .27246095H.12298584C.10598755 .27246095 .085998538 .27246095 .085998538 .25144959 .085998538 .22944641 .10499573 .22944641 .12298584 .22944641H.6749878Z"/>
<path id="font_4_2" d="M.3039856 .6392822C.3039856 .6642761 .30299378 .666275 .27799989 .666275 .21598816 .60227969 .12399292 .60227969 .09298706 .60227969V.57128909C.11199951 .57128909 .17298889 .57128909 .22698975 .5972748V.08001709C.22698975 .042999269 .22399903 .0309906 .1309967 .0309906H.09899902V0C.1349945 .0029907227 .22399903 .0029907227 .2649994 .0029907227 .30599977 .0029907227 .3959961 .0029907227 .43199159 0V.0309906H.3999939C.30699159 .0309906 .3039856 .042999269 .3039856 .08001709V.6392822Z"/>
<path id="font_4_1" d="M.47299195 .31976319C.47299195 .38682557 .46998597 .47288514 .43499757 .5479431 .3909912 .64201357 .31498719 .6660156 .25698854 .6660156 .19699097 .6660156 .12098694 .64201357 .07699585 .5459442 .04499817 .47688294 .039993287 .39582826 .039993287 .31976319 .039993287 .25471498 .041992189 .15765381 .084991458 .07858276 .13198853-.0064697267 .20999146-.022460938 .2559967-.022460938 .32099916-.022460938 .394989 .0055389406 .43699647 .097595218 .46699525 .1646576 .47299195 .23971558 .47299195 .31976319M.25698854 .002532959C.22698975 .002532959 .15499878 .016540528 .13598633 .12962342 .12599182 .18867493 .12599182 .2747345 .12599182 .33177186 .12599182 .39982606 .12599182 .47888185 .13798523 .53393557 .1579895 .6230011 .22200012 .64100649 .2559967 .64100649 .2939911 .64100649 .35699464 .62098696 .37599183 .5279236 .3869934 .47288514 .3869934 .39482118 .3869934 .33177186 .3869934 .2697296 .3869934 .18566895 .3769989 .12661743 .35598756 .012542725 .28199769 .002532959 .25698854 .002532959Z"/>
<path id="font_2_3" d="M.44898988 .20022583C.44898988 .3193512 .36698915 .41944886 .25898744 .41944886 .21099854 .41944886 .16799927 .40345765 .13198853 .36842347V.5637665C.1519928 .5577698 .18499756 .55078127 .21699524 .55078127 .33999635 .55078127 .4099884 .6417694 .4099884 .6547699 .4099884 .6607666 .40699769 .6657715 .3999939 .6657715 .39898683 .6657715 .39698792 .6657715 .3919983 .66278079 .37199403 .6537781 .32299806 .6337738 .2559967 .6337738 .21598816 .6337738 .16999817 .6407776 .12298584 .6617737 .114990238 .66477969 .11299133 .66477969 .11099243 .66477969 .100997928 .66477969 .100997928 .6567688 .100997928 .6407776V.34439088C.100997928 .32637025 .100997928 .31835938 .114990238 .31835938 .12199402 .31835938 .12399292 .32136537 .12799073 .32736207 .13899231 .3433838 .17599488 .39746095 .25698854 .39746095 .30899049 .39746095 .33399964 .35139466 .34199525 .33337403 .35798646 .29632569 .3600006 .25727845 .3600006 .20722962 .3600006 .17222595 .3600006 .11222839 .33599855 .07035828 .31199647 .031463624 .2749939 .0055389406 .22898865 .0055389406 .1559906 .0055389406 .09899902 .058380128 .08198547 .11723328 .084991458 .1162262 .08799744 .115234378 .09899902 .115234378 .13198853 .115234378 .14898682 .14022827 .14898682 .16423035 .14898682 .18823242 .13198853 .21322632 .09899902 .21322632 .084991458 .21322632 .049987794 .20622254 .049987794 .16023255 .049987794 .07434082 .11898804-.022460938 .23098755-.022460938 .34700013-.022460938 .44898988 .073349 .44898988 .20022583Z"/>
<path id="font_4_3" d="M.10398865 .3444519C.10398865 .32641603 .10398865 .31539918 .117996219 .31539918 .12599182 .31539918 .1289978 .31941224 .1349945 .32843019 .16499329 .3704834 .21299744 .39453126 .2649994 .39453126 .37199403 .39453126 .37199403 .24029541 .37199403 .20425415 .37199403 .17324829 .37199403 .11125183 .34399415 .06637573 .31698609 .024475098 .2749939 .0055389406 .23599243 .0055389406 .1769867 .0055389406 .10998535 .042434694 .085998538 .116256717 .08699036 .116256717 .09298706 .11425781 .099990848 .11425781 .11999512 .11425781 .14898682 .12724304 .14898682 .16325379 .14898682 .19424439 .1269989 .21224976 .099990848 .21224976 .07899475 .21224976 .050994874 .20025635 .050994874 .1602478 .050994874 .069366458 .1269989-.022460938 .23799134-.022460938 .35899354-.022460938 .46199037 .0753479 .46199037 .19924927 .46199037 .3204193 .37599183 .41952516 .2669983 .41952516 .21899414 .41952516 .16999817 .40351869 .1349945 .36747743V.56477358C.16499329 .5557709 .19599915 .55078127 .22698975 .55078127 .34999085 .55078127 .42199708 .6397705 .42199708 .652771 .42199708 .6617737 .41600038 .6657715 .41099549 .6657715 .40899659 .6657715 .40699769 .6657715 .397995 .6607666 .35099793 .6417694 .30499269 .6337738 .2630005 .6337738 .21998596 .6337738 .1749878 .6417694 .1289978 .6607666 .11898804 .6657715 .116989139 .6657715 .115997318 .6657715 .10398865 .6657715 .10398865 .655777 .10398865 .6387787V.3444519Z"/>
<path id="font_5_46" d="M.70700076 .33580018C.70700076 .52568057 .57199099 .6826172 .40098573 .6826172H.034988405V.6516113H.05899048C.13598633 .6516113 .13798523 .64060977 .13798523 .6046295V.07795715C.13798523 .041992189 .13598633 .0309906 .05899048 .0309906H.034988405V0H.40098573C.56900027 0 .70700076 .1479187 .70700076 .33580018M.6069946 .33580018C.6069946 .22486878 .58799746 .16490174 .5519867 .11593628 .5319977 .08895874 .47499085 .0309906 .37399293 .0309906H.272995C.22599793 .0309906 .22399903 .037994386 .22399903 .07096863V.6116333C.22399903 .64460757 .22599793 .6516113 .272995 .6516113H.37298585C.43499757 .6516113 .5039978 .6296234 .5549927 .55867007 .59799197 .49969483 .6069946 .41375733 .6069946 .33580018Z"/>
<path id="font_5_81" d="M.47099305 .21424866C.47099305 .34223939 .37098695 .4482422 .25 .4482422 .125 .4482422 .027999878 .3392334 .027999878 .21424866 .027999878 .085250858 .13198853-.0107421879 .24899292-.0107421879 .36999513-.0107421879 .47099305 .087249759 .47099305 .21424866M.3880005 .22224427C.3880005 .18624878 .3880005 .13224793 .3659973 .08824158 .34399415 .04324341 .2999878 .014251709 .25 .014251709 .20698548 .014251709 .16299439 .035247804 .13598633 .08125305 .11099243 .12524414 .11099243 .18624878 .11099243 .22224427 .11099243 .26124574 .11099243 .31523133 .1349945 .35923768 .1619873 .40522767 .20899964 .426239 .24899292 .426239 .29299928 .426239 .33599855 .40423585 .3619995 .36123658 .3880005 .3182373 .3880005 .26023866 .3880005 .22224427Z"/>
<path id="font_5_114" d="M.7029877 .3996582V.43066407C.68099978 .4286499 .6519928 .42765809 .6299896 .42765809L.5369873 .43066407V.3996582C.57299807 .39866639 .59498599 .38075257 .59498599 .35176087 .59498599 .34576417 .59498599 .34376527 .58999636 .33078004L.49899293 .07513428 .3999939 .35375978C.3959961 .36575318 .394989 .36775209 .394989 .37275697 .394989 .3996582 .43399049 .3996582 .45399476 .3996582V.43066407L.34999085 .42765809C.31999208 .42765809 .29100038 .4286499 .26098634 .43066407V.3996582C.2979889 .3996582 .31399537 .39767457 .32398988 .38476563 .32899476 .37875367 .33999635 .34877015 .34700013 .3297882L.26098634 .08811951 .1659851 .3547516C.16099549 .36676026 .16099549 .36875917 .16099549 .37275697 .16099549 .3996582 .19999695 .3996582 .21998596 .3996582V.43066407L.11099243 .42765809 .017990113 .43066407V.3996582C.067993167 .3996582 .07998657 .39668275 .09199524 .36476136L.21798706 .01121521C.22299195-.0027618409 .22599793-.0107421879 .23899842-.0107421879 .2519989-.0107421879 .2539978-.004760742 .25898744 .009216309L.3600006 .2918396 .46199037 .008224487C.46598817-.0027618409 .46899415-.0107421879 .48199464-.0107421879 .49499513-.0107421879 .49798585-.0017547608 .5019989 .008224487L.61898806 .3357849C.6369934 .38575746 .66799929 .39866639 .7029877 .3996582Z"/>
<path id="font_5_77" d="M.5349884 0V.0309906C.48298646 .0309906 .45799256 .0309906 .45700074 .061019899V.25221253C.45700074 .3383026 .45700074 .36932374 .42599488 .405365 .4119873 .42237855 .3789978 .4423828 .32099916 .4423828 .24798584 .4423828 .20098877 .39935304 .17298889 .33729554V.4423828L.03199768 .43066407V.3996582C.101989749 .3996582 .10998535 .39266969 .10998535 .34370423V.07595825C.10998535 .0309906 .09899902 .0309906 .03199768 .0309906V0L.14498902 .0029907227 .25698854 0V.0309906C.18998719 .0309906 .1789856 .0309906 .1789856 .07595825V.25978089C.1789856 .36431886 .25 .42037965 .31399537 .42037965 .3769989 .42037965 .3880005 .36631776 .3880005 .30926515V.076034549C.3880005 .0309906 .3769989 .0309906 .30999757 .0309906V0L.4229889 .0029907227 .5349884 0Z"/>
<path id="font_6_1" d="M.5069885 .24998474C.5069885 .3710022 .4099884 .4650116 .2919922 .4650116 .17199707 .4650116 .07699585 .36799623 .07699585 .25097657 .07699585 .1299591 .17399597 .035949708 .2919922 .035949708 .4119873 .035949708 .5069885 .13296509 .5069885 .24998474M.2919922 .08496094C.19799805 .08496094 .12599182 .16096497 .12599182 .24998474 .12599182 .34300233 .19999695 .41601563 .2919922 .41601563 .38598634 .41601563 .45799256 .33999635 .45799256 .25097657 .45799256 .15795899 .38398744 .08496094 .2919922 .08496094Z"/>
</defs>
<path transform="matrix(1.00003,0,0,-1.00002,36.27867,53.671758)" stroke-width=".3985" stroke-linecap="butt" stroke-miterlimit="10" stroke-linejoin="miter" fill="none" stroke="#0000ff" d="M5.10219-63.77773V46.77032C5.10219 49.58823 2.81789 51.87251 0 51.87251-2.81789 51.87251-5.10219 49.58823-5.10219 46.77032V-63.77773C-7.21552-66.59552-6.64456-70.593-3.82675-72.70634-1.00894-74.81967 2.98853-74.24872 5.10185-71.43091 6.88002-69.05998 6.79048-65.77504 4.88542-63.50475Z"/>
<path transform="matrix(1.00003,0,0,-1.00002,36.27867,53.671758)" stroke-width=".3985" stroke-linecap="butt" stroke-miterlimit="10" stroke-linejoin="miter" fill="none" stroke="#000000" d="M7.65332-59.52586H11.90518"/>
<path transform="matrix(1.00003,0,0,-1.00002,36.27867,53.671758)" stroke-width=".3985" stroke-linecap="butt" stroke-miterlimit="10" stroke-linejoin="miter" fill="none" stroke="#000000" d="M-7.65332-59.52586H-11.90518"/>
<path transform="matrix(1.00003,0,0,-1.00002,36.27867,53.671758)" stroke-width=".3985" stroke-linecap="butt" stroke-miterlimit="10" stroke-linejoin="miter" fill="none" stroke="#000000" d="M7.65332-55.27402H11.90518"/>
<path transform="matrix(1.00003,0,0,-1.00002,36.27867,53.671758)" stroke-width=".3985" stroke-linecap="butt" stroke-miterlimit="10" stroke-linejoin="miter" fill="none" stroke="#000000" d="M-7.65332-55.27402H-11.90518"/>
<path transform="matrix(1.00003,0,0,-1.00002,36.27867,53.671758)" stroke-width=".3985" stroke-linecap="butt" stroke-miterlimit="10" stroke-linejoin="miter" fill="none" stroke="#000000" d="M7.65332-51.02217H11.90518"/>
<path transform="matrix(1.00003,0,0,-1.00002,36.27867,53.671758)" stroke-width=".3985" stroke-linecap="butt" stroke-miterlimit="10" stroke-linejoin="miter" fill="none" stroke="#000000" d="M-7.65332-51.02217H-11.90518"/>
<path transform="matrix(1.00003,0,0,-1.00002,36.27867,53.671758)" stroke-width=".3985" stroke-linecap="butt" stroke-miterlimit="10" stroke-linejoin="miter" fill="none" stroke="#000000" d="M7.65332-46.77032H11.90518"/>
<path transform="matrix(1.00003,0,0,-1.00002,36.27867,53.671758)" stroke-width=".3985" stroke-linecap="butt" stroke-miterlimit="10" stroke-linejoin="miter" fill="none" stroke="#000000" d="M-7.65332-46.77032H-11.90518"/>
<path transform="matrix(1.00003,0,0,-1.00002,36.27867,53.671758)" stroke-width=".3985" stroke-linecap="butt" stroke-miterlimit="10" stroke-linejoin="miter" fill="none" stroke="#000000" d="M7.65332-42.51846H11.90518"/>
<path transform="matrix(1.00003,0,0,-1.00002,36.27867,53.671758)" stroke-width=".3985" stroke-linecap="butt" stroke-miterlimit="10" stroke-linejoin="miter" fill="none" stroke="#000000" d="M-7.65332-42.51846H-11.90518"/>
<path transform="matrix(1.00003,0,0,-1.00002,36.27867,53.671758)" stroke-width=".3985" stroke-linecap="butt" stroke-miterlimit="10" stroke-linejoin="miter" fill="none" stroke="#000000" d="M7.65332-38.26663H11.90518"/>
<path transform="matrix(1.00003,0,0,-1.00002,36.27867,53.671758)" stroke-width=".3985" stroke-linecap="butt" stroke-miterlimit="10" stroke-linejoin="miter" fill="none" stroke="#000000" d="M-7.65332-38.26663H-11.90518"/>
<path transform="matrix(1.00003,0,0,-1.00002,36.27867,53.671758)" stroke-width=".3985" stroke-linecap="butt" stroke-miterlimit="10" stroke-linejoin="miter" fill="none" stroke="#000000" d="M7.65332-34.01477H11.90518"/>
<path transform="matrix(1.00003,0,0,-1.00002,36.27867,53.671758)" stroke-width=".3985" stroke-linecap="butt" stroke-miterlimit="10" stroke-linejoin="miter" fill="none" stroke="#000000" d="M-7.65332-34.01477H-11.90518"/>
<path transform="matrix(1.00003,0,0,-1.00002,36.27867,53.671758)" stroke-width=".3985" stroke-linecap="butt" stroke-miterlimit="10" stroke-linejoin="miter" fill="none" stroke="#000000" d="M7.65332-29.76292H11.90518"/>
<path transform="matrix(1.00003,0,0,-1.00002,36.27867,53.671758)" stroke-width=".3985" stroke-linecap="butt" stroke-miterlimit="10" stroke-linejoin="miter" fill="none" stroke="#000000" d="M-7.65332-29.76292H-11.90518"/>
<path transform="matrix(1.00003,0,0,-1.00002,36.27867,53.671758)" stroke-width=".3985" stroke-linecap="butt" stroke-miterlimit="10" stroke-linejoin="miter" fill="none" stroke="#000000" d="M7.65332-25.51108H11.90518"/>
<path transform="matrix(1.00003,0,0,-1.00002,36.27867,53.671758)" stroke-width=".3985" stroke-linecap="butt" stroke-miterlimit="10" stroke-linejoin="miter" fill="none" stroke="#000000" d="M-7.65332-25.51108H-11.90518"/>
<path transform="matrix(1.00003,0,0,-1.00002,36.27867,53.671758)" stroke-width=".3985" stroke-linecap="butt" stroke-miterlimit="10" stroke-linejoin="miter" fill="none" stroke="#000000" d="M7.65332-21.25923H11.90518"/>
<path transform="matrix(1.00003,0,0,-1.00002,36.27867,53.671758)" stroke-width=".3985" stroke-linecap="butt" stroke-miterlimit="10" stroke-linejoin="miter" fill="none" stroke="#000000" d="M-7.65332-21.25923H-11.90518"/>
<path transform="matrix(1.00003,0,0,-1.00002,36.27867,53.671758)" stroke-width=".3985" stroke-linecap="butt" stroke-miterlimit="10" stroke-linejoin="miter" fill="none" stroke="#000000" d="M7.65332-17.00737H11.90518"/>
<path transform="matrix(1.00003,0,0,-1.00002,36.27867,53.671758)" stroke-width=".3985" stroke-linecap="butt" stroke-miterlimit="10" stroke-linejoin="miter" fill="none" stroke="#000000" d="M-7.65332-17.00737H-11.90518"/>
<path transform="matrix(1.00003,0,0,-1.00002,36.27867,53.671758)" stroke-width=".3985" stroke-linecap="butt" stroke-miterlimit="10" stroke-linejoin="miter" fill="none" stroke="#000000" d="M7.65332-12.75554H11.90518"/>
<path transform="matrix(1.00003,0,0,-1.00002,36.27867,53.671758)" stroke-width=".3985" stroke-linecap="butt" stroke-miterlimit="10" stroke-linejoin="miter" fill="none" stroke="#000000" d="M-7.65332-12.75554H-11.90518"/>
<path transform="matrix(1.00003,0,0,-1.00002,36.27867,53.671758)" stroke-width=".3985" stroke-linecap="butt" stroke-miterlimit="10" stroke-linejoin="miter" fill="none" stroke="#000000" d="M7.65332-8.50368H11.90518"/>
<path transform="matrix(1.00003,0,0,-1.00002,36.27867,53.671758)" stroke-width=".3985" stroke-linecap="butt" stroke-miterlimit="10" stroke-linejoin="miter" fill="none" stroke="#000000" d="M-7.65332-8.50368H-11.90518"/>
<path transform="matrix(1.00003,0,0,-1.00002,36.27867,53.671758)" stroke-width=".3985" stroke-linecap="butt" stroke-miterlimit="10" stroke-linejoin="miter" fill="none" stroke="#000000" d="M7.65332-4.25183H11.90518"/>
<path transform="matrix(1.00003,0,0,-1.00002,36.27867,53.671758)" stroke-width=".3985" stroke-linecap="butt" stroke-miterlimit="10" stroke-linejoin="miter" fill="none" stroke="#000000" d="M-7.65332-4.25183H-11.90518"/>
<path transform="matrix(1.00003,0,0,-1.00002,36.27867,53.671758)" stroke-width=".3985" stroke-linecap="butt" stroke-miterlimit="10" stroke-linejoin="miter" fill="none" stroke="#000000" d="M7.65332 0H11.90518"/>
<path transform="matrix(1.00003,0,0,-1.00002,36.27867,53.671758)" stroke-width=".3985" stroke-linecap="butt" stroke-miterlimit="10" stroke-linejoin="miter" fill="none" stroke="#000000" d="M-7.65332 0H-11.90518"/>
<path transform="matrix(1.00003,0,0,-1.00002,36.27867,53.671758)" stroke-width=".3985" stroke-linecap="butt" stroke-miterlimit="10" stroke-linejoin="miter" fill="none" stroke="#000000" d="M7.65332 4.25183H11.90518"/>
<path transform="matrix(1.00003,0,0,-1.00002,36.27867,53.671758)" stroke-width=".3985" stroke-linecap="butt" stroke-miterlimit="10" stroke-linejoin="miter" fill="none" stroke="#000000" d="M-7.65332 4.25183H-11.90518"/>
<path transform="matrix(1.00003,0,0,-1.00002,36.27867,53.671758)" stroke-width=".3985" stroke-linecap="butt" stroke-miterlimit="10" stroke-linejoin="miter" fill="none" stroke="#000000" d="M7.65332 8.50368H11.90518"/>
<path transform="matrix(1.00003,0,0,-1.00002,36.27867,53.671758)" stroke-width=".3985" stroke-linecap="butt" stroke-miterlimit="10" stroke-linejoin="miter" fill="none" stroke="#000000" d="M-7.65332 8.50368H-11.90518"/>
<path transform="matrix(1.00003,0,0,-1.00002,36.27867,53.671758)" stroke-width=".3985" stroke-linecap="butt" stroke-miterlimit="10" stroke-linejoin="miter" fill="none" stroke="#000000" d="M7.65332 12.75554H11.90518"/>
<path transform="matrix(1.00003,0,0,-1.00002,36.27867,53.671758)" stroke-width=".3985" stroke-linecap="butt" stroke-miterlimit="10" stroke-linejoin="miter" fill="none" stroke="#000000" d="M-7.65332 12.75554H-11.90518"/>
<path transform="matrix(1.00003,0,0,-1.00002,36.27867,53.671758)" stroke-width=".3985" stroke-linecap="butt" stroke-miterlimit="10" stroke-linejoin="miter" fill="none" stroke="#000000" d="M7.65332 17.00737H11.90518"/>
<path transform="matrix(1.00003,0,0,-1.00002,36.27867,53.671758)" stroke-width=".3985" stroke-linecap="butt" stroke-miterlimit="10" stroke-linejoin="miter" fill="none" stroke="#000000" d="M-7.65332 17.00737H-11.90518"/>
<path transform="matrix(1.00003,0,0,-1.00002,36.27867,53.671758)" stroke-width=".3985" stroke-linecap="butt" stroke-miterlimit="10" stroke-linejoin="miter" fill="none" stroke="#000000" d="M7.65332 21.25923H11.90518"/>
<path transform="matrix(1.00003,0,0,-1.00002,36.27867,53.671758)" stroke-width=".3985" stroke-linecap="butt" stroke-miterlimit="10" stroke-linejoin="miter" fill="none" stroke="#000000" d="M-7.65332 21.25923H-11.90518"/>
<path transform="matrix(1.00003,0,0,-1.00002,36.27867,53.671758)" stroke-width=".3985" stroke-linecap="butt" stroke-miterlimit="10" stroke-linejoin="miter" fill="none" stroke="#000000" d="M7.65332 25.51108H11.90518"/>
<path transform="matrix(1.00003,0,0,-1.00002,36.27867,53.671758)" stroke-width=".3985" stroke-linecap="butt" stroke-miterlimit="10" stroke-linejoin="miter" fill="none" stroke="#000000" d="M-7.65332 25.51108H-11.90518"/>
<path transform="matrix(1.00003,0,0,-1.00002,36.27867,53.671758)" stroke-width=".3985" stroke-linecap="butt" stroke-miterlimit="10" stroke-linejoin="miter" fill="none" stroke="#000000" d="M7.65332 29.76292H11.90518"/>
<path transform="matrix(1.00003,0,0,-1.00002,36.27867,53.671758)" stroke-width=".3985" stroke-linecap="butt" stroke-miterlimit="10" stroke-linejoin="miter" fill="none" stroke="#000000" d="M-7.65332 29.76292H-11.90518"/>
<path transform="matrix(1.00003,0,0,-1.00002,36.27867,53.671758)" stroke-width=".3985" stroke-linecap="butt" stroke-miterlimit="10" stroke-linejoin="miter" fill="none" stroke="#000000" d="M7.65332 34.01477H11.90518"/>
<path transform="matrix(1.00003,0,0,-1.00002,36.27867,53.671758)" stroke-width=".3985" stroke-linecap="butt" stroke-miterlimit="10" stroke-linejoin="miter" fill="none" stroke="#000000" d="M-7.65332 34.01477H-11.90518"/>
<path transform="matrix(1.00003,0,0,-1.00002,36.27867,53.671758)" stroke-width=".3985" stroke-linecap="butt" stroke-miterlimit="10" stroke-linejoin="miter" fill="none" stroke="#000000" d="M7.65332 38.26663H11.90518"/>
<path transform="matrix(1.00003,0,0,-1.00002,36.27867,53.671758)" stroke-width=".3985" stroke-linecap="butt" stroke-miterlimit="10" stroke-linejoin="miter" fill="none" stroke="#000000" d="M-7.65332 38.26663H-11.90518"/>
<path transform="matrix(1.00003,0,0,-1.00002,36.27867,53.671758)" stroke-width=".3985" stroke-linecap="butt" stroke-miterlimit="10" stroke-linejoin="miter" fill="none" stroke="#000000" d="M7.65332 42.51846H11.90518"/>
<path transform="matrix(1.00003,0,0,-1.00002,36.27867,53.671758)" stroke-width=".3985" stroke-linecap="butt" stroke-miterlimit="10" stroke-linejoin="miter" fill="none" stroke="#000000" d="M-7.65332 42.51846H-11.90518"/>
<path transform="matrix(1.00003,0,0,-1.00002,36.27867,53.671758)" stroke-width=".3985" stroke-linecap="butt" stroke-miterlimit="10" stroke-linejoin="miter" fill="none" stroke="#000000" d="M7.65332-42.51846H16.15701"/>
<use data-text="&#x2212;" xlink:href="#font_1_1" transform="matrix(9.962899,0,0,-9.962799,55.95626,98.986667)"/>
<use data-text="1" xlink:href="#font_2_2" transform="matrix(9.962899,0,0,-9.962799,63.70449,98.986667)"/>
<use data-text="0" xlink:href="#font_2_1" transform="matrix(9.962899,0,0,-9.962799,68.685939,98.986667)"/>
<path transform="matrix(1.00003,0,0,-1.00002,36.27867,53.671758)" stroke-width=".3985" stroke-linecap="butt" stroke-miterlimit="10" stroke-linejoin="miter" fill="none" stroke="#000000" d="M-7.65332-42.51846H-16.15701"/>
<use data-text="&#x2212;" xlink:href="#font_3_1" transform="matrix(8.966669,0,0,-8.966579,.21759033,98.66566)"/>
<use data-text="1" xlink:href="#font_4_2" transform="matrix(8.966669,0,0,-8.966579,7.3848116,98.66566)"/>
<use data-text="0" xlink:href="#font_4_1" transform="matrix(8.966669,0,0,-8.966579,11.984711,98.66566)"/>
<path transform="matrix(1.00003,0,0,-1.00002,36.27867,53.671758)" stroke-width=".3985" stroke-linecap="butt" stroke-miterlimit="10" stroke-linejoin="miter" fill="none" stroke="#000000" d="M7.65332-21.25923H16.15701"/>
<use data-text="&#x2212;" xlink:href="#font_1_1" transform="matrix(9.962899,0,0,-9.962799,55.95626,77.72624)"/>
<use data-text="5" xlink:href="#font_2_3" transform="matrix(9.962899,0,0,-9.962799,63.70449,77.72624)"/>
<path transform="matrix(1.00003,0,0,-1.00002,36.27867,53.671758)" stroke-width=".3985" stroke-linecap="butt" stroke-miterlimit="10" stroke-linejoin="miter" fill="none" stroke="#000000" d="M-7.65332-21.25923H-16.15701"/>
<use data-text="&#x2212;" xlink:href="#font_3_1" transform="matrix(8.966669,0,0,-8.966579,4.8257296,77.40523)"/>
<use data-text="5" xlink:href="#font_4_3" transform="matrix(8.966669,0,0,-8.966579,11.99295,77.40523)"/>
<path transform="matrix(1.00003,0,0,-1.00002,36.27867,53.671758)" stroke-width=".3985" stroke-linecap="butt" stroke-miterlimit="10" stroke-linejoin="miter" fill="none" stroke="#000000" d="M7.65332 0H16.15701"/>
<use data-text="0" xlink:href="#font_2_1" transform="matrix(9.962899,0,0,-9.962799,55.95626,56.88182)"/>
<path transform="matrix(1.00003,0,0,-1.00002,36.27867,53.671758)" stroke-width=".3985" stroke-linecap="butt" stroke-miterlimit="10" stroke-linejoin="miter" fill="none" stroke="#000000" d="M-7.65332 0H-16.15701"/>
<use data-text="0" xlink:href="#font_4_1" transform="matrix(8.966669,0,0,-8.966579,11.992943,56.560815)"/>
<path transform="matrix(1.00003,0,0,-1.00002,36.27867,53.671758)" stroke-width=".3985" stroke-linecap="butt" stroke-miterlimit="10" stroke-linejoin="miter" fill="none" stroke="#000000" d="M7.65332 21.25923H16.15701"/>
<use data-text="5" xlink:href="#font_2_3" transform="matrix(9.962899,0,0,-9.962799,55.95626,35.622396)"/>
<path transform="matrix(1.00003,0,0,-1.00002,36.27867,53.671758)" stroke-width=".3985" stroke-linecap="butt" stroke-miterlimit="10" stroke-linejoin="miter" fill="none" stroke="#000000" d="M-7.65332 21.25923H-16.15701"/>
<use data-text="5" xlink:href="#font_4_3" transform="matrix(8.966669,0,0,-8.966579,11.992943,35.301389)"/>
<path transform="matrix(1.00003,0,0,-1.00002,36.27867,53.671758)" stroke-width=".3985" stroke-linecap="butt" stroke-miterlimit="10" stroke-linejoin="miter" fill="none" stroke="#000000" d="M7.65332 42.51846H16.15701"/>
<use data-text="1" xlink:href="#font_2_2" transform="matrix(9.962899,0,0,-9.962799,55.95626,14.362972)"/>
<use data-text="0" xlink:href="#font_2_1" transform="matrix(9.962899,0,0,-9.962799,60.937715,14.362972)"/>
<path transform="matrix(1.00003,0,0,-1.00002,36.27867,53.671758)" stroke-width=".3985" stroke-linecap="butt" stroke-miterlimit="10" stroke-linejoin="miter" fill="none" stroke="#000000" d="M-7.65332 42.51846H-16.15701"/>
<use data-text="1" xlink:href="#font_4_2" transform="matrix(8.966669,0,0,-8.966579,7.385803,14.041962)"/>
<use data-text="0" xlink:href="#font_4_1" transform="matrix(8.966669,0,0,-8.966579,11.98571,14.041962)"/>
<path transform="matrix(1.00003,0,0,-1.00002,36.27867,53.671758)" d="M4.25183-68.02956C4.25183-65.6813 2.34824-63.77773 0-63.77773-2.34824-63.77773-4.25183-65.6813-4.25183-68.02956-4.25183-70.3778-2.34824-72.2814 0-72.2814 2.34824-72.2814 4.25183-70.3778 4.25183-68.02956ZM0-68.02956" fill="#ec008c"/>
<path transform="matrix(1.00003,0,0,-1.00002,36.27867,53.671758)" stroke-width=".3985" stroke-linecap="butt" stroke-miterlimit="10" stroke-linejoin="miter" fill="none" stroke="#ec008c" d="M4.25183-68.02956C4.25183-65.6813 2.34824-63.77773 0-63.77773-2.34824-63.77773-4.25183-65.6813-4.25183-68.02956-4.25183-70.3778-2.34824-72.2814 0-72.2814 2.34824-72.2814 4.25183-70.3778 4.25183-68.02956ZM0-68.02956"/>
<path transform="matrix(1.00003,0,0,-1.00002,36.27867,53.671758)" d="M-2.97627-68.02956V21.25923H2.97627V-68.02956ZM2.97627 21.25923" fill="#ec008c"/>
<path transform="matrix(1.00003,0,0,-1.00002,36.27867,53.671758)" stroke-width=".3985" stroke-linecap="butt" stroke-miterlimit="10" stroke-linejoin="miter" fill="none" stroke="#ec008c" d="M-2.97627-68.02956V21.25923H2.97627V-68.02956ZM2.97627 21.25923"/>
<path transform="matrix(1.00003,0,0,-1.00002,36.27867,53.671758)" stroke-width=".3985" stroke-linecap="butt" stroke-miterlimit="10" stroke-linejoin="miter" fill="none" stroke="#000000" d="M29.76292 21.25923H42.51846V-25.51108H18.00363"/>
<path transform="matrix(-1.00003,-0,0,1.00002,54.282846,79.18335)" d="M.797 0C-.19925 .19925-1.19551 .59775-2.39102 1.29512-1.19551 .3985-1.19551-.3985-2.39102-1.29512-1.19551-.59775-.19925-.19925 .797 0Z"/>
<path transform="matrix(-1.00003,-0,0,1.00002,54.282846,79.18335)" stroke-width=".3985" stroke-linecap="butt" stroke-linejoin="round" fill="none" stroke="#000000" d="M.797 0C-.19925 .19925-1.19551 .59775-2.39102 1.29512-1.19551 .3985-1.19551-.3985-2.39102-1.29512-1.19551-.59775-.19925-.19925 .797 0Z"/>
<use data-text="D" xlink:href="#font_5_46" transform="matrix(9.962899,0,0,-9.962799,82.318058,53.222749)"/>
<use data-text="o" xlink:href="#font_5_81" transform="matrix(9.962899,0,0,-9.962799,89.92972,53.222749)"/>
<use data-text="w" xlink:href="#font_5_114" transform="matrix(9.962899,0,0,-9.962799,94.6322,53.222749)"/>
<use data-text="n" xlink:href="#font_5_77" transform="matrix(9.962899,0,0,-9.962799,101.82541,53.222749)"/>
<use data-text="1" xlink:href="#font_2_2" transform="matrix(9.962899,0,0,-9.962799,87.569217,65.177989)"/>
<use data-text="1" xlink:href="#font_2_2" transform="matrix(9.962899,0,0,-9.962799,92.55066,65.177989)"/>
<use data-text="&#x25e6;" xlink:href="#font_6_1" transform="matrix(6.9740097,0,0,-6.97394,97.53252,61.562913)"/>
</svg>
