<svg xmlns="http://www.w3.org/2000/svg" xmlns:xlink="http://www.w3.org/1999/xlink" version="1.1" width="97" height="255" viewBox="0 0 97 255">
<defs>
<path id="font_1_1" d="M.6589966 .23046875C.6759949 .23046875 .69400027 .23046875 .69400027 .25045777 .69400027 .27046205 .6759949 .27046205 .6589966 .27046205H.117996219C.100997928 .27046205 .08299255 .27046205 .08299255 .25045777 .08299255 .23046875 .100997928 .23046875 .117996219 .23046875H.6589966Z"/>
<path id="font_2_3" d="M.44898988 .20022583C.44898988 .3193512 .36698915 .41944886 .25898744 .41944886 .21099854 .41944886 .16799927 .40345765 .13198853 .36842347V.5637665C.1519928 .5577698 .18499756 .55078127 .21699524 .55078127 .33999635 .55078127 .4099884 .6417694 .4099884 .6547699 .4099884 .6607666 .40699769 .6657715 .3999939 .6657715 .39898683 .6657715 .39698792 .6657715 .3919983 .66278079 .37199403 .6537781 .32299806 .6337738 .2559967 .6337738 .21598816 .6337738 .16999817 .6407776 .12298584 .6617737 .114990238 .66477969 .11299133 .66477969 .11099243 .66477969 .100997928 .66477969 .100997928 .6567688 .100997928 .6407776V.34439088C.100997928 .32637025 .100997928 .31835938 .114990238 .31835938 .12199402 .31835938 .12399292 .32136537 .12799073 .32736207 .13899231 .3433838 .17599488 .39746095 .25698854 .39746095 .30899049 .39746095 .33399964 .35139466 .34199525 .33337403 .35798646 .29632569 .3600006 .25727845 .3600006 .20722962 .3600006 .17222595 .3600006 .11222839 .33599855 .07035828 .31199647 .031463624 .2749939 .0055389406 .22898865 .0055389406 .1559906 .0055389406 .09899902 .058380128 .08198547 .11723328 .084991458 .1162262 .08799744 .115234378 .09899902 .115234378 .13198853 .115234378 .14898682 .14022827 .14898682 .16423035 .14898682 .18823242 .13198853 .21322632 .09899902 .21322632 .084991458 .21322632 .049987794 .20622254 .049987794 .16023255 .049987794 .07434082 .11898804-.022460938 .23098755-.022460938 .34700013-.022460938 .44898988 .073349 .44898988 .20022583Z"/>
<path id="font_3_1" d="M.6749878 .22944641C.69299319 .22944641 .71199038 .22944641 .71199038 .25144959 .71199038 .27246095 .69200137 .27246095 .6749878 .27246095H.12298584C.10598755 .27246095 .085998538 .27246095 .085998538 .25144959 .085998538 .22944641 .10499573 .22944641 .12298584 .22944641H.6749878Z"/>
<path id="font_4_3" d="M.10398865 .3444519C.10398865 .32641603 .10398865 .31539918 .117996219 .31539918 .12599182 .31539918 .1289978 .31941224 .1349945 .32843019 .16499329 .3704834 .21299744 .39453126 .2649994 .39453126 .37199403 .39453126 .37199403 .24029541 .37199403 .20425415 .37199403 .17324829 .37199403 .11125183 .34399415 .06637573 .31698609 .024475098 .2749939 .0055389406 .23599243 .0055389406 .1769867 .0055389406 .10998535 .042434694 .085998538 .116256717 .08699036 .116256717 .09298706 .11425781 .099990848 .11425781 .11999512 .11425781 .14898682 .12724304 .14898682 .16325379 .14898682 .19424439 .1269989 .21224976 .099990848 .21224976 .07899475 .21224976 .050994874 .20025635 .050994874 .1602478 .050994874 .069366458 .1269989-.022460938 .23799134-.022460938 .35899354-.022460938 .46199037 .0753479 .46199037 .19924927 .46199037 .3204193 .37599183 .41952516 .2669983 .41952516 .21899414 .41952516 .16999817 .40351869 .1349945 .36747743V.56477358C.16499329 .5557709 .19599915 .55078127 .22698975 .55078127 .34999085 .55078127 .42199708 .6397705 .42199708 .652771 .42199708 .6617737 .41600038 .6657715 .41099549 .6657715 .40899659 .6657715 .40699769 .6657715 .397995 .6607666 .35099793 .6417694 .30499269 .6337738 .2630005 .6337738 .21998596 .6337738 .1749878 .6417694 .1289978 .6607666 .11898804 .6657715 .116989139 .6657715 .115997318 .6657715 .10398865 .6657715 .10398865 .655777 .10398865 .6387787V.3444519Z"/>
<path id="font_2_1" d="M.45999146 .31976319C.45999146 .39982606 .45498658 .47988893 .41999818 .5539398 .37399293 .65000918 .2919922 .6660156 .25 .6660156 .18998719 .6660156 .116989139 .64001467 .07598877 .54693606 .04399109 .47789 .038986207 .39982606 .038986207 .31976319 .038986207 .24472046 .042999269 .15464783 .083999637 .07859802 .1269989-.0024719239 .19999695-.022460938 .24899292-.022460938 .30299378-.022460938 .3789978-.0014648438 .4229889 .09359741 .45498658 .16265869 .45999146 .2407074 .45999146 .31976319M.24899292-.00047302247C.20999146-.00047302247 .15098572 .024551392 .1329956 .12062073 .12199402 .18066406 .12199402 .2727356 .12199402 .3317871 .12199402 .39582826 .12199402 .46188355 .12998963 .5159149 .14898682 .63500979 .22399903 .64401248 .24899292 .64401248 .28199769 .64401248 .34799195 .6259918 .36698915 .52693179 .3769989 .47088624 .3769989 .39482118 .3769989 .3317871 .3769989 .25672914 .3769989 .18867493 .3659973 .12461853 .35099793 .029556275 .2939911-.00047302247 .24899292-.00047302247Z"/>
<path id="font_4_1" d="M.47299195 .31976319C.47299195 .38682557 .46998597 .47288514 .43499757 .5479431 .3909912 .64201357 .31498719 .6660156 .25698854 .6660156 .19699097 .6660156 .12098694 .64201357 .07699585 .5459442 .04499817 .47688294 .039993287 .39582826 .039993287 .31976319 .039993287 .25471498 .041992189 .15765381 .084991458 .07858276 .13198853-.0064697267 .20999146-.022460938 .2559967-.022460938 .32099916-.022460938 .394989 .0055389406 .43699647 .097595218 .46699525 .1646576 .47299195 .23971558 .47299195 .31976319M.25698854 .002532959C.22698975 .002532959 .15499878 .016540528 .13598633 .12962342 .12599182 .18867493 .12599182 .2747345 .12599182 .33177186 .12599182 .39982606 .12599182 .47888185 .13798523 .53393557 .1579895 .6230011 .22200012 .64100649 .2559967 .64100649 .2939911 .64100649 .35699464 .62098696 .37599183 .5279236 .3869934 .47288514 .3869934 .39482118 .3869934 .33177186 .3869934 .2697296 .3869934 .18566895 .3769989 .12661743 .35598756 .012542725 .28199769 .002532959 .25698854 .002532959Z"/>
<path id="font_2_2" d="M.2939911 .64004519C.2939911 .66400149 .2939911 .6660156 .2709961 .6660156 .20899964 .60227969 .12098694 .60227969 .08898926 .60227969V.57128909C.10899353 .57128909 .16799927 .57128909 .21998596 .5972748V.07902527C.21998596 .042999269 .21699524 .0309906 .1269989 .0309906H.09498596V0C.12998963 .0029907227 .21699524 .0029907227 .25698854 .0029907227 .29699708 .0029907227 .38398744 .0029907227 .4189911 0V.0309906H.3869934C.29699708 .0309906 .2939911 .041992189 .2939911 .07902527V.64004519Z"/>
<path id="font_4_2" d="M.3039856 .6392822C.3039856 .6642761 .30299378 .666275 .27799989 .666275 .21598816 .60227969 .12399292 .60227969 .09298706 .60227969V.57128909C.11199951 .57128909 .17298889 .57128909 .22698975 .5972748V.08001709C.22698975 .042999269 .22399903 .0309906 .1309967 .0309906H.09899902V0C.1349945 .0029907227 .22399903 .0029907227 .2649994 .0029907227 .30599977 .0029907227 .3959961 .0029907227 .43199159 0V.0309906H.3999939C.30699159 .0309906 .3039856 .042999269 .3039856 .08001709V.6392822Z"/>
</defs>
<path transform="matrix(1.00002,0,0,-1.00003,47.827684,148.07297)" stroke-width=".3985" stroke-linecap="butt" stroke-miterlimit="10" stroke-linejoin="miter" fill="none" stroke="#0000ff" d="M10.20491-85.04128V136.06606C10.20491 141.70215 5.63608 146.27098 0 146.27098-5.63608 146.27098-10.20491 141.70215-10.20491 136.06606V-85.04128C-14.4318-90.67719-13.28983-98.67256-7.65392-102.89944-2.018-107.12633 5.97737-105.98436 10.20424-100.34845 13.76076-95.60634 13.5817-89.03613 9.77135-84.49532Z"/>
<path transform="matrix(1.00002,0,0,-1.00003,47.827684,148.07297)" stroke-width=".3985" stroke-linecap="butt" stroke-miterlimit="10" stroke-linejoin="miter" fill="none" stroke="#000000" d="M15.30745-76.53716H23.81157"/>
<path transform="matrix(1.00002,0,0,-1.00003,47.827684,148.07297)" stroke-width=".3985" stroke-linecap="butt" stroke-miterlimit="10" stroke-linejoin="miter" fill="none" stroke="#000000" d="M-15.30745-76.53716H-23.81157"/>
<path transform="matrix(1.00002,0,0,-1.00003,47.827684,148.07297)" stroke-width=".3985" stroke-linecap="butt" stroke-miterlimit="10" stroke-linejoin="miter" fill="none" stroke="#000000" d="M15.30745-68.03302H23.81157"/>
<path transform="matrix(1.00002,0,0,-1.00003,47.827684,148.07297)" stroke-width=".3985" stroke-linecap="butt" stroke-miterlimit="10" stroke-linejoin="miter" fill="none" stroke="#000000" d="M-15.30745-68.03302H-23.81157"/>
<path transform="matrix(1.00002,0,0,-1.00003,47.827684,148.07297)" stroke-width=".3985" stroke-linecap="butt" stroke-miterlimit="10" stroke-linejoin="miter" fill="none" stroke="#000000" d="M15.30745-59.52888H23.81157"/>
<path transform="matrix(1.00002,0,0,-1.00003,47.827684,148.07297)" stroke-width=".3985" stroke-linecap="butt" stroke-miterlimit="10" stroke-linejoin="miter" fill="none" stroke="#000000" d="M-15.30745-59.52888H-23.81157"/>
<path transform="matrix(1.00002,0,0,-1.00003,47.827684,148.07297)" stroke-width=".3985" stroke-linecap="butt" stroke-miterlimit="10" stroke-linejoin="miter" fill="none" stroke="#000000" d="M15.30745-51.02477H23.81157"/>
<path transform="matrix(1.00002,0,0,-1.00003,47.827684,148.07297)" stroke-width=".3985" stroke-linecap="butt" stroke-miterlimit="10" stroke-linejoin="miter" fill="none" stroke="#000000" d="M-15.30745-51.02477H-23.81157"/>
<path transform="matrix(1.00002,0,0,-1.00003,47.827684,148.07297)" stroke-width=".3985" stroke-linecap="butt" stroke-miterlimit="10" stroke-linejoin="miter" fill="none" stroke="#000000" d="M15.30745-42.52063H23.81157"/>
<path transform="matrix(1.00002,0,0,-1.00003,47.827684,148.07297)" stroke-width=".3985" stroke-linecap="butt" stroke-miterlimit="10" stroke-linejoin="miter" fill="none" stroke="#000000" d="M-15.30745-42.52063H-23.81157"/>
<path transform="matrix(1.00002,0,0,-1.00003,47.827684,148.07297)" stroke-width=".3985" stroke-linecap="butt" stroke-miterlimit="10" stroke-linejoin="miter" fill="none" stroke="#000000" d="M15.30745-34.0165H23.81157"/>
<path transform="matrix(1.00002,0,0,-1.00003,47.827684,148.07297)" stroke-width=".3985" stroke-linecap="butt" stroke-miterlimit="10" stroke-linejoin="miter" fill="none" stroke="#000000" d="M-15.30745-34.0165H-23.81157"/>
<path transform="matrix(1.00002,0,0,-1.00003,47.827684,148.07297)" stroke-width=".3985" stroke-linecap="butt" stroke-miterlimit="10" stroke-linejoin="miter" fill="none" stroke="#000000" d="M15.30745-25.51237H23.81157"/>
<path transform="matrix(1.00002,0,0,-1.00003,47.827684,148.07297)" stroke-width=".3985" stroke-linecap="butt" stroke-miterlimit="10" stroke-linejoin="miter" fill="none" stroke="#000000" d="M-15.30745-25.51237H-23.81157"/>
<path transform="matrix(1.00002,0,0,-1.00003,47.827684,148.07297)" stroke-width=".3985" stroke-linecap="butt" stroke-miterlimit="10" stroke-linejoin="miter" fill="none" stroke="#000000" d="M15.30745-17.00824H23.81157"/>
<path transform="matrix(1.00002,0,0,-1.00003,47.827684,148.07297)" stroke-width=".3985" stroke-linecap="butt" stroke-miterlimit="10" stroke-linejoin="miter" fill="none" stroke="#000000" d="M-15.30745-17.00824H-23.81157"/>
<path transform="matrix(1.00002,0,0,-1.00003,47.827684,148.07297)" stroke-width=".3985" stroke-linecap="butt" stroke-miterlimit="10" stroke-linejoin="miter" fill="none" stroke="#000000" d="M15.30745-8.50412H23.81157"/>
<path transform="matrix(1.00002,0,0,-1.00003,47.827684,148.07297)" stroke-width=".3985" stroke-linecap="butt" stroke-miterlimit="10" stroke-linejoin="miter" fill="none" stroke="#000000" d="M-15.30745-8.50412H-23.81157"/>
<path transform="matrix(1.00002,0,0,-1.00003,47.827684,148.07297)" stroke-width=".3985" stroke-linecap="butt" stroke-miterlimit="10" stroke-linejoin="miter" fill="none" stroke="#000000" d="M15.30745 0H23.81157"/>
<path transform="matrix(1.00002,0,0,-1.00003,47.827684,148.07297)" stroke-width=".3985" stroke-linecap="butt" stroke-miterlimit="10" stroke-linejoin="miter" fill="none" stroke="#000000" d="M-15.30745 0H-23.81157"/>
<path transform="matrix(1.00002,0,0,-1.00003,47.827684,148.07297)" stroke-width=".3985" stroke-linecap="butt" stroke-miterlimit="10" stroke-linejoin="miter" fill="none" stroke="#000000" d="M15.30745 8.50412H23.81157"/>
<path transform="matrix(1.00002,0,0,-1.00003,47.827684,148.07297)" stroke-width=".3985" stroke-linecap="butt" stroke-miterlimit="10" stroke-linejoin="miter" fill="none" stroke="#000000" d="M-15.30745 8.50412H-23.81157"/>
<path transform="matrix(1.00002,0,0,-1.00003,47.827684,148.07297)" stroke-width=".3985" stroke-linecap="butt" stroke-miterlimit="10" stroke-linejoin="miter" fill="none" stroke="#000000" d="M15.30745 17.00824H23.81157"/>
<path transform="matrix(1.00002,0,0,-1.00003,47.827684,148.07297)" stroke-width=".3985" stroke-linecap="butt" stroke-miterlimit="10" stroke-linejoin="miter" fill="none" stroke="#000000" d="M-15.30745 17.00824H-23.81157"/>
<path transform="matrix(1.00002,0,0,-1.00003,47.827684,148.07297)" stroke-width=".3985" stroke-linecap="butt" stroke-miterlimit="10" stroke-linejoin="miter" fill="none" stroke="#000000" d="M15.30745 25.51237H23.81157"/>
<path transform="matrix(1.00002,0,0,-1.00003,47.827684,148.07297)" stroke-width=".3985" stroke-linecap="butt" stroke-miterlimit="10" stroke-linejoin="miter" fill="none" stroke="#000000" d="M-15.30745 25.51237H-23.81157"/>
<path transform="matrix(1.00002,0,0,-1.00003,47.827684,148.07297)" stroke-width=".3985" stroke-linecap="butt" stroke-miterlimit="10" stroke-linejoin="miter" fill="none" stroke="#000000" d="M15.30745 34.0165H23.81157"/>
<path transform="matrix(1.00002,0,0,-1.00003,47.827684,148.07297)" stroke-width=".3985" stroke-linecap="butt" stroke-miterlimit="10" stroke-linejoin="miter" fill="none" stroke="#000000" d="M-15.30745 34.0165H-23.81157"/>
<path transform="matrix(1.00002,0,0,-1.00003,47.827684,148.07297)" stroke-width=".3985" stroke-linecap="butt" stroke-miterlimit="10" stroke-linejoin="miter" fill="none" stroke="#000000" d="M15.30745 42.52063H23.81157"/>
<path transform="matrix(1.00002,0,0,-1.00003,47.827684,148.07297)" stroke-width=".3985" stroke-linecap="butt" stroke-miterlimit="10" stroke-linejoin="miter" fill="none" stroke="#000000" d="M-15.30745 42.52063H-23.81157"/>
<path transform="matrix(1.00002,0,0,-1.00003,47.827684,148.07297)" stroke-width=".3985" stroke-linecap="butt" stroke-miterlimit="10" stroke-linejoin="miter" fill="none" stroke="#000000" d="M15.30745 51.02477H23.81157"/>
<path transform="matrix(1.00002,0,0,-1.00003,47.827684,148.07297)" stroke-width=".3985" stroke-linecap="butt" stroke-miterlimit="10" stroke-linejoin="miter" fill="none" stroke="#000000" d="M-15.30745 51.02477H-23.81157"/>
<path transform="matrix(1.00002,0,0,-1.00003,47.827684,148.07297)" stroke-width=".3985" stroke-linecap="butt" stroke-miterlimit="10" stroke-linejoin="miter" fill="none" stroke="#000000" d="M15.30745 59.52888H23.81157"/>
<path transform="matrix(1.00002,0,0,-1.00003,47.827684,148.07297)" stroke-width=".3985" stroke-linecap="butt" stroke-miterlimit="10" stroke-linejoin="miter" fill="none" stroke="#000000" d="M-15.30745 59.52888H-23.81157"/>
<path transform="matrix(1.00002,0,0,-1.00003,47.827684,148.07297)" stroke-width=".3985" stroke-linecap="butt" stroke-miterlimit="10" stroke-linejoin="miter" fill="none" stroke="#000000" d="M15.30745 68.03302H23.81157"/>
<path transform="matrix(1.00002,0,0,-1.00003,47.827684,148.07297)" stroke-width=".3985" stroke-linecap="butt" stroke-miterlimit="10" stroke-linejoin="miter" fill="none" stroke="#000000" d="M-15.30745 68.03302H-23.81157"/>
<path transform="matrix(1.00002,0,0,-1.00003,47.827684,148.07297)" stroke-width=".3985" stroke-linecap="butt" stroke-miterlimit="10" stroke-linejoin="miter" fill="none" stroke="#000000" d="M15.30745 76.53716H23.81157"/>
<path transform="matrix(1.00002,0,0,-1.00003,47.827684,148.07297)" stroke-width=".3985" stroke-linecap="butt" stroke-miterlimit="10" stroke-linejoin="miter" fill="none" stroke="#000000" d="M-15.30745 76.53716H-23.81157"/>
<path transform="matrix(1.00002,0,0,-1.00003,47.827684,148.07297)" stroke-width=".3985" stroke-linecap="butt" stroke-miterlimit="10" stroke-linejoin="miter" fill="none" stroke="#000000" d="M15.30745 85.04128H23.81157"/>
<path transform="matrix(1.00002,0,0,-1.00003,47.827684,148.07297)" stroke-width=".3985" stroke-linecap="butt" stroke-miterlimit="10" stroke-linejoin="miter" fill="none" stroke="#000000" d="M-15.30745 85.04128H-23.81157"/>
<path transform="matrix(1.00002,0,0,-1.00003,47.827684,148.07297)" stroke-width=".3985" stroke-linecap="butt" stroke-miterlimit="10" stroke-linejoin="miter" fill="none" stroke="#000000" d="M15.30745 93.54541H23.81157"/>
<path transform="matrix(1.00002,0,0,-1.00003,47.827684,148.07297)" stroke-width=".3985" stroke-linecap="butt" stroke-miterlimit="10" stroke-linejoin="miter" fill="none" stroke="#000000" d="M-15.30745 93.54541H-23.81157"/>
<path transform="matrix(1.00002,0,0,-1.00003,47.827684,148.07297)" stroke-width=".3985" stroke-linecap="butt" stroke-miterlimit="10" stroke-linejoin="miter" fill="none" stroke="#000000" d="M15.30745 102.04953H23.81157"/>
<path transform="matrix(1.00002,0,0,-1.00003,47.827684,148.07297)" stroke-width=".3985" stroke-linecap="butt" stroke-miterlimit="10" stroke-linejoin="miter" fill="none" stroke="#000000" d="M-15.30745 102.04953H-23.81157"/>
<path transform="matrix(1.00002,0,0,-1.00003,47.827684,148.07297)" stroke-width=".3985" stroke-linecap="butt" stroke-miterlimit="10" stroke-linejoin="miter" fill="none" stroke="#000000" d="M15.30745 110.55368H23.81157"/>
<path transform="matrix(1.00002,0,0,-1.00003,47.827684,148.07297)" stroke-width=".3985" stroke-linecap="butt" stroke-miterlimit="10" stroke-linejoin="miter" fill="none" stroke="#000000" d="M-15.30745 110.55368H-23.81157"/>
<path transform="matrix(1.00002,0,0,-1.00003,47.827684,148.07297)" stroke-width=".3985" stroke-linecap="butt" stroke-miterlimit="10" stroke-linejoin="miter" fill="none" stroke="#000000" d="M15.30745 119.0578H23.81157"/>
<path transform="matrix(1.00002,0,0,-1.00003,47.827684,148.07297)" stroke-width=".3985" stroke-linecap="butt" stroke-miterlimit="10" stroke-linejoin="miter" fill="none" stroke="#000000" d="M-15.30745 119.0578H-23.81157"/>
<path transform="matrix(1.00002,0,0,-1.00003,47.827684,148.07297)" stroke-width=".3985" stroke-linecap="butt" stroke-miterlimit="10" stroke-linejoin="miter" fill="none" stroke="#000000" d="M15.30745 127.56192H23.81157"/>
<path transform="matrix(1.00002,0,0,-1.00003,47.827684,148.07297)" stroke-width=".3985" stroke-linecap="butt" stroke-miterlimit="10" stroke-linejoin="miter" fill="none" stroke="#000000" d="M-15.30745 127.56192H-23.81157"/>
<path transform="matrix(1.00002,0,0,-1.00003,47.827684,148.07297)" stroke-width=".3985" stroke-linecap="butt" stroke-miterlimit="10" stroke-linejoin="miter" fill="none" stroke="#000000" d="M15.30745-42.52063H32.3157"/>
<use data-text="&#x2212;" xlink:href="#font_1_1" transform="matrix(9.962799,0,0,-9.962899,83.6644,193.39034)"/>
<use data-text="5" xlink:href="#font_2_3" transform="matrix(9.962799,0,0,-9.962899,91.41354,193.39034)"/>
<path transform="matrix(1.00002,0,0,-1.00003,47.827684,148.07297)" stroke-width=".3985" stroke-linecap="butt" stroke-miterlimit="10" stroke-linejoin="miter" fill="none" stroke="#000000" d="M-15.30745-42.52063H-32.3157"/>
<use data-text="&#x2212;" xlink:href="#font_3_1" transform="matrix(8.966579,0,0,-8.966669,.21572876,193.06932)"/>
<use data-text="5" xlink:href="#font_4_3" transform="matrix(8.966579,0,0,-8.966669,7.3838655,193.06932)"/>
<path transform="matrix(1.00002,0,0,-1.00003,47.827684,148.07297)" stroke-width=".3985" stroke-linecap="butt" stroke-miterlimit="10" stroke-linejoin="miter" fill="none" stroke="#000000" d="M15.30745 0H32.3157"/>
<use data-text="0" xlink:href="#font_2_1" transform="matrix(9.962799,0,0,-9.962899,83.6644,151.28307)"/>
<path transform="matrix(1.00002,0,0,-1.00003,47.827684,148.07297)" stroke-width=".3985" stroke-linecap="butt" stroke-miterlimit="10" stroke-linejoin="miter" fill="none" stroke="#000000" d="M-15.30745 0H-32.3157"/>
<use data-text="0" xlink:href="#font_4_1" transform="matrix(8.966579,0,0,-8.966669,7.383873,150.96205)"/>
<path transform="matrix(1.00002,0,0,-1.00003,47.827684,148.07297)" stroke-width=".3985" stroke-linecap="butt" stroke-miterlimit="10" stroke-linejoin="miter" fill="none" stroke="#000000" d="M15.30745 42.52063H32.3157"/>
<use data-text="5" xlink:href="#font_2_3" transform="matrix(9.962799,0,0,-9.962899,83.6644,108.76178)"/>
<path transform="matrix(1.00002,0,0,-1.00003,47.827684,148.07297)" stroke-width=".3985" stroke-linecap="butt" stroke-miterlimit="10" stroke-linejoin="miter" fill="none" stroke="#000000" d="M-15.30745 42.52063H-32.3157"/>
<use data-text="5" xlink:href="#font_4_3" transform="matrix(8.966579,0,0,-8.966669,7.383873,108.44078)"/>
<path transform="matrix(1.00002,0,0,-1.00003,47.827684,148.07297)" stroke-width=".3985" stroke-linecap="butt" stroke-miterlimit="10" stroke-linejoin="miter" fill="none" stroke="#000000" d="M15.30745 85.04128H32.3157"/>
<use data-text="1" xlink:href="#font_2_2" transform="matrix(9.962799,0,0,-9.962899,83.6644,66.23951)"/>
<use data-text="0" xlink:href="#font_2_1" transform="matrix(9.962799,0,0,-9.962899,88.64578,66.23951)"/>
<path transform="matrix(1.00002,0,0,-1.00003,47.827684,148.07297)" stroke-width=".3985" stroke-linecap="butt" stroke-miterlimit="10" stroke-linejoin="miter" fill="none" stroke="#000000" d="M-15.30745 85.04128H-32.3157"/>
<use data-text="1" xlink:href="#font_4_2" transform="matrix(8.966579,0,0,-8.966669,2.7757874,65.9185)"/>
<use data-text="0" xlink:href="#font_4_1" transform="matrix(8.966579,0,0,-8.966669,7.375641,65.9185)"/>
<path transform="matrix(1.00002,0,0,-1.00003,47.827684,148.07297)" stroke-width=".3985" stroke-linecap="butt" stroke-miterlimit="10" stroke-linejoin="miter" fill="none" stroke="#000000" d="M15.30745 127.56192H32.3157"/>
<use data-text="1" xlink:href="#font_2_2" transform="matrix(9.962799,0,0,-9.962899,83.6644,23.717232)"/>
<use data-text="5" xlink:href="#font_2_3" transform="matrix(9.962799,0,0,-9.962899,88.64578,23.717232)"/>
<path transform="matrix(1.00002,0,0,-1.00003,47.827684,148.07297)" stroke-width=".3985" stroke-linecap="butt" stroke-miterlimit="10" stroke-linejoin="miter" fill="none" stroke="#000000" d="M-15.30745 127.56192H-32.3157"/>
<use data-text="1" xlink:href="#font_4_2" transform="matrix(8.966579,0,0,-8.966669,2.7757874,23.396225)"/>
<use data-text="5" xlink:href="#font_4_3" transform="matrix(8.966579,0,0,-8.966669,7.375641,23.396225)"/>
<path transform="matrix(1.00002,0,0,-1.00003,47.827684,148.07297)" d="M8.50412-93.54541C8.50412-88.84865 4.69675-85.04129 0-85.04129-4.69675-85.04129-8.50412-88.84865-8.50412-93.54541-8.50412-98.24217-4.69675-102.04953 0-102.04953 4.69675-102.04953 8.50412-98.24217 8.50412-93.54541ZM0-93.54541" fill="#ec008c"/>
<path transform="matrix(1.00002,0,0,-1.00003,47.827684,148.07297)" stroke-width=".3985" stroke-linecap="butt" stroke-miterlimit="10" stroke-linejoin="miter" fill="none" stroke="#ec008c" d="M8.50412-93.54541C8.50412-88.84865 4.69675-85.04129 0-85.04129-4.69675-85.04129-8.50412-88.84865-8.50412-93.54541-8.50412-98.24217-4.69675-102.04953 0-102.04953 4.69675-102.04953 8.50412-98.24217 8.50412-93.54541ZM0-93.54541"/>
<path transform="matrix(1.00002,0,0,-1.00003,47.827684,148.07297)" d="M-5.95285-93.54541V119.0578H5.95285V-93.54541ZM5.95285 119.0578" fill="#ec008c"/>
<path transform="matrix(1.00002,0,0,-1.00003,47.827684,148.07297)" stroke-width=".3985" stroke-linecap="butt" stroke-miterlimit="10" stroke-linejoin="miter" fill="none" stroke="#ec008c" d="M-5.95285-93.54541V119.0578H5.95285V-93.54541ZM5.95285 119.0578"/>
</svg>
