<svg xmlns="http://www.w3.org/2000/svg" xmlns:xlink="http://www.w3.org/1999/xlink" version="1.1" width="42" height="20" viewBox="0 0 42 20">
<path transform="matrix(1.00006,0,0,-1.00006,10.600494,10.3036589)" d="M8.50412 0C8.50412 4.69675 4.69675 8.50412 0 8.50412-4.69675 8.50412-8.50412 4.69675-8.50412 0-8.50412-4.69675-4.69675-8.50412 0-8.50412 4.69675-8.50412 8.50412-4.69675 8.50412 0ZM0 0" fill="#00ff00"/>
<path transform="matrix(1.00006,0,0,-1.00006,10.600494,10.3036589)" stroke-width=".3985" stroke-linecap="butt" stroke-miterlimit="10" stroke-linejoin="miter" fill="none" stroke="#00ff00" d="M8.50412 0C8.50412 4.69675 4.69675 8.50412 0 8.50412-4.69675 8.50412-8.50412 4.69675-8.50412 0-8.50412-4.69675-4.69675-8.50412 0-8.50412 4.69675-8.50412 8.50412-4.69675 8.50412 0ZM0 0"/>
<path transform="matrix(1.00006,0,0,-1.00006,10.600494,10.3036589)" stroke-width=".3985" stroke-linecap="butt" stroke-miterlimit="10" stroke-linejoin="miter" fill="none" stroke="#000000" d="M8.50412 0C8.50412 4.69675 4.69675 8.50412 0 8.50412-4.69675 8.50412-8.50412 4.69675-8.50412 0-8.50412-4.69675-4.69675-8.50412 0-8.50412 4.69675-8.50412 8.50412-4.69675 8.50412 0ZM0 0"/>
<path transform="matrix(1.00006,0,0,-1.00006,10.600494,10.3036589)" stroke-width=".3985" stroke-linecap="butt" stroke-miterlimit="10" stroke-linejoin="miter" fill="none" stroke="#000000" d="M-8.50412 0H8.50412"/>
<path transform="matrix(1.00006,0,0,-1.00006,10.600494,10.3036589)" stroke-width=".3985" stroke-linecap="butt" stroke-miterlimit="10" stroke-linejoin="miter" fill="none" stroke="#000000" d="M0-8.50412V8.50412"/>
<path transform="matrix(1.00006,0,0,-1.00006,10.600494,10.3036589)" d="M21.26077-8.50412C25.95753-8.50412 29.76491-4.69675 29.76491 0 29.76491 4.69675 25.95753 8.50412 21.26077 8.50412V-8.50412" fill="#00ff00"/>
<path transform="matrix(1.00006,0,0,-1.00006,10.600494,10.3036589)" stroke-width=".3985" stroke-linecap="butt" stroke-miterlimit="10" stroke-linejoin="miter" fill="none" stroke="#00ff00" d="M21.26077-8.50412C25.95753-8.50412 29.76491-4.69675 29.76491 0 29.76491 4.69675 25.95753 8.50412 21.26077 8.50412V-8.50412"/>
<path transform="matrix(1.00006,0,0,-1.00006,10.600494,10.3036589)" stroke-width=".3985" stroke-linecap="butt" stroke-miterlimit="10" stroke-linejoin="miter" fill="none" stroke="#000000" d="M29.76491 0C29.76491 4.69675 25.95753 8.50412 21.26077 8.50412 16.56403 8.50412 12.75665 4.69675 12.75665 0 12.75665-4.69675 16.56403-8.50412 21.26077-8.50412 25.95753-8.50412 29.76491-4.69675 29.76491 0ZM21.26077 0"/>
<path transform="matrix(1.00006,0,0,-1.00006,10.600494,10.3036589)" stroke-width=".3985" stroke-linecap="butt" stroke-miterlimit="10" stroke-linejoin="miter" fill="none" stroke="#000000" d="M12.75664 0H29.76491"/>
<path transform="matrix(1.00006,0,0,-1.00006,10.600494,10.3036589)" stroke-width=".3985" stroke-linecap="butt" stroke-miterlimit="10" stroke-linejoin="miter" fill="none" stroke="#000000" d="M21.26077-8.50412V8.50412"/>
</svg>
