<svg xmlns="http://www.w3.org/2000/svg" xmlns:xlink="http://www.w3.org/1999/xlink" version="1.1" width="180" height="219" viewBox="0 0 180 219">
<defs>
<path id="font_1_82" d="M.4189911 0V.0309906H.3869934C.29699708 .0309906 .2939911 .041992189 .2939911 .07902527V.64012148C.2939911 .6640167 .2939911 .6660156 .2709961 .6660156 .20899964 .60227969 .12098694 .60227969 .08898926 .60227969V.57128909C.10899353 .57128909 .16799927 .57128909 .21998596 .5972748V.07902527C.21998596 .042999269 .21699524 .0309906 .1269989 .0309906H.09498596V0C.12998963 .0029907227 .21699524 .0029907227 .25698854 .0029907227 .29699708 .0029907227 .38398744 .0029907227 .4189911 0Z"/>
<path id="font_1_56" d="M.44898988 .20091248C.44898988 .31991578 .36698915 .41992188 .25898744 .41992188 .21099854 .41992188 .16799927 .4039154 .13198853 .36891175V.5641022C.1519928 .55778506 .18499756 .55078127 .21699524 .55078127 .33999635 .55078127 .4099884 .6418457 .4099884 .65493777 .4099884 .6609802 .40699769 .6660156 .3999939 .6660156 .3999939 .66607668 .39698792 .66607668 .3919983 .66308596 .37199403 .65408328 .32299806 .63378909 .2559967 .63378909 .21598816 .63409426 .16999817 .641098 .12298584 .6621094 .114990238 .6651001 .11099243 .6651001 .11099243 .6651001 .100997928 .66508486 .100997928 .657074 .100997928 .64108279V.3447113C.100997928 .3266449 .100997928 .31861878 .114990238 .31861878 .12199402 .31861878 .12399292 .32164 .12799073 .32765199 .13899231 .34371949 .17599488 .3979187 .25698854 .3979187 .30899049 .3979187 .33399964 .3517456 .34199525 .3336792 .35798646 .2965393 .3600006 .2574005 .3600006 .20721436 .3600006 .17218018 .3600006 .112197879 .33599855 .07032776 .31199647 .031448366 .2749939 .0055389406 .22898865 .0055389406 .1559906 .0055389406 .09899902 .05836487 .08198547 .1171875 .084991458 .11685181 .08799744 .115859989 .09899902 .115859989 .13198853 .115859989 .14898682 .14085388 .14898682 .16485596 .14898682 .18885803 .13198853 .21386719 .09899902 .21386719 .084991458 .21386719 .049987794 .2068634 .049987794 .16085816 .049987794 .07432556 .11898804-.022460938 .23098755-.022460938 .34700013-.022460938 .44898988 .07331848 .44898988 .20019531V.20091248Z"/>
<path id="font_1_51" d="M.45700074 .16764832C.45700074 .20367432 .44599916 .24871826 .4079895 .29074098 .3889923 .31176759 .37298585 .32176209 .30899049 .36180116 .3809967 .39881898 .42999269 .4508667 .42999269 .51690676 .42999269 .6089783 .34098817 .6660156 .25 .6660156 .1499939 .6660156 .068984989 .5919647 .068984989 .49890138 .068984989 .48088075 .070999149 .43585206 .11299133 .38882447 .12399292 .3768158 .16099549 .35179139 .18598938 .33477784 .12799073 .30575563 .041992189 .24971009 .041992189 .15063477 .041992189 .044555665 .14399719-.022460938 .24899292-.022460938 .3619995-.022460938 .45700074 .060577394 .45700074 .16764832M.38598634 .51690676C.38598634 .45986939 .34700013 .41183473 .2869873 .3768158L.16299439 .4568634C.116989139 .4868927 .11299133 .5209198 .11299133 .53793337 .11299133 .5989685 .17799378 .64100649 .24899292 .64100649 .32199098 .64100649 .38598634 .588974 .38598634 .51690676M.40699769 .13162232C.40699769 .05757141 .33198548 .0055389406 .25 .0055389406 .1639862 .0055389406 .09199524 .06758118 .09199524 .15063477 .09199524 .2086792 .12399292 .2727356 .20899964 .31976319L.33198548 .24171448C.3600006 .22268677 .40699769 .19267273 .40699769 .13162232Z"/>
<path id="font_1_100" d="M.4850006 .6435547H.24198914C.11999512 .6435547 .117996219 .6566467 .11399841 .67578127H.08898926L.055999757 .46954347H.08099365C.083999637 .48554994 .09298706 .54855349 .10598755 .5605469 .11299133 .5665436 .19099427 .5665436 .20399475 .5665436H.41099549L.29899598 .40853883C.20899964 .2735443 .17599488 .13453675 .17599488 .03253174 .17599488 .022537232 .17599488-.022460938 .22200012-.022460938 .2679901-.022460938 .2679901 .022537232 .2679901 .03253174V.08354187C.2679901 .13853455 .2709961 .19354248 .2789917 .24754334 .2829895 .27053834 .29699708 .35653688 .34098817 .41854859L.47599793 .608551C.4850006 .62054446 .4850006 .62254336 .4850006 .6435547Z"/>
</defs>
<path transform="matrix(1.00005,0,0,-1.00002,47.65143,132.38933)" stroke-width=".3985" stroke-linecap="butt" stroke-miterlimit="10" stroke-linejoin="miter" fill="none" stroke="#00aeef" d="M-45.35419-85.03911H130.39333M-45.35419-79.36984H130.39333M-45.35419-73.70056H130.39333M-45.35419-68.0313H130.39333M-45.35419-62.36201H130.39333M-45.35419-56.69275H130.39333M-45.35419-51.02345H130.39333M-45.35419-45.35419H130.39333M-45.35419-39.6849H130.39333M-45.35419-34.01564H130.39333M-45.35419-28.34636H130.39333M-45.35419-22.6771H130.39333M-45.35419-17.00781H130.39333M-45.35419-11.33855H130.39333M-45.35419-5.66927H130.39333M-45.35419 0H130.39333M-45.35419 5.66927H130.39333M-45.35419 11.33855H130.39333M-45.35419 17.00781H130.39333M-45.35419 22.6771H130.39333M-45.35419 28.34636H130.39333M-45.35419 34.01564H130.39333M-45.35419 39.6849H130.39333M-45.35419 45.35419H130.39333M-45.35419 51.02345H130.39333M-45.35419 56.69275H130.39333M-45.35419 62.36201H130.39333M-45.35419 68.0313H130.39333M-45.35419 73.70056H130.39333M-45.35419 79.36984H130.39333M-45.35419 85.03911H130.39333M-45.35419 90.70839H130.39333M-45.35419 96.37766H130.39333M-45.35419 102.04694H130.39333M-45.35419 107.71623H130.39333M-45.35419 113.3855H130.39333M-45.35419 119.05478H130.39333M-45.35419 124.72404H130.39333M-45.35419 130.39133H130.39333M-45.35419-85.03911V130.39333M-39.6849-85.03911V130.39333M-34.01564-85.03911V130.39333M-28.34636-85.03911V130.39333M-22.6771-85.03911V130.39333M-17.00781-85.03911V130.39333M-11.33855-85.03911V130.39333M-5.66927-85.03911V130.39333M0-85.03911V130.39333M5.66927-85.03911V130.39333M11.33855-85.03911V130.39333M17.00781-85.03911V130.39333M22.6771-85.03911V130.39333M28.34636-85.03911V130.39333M34.01564-85.03911V130.39333M39.6849-85.03911V130.39333M45.35419-85.03911V130.39333M51.02345-85.03911V130.39333M56.69275-85.03911V130.39333M62.36201-85.03911V130.39333M68.0313-85.03911V130.39333M73.70056-85.03911V130.39333M79.36984-85.03911V130.39333M85.03911-85.03911V130.39333M90.70839-85.03911V130.39333M96.37766-85.03911V130.39333M102.04694-85.03911V130.39333M107.71623-85.03911V130.39333M113.3855-85.03911V130.39333M119.05478-85.03911V130.39333M124.72404-85.03911V130.39333M130.39133-85.03911V130.39333M130.39333 130.39333"/>
<path transform="matrix(1.00005,0,0,-1.00002,47.65143,132.38933)" stroke-width="1.19553" stroke-linecap="butt" stroke-miterlimit="10" stroke-linejoin="miter" fill="none" stroke="#000000" d="M0 0H85.03911L0 45.35419Z"/>
<path transform="matrix(1.00005,0,0,-1.00002,47.65143,132.38933)" stroke-width=".79701" stroke-linecap="butt" stroke-miterlimit="10" stroke-linejoin="miter" fill="none" stroke="#ec008c" d="M0 0V45.35419H-45.35419V0ZM-45.35419 45.35419"/>
<path transform="matrix(1.00005,0,0,-1.00002,47.65143,132.38933)" stroke-width=".79701" stroke-linecap="butt" stroke-miterlimit="10" stroke-linejoin="miter" fill="none" stroke="#ec008c" d="M0 0V-85.03911H85.03911V0ZM85.03911-85.03911"/>
<path transform="matrix(1.00005,0,0,-1.00002,47.65143,132.38933)" stroke-width=".79701" stroke-linecap="butt" stroke-miterlimit="10" stroke-linejoin="miter" fill="none" stroke="#ec008c" d="M85.03911 0 130.39705 85.03342 45.36362 130.39133 .00569 45.35791Z"/>
<use data-text="1" xlink:href="#font_1_82" transform="matrix(9.963098,0,0,-9.962799,80.25105,141.26651)" fill="#0000ff"/>
<use data-text="5" xlink:href="#font_1_56" transform="matrix(9.963098,0,0,-9.962799,85.23259,141.26651)" fill="#0000ff"/>
<use data-text="8" xlink:href="#font_1_51" transform="matrix(9.963098,0,0,-9.962799,37.729936,112.91994)" fill="#0000ff"/>
<use data-text="1" xlink:href="#font_1_82" transform="matrix(9.963098,0,0,-9.962799,84.78728,105.59979)" fill="#0000ff"/>
<use data-text="7" xlink:href="#font_1_100" transform="matrix(9.963098,0,0,-9.962799,89.768817,105.59979)" fill="#0000ff"/>
</svg>
