<svg xmlns="http://www.w3.org/2000/svg" xmlns:xlink="http://www.w3.org/1999/xlink" version="1.1" width="290" height="37" viewBox="0 0 290 37">
<defs>
<path id="font_1_1" d="M.45999146 .31976319C.45999146 .39982606 .45498658 .47988893 .41999818 .5539398 .37399293 .65000918 .2919922 .6660156 .25 .6660156 .18998719 .6660156 .116989139 .64001467 .07598877 .54693606 .04399109 .47789 .038986207 .39982606 .038986207 .31976319 .038986207 .24472046 .042999269 .15464783 .083999637 .07859802 .1269989-.0024719239 .19999695-.022460938 .24899292-.022460938 .30299378-.022460938 .3789978-.0014648438 .4229889 .09359741 .45498658 .16265869 .45999146 .2407074 .45999146 .31976319M.24899292-.00047302247C.20999146-.00047302247 .15098572 .024551392 .1329956 .12062073 .12199402 .18066406 .12199402 .2727356 .12199402 .3317871 .12199402 .39582826 .12199402 .46188355 .12998963 .5159149 .14898682 .63500979 .22399903 .64401248 .24899292 .64401248 .28199769 .64401248 .34799195 .6259918 .36698915 .52693179 .3769989 .47088624 .3769989 .39482118 .3769989 .3317871 .3769989 .25672914 .3769989 .18867493 .3659973 .12461853 .35099793 .029556275 .2939911-.00047302247 .24899292-.00047302247Z"/>
<path id="font_1_2" d="M.2939911 .64004519C.2939911 .66400149 .2939911 .6660156 .2709961 .6660156 .20899964 .60227969 .12098694 .60227969 .08898926 .60227969V.57128909C.10899353 .57128909 .16799927 .57128909 .21998596 .5972748V.07902527C.21998596 .042999269 .21699524 .0309906 .1269989 .0309906H.09498596V0C.12998963 .0029907227 .21699524 .0029907227 .25698854 .0029907227 .29699708 .0029907227 .38398744 .0029907227 .4189911 0V.0309906H.3869934C.29699708 .0309906 .2939911 .041992189 .2939911 .07902527V.64004519Z"/>
</defs>
<path transform="matrix(1.00003,0,0,-1.00009,3.708664,1.9987402)" stroke-width=".79701" stroke-linecap="butt" stroke-miterlimit="10" stroke-linejoin="miter" fill="none" stroke="#000000" d="M0 0H283.4681"/>
<path transform="matrix(1.00003,0,0,-1.00009,3.708664,1.9987402)" stroke-width=".3985" stroke-linecap="butt" stroke-miterlimit="10" stroke-linejoin="miter" fill="none" stroke="#000000" d="M0 0V-22.67752"/>
<use data-text="0" xlink:href="#font_1_1" transform="matrix(9.962899,0,0,-9.963496,1.2175903,34.61968)"/>
<path transform="matrix(1.00003,0,0,-1.00009,3.708664,1.9987402)" stroke-width=".3985" stroke-linecap="butt" stroke-miterlimit="10" stroke-linejoin="miter" fill="none" stroke="#000000" d="M283.4681 0V-22.67752"/>
<use data-text="1" xlink:href="#font_1_2" transform="matrix(9.962899,0,0,-9.963496,284.6941,34.61968)"/>
<path transform="matrix(1.00003,0,0,-1.00009,3.708664,1.9987402)" stroke-width=".3985" stroke-linecap="butt" stroke-miterlimit="10" stroke-linejoin="miter" fill="none" stroke="#000000" d="M2.83484 0V-7.08669"/>
<path transform="matrix(1.00003,0,0,-1.00009,3.708664,1.9987402)" stroke-width=".3985" stroke-linecap="butt" stroke-miterlimit="10" stroke-linejoin="miter" fill="none" stroke="#000000" d="M5.66927 0V-7.08669"/>
<path transform="matrix(1.00003,0,0,-1.00009,3.708664,1.9987402)" stroke-width=".3985" stroke-linecap="butt" stroke-miterlimit="10" stroke-linejoin="miter" fill="none" stroke="#000000" d="M8.50368 0V-7.08669"/>
<path transform="matrix(1.00003,0,0,-1.00009,3.708664,1.9987402)" stroke-width=".3985" stroke-linecap="butt" stroke-miterlimit="10" stroke-linejoin="miter" fill="none" stroke="#000000" d="M11.3381 0V-7.08669"/>
<path transform="matrix(1.00003,0,0,-1.00009,3.708664,1.9987402)" stroke-width=".3985" stroke-linecap="butt" stroke-miterlimit="10" stroke-linejoin="miter" fill="none" stroke="#000000" d="M14.17252 0V-7.08669"/>
<path transform="matrix(1.00003,0,0,-1.00009,3.708664,1.9987402)" stroke-width=".3985" stroke-linecap="butt" stroke-miterlimit="10" stroke-linejoin="miter" fill="none" stroke="#000000" d="M17.00694 0V-7.08669"/>
<path transform="matrix(1.00003,0,0,-1.00009,3.708664,1.9987402)" stroke-width=".3985" stroke-linecap="butt" stroke-miterlimit="10" stroke-linejoin="miter" fill="none" stroke="#000000" d="M19.84137 0V-7.08669"/>
<path transform="matrix(1.00003,0,0,-1.00009,3.708664,1.9987402)" stroke-width=".3985" stroke-linecap="butt" stroke-miterlimit="10" stroke-linejoin="miter" fill="none" stroke="#000000" d="M22.6758 0V-7.08669"/>
<path transform="matrix(1.00003,0,0,-1.00009,3.708664,1.9987402)" stroke-width=".3985" stroke-linecap="butt" stroke-miterlimit="10" stroke-linejoin="miter" fill="none" stroke="#000000" d="M25.51021 0V-7.08669"/>
<path transform="matrix(1.00003,0,0,-1.00009,3.708664,1.9987402)" stroke-width=".3985" stroke-linecap="butt" stroke-miterlimit="10" stroke-linejoin="miter" fill="none" stroke="#000000" d="M28.34464 0V-7.08669"/>
<path transform="matrix(1.00003,0,0,-1.00009,3.708664,1.9987402)" stroke-width=".3985" stroke-linecap="butt" stroke-miterlimit="10" stroke-linejoin="miter" fill="none" stroke="#000000" d="M31.17905 0V-7.08669"/>
<path transform="matrix(1.00003,0,0,-1.00009,3.708664,1.9987402)" stroke-width=".3985" stroke-linecap="butt" stroke-miterlimit="10" stroke-linejoin="miter" fill="none" stroke="#000000" d="M34.01347 0V-7.08669"/>
<path transform="matrix(1.00003,0,0,-1.00009,3.708664,1.9987402)" stroke-width=".3985" stroke-linecap="butt" stroke-miterlimit="10" stroke-linejoin="miter" fill="none" stroke="#000000" d="M36.8479 0V-7.08669"/>
<path transform="matrix(1.00003,0,0,-1.00009,3.708664,1.9987402)" stroke-width=".3985" stroke-linecap="butt" stroke-miterlimit="10" stroke-linejoin="miter" fill="none" stroke="#000000" d="M39.68233 0V-7.08669"/>
<path transform="matrix(1.00003,0,0,-1.00009,3.708664,1.9987402)" stroke-width=".3985" stroke-linecap="butt" stroke-miterlimit="10" stroke-linejoin="miter" fill="none" stroke="#000000" d="M42.51674 0V-7.08669"/>
<path transform="matrix(1.00003,0,0,-1.00009,3.708664,1.9987402)" stroke-width=".3985" stroke-linecap="butt" stroke-miterlimit="10" stroke-linejoin="miter" fill="none" stroke="#000000" d="M45.35115 0V-7.08669"/>
<path transform="matrix(1.00003,0,0,-1.00009,3.708664,1.9987402)" stroke-width=".3985" stroke-linecap="butt" stroke-miterlimit="10" stroke-linejoin="miter" fill="none" stroke="#000000" d="M48.18558 0V-7.08669"/>
<path transform="matrix(1.00003,0,0,-1.00009,3.708664,1.9987402)" stroke-width=".3985" stroke-linecap="butt" stroke-miterlimit="10" stroke-linejoin="miter" fill="none" stroke="#000000" d="M51.02 0V-7.08669"/>
<path transform="matrix(1.00003,0,0,-1.00009,3.708664,1.9987402)" stroke-width=".3985" stroke-linecap="butt" stroke-miterlimit="10" stroke-linejoin="miter" fill="none" stroke="#000000" d="M53.85443 0V-7.08669"/>
<path transform="matrix(1.00003,0,0,-1.00009,3.708664,1.9987402)" stroke-width=".3985" stroke-linecap="butt" stroke-miterlimit="10" stroke-linejoin="miter" fill="none" stroke="#000000" d="M56.68886 0V-7.08669"/>
<path transform="matrix(1.00003,0,0,-1.00009,3.708664,1.9987402)" stroke-width=".3985" stroke-linecap="butt" stroke-miterlimit="10" stroke-linejoin="miter" fill="none" stroke="#000000" d="M59.52327 0V-7.08669"/>
<path transform="matrix(1.00003,0,0,-1.00009,3.708664,1.9987402)" stroke-width=".3985" stroke-linecap="butt" stroke-miterlimit="10" stroke-linejoin="miter" fill="none" stroke="#000000" d="M62.35768 0V-7.08669"/>
<path transform="matrix(1.00003,0,0,-1.00009,3.708664,1.9987402)" stroke-width=".3985" stroke-linecap="butt" stroke-miterlimit="10" stroke-linejoin="miter" fill="none" stroke="#000000" d="M65.19211 0V-7.08669"/>
<path transform="matrix(1.00003,0,0,-1.00009,3.708664,1.9987402)" stroke-width=".3985" stroke-linecap="butt" stroke-miterlimit="10" stroke-linejoin="miter" fill="none" stroke="#000000" d="M68.02654 0V-7.08669"/>
<path transform="matrix(1.00003,0,0,-1.00009,3.708664,1.9987402)" stroke-width=".3985" stroke-linecap="butt" stroke-miterlimit="10" stroke-linejoin="miter" fill="none" stroke="#000000" d="M70.86096 0V-7.08669"/>
<path transform="matrix(1.00003,0,0,-1.00009,3.708664,1.9987402)" stroke-width=".3985" stroke-linecap="butt" stroke-miterlimit="10" stroke-linejoin="miter" fill="none" stroke="#000000" d="M73.69537 0V-7.08669"/>
<path transform="matrix(1.00003,0,0,-1.00009,3.708664,1.9987402)" stroke-width=".3985" stroke-linecap="butt" stroke-miterlimit="10" stroke-linejoin="miter" fill="none" stroke="#000000" d="M76.52979 0V-7.08669"/>
<path transform="matrix(1.00003,0,0,-1.00009,3.708664,1.9987402)" stroke-width=".3985" stroke-linecap="butt" stroke-miterlimit="10" stroke-linejoin="miter" fill="none" stroke="#000000" d="M79.36421 0V-7.08669"/>
<path transform="matrix(1.00003,0,0,-1.00009,3.708664,1.9987402)" stroke-width=".3985" stroke-linecap="butt" stroke-miterlimit="10" stroke-linejoin="miter" fill="none" stroke="#000000" d="M82.19864 0V-7.08669"/>
<path transform="matrix(1.00003,0,0,-1.00009,3.708664,1.9987402)" stroke-width=".3985" stroke-linecap="butt" stroke-miterlimit="10" stroke-linejoin="miter" fill="none" stroke="#000000" d="M85.03307 0V-7.08669"/>
<path transform="matrix(1.00003,0,0,-1.00009,3.708664,1.9987402)" stroke-width=".3985" stroke-linecap="butt" stroke-miterlimit="10" stroke-linejoin="miter" fill="none" stroke="#000000" d="M87.8675 0V-7.08669"/>
<path transform="matrix(1.00003,0,0,-1.00009,3.708664,1.9987402)" stroke-width=".3985" stroke-linecap="butt" stroke-miterlimit="10" stroke-linejoin="miter" fill="none" stroke="#000000" d="M90.7019 0V-7.08669"/>
<path transform="matrix(1.00003,0,0,-1.00009,3.708664,1.9987402)" stroke-width=".3985" stroke-linecap="butt" stroke-miterlimit="10" stroke-linejoin="miter" fill="none" stroke="#000000" d="M93.53632 0V-7.08669"/>
<path transform="matrix(1.00003,0,0,-1.00009,3.708664,1.9987402)" stroke-width=".3985" stroke-linecap="butt" stroke-miterlimit="10" stroke-linejoin="miter" fill="none" stroke="#000000" d="M96.37074 0V-7.08669"/>
<path transform="matrix(1.00003,0,0,-1.00009,3.708664,1.9987402)" stroke-width=".3985" stroke-linecap="butt" stroke-miterlimit="10" stroke-linejoin="miter" fill="none" stroke="#000000" d="M99.20517 0V-7.08669"/>
<path transform="matrix(1.00003,0,0,-1.00009,3.708664,1.9987402)" stroke-width=".3985" stroke-linecap="butt" stroke-miterlimit="10" stroke-linejoin="miter" fill="none" stroke="#000000" d="M102.0396 0V-7.08669"/>
<path transform="matrix(1.00003,0,0,-1.00009,3.708664,1.9987402)" stroke-width=".3985" stroke-linecap="butt" stroke-miterlimit="10" stroke-linejoin="miter" fill="none" stroke="#000000" d="M104.87402 0V-7.08669"/>
<path transform="matrix(1.00003,0,0,-1.00009,3.708664,1.9987402)" stroke-width=".3985" stroke-linecap="butt" stroke-miterlimit="10" stroke-linejoin="miter" fill="none" stroke="#000000" d="M107.70842 0V-7.08669"/>
<path transform="matrix(1.00003,0,0,-1.00009,3.708664,1.9987402)" stroke-width=".3985" stroke-linecap="butt" stroke-miterlimit="10" stroke-linejoin="miter" fill="none" stroke="#000000" d="M110.54285 0V-7.08669"/>
<path transform="matrix(1.00003,0,0,-1.00009,3.708664,1.9987402)" stroke-width=".3985" stroke-linecap="butt" stroke-miterlimit="10" stroke-linejoin="miter" fill="none" stroke="#000000" d="M113.37727 0V-7.08669"/>
<path transform="matrix(1.00003,0,0,-1.00009,3.708664,1.9987402)" stroke-width=".3985" stroke-linecap="butt" stroke-miterlimit="10" stroke-linejoin="miter" fill="none" stroke="#000000" d="M116.2117 0V-7.08669"/>
<path transform="matrix(1.00003,0,0,-1.00009,3.708664,1.9987402)" stroke-width=".3985" stroke-linecap="butt" stroke-miterlimit="10" stroke-linejoin="miter" fill="none" stroke="#000000" d="M119.04613 0V-7.08669"/>
<path transform="matrix(1.00003,0,0,-1.00009,3.708664,1.9987402)" stroke-width=".3985" stroke-linecap="butt" stroke-miterlimit="10" stroke-linejoin="miter" fill="none" stroke="#000000" d="M121.88055 0V-7.08669"/>
<path transform="matrix(1.00003,0,0,-1.00009,3.708664,1.9987402)" stroke-width=".3985" stroke-linecap="butt" stroke-miterlimit="10" stroke-linejoin="miter" fill="none" stroke="#000000" d="M124.71495 0V-7.08669"/>
<path transform="matrix(1.00003,0,0,-1.00009,3.708664,1.9987402)" stroke-width=".3985" stroke-linecap="butt" stroke-miterlimit="10" stroke-linejoin="miter" fill="none" stroke="#000000" d="M127.54938 0V-7.08669"/>
<path transform="matrix(1.00003,0,0,-1.00009,3.708664,1.9987402)" stroke-width=".3985" stroke-linecap="butt" stroke-miterlimit="10" stroke-linejoin="miter" fill="none" stroke="#000000" d="M130.3838 0V-7.08669"/>
<path transform="matrix(1.00003,0,0,-1.00009,3.708664,1.9987402)" stroke-width=".3985" stroke-linecap="butt" stroke-miterlimit="10" stroke-linejoin="miter" fill="none" stroke="#000000" d="M133.21823 0V-7.08669"/>
<path transform="matrix(1.00003,0,0,-1.00009,3.708664,1.9987402)" stroke-width=".3985" stroke-linecap="butt" stroke-miterlimit="10" stroke-linejoin="miter" fill="none" stroke="#000000" d="M136.05266 0V-7.08669"/>
<path transform="matrix(1.00003,0,0,-1.00009,3.708664,1.9987402)" stroke-width=".3985" stroke-linecap="butt" stroke-miterlimit="10" stroke-linejoin="miter" fill="none" stroke="#000000" d="M138.88707 0V-7.08669"/>
<path transform="matrix(1.00003,0,0,-1.00009,3.708664,1.9987402)" stroke-width=".3985" stroke-linecap="butt" stroke-miterlimit="10" stroke-linejoin="miter" fill="none" stroke="#000000" d="M141.72148 0V-7.08669"/>
<path transform="matrix(1.00003,0,0,-1.00009,3.708664,1.9987402)" stroke-width=".3985" stroke-linecap="butt" stroke-miterlimit="10" stroke-linejoin="miter" fill="none" stroke="#000000" d="M144.55591 0V-7.08669"/>
<path transform="matrix(1.00003,0,0,-1.00009,3.708664,1.9987402)" stroke-width=".3985" stroke-linecap="butt" stroke-miterlimit="10" stroke-linejoin="miter" fill="none" stroke="#000000" d="M147.39034 0V-7.08669"/>
<path transform="matrix(1.00003,0,0,-1.00009,3.708664,1.9987402)" stroke-width=".3985" stroke-linecap="butt" stroke-miterlimit="10" stroke-linejoin="miter" fill="none" stroke="#000000" d="M150.22476 0V-7.08669"/>
<path transform="matrix(1.00003,0,0,-1.00009,3.708664,1.9987402)" stroke-width=".3985" stroke-linecap="butt" stroke-miterlimit="10" stroke-linejoin="miter" fill="none" stroke="#000000" d="M153.05918 0V-7.08669"/>
<path transform="matrix(1.00003,0,0,-1.00009,3.708664,1.9987402)" stroke-width=".3985" stroke-linecap="butt" stroke-miterlimit="10" stroke-linejoin="miter" fill="none" stroke="#000000" d="M155.8936 0V-7.08669"/>
<path transform="matrix(1.00003,0,0,-1.00009,3.708664,1.9987402)" stroke-width=".3985" stroke-linecap="butt" stroke-miterlimit="10" stroke-linejoin="miter" fill="none" stroke="#000000" d="M158.72801 0V-7.08669"/>
<path transform="matrix(1.00003,0,0,-1.00009,3.708664,1.9987402)" stroke-width=".3985" stroke-linecap="butt" stroke-miterlimit="10" stroke-linejoin="miter" fill="none" stroke="#000000" d="M161.56244 0V-7.08669"/>
<path transform="matrix(1.00003,0,0,-1.00009,3.708664,1.9987402)" stroke-width=".3985" stroke-linecap="butt" stroke-miterlimit="10" stroke-linejoin="miter" fill="none" stroke="#000000" d="M164.39687 0V-7.08669"/>
<path transform="matrix(1.00003,0,0,-1.00009,3.708664,1.9987402)" stroke-width=".3985" stroke-linecap="butt" stroke-miterlimit="10" stroke-linejoin="miter" fill="none" stroke="#000000" d="M167.2313 0V-7.08669"/>
<path transform="matrix(1.00003,0,0,-1.00009,3.708664,1.9987402)" stroke-width=".3985" stroke-linecap="butt" stroke-miterlimit="10" stroke-linejoin="miter" fill="none" stroke="#000000" d="M170.0657 0V-7.08669"/>
<path transform="matrix(1.00003,0,0,-1.00009,3.708664,1.9987402)" stroke-width=".3985" stroke-linecap="butt" stroke-miterlimit="10" stroke-linejoin="miter" fill="none" stroke="#000000" d="M172.90012 0V-7.08669"/>
<path transform="matrix(1.00003,0,0,-1.00009,3.708664,1.9987402)" stroke-width=".3985" stroke-linecap="butt" stroke-miterlimit="10" stroke-linejoin="miter" fill="none" stroke="#000000" d="M175.73455 0V-7.08669"/>
<path transform="matrix(1.00003,0,0,-1.00009,3.708664,1.9987402)" stroke-width=".3985" stroke-linecap="butt" stroke-miterlimit="10" stroke-linejoin="miter" fill="none" stroke="#000000" d="M178.56897 0V-7.08669"/>
<path transform="matrix(1.00003,0,0,-1.00009,3.708664,1.9987402)" stroke-width=".3985" stroke-linecap="butt" stroke-miterlimit="10" stroke-linejoin="miter" fill="none" stroke="#000000" d="M181.4034 0V-7.08669"/>
<path transform="matrix(1.00003,0,0,-1.00009,3.708664,1.9987402)" stroke-width=".3985" stroke-linecap="butt" stroke-miterlimit="10" stroke-linejoin="miter" fill="none" stroke="#000000" d="M184.23781 0V-7.08669"/>
<path transform="matrix(1.00003,0,0,-1.00009,3.708664,1.9987402)" stroke-width=".3985" stroke-linecap="butt" stroke-miterlimit="10" stroke-linejoin="miter" fill="none" stroke="#000000" d="M187.07224 0V-7.08669"/>
<path transform="matrix(1.00003,0,0,-1.00009,3.708664,1.9987402)" stroke-width=".3985" stroke-linecap="butt" stroke-miterlimit="10" stroke-linejoin="miter" fill="none" stroke="#000000" d="M189.90665 0V-7.08669"/>
<path transform="matrix(1.00003,0,0,-1.00009,3.708664,1.9987402)" stroke-width=".3985" stroke-linecap="butt" stroke-miterlimit="10" stroke-linejoin="miter" fill="none" stroke="#000000" d="M192.74108 0V-7.08669"/>
<path transform="matrix(1.00003,0,0,-1.00009,3.708664,1.9987402)" stroke-width=".3985" stroke-linecap="butt" stroke-miterlimit="10" stroke-linejoin="miter" fill="none" stroke="#000000" d="M195.5755 0V-7.08669"/>
<path transform="matrix(1.00003,0,0,-1.00009,3.708664,1.9987402)" stroke-width=".3985" stroke-linecap="butt" stroke-miterlimit="10" stroke-linejoin="miter" fill="none" stroke="#000000" d="M198.40993 0V-7.08669"/>
<path transform="matrix(1.00003,0,0,-1.00009,3.708664,1.9987402)" stroke-width=".3985" stroke-linecap="butt" stroke-miterlimit="10" stroke-linejoin="miter" fill="none" stroke="#000000" d="M201.24434 0V-7.08669"/>
<path transform="matrix(1.00003,0,0,-1.00009,3.708664,1.9987402)" stroke-width=".3985" stroke-linecap="butt" stroke-miterlimit="10" stroke-linejoin="miter" fill="none" stroke="#000000" d="M204.07877 0V-7.08669"/>
<path transform="matrix(1.00003,0,0,-1.00009,3.708664,1.9987402)" stroke-width=".3985" stroke-linecap="butt" stroke-miterlimit="10" stroke-linejoin="miter" fill="none" stroke="#000000" d="M206.91318 0V-7.08669"/>
<path transform="matrix(1.00003,0,0,-1.00009,3.708664,1.9987402)" stroke-width=".3985" stroke-linecap="butt" stroke-miterlimit="10" stroke-linejoin="miter" fill="none" stroke="#000000" d="M209.7476 0V-7.08669"/>
<path transform="matrix(1.00003,0,0,-1.00009,3.708664,1.9987402)" stroke-width=".3985" stroke-linecap="butt" stroke-miterlimit="10" stroke-linejoin="miter" fill="none" stroke="#000000" d="M212.58203 0V-7.08669"/>
<path transform="matrix(1.00003,0,0,-1.00009,3.708664,1.9987402)" stroke-width=".3985" stroke-linecap="butt" stroke-miterlimit="10" stroke-linejoin="miter" fill="none" stroke="#000000" d="M215.41645 0V-7.08669"/>
<path transform="matrix(1.00003,0,0,-1.00009,3.708664,1.9987402)" stroke-width=".3985" stroke-linecap="butt" stroke-miterlimit="10" stroke-linejoin="miter" fill="none" stroke="#000000" d="M218.25087 0V-7.08669"/>
<path transform="matrix(1.00003,0,0,-1.00009,3.708664,1.9987402)" stroke-width=".3985" stroke-linecap="butt" stroke-miterlimit="10" stroke-linejoin="miter" fill="none" stroke="#000000" d="M221.0853 0V-7.08669"/>
<path transform="matrix(1.00003,0,0,-1.00009,3.708664,1.9987402)" stroke-width=".3985" stroke-linecap="butt" stroke-miterlimit="10" stroke-linejoin="miter" fill="none" stroke="#000000" d="M223.91971 0V-7.08669"/>
<path transform="matrix(1.00003,0,0,-1.00009,3.708664,1.9987402)" stroke-width=".3985" stroke-linecap="butt" stroke-miterlimit="10" stroke-linejoin="miter" fill="none" stroke="#000000" d="M226.75414 0V-7.08669"/>
<path transform="matrix(1.00003,0,0,-1.00009,3.708664,1.9987402)" stroke-width=".3985" stroke-linecap="butt" stroke-miterlimit="10" stroke-linejoin="miter" fill="none" stroke="#000000" d="M229.58856 0V-7.08669"/>
<path transform="matrix(1.00003,0,0,-1.00009,3.708664,1.9987402)" stroke-width=".3985" stroke-linecap="butt" stroke-miterlimit="10" stroke-linejoin="miter" fill="none" stroke="#000000" d="M232.42298 0V-7.08669"/>
<path transform="matrix(1.00003,0,0,-1.00009,3.708664,1.9987402)" stroke-width=".3985" stroke-linecap="butt" stroke-miterlimit="10" stroke-linejoin="miter" fill="none" stroke="#000000" d="M235.2574 0V-7.08669"/>
<path transform="matrix(1.00003,0,0,-1.00009,3.708664,1.9987402)" stroke-width=".3985" stroke-linecap="butt" stroke-miterlimit="10" stroke-linejoin="miter" fill="none" stroke="#000000" d="M238.09183 0V-7.08669"/>
<path transform="matrix(1.00003,0,0,-1.00009,3.708664,1.9987402)" stroke-width=".3985" stroke-linecap="butt" stroke-miterlimit="10" stroke-linejoin="miter" fill="none" stroke="#000000" d="M240.92624 0V-7.08669"/>
<path transform="matrix(1.00003,0,0,-1.00009,3.708664,1.9987402)" stroke-width=".3985" stroke-linecap="butt" stroke-miterlimit="10" stroke-linejoin="miter" fill="none" stroke="#000000" d="M243.76067 0V-7.08669"/>
<path transform="matrix(1.00003,0,0,-1.00009,3.708664,1.9987402)" stroke-width=".3985" stroke-linecap="butt" stroke-miterlimit="10" stroke-linejoin="miter" fill="none" stroke="#000000" d="M246.59508 0V-7.08669"/>
<path transform="matrix(1.00003,0,0,-1.00009,3.708664,1.9987402)" stroke-width=".3985" stroke-linecap="butt" stroke-miterlimit="10" stroke-linejoin="miter" fill="none" stroke="#000000" d="M249.4295 0V-7.08669"/>
<path transform="matrix(1.00003,0,0,-1.00009,3.708664,1.9987402)" stroke-width=".3985" stroke-linecap="butt" stroke-miterlimit="10" stroke-linejoin="miter" fill="none" stroke="#000000" d="M252.26393 0V-7.08669"/>
<path transform="matrix(1.00003,0,0,-1.00009,3.708664,1.9987402)" stroke-width=".3985" stroke-linecap="butt" stroke-miterlimit="10" stroke-linejoin="miter" fill="none" stroke="#000000" d="M255.09836 0V-7.08669"/>
<path transform="matrix(1.00003,0,0,-1.00009,3.708664,1.9987402)" stroke-width=".3985" stroke-linecap="butt" stroke-miterlimit="10" stroke-linejoin="miter" fill="none" stroke="#000000" d="M257.93278 0V-7.08669"/>
<path transform="matrix(1.00003,0,0,-1.00009,3.708664,1.9987402)" stroke-width=".3985" stroke-linecap="butt" stroke-miterlimit="10" stroke-linejoin="miter" fill="none" stroke="#000000" d="M260.7672 0V-7.08669"/>
<path transform="matrix(1.00003,0,0,-1.00009,3.708664,1.9987402)" stroke-width=".3985" stroke-linecap="butt" stroke-miterlimit="10" stroke-linejoin="miter" fill="none" stroke="#000000" d="M263.60163 0V-7.08669"/>
<path transform="matrix(1.00003,0,0,-1.00009,3.708664,1.9987402)" stroke-width=".3985" stroke-linecap="butt" stroke-miterlimit="10" stroke-linejoin="miter" fill="none" stroke="#000000" d="M266.43605 0V-7.08669"/>
<path transform="matrix(1.00003,0,0,-1.00009,3.708664,1.9987402)" stroke-width=".3985" stroke-linecap="butt" stroke-miterlimit="10" stroke-linejoin="miter" fill="none" stroke="#000000" d="M269.27046 0V-7.08669"/>
<path transform="matrix(1.00003,0,0,-1.00009,3.708664,1.9987402)" stroke-width=".3985" stroke-linecap="butt" stroke-miterlimit="10" stroke-linejoin="miter" fill="none" stroke="#000000" d="M272.10487 0V-7.08669"/>
<path transform="matrix(1.00003,0,0,-1.00009,3.708664,1.9987402)" stroke-width=".3985" stroke-linecap="butt" stroke-miterlimit="10" stroke-linejoin="miter" fill="none" stroke="#000000" d="M274.9393 0V-7.08669"/>
<path transform="matrix(1.00003,0,0,-1.00009,3.708664,1.9987402)" stroke-width=".3985" stroke-linecap="butt" stroke-miterlimit="10" stroke-linejoin="miter" fill="none" stroke="#000000" d="M277.7737 0V-7.08669"/>
<path transform="matrix(1.00003,0,0,-1.00009,3.708664,1.9987402)" stroke-width=".3985" stroke-linecap="butt" stroke-miterlimit="10" stroke-linejoin="miter" fill="none" stroke="#000000" d="M280.60816 0V-7.08669"/>
<path transform="matrix(1.00003,0,0,-1.00009,3.708664,1.9987402)" stroke-width=".3985" stroke-linecap="butt" stroke-miterlimit="10" stroke-linejoin="miter" fill="none" stroke="#000000" d="M14.17339 0V-11.33855"/>
<path transform="matrix(1.00003,0,0,-1.00009,3.708664,1.9987402)" stroke-width=".3985" stroke-linecap="butt" stroke-miterlimit="10" stroke-linejoin="miter" fill="none" stroke="#000000" d="M28.3468 0V-11.33855"/>
<path transform="matrix(1.00003,0,0,-1.00009,3.708664,1.9987402)" stroke-width=".3985" stroke-linecap="butt" stroke-miterlimit="10" stroke-linejoin="miter" fill="none" stroke="#000000" d="M42.5202 0V-11.33855"/>
<path transform="matrix(1.00003,0,0,-1.00009,3.708664,1.9987402)" stroke-width=".3985" stroke-linecap="butt" stroke-miterlimit="10" stroke-linejoin="miter" fill="none" stroke="#000000" d="M56.69362 0V-11.33855"/>
<path transform="matrix(1.00003,0,0,-1.00009,3.708664,1.9987402)" stroke-width=".3985" stroke-linecap="butt" stroke-miterlimit="10" stroke-linejoin="miter" fill="none" stroke="#000000" d="M70.867 0V-11.33855"/>
<path transform="matrix(1.00003,0,0,-1.00009,3.708664,1.9987402)" stroke-width=".3985" stroke-linecap="butt" stroke-miterlimit="10" stroke-linejoin="miter" fill="none" stroke="#000000" d="M85.04042 0V-11.33855"/>
<path transform="matrix(1.00003,0,0,-1.00009,3.708664,1.9987402)" stroke-width=".3985" stroke-linecap="butt" stroke-miterlimit="10" stroke-linejoin="miter" fill="none" stroke="#000000" d="M99.21382 0V-11.33855"/>
<path transform="matrix(1.00003,0,0,-1.00009,3.708664,1.9987402)" stroke-width=".3985" stroke-linecap="butt" stroke-miterlimit="10" stroke-linejoin="miter" fill="none" stroke="#000000" d="M113.38724 0V-11.33855"/>
<path transform="matrix(1.00003,0,0,-1.00009,3.708664,1.9987402)" stroke-width=".3985" stroke-linecap="butt" stroke-miterlimit="10" stroke-linejoin="miter" fill="none" stroke="#000000" d="M127.56062 0V-11.33855"/>
<path transform="matrix(1.00003,0,0,-1.00009,3.708664,1.9987402)" stroke-width=".3985" stroke-linecap="butt" stroke-miterlimit="10" stroke-linejoin="miter" fill="none" stroke="#000000" d="M141.73404 0V-11.33855"/>
<path transform="matrix(1.00003,0,0,-1.00009,3.708664,1.9987402)" stroke-width=".3985" stroke-linecap="butt" stroke-miterlimit="10" stroke-linejoin="miter" fill="none" stroke="#000000" d="M155.90744 0V-11.33855"/>
<path transform="matrix(1.00003,0,0,-1.00009,3.708664,1.9987402)" stroke-width=".3985" stroke-linecap="butt" stroke-miterlimit="10" stroke-linejoin="miter" fill="none" stroke="#000000" d="M170.08086 0V-11.33855"/>
<path transform="matrix(1.00003,0,0,-1.00009,3.708664,1.9987402)" stroke-width=".3985" stroke-linecap="butt" stroke-miterlimit="10" stroke-linejoin="miter" fill="none" stroke="#000000" d="M184.25424 0V-11.33855"/>
<path transform="matrix(1.00003,0,0,-1.00009,3.708664,1.9987402)" stroke-width=".3985" stroke-linecap="butt" stroke-miterlimit="10" stroke-linejoin="miter" fill="none" stroke="#000000" d="M198.42766 0V-11.33855"/>
<path transform="matrix(1.00003,0,0,-1.00009,3.708664,1.9987402)" stroke-width=".3985" stroke-linecap="butt" stroke-miterlimit="10" stroke-linejoin="miter" fill="none" stroke="#000000" d="M212.60106 0V-11.33855"/>
<path transform="matrix(1.00003,0,0,-1.00009,3.708664,1.9987402)" stroke-width=".3985" stroke-linecap="butt" stroke-miterlimit="10" stroke-linejoin="miter" fill="none" stroke="#000000" d="M226.77448 0V-11.33855"/>
<path transform="matrix(1.00003,0,0,-1.00009,3.708664,1.9987402)" stroke-width=".3985" stroke-linecap="butt" stroke-miterlimit="10" stroke-linejoin="miter" fill="none" stroke="#000000" d="M240.94788 0V-11.33855"/>
<path transform="matrix(1.00003,0,0,-1.00009,3.708664,1.9987402)" stroke-width=".3985" stroke-linecap="butt" stroke-miterlimit="10" stroke-linejoin="miter" fill="none" stroke="#000000" d="M255.12128 0V-11.33855"/>
<path transform="matrix(1.00003,0,0,-1.00009,3.708664,1.9987402)" stroke-width=".3985" stroke-linecap="butt" stroke-miterlimit="10" stroke-linejoin="miter" fill="none" stroke="#000000" d="M269.29469 0V-11.33855"/>
<path transform="matrix(1.00003,0,0,-1.00009,3.708664,1.9987402)" stroke-width=".3985" stroke-linecap="butt" stroke-miterlimit="10" stroke-linejoin="miter" fill="none" stroke="#000000" d="M28.3468 0V-17.00824"/>
<path transform="matrix(1.00003,0,0,-1.00009,3.708664,1.9987402)" stroke-width=".3985" stroke-linecap="butt" stroke-miterlimit="10" stroke-linejoin="miter" fill="none" stroke="#000000" d="M56.69362 0V-17.00824"/>
<path transform="matrix(1.00003,0,0,-1.00009,3.708664,1.9987402)" stroke-width=".3985" stroke-linecap="butt" stroke-miterlimit="10" stroke-linejoin="miter" fill="none" stroke="#000000" d="M85.04042 0V-17.00824"/>
<path transform="matrix(1.00003,0,0,-1.00009,3.708664,1.9987402)" stroke-width=".3985" stroke-linecap="butt" stroke-miterlimit="10" stroke-linejoin="miter" fill="none" stroke="#000000" d="M113.38724 0V-17.00824"/>
<path transform="matrix(1.00003,0,0,-1.00009,3.708664,1.9987402)" stroke-width=".3985" stroke-linecap="butt" stroke-miterlimit="10" stroke-linejoin="miter" fill="none" stroke="#000000" d="M141.73404 0V-17.00824"/>
<path transform="matrix(1.00003,0,0,-1.00009,3.708664,1.9987402)" stroke-width=".3985" stroke-linecap="butt" stroke-miterlimit="10" stroke-linejoin="miter" fill="none" stroke="#000000" d="M170.08086 0V-17.00824"/>
<path transform="matrix(1.00003,0,0,-1.00009,3.708664,1.9987402)" stroke-width=".3985" stroke-linecap="butt" stroke-miterlimit="10" stroke-linejoin="miter" fill="none" stroke="#000000" d="M198.42766 0V-17.00824"/>
<path transform="matrix(1.00003,0,0,-1.00009,3.708664,1.9987402)" stroke-width=".3985" stroke-linecap="butt" stroke-miterlimit="10" stroke-linejoin="miter" fill="none" stroke="#000000" d="M226.77448 0V-17.00824"/>
<path transform="matrix(1.00003,0,0,-1.00009,3.708664,1.9987402)" stroke-width=".3985" stroke-linecap="butt" stroke-miterlimit="10" stroke-linejoin="miter" fill="none" stroke="#000000" d="M255.12128 0V-17.00824"/>
</svg>
